<?xml version="1.0" encoding="UTF-8" standalone="no"?>
<!DOCTYPE svg PUBLIC "-//W3C//DTD SVG 1.1//EN"
 "http://www.w3.org/Graphics/SVG/1.1/DTD/svg11.dtd">
<!-- Generated by graphviz version 2.40.1 (20161225.0304)
 -->
<!-- Title: dependencies Pages: 1 -->
<svg width="1019pt" height="1490pt"
 viewBox="0.00 0.00 1018.63 1489.90" xmlns="http://www.w3.org/2000/svg" xmlns:xlink="http://www.w3.org/1999/xlink">
<g id="graph0" class="graph" transform="scale(1 1) rotate(0) translate(4 1485.9048)">
<title>dependencies</title>
<polygon fill="#ffffff" stroke="transparent" points="-4,4 -4,-1485.9048 1014.6263,-1485.9048 1014.6263,4 -4,4"/>
<!-- urdfdom -->
<g id="node1" class="node">
<title>urdfdom</title>
<ellipse fill="none" stroke="#000000" cx="378.7728" cy="-760.9048" rx="43.5923" ry="18"/>
<text text-anchor="middle" x="378.7728" y="-757.2048" font-family="Times,serif" font-size="14.00" fill="#000000">urdfdom</text>
</g>
<!-- urdfdom&#45;headers -->
<g id="node2" class="node">
<title>urdfdom&#45;headers</title>
<ellipse fill="none" stroke="#000000" cx="212.7843" cy="-806.9048" rx="74.187" ry="18"/>
<text text-anchor="middle" x="212.7843" y="-803.2048" font-family="Times,serif" font-size="14.00" fill="#000000">urdfdom&#45;headers</text>
</g>
<!-- urdfdom&#45;&gt;urdfdom&#45;headers -->
<g id="edge34" class="edge">
<title>urdfdom&#45;&gt;urdfdom&#45;headers</title>
<path fill="none" stroke="#000000" d="M342.3459,-770.9996C321.6371,-776.7386 295.209,-784.0626 271.6296,-790.5971"/>
<polygon fill="#000000" stroke="#000000" points="270.4256,-787.2988 261.7235,-793.3423 272.2951,-794.0445 270.4256,-787.2988"/>
</g>
<!-- console&#45;bridge -->
<g id="node20" class="node">
<title>console&#45;bridge</title>
<ellipse fill="none" stroke="#000000" cx="212.7843" cy="-936.9048" rx="65.7887" ry="18"/>
<text text-anchor="middle" x="212.7843" y="-933.2048" font-family="Times,serif" font-size="14.00" fill="#000000">console&#45;bridge</text>
</g>
<!-- urdfdom&#45;&gt;console&#45;bridge -->
<g id="edge33" class="edge">
<title>urdfdom&#45;&gt;console&#45;bridge</title>
<path fill="none" stroke="#000000" d="M346.7114,-773.1257C338.4608,-777.1175 329.9296,-782.0582 322.8777,-787.9048 317.1132,-792.684 261.4615,-869.3783 231.5644,-910.8148"/>
<polygon fill="#000000" stroke="#000000" points="228.6123,-908.9247 225.6028,-919.0831 234.2903,-913.0186 228.6123,-908.9247"/>
</g>
<!-- cmake -->
<g id="node21" class="node">
<title>cmake</title>
<ellipse fill="none" stroke="#000000" cx="51.3454" cy="-646.9048" rx="34.394" ry="18"/>
<text text-anchor="middle" x="51.3454" y="-643.2048" font-family="Times,serif" font-size="14.00" fill="#000000">cmake</text>
</g>
<!-- urdfdom&#45;&gt;cmake -->
<g id="edge31" class="edge">
<title>urdfdom&#45;&gt;cmake</title>
<path fill="none" stroke="#000000" d="M338.1344,-754.0664C289.4555,-745.053 206.0432,-726.9732 138.6909,-698.9048 118.3487,-690.4273 97.0689,-677.8474 80.6065,-667.1844"/>
<polygon fill="#000000" stroke="#000000" points="82.2662,-664.0862 71.9929,-661.496 78.4087,-669.9274 82.2662,-664.0862"/>
</g>
<!-- tinyxml -->
<g id="node28" class="node">
<title>tinyxml</title>
<ellipse fill="none" stroke="#000000" cx="212.7843" cy="-1028.9048" rx="40.0939" ry="18"/>
<text text-anchor="middle" x="212.7843" y="-1025.2048" font-family="Times,serif" font-size="14.00" fill="#000000">tinyxml</text>
</g>
<!-- urdfdom&#45;&gt;tinyxml -->
<g id="edge32" class="edge">
<title>urdfdom&#45;&gt;tinyxml</title>
<path fill="none" stroke="#000000" d="M343.9299,-771.7031C335.99,-775.654 328.3048,-780.9305 322.8777,-787.9048 273.8445,-850.9164 326.9799,-894.8647 286.8777,-963.9048 276.5802,-981.6331 259.692,-997.0047 244.6379,-1008.3424"/>
<polygon fill="#000000" stroke="#000000" points="242.5689,-1005.5193 236.5167,-1014.2154 246.6709,-1011.1915 242.5689,-1005.5193"/>
</g>
<!-- urdfdom&#45;headers&#45;&gt;cmake -->
<g id="edge49" class="edge">
<title>urdfdom&#45;headers&#45;&gt;cmake</title>
<path fill="none" stroke="#000000" d="M168.136,-792.4422C157.8154,-787.8388 147.3373,-782.0386 138.6909,-774.9048 104.5722,-746.7546 78.2506,-701.966 63.784,-673.5221"/>
<polygon fill="#000000" stroke="#000000" points="66.9144,-671.9564 59.3382,-664.5501 60.6422,-675.0644 66.9144,-671.9564"/>
</g>
<!-- fftw -->
<g id="node3" class="node">
<title>fftw</title>
<ellipse fill="none" stroke="#000000" cx="51.3454" cy="-67.9048" rx="27" ry="18"/>
<text text-anchor="middle" x="51.3454" y="-64.2048" font-family="Times,serif" font-size="14.00" fill="#000000">fftw</text>
</g>
<!-- gcc&#45;fortran -->
<g id="node4" class="node">
<title>gcc&#45;fortran</title>
<ellipse fill="none" stroke="#000000" cx="51.3454" cy="-283.9048" rx="51.1914" ry="18"/>
<text text-anchor="middle" x="51.3454" y="-280.2048" font-family="Times,serif" font-size="14.00" fill="#000000">gcc&#45;fortran</text>
</g>
<!-- srdfdom&#45;git -->
<g id="node5" class="node">
<title>srdfdom&#45;git</title>
<ellipse fill="none" stroke="#000000" cx="378.7728" cy="-975.9048" rx="54.6905" ry="18"/>
<text text-anchor="middle" x="378.7728" y="-972.2048" font-family="Times,serif" font-size="14.00" fill="#000000">srdfdom&#45;git</text>
</g>
<!-- srdfdom&#45;git&#45;&gt;urdfdom&#45;headers -->
<g id="edge44" class="edge">
<title>srdfdom&#45;git&#45;&gt;urdfdom&#45;headers</title>
<path fill="none" stroke="#000000" d="M361.9435,-958.7701C332.5195,-928.8123 271.6101,-866.7978 237.428,-831.9955"/>
<polygon fill="#000000" stroke="#000000" points="239.6605,-829.2736 230.1562,-824.5918 234.6664,-834.1787 239.6605,-829.2736"/>
</g>
<!-- doxygen -->
<g id="node7" class="node">
<title>doxygen</title>
<ellipse fill="none" stroke="#000000" cx="212.7843" cy="-1234.9048" rx="44.393" ry="18"/>
<text text-anchor="middle" x="212.7843" y="-1231.2048" font-family="Times,serif" font-size="14.00" fill="#000000">doxygen</text>
</g>
<!-- srdfdom&#45;git&#45;&gt;doxygen -->
<g id="edge39" class="edge">
<title>srdfdom&#45;git&#45;&gt;doxygen</title>
<path fill="none" stroke="#000000" d="M361.2317,-993.1964C349.2941,-1005.6536 333.7497,-1023.3041 322.8777,-1040.9048 301.102,-1076.1575 306.7022,-1090.5189 286.8777,-1126.9048 270.7189,-1156.5628 248.3677,-1188.1629 232.4499,-1209.4671"/>
<polygon fill="#000000" stroke="#000000" points="229.501,-1207.5644 226.2699,-1217.6545 235.088,-1211.7816 229.501,-1207.5644"/>
</g>
<!-- git -->
<g id="node11" class="node">
<title>git</title>
<ellipse fill="none" stroke="#000000" cx="212.7843" cy="-1288.9048" rx="27" ry="18"/>
<text text-anchor="middle" x="212.7843" y="-1285.2048" font-family="Times,serif" font-size="14.00" fill="#000000">git</text>
</g>
<!-- srdfdom&#45;git&#45;&gt;git -->
<g id="edge41" class="edge">
<title>srdfdom&#45;git&#45;&gt;git</title>
<path fill="none" stroke="#000000" d="M359.3483,-993.0007C346.8887,-1005.105 331.4861,-1022.4209 322.8777,-1040.9048 280.8634,-1131.1178 350.3322,-1185.2423 286.8777,-1261.9048 277.5349,-1273.1922 263.0542,-1279.7609 249.3644,-1283.5835"/>
<polygon fill="#000000" stroke="#000000" points="248.5344,-1280.1832 239.6206,-1285.9099 250.16,-1286.9919 248.5344,-1280.1832"/>
</g>
<!-- boost -->
<g id="node14" class="node">
<title>boost</title>
<ellipse fill="none" stroke="#000000" cx="51.3454" cy="-1150.9048" rx="31.3957" ry="18"/>
<text text-anchor="middle" x="51.3454" y="-1147.2048" font-family="Times,serif" font-size="14.00" fill="#000000">boost</text>
</g>
<!-- srdfdom&#45;git&#45;&gt;boost -->
<g id="edge42" class="edge">
<title>srdfdom&#45;git&#45;&gt;boost</title>
<path fill="none" stroke="#000000" d="M347.6787,-990.7432C339.1611,-995.5725 330.2519,-1001.3897 322.8777,-1007.9048 302.8935,-1025.5609 308.0202,-1039.6533 286.8777,-1055.9048 226.374,-1102.4118 140.0231,-1129.4568 90.4298,-1142.098"/>
<polygon fill="#000000" stroke="#000000" points="89.5859,-1138.7012 80.7236,-1144.5072 91.2723,-1145.495 89.5859,-1138.7012"/>
</g>
<!-- srdfdom&#45;git&#45;&gt;console&#45;bridge -->
<g id="edge45" class="edge">
<title>srdfdom&#45;git&#45;&gt;console&#45;bridge</title>
<path fill="none" stroke="#000000" d="M334.2909,-965.4535C315.3098,-960.9937 292.8755,-955.7227 272.4829,-950.9313"/>
<polygon fill="#000000" stroke="#000000" points="273.1956,-947.5035 262.6602,-948.6234 271.5945,-954.318 273.1956,-947.5035"/>
</g>
<!-- srdfdom&#45;git&#45;&gt;cmake -->
<g id="edge40" class="edge">
<title>srdfdom&#45;git&#45;&gt;cmake</title>
<path fill="none" stroke="#000000" d="M336.2771,-987.3818C283.8161,-998.7926 194.6885,-1008.8127 138.6909,-963.9048 92.9429,-927.2166 64.3669,-745.2406 54.8659,-674.8091"/>
<polygon fill="#000000" stroke="#000000" points="58.3336,-674.3342 53.5537,-664.8789 51.394,-675.2513 58.3336,-674.3342"/>
</g>
<!-- srdfdom&#45;git&#45;&gt;tinyxml -->
<g id="edge43" class="edge">
<title>srdfdom&#45;git&#45;&gt;tinyxml</title>
<path fill="none" stroke="#000000" d="M339.4358,-988.465C314.1031,-996.5537 281.1842,-1007.0647 255.2571,-1015.3432"/>
<polygon fill="#000000" stroke="#000000" points="254.1545,-1012.0211 245.693,-1018.397 256.2838,-1018.6894 254.1545,-1012.0211"/>
</g>
<!-- hpp&#45;fcl -->
<g id="node6" class="node">
<title>hpp&#45;fcl</title>
<ellipse fill="none" stroke="#000000" cx="378.7728" cy="-278.9048" rx="37.8943" ry="18"/>
<text text-anchor="middle" x="378.7728" y="-275.2048" font-family="Times,serif" font-size="14.00" fill="#000000">hpp&#45;fcl</text>
</g>
<!-- hpp&#45;fcl&#45;&gt;cmake -->
<g id="edge55" class="edge">
<title>hpp&#45;fcl&#45;&gt;cmake</title>
<path fill="none" stroke="#000000" d="M343.2744,-272.4872C291.5686,-265.3258 195.5273,-260.6023 138.6909,-310.9048 92.1115,-352.1293 63.8626,-545.3001 54.6654,-618.6"/>
<polygon fill="#000000" stroke="#000000" points="51.1451,-618.5519 53.3997,-628.9041 58.0928,-619.4054 51.1451,-618.5519"/>
</g>
<!-- eigen32 -->
<g id="node22" class="node">
<title>eigen32</title>
<ellipse fill="none" stroke="#000000" cx="212.7843" cy="-202.9048" rx="40.0939" ry="18"/>
<text text-anchor="middle" x="212.7843" y="-199.2048" font-family="Times,serif" font-size="14.00" fill="#000000">eigen32</text>
</g>
<!-- hpp&#45;fcl&#45;&gt;eigen32 -->
<g id="edge56" class="edge">
<title>hpp&#45;fcl&#45;&gt;eigen32</title>
<path fill="none" stroke="#000000" d="M351.3632,-266.3549C323.7418,-253.7081 280.9185,-234.1009 250.1872,-220.0302"/>
<polygon fill="#000000" stroke="#000000" points="251.6177,-216.8358 241.0684,-215.855 248.7036,-223.2003 251.6177,-216.8358"/>
</g>
<!-- assimp -->
<g id="node25" class="node">
<title>assimp</title>
<ellipse fill="none" stroke="#000000" cx="212.7843" cy="-133.9048" rx="36.2938" ry="18"/>
<text text-anchor="middle" x="212.7843" y="-130.2048" font-family="Times,serif" font-size="14.00" fill="#000000">assimp</text>
</g>
<!-- hpp&#45;fcl&#45;&gt;assimp -->
<g id="edge57" class="edge">
<title>hpp&#45;fcl&#45;&gt;assimp</title>
<path fill="none" stroke="#000000" d="M366.2314,-261.6548C349.7649,-239.826 319.1407,-201.9414 286.8777,-175.9048 275.211,-166.4895 261.1632,-157.9441 248.4506,-151.0563"/>
<polygon fill="#000000" stroke="#000000" points="249.9634,-147.8975 239.4829,-146.3452 246.7079,-154.0944 249.9634,-147.8975"/>
</g>
<!-- hpp&#45;util&#45;git -->
<g id="node8" class="node">
<title>hpp&#45;util&#45;git</title>
<ellipse fill="none" stroke="#000000" cx="378.7728" cy="-1067.9048" rx="53.0913" ry="18"/>
<text text-anchor="middle" x="378.7728" y="-1064.2048" font-family="Times,serif" font-size="14.00" fill="#000000">hpp&#45;util&#45;git</text>
</g>
<!-- hpp&#45;util&#45;git&#45;&gt;doxygen -->
<g id="edge50" class="edge">
<title>hpp&#45;util&#45;git&#45;&gt;doxygen</title>
<path fill="none" stroke="#000000" d="M345.1139,-1082.0483C336.9642,-1086.7537 328.8822,-1092.6819 322.8777,-1099.9048 291.8776,-1137.1955 319.9211,-1167.412 286.8777,-1202.9048 279.57,-1210.7542 270.0089,-1216.7704 260.195,-1221.348"/>
<polygon fill="#000000" stroke="#000000" points="258.6356,-1218.2067 250.7736,-1225.3088 261.3486,-1224.6597 258.6356,-1218.2067"/>
</g>
<!-- hpp&#45;util&#45;git&#45;&gt;git -->
<g id="edge52" class="edge">
<title>hpp&#45;util&#45;git&#45;&gt;git</title>
<path fill="none" stroke="#000000" d="M372.3001,-1085.8131C356.443,-1128.8409 314.9079,-1236.3654 286.8777,-1261.9048 276.3133,-1271.5304 262.0443,-1277.7955 248.8488,-1281.8401"/>
<polygon fill="#000000" stroke="#000000" points="247.7699,-1278.5065 239.0464,-1284.5191 249.6154,-1285.2589 247.7699,-1278.5065"/>
</g>
<!-- hpp&#45;util&#45;git&#45;&gt;boost -->
<g id="edge53" class="edge">
<title>hpp&#45;util&#45;git&#45;&gt;boost</title>
<path fill="none" stroke="#000000" d="M346.4952,-1082.438C338.1525,-1087.1988 329.6292,-1093.057 322.8777,-1099.9048 299.6924,-1123.4208 315.329,-1148.1389 286.8777,-1164.9048 224.311,-1201.7743 135.4434,-1180.8635 86.7092,-1164.5187"/>
<polygon fill="#000000" stroke="#000000" points="87.8248,-1161.2011 77.23,-1161.2259 85.5278,-1167.8135 87.8248,-1161.2011"/>
</g>
<!-- hpp&#45;util&#45;git&#45;&gt;cmake -->
<g id="edge51" class="edge">
<title>hpp&#45;util&#45;git&#45;&gt;cmake</title>
<path fill="none" stroke="#000000" d="M337.676,-1079.487C285.0272,-1091.6005 193.9875,-1102.9713 138.6909,-1055.9048 131.2699,-1049.5882 74.8359,-766.0637 56.8407,-674.8515"/>
<polygon fill="#000000" stroke="#000000" points="60.2571,-674.0852 54.8894,-664.9508 53.3892,-675.4389 60.2571,-674.0852"/>
</g>
<!-- hpp&#45;util&#45;git&#45;&gt;tinyxml -->
<g id="edge54" class="edge">
<title>hpp&#45;util&#45;git&#45;&gt;tinyxml</title>
<path fill="none" stroke="#000000" d="M334.7267,-1057.5559C311.1957,-1052.0271 282.2626,-1045.2291 258.4854,-1039.6425"/>
<polygon fill="#000000" stroke="#000000" points="259.1771,-1036.2098 248.6417,-1037.3297 257.576,-1043.0242 259.1771,-1036.2098"/>
</g>
<!-- metapod&#45;git -->
<g id="node9" class="node">
<title>metapod&#45;git</title>
<ellipse fill="none" stroke="#000000" cx="378.7728" cy="-446.9048" rx="55.7903" ry="18"/>
<text text-anchor="middle" x="378.7728" y="-443.2048" font-family="Times,serif" font-size="14.00" fill="#000000">metapod&#45;git</text>
</g>
<!-- romeo_description -->
<g id="node10" class="node">
<title>romeo_description</title>
<ellipse fill="none" stroke="#000000" cx="737.3973" cy="-511.9048" rx="80.6858" ry="18"/>
<text text-anchor="middle" x="737.3973" y="-508.2048" font-family="Times,serif" font-size="14.00" fill="#000000">romeo_description</text>
</g>
<!-- srdfdom -->
<g id="node12" class="node">
<title>srdfdom</title>
<ellipse fill="none" stroke="#000000" cx="545.4112" cy="-718.9048" rx="42.4939" ry="18"/>
<text text-anchor="middle" x="545.4112" y="-715.2048" font-family="Times,serif" font-size="14.00" fill="#000000">srdfdom</text>
</g>
<!-- gcc&#45;libs -->
<g id="node13" class="node">
<title>gcc&#45;libs</title>
<ellipse fill="none" stroke="#000000" cx="51.3454" cy="-936.9048" rx="39.7935" ry="18"/>
<text text-anchor="middle" x="51.3454" y="-933.2048" font-family="Times,serif" font-size="14.00" fill="#000000">gcc&#45;libs</text>
</g>
<!-- hpp_environments -->
<g id="node15" class="node">
<title>hpp_environments</title>
<ellipse fill="none" stroke="#000000" cx="737.3973" cy="-250.9048" rx="81.4863" ry="18"/>
<text text-anchor="middle" x="737.3973" y="-247.2048" font-family="Times,serif" font-size="14.00" fill="#000000">hpp_environments</text>
</g>
<!-- pinocchio -->
<g id="node16" class="node">
<title>pinocchio</title>
<ellipse fill="none" stroke="#000000" cx="545.4112" cy="-484.9048" rx="48.1917" ry="18"/>
<text text-anchor="middle" x="545.4112" y="-481.2048" font-family="Times,serif" font-size="14.00" fill="#000000">pinocchio</text>
</g>
<!-- pinocchio&#45;&gt;urdfdom -->
<g id="edge30" class="edge">
<title>pinocchio&#45;&gt;urdfdom</title>
<path fill="none" stroke="#000000" d="M515.6728,-499.3145C500.526,-507.894 482.7976,-520.018 470.6678,-534.9048 467.3325,-538.9982 413.4082,-673.9097 389.752,-733.3021"/>
<polygon fill="#000000" stroke="#000000" points="386.4131,-732.2262 385.9659,-742.8116 392.9166,-734.8155 386.4131,-732.2262"/>
</g>
<!-- pinocchio&#45;&gt;hpp&#45;fcl -->
<g id="edge28" class="edge">
<title>pinocchio&#45;&gt;hpp&#45;fcl</title>
<path fill="none" stroke="#000000" d="M531.2037,-467.3413C501.5411,-430.6721 432.9568,-345.8875 398.8218,-303.6896"/>
<polygon fill="#000000" stroke="#000000" points="401.4862,-301.4182 392.4759,-295.8447 396.0439,-305.8206 401.4862,-301.4182"/>
</g>
<!-- pinocchio&#45;&gt;metapod&#45;git -->
<g id="edge24" class="edge">
<title>pinocchio&#45;&gt;metapod&#45;git</title>
<path fill="none" stroke="#000000" d="M504.2197,-475.5115C483.1468,-470.7061 457.1949,-464.788 434.374,-459.584"/>
<polygon fill="#000000" stroke="#000000" points="435.0024,-456.1375 424.4745,-457.3265 433.446,-462.9623 435.0024,-456.1375"/>
</g>
<!-- pinocchio&#45;&gt;cmake -->
<g id="edge26" class="edge">
<title>pinocchio&#45;&gt;cmake</title>
<path fill="none" stroke="#000000" d="M524.8925,-468.2851C503.7425,-452.3118 469.0885,-429.26 434.6678,-419.9048 307.3109,-385.2901 243.9932,-364.3475 138.6909,-443.9048 82.0102,-486.7278 61.6283,-573.7981 54.6883,-618.7092"/>
<polygon fill="#000000" stroke="#000000" points="51.2173,-618.2585 53.2666,-628.6532 58.1468,-619.2493 51.2173,-618.2585"/>
</g>
<!-- pinocchio&#45;&gt;eigen32 -->
<g id="edge27" class="edge">
<title>pinocchio&#45;&gt;eigen32</title>
<path fill="none" stroke="#000000" d="M527.4636,-468.0452C505.9403,-448.0589 468.5214,-414.0424 434.6678,-386.9048 386.7947,-348.5288 370.2148,-344.94 322.8777,-305.9048 291.8077,-280.2837 258.317,-248.2545 236.5385,-226.7747"/>
<polygon fill="#000000" stroke="#000000" points="238.9125,-224.1997 229.3467,-219.6447 233.9841,-229.1708 238.9125,-224.1997"/>
</g>
<!-- lua51 -->
<g id="node29" class="node">
<title>lua51</title>
<ellipse fill="none" stroke="#000000" cx="378.7728" cy="-500.9048" rx="31.6951" ry="18"/>
<text text-anchor="middle" x="378.7728" y="-497.2048" font-family="Times,serif" font-size="14.00" fill="#000000">lua51</text>
</g>
<!-- pinocchio&#45;&gt;lua51 -->
<g id="edge25" class="edge">
<title>pinocchio&#45;&gt;lua51</title>
<path fill="none" stroke="#000000" d="M498.5496,-489.4042C473.98,-491.7633 444.1417,-494.6283 420.393,-496.9085"/>
<polygon fill="#000000" stroke="#000000" points="419.9065,-493.4391 410.2868,-497.8789 420.5756,-500.407 419.9065,-493.4391"/>
</g>
<!-- eigenpy -->
<g id="node37" class="node">
<title>eigenpy</title>
<ellipse fill="none" stroke="#000000" cx="378.7728" cy="-592.9048" rx="40.0939" ry="18"/>
<text text-anchor="middle" x="378.7728" y="-589.2048" font-family="Times,serif" font-size="14.00" fill="#000000">eigenpy</text>
</g>
<!-- pinocchio&#45;&gt;eigenpy -->
<g id="edge29" class="edge">
<title>pinocchio&#45;&gt;eigenpy</title>
<path fill="none" stroke="#000000" d="M521.1805,-500.6089C491.8896,-519.5927 442.5255,-551.586 410.2972,-572.4735"/>
<polygon fill="#000000" stroke="#000000" points="408.1806,-569.6744 401.6925,-578.0503 411.9877,-575.5486 408.1806,-569.6744"/>
</g>
<!-- hpp&#45;statistics&#45;git -->
<g id="node17" class="node">
<title>hpp&#45;statistics&#45;git</title>
<ellipse fill="none" stroke="#000000" cx="545.4112" cy="-1086.9048" rx="71.4873" ry="18"/>
<text text-anchor="middle" x="545.4112" y="-1083.2048" font-family="Times,serif" font-size="14.00" fill="#000000">hpp&#45;statistics&#45;git</text>
</g>
<!-- hpp&#45;statistics&#45;git&#45;&gt;doxygen -->
<g id="edge79" class="edge">
<title>hpp&#45;statistics&#45;git&#45;&gt;doxygen</title>
<path fill="none" stroke="#000000" d="M474.7507,-1090.0094C428.1885,-1095.0368 367.7569,-1107.5119 322.8777,-1137.9048 299.6035,-1153.6665 307.3387,-1170.6311 286.8777,-1189.9048 276.1229,-1200.0355 262.7205,-1209.014 250.2828,-1216.2341"/>
<polygon fill="#000000" stroke="#000000" points="248.4696,-1213.2379 241.4483,-1221.1721 251.885,-1219.3482 248.4696,-1213.2379"/>
</g>
<!-- hpp&#45;statistics&#45;git&#45;&gt;hpp&#45;util&#45;git -->
<g id="edge82" class="edge">
<title>hpp&#45;statistics&#45;git&#45;&gt;hpp&#45;util&#45;git</title>
<path fill="none" stroke="#000000" d="M480.0296,-1079.45C466.5875,-1077.9173 452.4915,-1076.3101 439.2326,-1074.7983"/>
<polygon fill="#000000" stroke="#000000" points="439.6134,-1071.3192 429.2813,-1073.6637 438.8204,-1078.2741 439.6134,-1071.3192"/>
</g>
<!-- hpp&#45;statistics&#45;git&#45;&gt;git -->
<g id="edge81" class="edge">
<title>hpp&#45;statistics&#45;git&#45;&gt;git</title>
<path fill="none" stroke="#000000" d="M527.3325,-1104.4529C511.2066,-1120.7115 487.5976,-1146.0633 470.6678,-1170.9048 450.743,-1200.141 462.7231,-1220.3489 434.6678,-1241.9048 406.141,-1263.823 305.2964,-1278.3969 249.903,-1284.9443"/>
<polygon fill="#000000" stroke="#000000" points="249.3241,-1281.4877 239.7907,-1286.11 250.1258,-1288.4417 249.3241,-1281.4877"/>
</g>
<!-- hpp&#45;statistics&#45;git&#45;&gt;cmake -->
<g id="edge80" class="edge">
<title>hpp&#45;statistics&#45;git&#45;&gt;cmake</title>
<path fill="none" stroke="#000000" d="M541.1775,-1068.8071C530.7422,-1028.5281 499.7695,-931.3787 434.6678,-884.9048 326.026,-807.3489 244.7749,-914.9241 138.6909,-833.9048 86.9526,-794.3907 64.6579,-716.7749 56.0738,-675.0418"/>
<polygon fill="#000000" stroke="#000000" points="59.4685,-674.1614 54.1335,-665.0079 52.5959,-675.4905 59.4685,-674.1614"/>
</g>
<!-- qt4 -->
<g id="node18" class="node">
<title>qt4</title>
<ellipse fill="none" stroke="#000000" cx="51.3454" cy="-229.9048" rx="27" ry="18"/>
<text text-anchor="middle" x="51.3454" y="-226.2048" font-family="Times,serif" font-size="14.00" fill="#000000">qt4</text>
</g>
<!-- urdf&#45;git -->
<g id="node19" class="node">
<title>urdf&#45;git</title>
<ellipse fill="none" stroke="#000000" cx="545.4112" cy="-1197.9048" rx="38.9931" ry="18"/>
<text text-anchor="middle" x="545.4112" y="-1194.2048" font-family="Times,serif" font-size="14.00" fill="#000000">urdf&#45;git</text>
</g>
<!-- urdf&#45;git&#45;&gt;urdfdom -->
<g id="edge93" class="edge">
<title>urdf&#45;git&#45;&gt;urdfdom</title>
<path fill="none" stroke="#000000" d="M525.7724,-1182.2027C508.0927,-1166.8342 483.0452,-1141.7281 470.6678,-1113.9048 411.4194,-980.7191 518.8176,-906.9325 434.6678,-787.9048 431.5971,-783.5612 427.6325,-779.8889 423.233,-776.7904"/>
<polygon fill="#000000" stroke="#000000" points="424.7413,-773.6154 414.357,-771.5136 421.1641,-779.6324 424.7413,-773.6154"/>
</g>
<!-- urdf&#45;git&#45;&gt;doxygen -->
<g id="edge89" class="edge">
<title>urdf&#45;git&#45;&gt;doxygen</title>
<path fill="none" stroke="#000000" d="M507.2547,-1202.1491C447.767,-1208.7663 332.7749,-1221.5575 265.4381,-1229.0478"/>
<polygon fill="#000000" stroke="#000000" points="265.0104,-1225.5737 255.4586,-1230.1578 265.7843,-1232.5308 265.0104,-1225.5737"/>
</g>
<!-- urdf&#45;git&#45;&gt;git -->
<g id="edge91" class="edge">
<title>urdf&#45;git&#45;&gt;git</title>
<path fill="none" stroke="#000000" d="M529.6521,-1214.5231C509.6998,-1234.2852 473.2489,-1266.3028 434.6678,-1279.9048 372.5632,-1301.8001 294.5559,-1298.4843 249.5143,-1293.8525"/>
<polygon fill="#000000" stroke="#000000" points="249.6669,-1290.3481 239.3423,-1292.7255 248.896,-1297.3055 249.6669,-1290.3481"/>
</g>
<!-- urdf&#45;git&#45;&gt;boost -->
<g id="edge92" class="edge">
<title>urdf&#45;git&#45;&gt;boost</title>
<path fill="none" stroke="#000000" d="M533.1172,-1215.4014C514.8225,-1239.8516 477.9077,-1283.4257 434.6678,-1302.9048 314.6151,-1356.9871 251.4939,-1383.8241 138.6909,-1315.9048 89.198,-1286.1048 66.2819,-1217.8138 56.9268,-1179.0774"/>
<polygon fill="#000000" stroke="#000000" points="60.2643,-1177.9689 54.637,-1168.9921 53.438,-1179.5188 60.2643,-1177.9689"/>
</g>
<!-- urdf&#45;git&#45;&gt;cmake -->
<g id="edge90" class="edge">
<title>urdf&#45;git&#45;&gt;cmake</title>
<path fill="none" stroke="#000000" d="M526.4319,-1181.8884C509.2183,-1166.2977 484.4859,-1141.0415 470.6678,-1113.9048 436.609,-1047.0185 486.0793,-1003.5914 434.6678,-948.9048 341.0071,-849.2774 240.3009,-956.4107 138.6909,-864.9048 82.1943,-814.0261 61.6591,-721.6004 54.6722,-675.1505"/>
<polygon fill="#000000" stroke="#000000" points="58.1282,-674.5923 53.2754,-665.1742 51.1958,-675.5629 58.1282,-674.5923"/>
</g>
<!-- console&#45;bridge&#45;&gt;gcc&#45;libs -->
<g id="edge18" class="edge">
<title>console&#45;bridge&#45;&gt;gcc&#45;libs</title>
<path fill="none" stroke="#000000" d="M147.1209,-936.9048C131.8074,-936.9048 115.7444,-936.9048 101.243,-936.9048"/>
<polygon fill="#000000" stroke="#000000" points="100.9929,-933.4049 90.9929,-936.9048 100.9928,-940.4049 100.9929,-933.4049"/>
</g>
<!-- console&#45;bridge&#45;&gt;cmake -->
<g id="edge17" class="edge">
<title>console&#45;bridge&#45;&gt;cmake</title>
<path fill="none" stroke="#000000" d="M166.6491,-924.0131C156.3736,-919.3621 146.2887,-913.1465 138.6909,-904.9048 77.3464,-838.3618 58.9063,-727.1151 53.5057,-675.1977"/>
<polygon fill="#000000" stroke="#000000" points="56.9724,-674.6804 52.5405,-665.0571 50.0039,-675.3438 56.9724,-674.6804"/>
</g>
<!-- eigen32&#45;&gt;fftw -->
<g id="edge13" class="edge">
<title>eigen32&#45;&gt;fftw</title>
<path fill="none" stroke="#000000" d="M182.8048,-190.648C168.1926,-183.5726 151.1346,-173.5535 138.6909,-160.9048 115.258,-137.0858 126.4969,-118.3508 102.6909,-94.9048 97.3136,-89.6088 90.6848,-85.0998 83.9979,-81.3708"/>
<polygon fill="#000000" stroke="#000000" points="85.4552,-78.1853 74.9555,-76.7687 82.2801,-84.4238 85.4552,-78.1853"/>
</g>
<!-- eigen32&#45;&gt;gcc&#45;fortran -->
<g id="edge12" class="edge">
<title>eigen32&#45;&gt;gcc&#45;fortran</title>
<path fill="none" stroke="#000000" d="M182.4146,-214.8849C168.8325,-220.5311 152.7488,-227.6196 138.6909,-234.9048 122.0425,-243.5323 118.9976,-247.6475 102.6909,-256.9048 98.4786,-259.2961 94.0368,-261.7418 89.6005,-264.1372"/>
<polygon fill="#000000" stroke="#000000" points="87.7536,-261.1554 80.5771,-268.9495 91.0477,-267.3319 87.7536,-261.1554"/>
</g>
<!-- eigen32&#45;&gt;boost -->
<g id="edge16" class="edge">
<title>eigen32&#45;&gt;boost</title>
<path fill="none" stroke="#000000" d="M205.7668,-220.6901C190.5484,-260.1395 154.6024,-358.262 138.6909,-443.9048 96.3742,-671.6714 141.5523,-735.5232 102.6909,-963.9048 92.8732,-1021.6018 72.7125,-1087.1695 60.783,-1123.313"/>
<polygon fill="#000000" stroke="#000000" points="57.3557,-1122.5267 57.5087,-1133.1204 63.9954,-1124.7434 57.3557,-1122.5267"/>
</g>
<!-- eigen32&#45;&gt;qt4 -->
<g id="edge9" class="edge">
<title>eigen32&#45;&gt;qt4</title>
<path fill="none" stroke="#000000" d="M172.4629,-203.7142C145.5395,-207.0299 110.5373,-212.9923 85.0892,-218.6522"/>
<polygon fill="#000000" stroke="#000000" points="84.1051,-215.2877 75.1609,-220.9668 85.6944,-222.1049 84.1051,-215.2877"/>
</g>
<!-- eigen32&#45;&gt;qt4 -->
<g id="edge14" class="edge">
<title>eigen32&#45;&gt;qt4</title>
<path fill="none" stroke="#000000" d="M180.5028,-213.83C153.9854,-219.8026 116.4008,-226.177 88.6085,-229.4647"/>
<polygon fill="#000000" stroke="#000000" points="88.0426,-226.0055 78.4797,-230.5663 88.7996,-232.9644 88.0426,-226.0055"/>
</g>
<!-- eigen32&#45;&gt;cmake -->
<g id="edge10" class="edge">
<title>eigen32&#45;&gt;cmake</title>
<path fill="none" stroke="#000000" d="M176.3542,-211.017C162.6902,-215.8101 148.1881,-223.3037 138.6909,-234.9048 89.8821,-294.526 62.2377,-535.2312 53.9916,-618.4404"/>
<polygon fill="#000000" stroke="#000000" points="50.503,-618.1542 53.019,-628.446 57.4702,-618.8316 50.503,-618.1542"/>
</g>
<!-- freeglut -->
<g id="node34" class="node">
<title>freeglut</title>
<ellipse fill="none" stroke="#000000" cx="51.3454" cy="-175.9048" rx="38.9931" ry="18"/>
<text text-anchor="middle" x="51.3454" y="-172.2048" font-family="Times,serif" font-size="14.00" fill="#000000">freeglut</text>
</g>
<!-- eigen32&#45;&gt;freeglut -->
<g id="edge11" class="edge">
<title>eigen32&#45;&gt;freeglut</title>
<path fill="none" stroke="#000000" d="M174.9341,-196.5745C152.0194,-192.7421 122.6117,-187.8237 98.2316,-183.7463"/>
<polygon fill="#000000" stroke="#000000" points="98.5647,-180.2535 88.1244,-182.0559 97.41,-187.1576 98.5647,-180.2535"/>
</g>
<!-- suitesparse -->
<g id="node40" class="node">
<title>suitesparse</title>
<ellipse fill="none" stroke="#000000" cx="51.3454" cy="-121.9048" rx="50.0912" ry="18"/>
<text text-anchor="middle" x="51.3454" y="-118.2048" font-family="Times,serif" font-size="14.00" fill="#000000">suitesparse</text>
</g>
<!-- eigen32&#45;&gt;suitesparse -->
<g id="edge15" class="edge">
<title>eigen32&#45;&gt;suitesparse</title>
<path fill="none" stroke="#000000" d="M185.7631,-189.3472C159.5206,-176.1803 119.4199,-156.0603 89.844,-141.221"/>
<polygon fill="#000000" stroke="#000000" points="91.1499,-137.9603 80.6422,-136.6041 88.0107,-144.217 91.1499,-137.9603"/>
</g>
<!-- hpp&#45;model&#45;urdf -->
<g id="node23" class="node">
<title>hpp&#45;model&#45;urdf</title>
<ellipse fill="none" stroke="#000000" cx="737.3973" cy="-672.9048" rx="70.3881" ry="18"/>
<text text-anchor="middle" x="737.3973" y="-669.2048" font-family="Times,serif" font-size="14.00" fill="#000000">hpp&#45;model&#45;urdf</text>
</g>
<!-- hpp&#45;model&#45;urdf&#45;&gt;urdfdom -->
<g id="edge77" class="edge">
<title>hpp&#45;model&#45;urdf&#45;&gt;urdfdom</title>
<path fill="none" stroke="#000000" d="M716.5488,-690.4186C694.2754,-707.9838 657.1531,-734.0743 620.1546,-745.9048 557.802,-765.8423 481.8668,-767.0586 432.0206,-764.962"/>
<polygon fill="#000000" stroke="#000000" points="431.9509,-761.4547 421.7942,-764.4699 431.6144,-768.4466 431.9509,-761.4547"/>
</g>
<!-- hpp&#45;model&#45;urdf&#45;&gt;hpp&#45;util&#45;git -->
<g id="edge73" class="edge">
<title>hpp&#45;model&#45;urdf&#45;&gt;hpp&#45;util&#45;git</title>
<path fill="none" stroke="#000000" d="M725.9918,-690.9566C706.0142,-722.0919 662.7519,-787.4064 620.1546,-837.9048 559.4683,-909.8471 532.2743,-916.7488 470.6678,-987.9048 453.213,-1008.0652 454.6521,-1018.2486 434.6678,-1035.9048 429.8285,-1040.1803 424.3281,-1044.1553 418.7112,-1047.7477"/>
<polygon fill="#000000" stroke="#000000" points="416.6329,-1044.9133 409.8669,-1053.0663 420.2404,-1050.9122 416.6329,-1044.9133"/>
</g>
<!-- hpp&#45;model&#45;urdf&#45;&gt;srdfdom -->
<g id="edge78" class="edge">
<title>hpp&#45;model&#45;urdf&#45;&gt;srdfdom</title>
<path fill="none" stroke="#000000" d="M685.9486,-685.2319C656.8652,-692.2003 620.7724,-700.8482 592.4462,-707.6351"/>
<polygon fill="#000000" stroke="#000000" points="591.2982,-704.3111 582.389,-710.0449 592.9293,-711.1184 591.2982,-704.3111"/>
</g>
<!-- hpp&#45;model&#45;urdf&#45;&gt;cmake -->
<g id="edge71" class="edge">
<title>hpp&#45;model&#45;urdf&#45;&gt;cmake</title>
<path fill="none" stroke="#000000" d="M667.8396,-670.2687C527.1383,-664.9364 212.2464,-653.0026 95.7708,-648.5884"/>
<polygon fill="#000000" stroke="#000000" points="95.9026,-645.091 85.7772,-648.2096 95.6374,-652.0859 95.9026,-645.091"/>
</g>
<!-- hpp&#45;model&#45;urdf&#45;&gt;assimp -->
<g id="edge72" class="edge">
<title>hpp&#45;model&#45;urdf&#45;&gt;assimp</title>
<path fill="none" stroke="#000000" d="M723.0134,-655.1261C704.0669,-630.6149 671.3745,-584.3035 656.1546,-538.9048 631.1609,-464.3525 674.407,-243.8204 620.1546,-186.9048 524.4969,-86.5513 339.2223,-108.0435 255.5875,-124.1999"/>
<polygon fill="#000000" stroke="#000000" points="254.786,-120.7908 245.6668,-126.1844 256.1591,-127.6548 254.786,-120.7908"/>
</g>
<!-- hpp&#45;model -->
<g id="node32" class="node">
<title>hpp&#45;model</title>
<ellipse fill="none" stroke="#000000" cx="545.4112" cy="-213.9048" rx="51.9908" ry="18"/>
<text text-anchor="middle" x="545.4112" y="-210.2048" font-family="Times,serif" font-size="14.00" fill="#000000">hpp&#45;model</text>
</g>
<!-- hpp&#45;model&#45;urdf&#45;&gt;hpp&#45;model -->
<g id="edge74" class="edge">
<title>hpp&#45;model&#45;urdf&#45;&gt;hpp&#45;model</title>
<path fill="none" stroke="#000000" d="M724.781,-654.964C707.5628,-629.8931 676.5223,-582.5393 656.1546,-538.9048 606.7844,-433.1374 568.1484,-299.0266 552.7101,-241.8121"/>
<polygon fill="#000000" stroke="#000000" points="556.0638,-240.8049 550.1001,-232.048 549.3013,-242.6127 556.0638,-240.8049"/>
</g>
<!-- urdf -->
<g id="node35" class="node">
<title>urdf</title>
<ellipse fill="none" stroke="#000000" cx="545.4112" cy="-626.9048" rx="27" ry="18"/>
<text text-anchor="middle" x="545.4112" y="-623.2048" font-family="Times,serif" font-size="14.00" fill="#000000">urdf</text>
</g>
<!-- hpp&#45;model&#45;urdf&#45;&gt;urdf -->
<g id="edge75" class="edge">
<title>hpp&#45;model&#45;urdf&#45;&gt;urdf</title>
<path fill="none" stroke="#000000" d="M685.9486,-660.5776C652.664,-652.6026 610.1987,-642.4279 580.7015,-635.3603"/>
<polygon fill="#000000" stroke="#000000" points="581.3854,-631.9252 570.8451,-632.9987 579.7543,-638.7325 581.3854,-631.9252"/>
</g>
<!-- resource&#45;retriever -->
<g id="node39" class="node">
<title>resource&#45;retriever</title>
<ellipse fill="none" stroke="#000000" cx="545.4112" cy="-810.9048" rx="74.9875" ry="18"/>
<text text-anchor="middle" x="545.4112" y="-807.2048" font-family="Times,serif" font-size="14.00" fill="#000000">resource&#45;retriever</text>
</g>
<!-- hpp&#45;model&#45;urdf&#45;&gt;resource&#45;retriever -->
<g id="edge76" class="edge">
<title>hpp&#45;model&#45;urdf&#45;&gt;resource&#45;retriever</title>
<path fill="none" stroke="#000000" d="M719.3912,-690.5428C692.1228,-717.0138 641.2957,-765.3599 620.1546,-778.9048 612.8144,-783.6075 604.6659,-787.9036 596.5262,-791.7155"/>
<polygon fill="#000000" stroke="#000000" points="595.0799,-788.5282 587.3835,-795.8094 597.9407,-794.9169 595.0799,-788.5282"/>
</g>
<!-- boost&#45;libs -->
<g id="node24" class="node">
<title>boost&#45;libs</title>
<ellipse fill="none" stroke="#000000" cx="212.7843" cy="-470.9048" rx="47.3916" ry="18"/>
<text text-anchor="middle" x="212.7843" y="-467.2048" font-family="Times,serif" font-size="14.00" fill="#000000">boost&#45;libs</text>
</g>
<!-- java&#45;runtime -->
<g id="node26" class="node">
<title>java&#45;runtime</title>
<ellipse fill="none" stroke="#000000" cx="737.3973" cy="-1463.9048" rx="57.6901" ry="18"/>
<text text-anchor="middle" x="737.3973" y="-1460.2048" font-family="Times,serif" font-size="14.00" fill="#000000">java&#45;runtime</text>
</g>
<!-- pinocchio&#45;git -->
<g id="node27" class="node">
<title>pinocchio&#45;git</title>
<ellipse fill="none" stroke="#000000" cx="545.4112" cy="-561.9048" rx="60.3893" ry="18"/>
<text text-anchor="middle" x="545.4112" y="-558.2048" font-family="Times,serif" font-size="14.00" fill="#000000">pinocchio&#45;git</text>
</g>
<!-- pinocchio&#45;git&#45;&gt;urdfdom -->
<g id="edge8" class="edge">
<title>pinocchio&#45;git&#45;&gt;urdfdom</title>
<path fill="none" stroke="#000000" d="M507.3289,-576.034C494.6432,-582.0281 481.1014,-589.9634 470.6678,-599.9048 459.8097,-610.2507 416.043,-690.889 393.0483,-733.97"/>
<polygon fill="#000000" stroke="#000000" points="389.8221,-732.582 388.2106,-743.0535 396.0006,-735.8724 389.8221,-732.582"/>
</g>
<!-- pinocchio&#45;git&#45;&gt;hpp&#45;fcl -->
<g id="edge7" class="edge">
<title>pinocchio&#45;git&#45;&gt;hpp&#45;fcl</title>
<path fill="none" stroke="#000000" d="M513.731,-546.498C498.9919,-538.0078 482.21,-526.2629 470.6678,-511.9048 443.158,-477.6832 450.7583,-460.7581 434.6678,-419.9048 419.1121,-380.409 400.9836,-334.7446 389.6907,-306.3413"/>
<polygon fill="#000000" stroke="#000000" points="392.8047,-304.7 385.8569,-296.7013 386.3002,-307.2868 392.8047,-304.7"/>
</g>
<!-- pinocchio&#45;git&#45;&gt;metapod&#45;git -->
<g id="edge1" class="edge">
<title>pinocchio&#45;git&#45;&gt;metapod&#45;git</title>
<path fill="none" stroke="#000000" d="M518.0881,-545.6923C503.4604,-536.5121 485.4618,-524.391 470.6678,-511.9048 452.8892,-496.8996 453.4496,-487.6336 434.6678,-473.9048 430.7935,-471.0727 426.5757,-468.409 422.2512,-465.9407"/>
<polygon fill="#000000" stroke="#000000" points="423.7698,-462.7838 413.3006,-461.1573 420.4704,-468.9575 423.7698,-462.7838"/>
</g>
<!-- pinocchio&#45;git&#45;&gt;git -->
<g id="edge4" class="edge">
<title>pinocchio&#45;git&#45;&gt;git</title>
<path fill="none" stroke="#000000" d="M502.2064,-574.79C490.0737,-580.5312 478.1607,-588.6293 470.6678,-599.9048 409.6255,-691.7624 477.467,-993.2572 434.6678,-1094.9048 396.2061,-1186.2507 368.7967,-1206.1134 286.8777,-1261.9048 275.3595,-1269.7493 261.2869,-1275.6243 248.5124,-1279.8557"/>
<polygon fill="#000000" stroke="#000000" points="247.1458,-1276.6143 238.6192,-1282.9031 249.2065,-1283.3041 247.1458,-1276.6143"/>
</g>
<!-- pinocchio&#45;git&#45;&gt;cmake -->
<g id="edge3" class="edge">
<title>pinocchio&#45;git&#45;&gt;cmake</title>
<path fill="none" stroke="#000000" d="M514.3691,-577.3662C500.8813,-584.1667 484.9345,-592.3184 470.6678,-599.9048 454.5072,-608.4982 452.2809,-614.9258 434.6678,-619.9048 371.3144,-637.8138 204.1887,-626.2396 138.6909,-632.9048 124.0603,-634.3936 108.1539,-636.7274 93.9732,-639.0658"/>
<polygon fill="#000000" stroke="#000000" points="93.2697,-635.6351 83.9953,-640.7573 94.4397,-642.5366 93.2697,-635.6351"/>
</g>
<!-- pinocchio&#45;git&#45;&gt;eigen32 -->
<g id="edge5" class="edge">
<title>pinocchio&#45;git&#45;&gt;eigen32</title>
<path fill="none" stroke="#000000" d="M485.3752,-559.6389C428.0249,-556.2806 346.8711,-548.028 322.8777,-527.9048 310.9711,-517.9187 245.3184,-308.248 221.4565,-231.084"/>
<polygon fill="#000000" stroke="#000000" points="224.6713,-229.6321 218.3767,-221.1098 217.9829,-231.6973 224.6713,-229.6321"/>
</g>
<!-- pinocchio&#45;git&#45;&gt;lua51 -->
<g id="edge2" class="edge">
<title>pinocchio&#45;git&#45;&gt;lua51</title>
<path fill="none" stroke="#000000" d="M507.181,-547.9101C479.539,-537.7914 442.4222,-524.2044 415.2038,-514.2408"/>
<polygon fill="#000000" stroke="#000000" points="416.2534,-510.8979 405.6596,-510.747 413.8471,-517.4713 416.2534,-510.8979"/>
</g>
<!-- pinocchio&#45;git&#45;&gt;eigenpy -->
<g id="edge6" class="edge">
<title>pinocchio&#45;git&#45;&gt;eigenpy</title>
<path fill="none" stroke="#000000" d="M494.0545,-571.4587C472.4407,-575.4796 447.4446,-580.1296 426.2642,-584.0699"/>
<polygon fill="#000000" stroke="#000000" points="425.3957,-580.6713 416.2046,-585.9413 426.6761,-587.5532 425.3957,-580.6713"/>
</g>
<!-- hpp&#45;constraints -->
<g id="node30" class="node">
<title>hpp&#45;constraints</title>
<ellipse fill="none" stroke="#000000" cx="737.3973" cy="-34.9048" rx="67.6881" ry="18"/>
<text text-anchor="middle" x="737.3973" y="-31.2048" font-family="Times,serif" font-size="14.00" fill="#000000">hpp&#45;constraints</text>
</g>
<!-- hpp&#45;constraints&#45;&gt;cmake -->
<g id="edge46" class="edge">
<title>hpp&#45;constraints&#45;&gt;cmake</title>
<path fill="none" stroke="#000000" d="M686.4824,-23.0427C571.4502,.4439 289.7736,38.8153 138.6909,-106.9048 133.9827,-111.4458 72.6341,-508.4604 55.6675,-618.76"/>
<polygon fill="#000000" stroke="#000000" points="52.1842,-618.3842 54.1239,-628.8 59.1029,-619.448 52.1842,-618.3842"/>
</g>
<!-- hpp&#45;constraints&#45;&gt;hpp&#45;model -->
<g id="edge47" class="edge">
<title>hpp&#45;constraints&#45;&gt;hpp&#45;model</title>
<path fill="none" stroke="#000000" d="M718.6393,-52.3939C684.0531,-84.6407 610.1982,-153.5 571.0308,-190.018"/>
<polygon fill="#000000" stroke="#000000" points="568.6091,-187.4907 563.6818,-196.87 573.3827,-192.6105 568.6091,-187.4907"/>
</g>
<!-- hpp&#45;pinocchio&#45;git -->
<g id="node31" class="node">
<title>hpp&#45;pinocchio&#45;git</title>
<ellipse fill="none" stroke="#000000" cx="932.6332" cy="-557.9048" rx="77.9862" ry="18"/>
<text text-anchor="middle" x="932.6332" y="-554.2048" font-family="Times,serif" font-size="14.00" fill="#000000">hpp&#45;pinocchio&#45;git</text>
</g>
<!-- hpp&#45;pinocchio&#45;git&#45;&gt;hpp&#45;fcl -->
<g id="edge69" class="edge">
<title>hpp&#45;pinocchio&#45;git&#45;&gt;hpp&#45;fcl</title>
<path fill="none" stroke="#000000" d="M930.0051,-539.8078C922.3304,-494.2096 895.4205,-374.435 818.6401,-320.9048 756.3427,-277.4717 527.2953,-276.0989 426.6945,-277.7068"/>
<polygon fill="#000000" stroke="#000000" points="426.4462,-274.2105 416.5097,-277.887 426.57,-281.2094 426.4462,-274.2105"/>
</g>
<!-- hpp&#45;pinocchio&#45;git&#45;&gt;doxygen -->
<g id="edge62" class="edge">
<title>hpp&#45;pinocchio&#45;git&#45;&gt;doxygen</title>
<path fill="none" stroke="#000000" d="M928.4331,-576.116C909.1806,-655.1678 821.5252,-971.0033 620.1546,-1113.9048 590.2699,-1135.1122 361.4112,-1196.2808 260.4181,-1222.611"/>
<polygon fill="#000000" stroke="#000000" points="259.2747,-1219.2919 250.4784,-1225.1976 261.0375,-1226.0663 259.2747,-1219.2919"/>
</g>
<!-- hpp&#45;pinocchio&#45;git&#45;&gt;hpp&#45;util&#45;git -->
<g id="edge68" class="edge">
<title>hpp&#45;pinocchio&#45;git&#45;&gt;hpp&#45;util&#45;git</title>
<path fill="none" stroke="#000000" d="M924.4637,-576.0749C907.7693,-612.0794 867.1914,-694.0814 818.6401,-752.9048 700.499,-896.0415 502.6817,-1005.8794 418.5661,-1048.5484"/>
<polygon fill="#000000" stroke="#000000" points="416.9555,-1045.4406 409.5959,-1053.062 420.102,-1051.6936 416.9555,-1045.4406"/>
</g>
<!-- hpp&#45;pinocchio&#45;git&#45;&gt;romeo_description -->
<g id="edge60" class="edge">
<title>hpp&#45;pinocchio&#45;git&#45;&gt;romeo_description</title>
<path fill="none" stroke="#000000" d="M877.9895,-545.03C854.6898,-539.5403 827.3093,-533.0891 802.932,-527.3455"/>
<polygon fill="#000000" stroke="#000000" points="803.5818,-523.9029 793.0456,-525.0162 801.9764,-530.7163 803.5818,-523.9029"/>
</g>
<!-- hpp&#45;pinocchio&#45;git&#45;&gt;git -->
<g id="edge64" class="edge">
<title>hpp&#45;pinocchio&#45;git&#45;&gt;git</title>
<path fill="none" stroke="#000000" d="M930.8326,-575.9285C924.0943,-637.4859 896.6289,-843.8297 818.6401,-992.9048 755.7375,-1113.1428 729.7558,-1144.8954 620.1546,-1224.9048 509.8285,-1305.4432 459.2,-1311.5377 322.8777,-1302.9048 298.2558,-1301.3455 270.7213,-1297.8435 249.3479,-1294.7323"/>
<polygon fill="#000000" stroke="#000000" points="249.7972,-1291.2607 239.3901,-1293.2466 248.7641,-1298.1841 249.7972,-1291.2607"/>
</g>
<!-- hpp&#45;pinocchio&#45;git&#45;&gt;boost -->
<g id="edge65" class="edge">
<title>hpp&#45;pinocchio&#45;git&#45;&gt;boost</title>
<path fill="none" stroke="#000000" d="M932.2276,-576.1649C929.9589,-648.11 915.1094,-917.4469 818.6401,-1109.9048 736.6415,-1273.4935 728.4004,-1417.9048 545.4112,-1417.9048 545.4112,-1417.9048 545.4112,-1417.9048 378.7728,-1417.9048 267.9925,-1417.9048 222.2973,-1423.5836 138.6909,-1350.9048 86.1211,-1305.206 64.0102,-1222 55.7221,-1178.7245"/>
<polygon fill="#000000" stroke="#000000" points="59.1655,-1178.097 53.9446,-1168.8778 52.2768,-1179.3406 59.1655,-1178.097"/>
</g>
<!-- hpp&#45;pinocchio&#45;git&#45;&gt;hpp_environments -->
<g id="edge61" class="edge">
<title>hpp&#45;pinocchio&#45;git&#45;&gt;hpp_environments</title>
<path fill="none" stroke="#000000" d="M930.0909,-539.7769C922.3863,-491.4073 894.9561,-357.8787 818.6401,-282.9048 813.0896,-277.4518 806.4988,-272.899 799.508,-269.1047"/>
<polygon fill="#000000" stroke="#000000" points="801.0084,-265.9424 790.4874,-264.6936 797.9333,-272.2308 801.0084,-265.9424"/>
</g>
<!-- hpp&#45;pinocchio&#45;git&#45;&gt;pinocchio -->
<g id="edge66" class="edge">
<title>hpp&#45;pinocchio&#45;git&#45;&gt;pinocchio</title>
<path fill="none" stroke="#000000" d="M855.3567,-560.4511C799.1837,-560.4194 721.8098,-556.4515 656.1546,-538.9048 628.9729,-531.6403 600.4874,-517.585 579.2138,-505.635"/>
<polygon fill="#000000" stroke="#000000" points="580.6853,-502.4439 570.2709,-500.4969 577.1981,-508.5135 580.6853,-502.4439"/>
</g>
<!-- hpp&#45;pinocchio&#45;git&#45;&gt;cmake -->
<g id="edge63" class="edge">
<title>hpp&#45;pinocchio&#45;git&#45;&gt;cmake</title>
<path fill="none" stroke="#000000" d="M908.8355,-540.6652C806.0189,-468.4498 393.6558,-202.367 138.6909,-385.9048 100.004,-413.7537 68.5643,-556.7318 56.5748,-618.4648"/>
<polygon fill="#000000" stroke="#000000" points="53.0652,-618.1844 54.6282,-628.6633 59.9411,-619.4968 53.0652,-618.1844"/>
</g>
<!-- hpp&#45;pinocchio&#45;git&#45;&gt;hpp&#45;model&#45;urdf -->
<g id="edge59" class="edge">
<title>hpp&#45;pinocchio&#45;git&#45;&gt;hpp&#45;model&#45;urdf</title>
<path fill="none" stroke="#000000" d="M903.8255,-574.8734C869.4561,-595.118 811.9326,-629.0012 774.3267,-651.1522"/>
<polygon fill="#000000" stroke="#000000" points="772.5285,-648.1493 765.6885,-656.2404 776.0812,-654.1808 772.5285,-648.1493"/>
</g>
<!-- hpp&#45;pinocchio&#45;git&#45;&gt;assimp -->
<g id="edge67" class="edge">
<title>hpp&#45;pinocchio&#45;git&#45;&gt;assimp</title>
<path fill="none" stroke="#000000" d="M929.2991,-539.6839C916.6442,-472.3116 869.7081,-238.4273 818.6401,-184.9048 667.4252,-26.4216 363.2479,-91.3679 253.4669,-121.6488"/>
<polygon fill="#000000" stroke="#000000" points="252.4443,-118.3005 243.7642,-124.3756 254.3383,-125.0395 252.4443,-118.3005"/>
</g>
<!-- hpp&#45;pinocchio&#45;git&#45;&gt;hpp&#45;model -->
<g id="edge58" class="edge">
<title>hpp&#45;pinocchio&#45;git&#45;&gt;hpp&#45;model</title>
<path fill="none" stroke="#000000" d="M929.2171,-539.7729C916.8023,-475.9747 871.9923,-263.5647 818.6401,-223.9048 753.9993,-175.8532 655.0097,-187.108 595.6051,-200.1603"/>
<polygon fill="#000000" stroke="#000000" points="594.6703,-196.7838 585.7069,-202.4325 596.2365,-203.6063 594.6703,-196.7838"/>
</g>
<!-- hpp&#45;pinocchio&#45;git&#45;&gt;resource&#45;retriever -->
<g id="edge70" class="edge">
<title>hpp&#45;pinocchio&#45;git&#45;&gt;resource&#45;retriever</title>
<path fill="none" stroke="#000000" d="M922.3033,-576.0718C904.6068,-605.7366 865.8,-664.7828 818.6401,-699.9048 754.396,-747.75 666.6295,-778.5722 608.0848,-795.3087"/>
<polygon fill="#000000" stroke="#000000" points="606.9115,-792.0026 598.2278,-798.0725 608.8014,-798.7427 606.9115,-792.0026"/>
</g>
<!-- hpp&#45;model&#45;&gt;hpp&#45;fcl -->
<g id="edge23" class="edge">
<title>hpp&#45;model&#45;&gt;hpp&#45;fcl</title>
<path fill="none" stroke="#000000" d="M510.8836,-227.3728C483.6804,-237.9838 445.7632,-252.774 417.5246,-263.789"/>
<polygon fill="#000000" stroke="#000000" points="416.0177,-260.6199 407.9733,-267.5146 418.5615,-267.1413 416.0177,-260.6199"/>
</g>
<!-- hpp&#45;model&#45;&gt;hpp&#45;util&#45;git -->
<g id="edge22" class="edge">
<title>hpp&#45;model&#45;&gt;hpp&#45;util&#45;git</title>
<path fill="none" stroke="#000000" d="M538.3131,-231.9106C522.9233,-271.8492 486.5911,-371.1896 470.6678,-457.9048 448.7465,-577.2838 480.5991,-890.5561 434.6678,-1002.9048 428.3985,-1018.2397 417.0134,-1032.528 406.1467,-1043.7807"/>
<polygon fill="#000000" stroke="#000000" points="403.4306,-1041.544 398.7757,-1051.0615 408.3498,-1046.5242 403.4306,-1041.544"/>
</g>
<!-- hpp&#45;model&#45;&gt;cmake -->
<g id="edge20" class="edge">
<title>hpp&#45;model&#45;&gt;cmake</title>
<path fill="none" stroke="#000000" d="M493.9127,-217.0884C390.3719,-223.9548 164.616,-241.4517 138.6909,-264.9048 85.8089,-312.7442 60.9632,-538.4029 53.6987,-618.5654"/>
<polygon fill="#000000" stroke="#000000" points="50.1814,-618.6085 52.7892,-628.8774 57.1543,-619.2236 50.1814,-618.6085"/>
</g>
<!-- hpp&#45;model&#45;&gt;eigen32 -->
<g id="edge21" class="edge">
<title>hpp&#45;model&#45;&gt;eigen32</title>
<path fill="none" stroke="#000000" d="M493.4382,-212.186C430.6527,-210.1097 325.7296,-206.6399 263.5089,-204.5822"/>
<polygon fill="#000000" stroke="#000000" points="263.2656,-201.0724 253.1554,-204.2398 263.0342,-208.0685 263.2656,-201.0724"/>
</g>
<!-- hpp&#45;model&#45;&gt;assimp -->
<g id="edge19" class="edge">
<title>hpp&#45;model&#45;&gt;assimp</title>
<path fill="none" stroke="#000000" d="M502.607,-203.6099C438.8172,-188.2679 319.4922,-159.569 255.6606,-144.2169"/>
<polygon fill="#000000" stroke="#000000" points="256.4507,-140.8072 245.9095,-141.8717 254.8137,-147.6131 256.4507,-140.8072"/>
</g>
<!-- python2&#45;numpy -->
<g id="node33" class="node">
<title>python2&#45;numpy</title>
<ellipse fill="none" stroke="#000000" cx="212.7843" cy="-562.9048" rx="72.2875" ry="18"/>
<text text-anchor="middle" x="212.7843" y="-559.2048" font-family="Times,serif" font-size="14.00" fill="#000000">python2&#45;numpy</text>
</g>
<!-- tabula -->
<g id="node36" class="node">
<title>tabula</title>
<ellipse fill="none" stroke="#000000" cx="932.6332" cy="-1463.9048" rx="33.2948" ry="18"/>
<text text-anchor="middle" x="932.6332" y="-1460.2048" font-family="Times,serif" font-size="14.00" fill="#000000">tabula</text>
</g>
<!-- tabula&#45;&gt;java&#45;runtime -->
<g id="edge48" class="edge">
<title>tabula&#45;&gt;java&#45;runtime</title>
<path fill="none" stroke="#000000" d="M899.071,-1463.9048C873.3943,-1463.9048 837.1316,-1463.9048 805.4545,-1463.9048"/>
<polygon fill="#000000" stroke="#000000" points="805.3501,-1460.4049 795.3501,-1463.9048 805.35,-1467.4049 805.3501,-1460.4049"/>
</g>
<!-- eigenpy&#45;&gt;doxygen -->
<g id="edge83" class="edge">
<title>eigenpy&#45;&gt;doxygen</title>
<path fill="none" stroke="#000000" d="M369.9511,-610.6472C357.3206,-636.8899 334.3459,-687.9147 322.8777,-733.9048 288.036,-873.6289 322.7693,-916.4466 286.8777,-1055.9048 272.4575,-1111.935 243.9621,-1173.4879 226.8182,-1207.8428"/>
<polygon fill="#000000" stroke="#000000" points="223.4814,-1206.686 222.0975,-1217.1901 229.7298,-1209.8416 223.4814,-1206.686"/>
</g>
<!-- eigenpy&#45;&gt;boost -->
<g id="edge86" class="edge">
<title>eigenpy&#45;&gt;boost</title>
<path fill="none" stroke="#000000" d="M350.8207,-606.1206C299.7316,-631.8308 191.6712,-693.7109 138.6909,-779.9048 95.0558,-850.8948 121.7358,-882.782 102.6909,-963.9048 89.3145,-1020.882 70.4282,-1086.7075 59.6834,-1123.0906"/>
<polygon fill="#000000" stroke="#000000" points="56.242,-1122.3849 56.7525,-1132.9674 62.9528,-1124.3763 56.242,-1122.3849"/>
</g>
<!-- eigenpy&#45;&gt;cmake -->
<g id="edge84" class="edge">
<title>eigenpy&#45;&gt;cmake</title>
<path fill="none" stroke="#000000" d="M353.1753,-578.8688C343.5645,-573.438 332.6145,-567.0564 322.8777,-560.9048 306.4095,-550.5002 305.4671,-541.7264 286.8777,-535.9048 224.0269,-516.2218 197.9363,-507.1361 138.6909,-535.9048 102.9352,-553.2671 77.4409,-593.1441 63.5484,-620.0634"/>
<polygon fill="#000000" stroke="#000000" points="60.261,-618.8146 58.9575,-629.329 66.5333,-621.9225 60.261,-618.8146"/>
</g>
<!-- eigenpy&#45;&gt;eigen32 -->
<g id="edge85" class="edge">
<title>eigenpy&#45;&gt;eigen32</title>
<path fill="none" stroke="#000000" d="M348.4202,-580.8538C339.1187,-575.8838 329.5823,-569.288 322.8777,-560.9048 322.8777,-560.9048 247.2688,-315.0409 221.3676,-230.8159"/>
<polygon fill="#000000" stroke="#000000" points="224.6801,-229.6796 218.3952,-221.1502 217.9893,-231.7373 224.6801,-229.6796"/>
</g>
<!-- eigenpy&#45;&gt;boost&#45;libs -->
<g id="edge88" class="edge">
<title>eigenpy&#45;&gt;boost&#45;libs</title>
<path fill="none" stroke="#000000" d="M350.1906,-580.0788C340.802,-574.9874 330.7628,-568.5144 322.8777,-560.9048 301.0466,-539.836 309.8566,-522.7156 286.8777,-502.9048 278.916,-496.0406 269.2573,-490.4514 259.5801,-485.9794"/>
<polygon fill="#000000" stroke="#000000" points="260.9216,-482.7465 250.351,-482.0289 258.1669,-489.1817 260.9216,-482.7465"/>
</g>
<!-- eigenpy&#45;&gt;python2&#45;numpy -->
<g id="edge87" class="edge">
<title>eigenpy&#45;&gt;python2&#45;numpy</title>
<path fill="none" stroke="#000000" d="M341.1074,-586.0973C323.4343,-582.9031 301.8054,-578.994 281.3773,-575.3019"/>
<polygon fill="#000000" stroke="#000000" points="281.9311,-571.8454 271.468,-573.511 280.6861,-578.7338 281.9311,-571.8454"/>
</g>
<!-- curl -->
<g id="node38" class="node">
<title>curl</title>
<ellipse fill="none" stroke="#000000" cx="378.7728" cy="-814.9048" rx="27" ry="18"/>
<text text-anchor="middle" x="378.7728" y="-811.2048" font-family="Times,serif" font-size="14.00" fill="#000000">curl</text>
</g>
<!-- resource&#45;retriever&#45;&gt;urdfdom -->
<g id="edge36" class="edge">
<title>resource&#45;retriever&#45;&gt;urdfdom</title>
<path fill="none" stroke="#000000" d="M498.5496,-796.8439C475.1333,-789.8178 446.9313,-781.3558 423.7764,-774.4081"/>
<polygon fill="#000000" stroke="#000000" points="424.7746,-771.0535 414.1906,-771.5319 422.7628,-777.7582 424.7746,-771.0535"/>
</g>
<!-- resource&#45;retriever&#45;&gt;boost -->
<g id="edge38" class="edge">
<title>resource&#45;retriever&#45;&gt;boost</title>
<path fill="none" stroke="#000000" d="M486.6436,-822.0727C480.669,-825.1251 475.1589,-828.9968 470.6678,-833.9048 418.8239,-890.5607 485.6806,-945.4994 434.6678,-1002.9048 399.8098,-1042.131 363.1375,-1007.2457 322.8777,-1040.9048 297.542,-1062.0866 313.6222,-1086.532 286.8777,-1105.9048 229.1195,-1147.7429 143.1874,-1153.7372 92.6547,-1153.1247"/>
<polygon fill="#000000" stroke="#000000" points="92.5049,-1149.6208 82.4317,-1152.9043 92.3539,-1156.6192 92.5049,-1149.6208"/>
</g>
<!-- resource&#45;retriever&#45;&gt;cmake -->
<g id="edge35" class="edge">
<title>resource&#45;retriever&#45;&gt;cmake</title>
<path fill="none" stroke="#000000" d="M525.1999,-793.3154C504.0183,-775.7711 469.0917,-749.2797 434.6678,-733.9048 373.5203,-706.5941 180.8152,-670.0216 94.222,-654.4425"/>
<polygon fill="#000000" stroke="#000000" points="94.6642,-650.9661 84.2038,-652.6487 93.4304,-657.8565 94.6642,-650.9661"/>
</g>
<!-- resource&#45;retriever&#45;&gt;curl -->
<g id="edge37" class="edge">
<title>resource&#45;retriever&#45;&gt;curl</title>
<path fill="none" stroke="#000000" d="M470.8651,-812.6942C451.8141,-813.1515 432.1444,-813.6236 415.8998,-814.0136"/>
<polygon fill="#000000" stroke="#000000" points="415.6734,-810.5179 405.7603,-814.2569 415.8414,-817.5159 415.6734,-810.5179"/>
</g>
</g>
</svg>
