<?xml version="1.0" encoding="UTF-8" standalone="no"?>
<!DOCTYPE svg PUBLIC "-//W3C//DTD SVG 1.1//EN"
 "http://www.w3.org/Graphics/SVG/1.1/DTD/svg11.dtd">
<!-- Generated by graphviz version 2.40.1 (20161225.0304)
 -->
<!-- Title: dependencies Pages: 1 -->
<svg width="1128pt" height="1706pt"
 viewBox="0.00 0.00 1127.82 1705.71" xmlns="http://www.w3.org/2000/svg" xmlns:xlink="http://www.w3.org/1999/xlink">
<g id="graph0" class="graph" transform="scale(1 1) rotate(0) translate(4 1701.7058)">
<title>dependencies</title>
<polygon fill="#ffffff" stroke="transparent" points="-4,4 -4,-1701.7058 1123.8166,-1701.7058 1123.8166,4 -4,4"/>
<!-- urdfdom -->
<g id="node1" class="node">
<title>urdfdom</title>
<ellipse fill="none" stroke="#000000" cx="408.6701" cy="-946" rx="43.5923" ry="18"/>
<text text-anchor="middle" x="408.6701" y="-942.3" font-family="Times,serif" font-size="14.00" fill="#000000">urdfdom</text>
</g>
<!-- urdfdom&#45;headers -->
<g id="node19" class="node">
<title>urdfdom&#45;headers</title>
<ellipse fill="none" stroke="#000000" cx="212.7843" cy="-908" rx="74.187" ry="18"/>
<text text-anchor="middle" x="212.7843" y="-904.3" font-family="Times,serif" font-size="14.00" fill="#000000">urdfdom&#45;headers</text>
</g>
<!-- urdfdom&#45;&gt;urdfdom&#45;headers -->
<g id="edge34" class="edge">
<title>urdfdom&#45;&gt;urdfdom&#45;headers</title>
<path fill="none" stroke="#000000" d="M369.0297,-938.3101C343.7189,-933.4001 310.2406,-926.9056 280.7675,-921.1881"/>
<polygon fill="#000000" stroke="#000000" points="281.427,-917.7509 270.9434,-919.2823 280.0938,-924.6227 281.427,-917.7509"/>
</g>
<!-- console&#45;bridge -->
<g id="node23" class="node">
<title>console&#45;bridge</title>
<ellipse fill="none" stroke="#000000" cx="212.7843" cy="-702" rx="65.7887" ry="18"/>
<text text-anchor="middle" x="212.7843" y="-698.3" font-family="Times,serif" font-size="14.00" fill="#000000">console&#45;bridge</text>
</g>
<!-- urdfdom&#45;&gt;console&#45;bridge -->
<g id="edge33" class="edge">
<title>urdfdom&#45;&gt;console&#45;bridge</title>
<path fill="none" stroke="#000000" d="M367.3908,-939.9653C352.065,-936.048 335.3849,-929.601 322.8777,-919 262.784,-868.0649 231.8223,-776.1956 219.4373,-730.0521"/>
<polygon fill="#000000" stroke="#000000" points="222.7671,-728.9485 216.8762,-720.1423 215.9898,-730.7 222.7671,-728.9485"/>
</g>
<!-- tinyxml -->
<g id="node27" class="node">
<title>tinyxml</title>
<ellipse fill="none" stroke="#000000" cx="212.7843" cy="-572" rx="40.0939" ry="18"/>
<text text-anchor="middle" x="212.7843" y="-568.3" font-family="Times,serif" font-size="14.00" fill="#000000">tinyxml</text>
</g>
<!-- urdfdom&#45;&gt;tinyxml -->
<g id="edge32" class="edge">
<title>urdfdom&#45;&gt;tinyxml</title>
<path fill="none" stroke="#000000" d="M365.8865,-942.0243C350.1737,-938.3866 333.6187,-931.5931 322.8777,-919 251.742,-835.598 328.0501,-776.5925 286.8777,-675 274.8066,-645.2146 252.4287,-615.9247 235.4128,-596.24"/>
<polygon fill="#000000" stroke="#000000" points="237.9709,-593.8493 228.7258,-588.6744 232.726,-598.4851 237.9709,-593.8493"/>
</g>
<!-- cmake -->
<g id="node38" class="node">
<title>cmake</title>
<ellipse fill="none" stroke="#000000" cx="51.3454" cy="-992" rx="34.394" ry="18"/>
<text text-anchor="middle" x="51.3454" y="-988.3" font-family="Times,serif" font-size="14.00" fill="#000000">cmake</text>
</g>
<!-- urdfdom&#45;&gt;cmake -->
<g id="edge31" class="edge">
<title>urdfdom&#45;&gt;cmake</title>
<path fill="none" stroke="#000000" d="M366.0492,-950.5062C312.7827,-956.2635 218.8634,-966.8283 138.6909,-978 124.2478,-980.0126 108.5024,-982.4582 94.4078,-984.7388"/>
<polygon fill="#000000" stroke="#000000" points="93.7831,-981.2944 84.4786,-986.3617 94.9123,-988.2027 93.7831,-981.2944"/>
</g>
<!-- openscenegraph&#45;qt4 -->
<g id="node2" class="node">
<title>openscenegraph&#45;qt4</title>
<ellipse fill="none" stroke="#000000" cx="408.6701" cy="-198" rx="85.5853" ry="18"/>
<text text-anchor="middle" x="408.6701" y="-194.3" font-family="Times,serif" font-size="14.00" fill="#000000">openscenegraph&#45;qt4</text>
</g>
<!-- gepetto&#45;viewer&#45;corba&#45;git -->
<g id="node3" class="node">
<title>gepetto&#45;viewer&#45;corba&#45;git</title>
<ellipse fill="none" stroke="#000000" cx="825.7895" cy="-472" rx="102.0819" ry="18"/>
<text text-anchor="middle" x="825.7895" y="-468.3" font-family="Times,serif" font-size="14.00" fill="#000000">gepetto&#45;viewer&#45;corba&#45;git</text>
</g>
<!-- doxygen -->
<g id="node8" class="node">
<title>doxygen</title>
<ellipse fill="none" stroke="#000000" cx="212.7843" cy="-404" rx="44.393" ry="18"/>
<text text-anchor="middle" x="212.7843" y="-400.3" font-family="Times,serif" font-size="14.00" fill="#000000">doxygen</text>
</g>
<!-- gepetto&#45;viewer&#45;corba&#45;git&#45;&gt;doxygen -->
<g id="edge39" class="edge">
<title>gepetto&#45;viewer&#45;corba&#45;git&#45;&gt;doxygen</title>
<path fill="none" stroke="#000000" d="M725.4481,-468.3776C623.4876,-463.5383 461.2989,-452.6468 322.8777,-429 302.1478,-425.4587 279.4549,-420.4942 260.0862,-415.9216"/>
<polygon fill="#000000" stroke="#000000" points="260.8287,-412.5005 250.2885,-413.5757 259.1987,-419.3081 260.8287,-412.5005"/>
</g>
<!-- git -->
<g id="node18" class="node">
<title>git</title>
<ellipse fill="none" stroke="#000000" cx="212.7843" cy="-263" rx="27" ry="18"/>
<text text-anchor="middle" x="212.7843" y="-259.3" font-family="Times,serif" font-size="14.00" fill="#000000">git</text>
</g>
<!-- gepetto&#45;viewer&#45;corba&#45;git&#45;&gt;git -->
<g id="edge41" class="edge">
<title>gepetto&#45;viewer&#45;corba&#45;git&#45;&gt;git</title>
<path fill="none" stroke="#000000" d="M819.2687,-453.7615C803.133,-410.872 757.5262,-302.3189 687.7486,-237 617.5796,-171.3149 587.9907,-162.1519 494.4625,-140 420.2556,-122.4243 392.4987,-108.8794 322.8777,-140 278.7294,-159.7343 244.9494,-206.8918 227.0502,-236.7476"/>
<polygon fill="#000000" stroke="#000000" points="223.8017,-235.3717 221.8037,-245.7765 229.8541,-238.8887 223.8017,-235.3717"/>
</g>
<!-- omniorbpy -->
<g id="node28" class="node">
<title>omniorbpy</title>
<ellipse fill="none" stroke="#000000" cx="609.1055" cy="-518" rx="52.7911" ry="18"/>
<text text-anchor="middle" x="609.1055" y="-514.3" font-family="Times,serif" font-size="14.00" fill="#000000">omniorbpy</text>
</g>
<!-- gepetto&#45;viewer&#45;corba&#45;git&#45;&gt;omniorbpy -->
<g id="edge45" class="edge">
<title>gepetto&#45;viewer&#45;corba&#45;git&#45;&gt;omniorbpy</title>
<path fill="none" stroke="#000000" d="M760.4833,-485.8639C729.7179,-492.3951 693.4241,-500.0999 664.0873,-506.3279"/>
<polygon fill="#000000" stroke="#000000" points="663.0762,-502.9644 654.0211,-508.4648 664.5299,-509.8118 663.0762,-502.9644"/>
</g>
<!-- qt4 -->
<g id="node30" class="node">
<title>qt4</title>
<ellipse fill="none" stroke="#000000" cx="51.3454" cy="-1672" rx="27" ry="18"/>
<text text-anchor="middle" x="51.3454" y="-1668.3" font-family="Times,serif" font-size="14.00" fill="#000000">qt4</text>
</g>
<!-- gepetto&#45;viewer&#45;corba&#45;git&#45;&gt;qt4 -->
<g id="edge44" class="edge">
<title>gepetto&#45;viewer&#45;corba&#45;git&#45;&gt;qt4</title>
<path fill="none" stroke="#000000" d="M821.3166,-490.2112C805.1923,-556.6335 749.6375,-792.3302 723.7486,-990 707.9866,-1110.3473 748.491,-1429.9178 687.7486,-1535 566.8093,-1744.2205 203.9149,-1699.5146 87.6257,-1679.1057"/>
<polygon fill="#000000" stroke="#000000" points="87.933,-1675.6048 77.4705,-1677.2738 86.6903,-1682.4936 87.933,-1675.6048"/>
</g>
<!-- omniorb -->
<g id="node31" class="node">
<title>omniorb</title>
<ellipse fill="none" stroke="#000000" cx="609.1055" cy="-264" rx="42.7926" ry="18"/>
<text text-anchor="middle" x="609.1055" y="-260.3" font-family="Times,serif" font-size="14.00" fill="#000000">omniorb</text>
</g>
<!-- gepetto&#45;viewer&#45;corba&#45;git&#45;&gt;omniorb -->
<g id="edge43" class="edge">
<title>gepetto&#45;viewer&#45;corba&#45;git&#45;&gt;omniorb</title>
<path fill="none" stroke="#000000" d="M816.8026,-454.025C797.8682,-417.924 750.4049,-336.2036 687.7486,-291 678.6958,-284.4689 667.9366,-279.4199 657.3277,-275.5535"/>
<polygon fill="#000000" stroke="#000000" points="658.2742,-272.1795 647.6804,-272.3266 656.0537,-278.818 658.2742,-272.1795"/>
</g>
<!-- gepetto&#45;viewer&#45;corba&#45;git&#45;&gt;cmake -->
<g id="edge40" class="edge">
<title>gepetto&#45;viewer&#45;corba&#45;git&#45;&gt;cmake</title>
<path fill="none" stroke="#000000" d="M814.6109,-490.0351C777.3925,-548.3811 651.1147,-733.0811 494.4625,-817 423.6534,-854.9326 207.547,-839.628 138.6909,-881 104.9942,-901.2465 79.2479,-939.6644 64.7089,-965.5553"/>
<polygon fill="#000000" stroke="#000000" points="61.5638,-964.0126 59.8655,-974.4704 67.7147,-967.3543 61.5638,-964.0126"/>
</g>
<!-- gepetto&#45;viewer&#45;git -->
<g id="node42" class="node">
<title>gepetto&#45;viewer&#45;git</title>
<ellipse fill="none" stroke="#000000" cx="609.1055" cy="-318" rx="78.7863" ry="18"/>
<text text-anchor="middle" x="609.1055" y="-314.3" font-family="Times,serif" font-size="14.00" fill="#000000">gepetto&#45;viewer&#45;git</text>
</g>
<!-- gepetto&#45;viewer&#45;corba&#45;git&#45;&gt;gepetto&#45;viewer&#45;git -->
<g id="edge42" class="edge">
<title>gepetto&#45;viewer&#45;corba&#45;git&#45;&gt;gepetto&#45;viewer&#45;git</title>
<path fill="none" stroke="#000000" d="M810.6188,-453.9029C786.9564,-426.7253 738.6675,-375.3316 687.7486,-345 681.9158,-341.5255 675.5718,-338.4164 669.1014,-335.6556"/>
<polygon fill="#000000" stroke="#000000" points="670.1609,-332.3102 659.5757,-331.858 667.5686,-338.8125 670.1609,-332.3102"/>
</g>
<!-- suitesparse -->
<g id="node4" class="node">
<title>suitesparse</title>
<ellipse fill="none" stroke="#000000" cx="51.3454" cy="-1618" rx="50.0912" ry="18"/>
<text text-anchor="middle" x="51.3454" y="-1614.3" font-family="Times,serif" font-size="14.00" fill="#000000">suitesparse</text>
</g>
<!-- hpp&#45;constraints -->
<g id="node5" class="node">
<title>hpp&#45;constraints</title>
<ellipse fill="none" stroke="#000000" cx="825.7895" cy="-1254" rx="67.6881" ry="18"/>
<text text-anchor="middle" x="825.7895" y="-1250.3" font-family="Times,serif" font-size="14.00" fill="#000000">hpp&#45;constraints</text>
</g>
<!-- hpp&#45;model -->
<g id="node37" class="node">
<title>hpp&#45;model</title>
<ellipse fill="none" stroke="#000000" cx="609.1055" cy="-1216" rx="51.9908" ry="18"/>
<text text-anchor="middle" x="609.1055" y="-1212.3" font-family="Times,serif" font-size="14.00" fill="#000000">hpp&#45;model</text>
</g>
<!-- hpp&#45;constraints&#45;&gt;hpp&#45;model -->
<g id="edge54" class="edge">
<title>hpp&#45;constraints&#45;&gt;hpp&#45;model</title>
<path fill="none" stroke="#000000" d="M769.1414,-1244.0656C737.2336,-1238.4699 697.5124,-1231.504 665.6256,-1225.912"/>
<polygon fill="#000000" stroke="#000000" points="666.0221,-1222.4282 655.5679,-1224.1481 664.8129,-1229.3229 666.0221,-1222.4282"/>
</g>
<!-- hpp&#45;constraints&#45;&gt;cmake -->
<g id="edge53" class="edge">
<title>hpp&#45;constraints&#45;&gt;cmake</title>
<path fill="none" stroke="#000000" d="M760.5237,-1258.8158C607.5865,-1268.6783 231.9374,-1284.207 138.6909,-1207 80.6795,-1158.9672 60.8157,-1066.439 54.3202,-1020.0117"/>
<polygon fill="#000000" stroke="#000000" points="57.7851,-1019.5142 53.034,-1010.0444 50.8427,-1020.4101 57.7851,-1019.5142"/>
</g>
<!-- hpp_environments -->
<g id="node6" class="node">
<title>hpp_environments</title>
<ellipse fill="none" stroke="#000000" cx="825.7895" cy="-1362" rx="81.4863" ry="18"/>
<text text-anchor="middle" x="825.7895" y="-1358.3" font-family="Times,serif" font-size="14.00" fill="#000000">hpp_environments</text>
</g>
<!-- fftw -->
<g id="node7" class="node">
<title>fftw</title>
<ellipse fill="none" stroke="#000000" cx="51.3454" cy="-1564" rx="27" ry="18"/>
<text text-anchor="middle" x="51.3454" y="-1560.3" font-family="Times,serif" font-size="14.00" fill="#000000">fftw</text>
</g>
<!-- eigen32 -->
<g id="node9" class="node">
<title>eigen32</title>
<ellipse fill="none" stroke="#000000" cx="212.7843" cy="-1564" rx="40.0939" ry="18"/>
<text text-anchor="middle" x="212.7843" y="-1560.3" font-family="Times,serif" font-size="14.00" fill="#000000">eigen32</text>
</g>
<!-- eigen32&#45;&gt;suitesparse -->
<g id="edge15" class="edge">
<title>eigen32&#45;&gt;suitesparse</title>
<path fill="none" stroke="#000000" d="M180.5028,-1574.7979C156.8411,-1582.7126 124.3676,-1593.5747 97.9022,-1602.4272"/>
<polygon fill="#000000" stroke="#000000" points="96.4574,-1599.2197 88.0841,-1605.7112 98.6779,-1605.8582 96.4574,-1599.2197"/>
</g>
<!-- eigen32&#45;&gt;fftw -->
<g id="edge13" class="edge">
<title>eigen32&#45;&gt;fftw</title>
<path fill="none" stroke="#000000" d="M172.4629,-1564C146.8033,-1564 113.8054,-1564 88.734,-1564"/>
<polygon fill="#000000" stroke="#000000" points="88.5189,-1560.5001 78.5189,-1564 88.5189,-1567.5001 88.5189,-1560.5001"/>
</g>
<!-- gcc&#45;fortran -->
<g id="node22" class="node">
<title>gcc&#45;fortran</title>
<ellipse fill="none" stroke="#000000" cx="51.3454" cy="-1510" rx="51.1914" ry="18"/>
<text text-anchor="middle" x="51.3454" y="-1506.3" font-family="Times,serif" font-size="14.00" fill="#000000">gcc&#45;fortran</text>
</g>
<!-- eigen32&#45;&gt;gcc&#45;fortran -->
<g id="edge12" class="edge">
<title>eigen32&#45;&gt;gcc&#45;fortran</title>
<path fill="none" stroke="#000000" d="M180.5028,-1553.2021C157.0043,-1545.342 124.8151,-1534.575 98.4506,-1525.7563"/>
<polygon fill="#000000" stroke="#000000" points="99.2554,-1522.3349 88.6616,-1522.482 97.0348,-1528.9734 99.2554,-1522.3349"/>
</g>
<!-- eigen32&#45;&gt;qt4 -->
<g id="edge9" class="edge">
<title>eigen32&#45;&gt;qt4</title>
<path fill="none" stroke="#000000" d="M186.4293,-1577.8761C164.6054,-1593.2072 132.4606,-1617.3686 102.6909,-1636 94.0735,-1641.3932 84.2693,-1646.7309 75.5538,-1651.7702"/>
<polygon fill="#000000" stroke="#000000" points="73.7508,-1648.7703 66.9609,-1656.9034 77.3407,-1654.7797 73.7508,-1648.7703"/>
</g>
<!-- eigen32&#45;&gt;qt4 -->
<g id="edge14" class="edge">
<title>eigen32&#45;&gt;qt4</title>
<path fill="none" stroke="#000000" d="M199.0095,-1581.0581C178.6169,-1600.5005 138.8973,-1631.3401 102.6909,-1654 97.6045,-1657.1833 92.1046,-1660.3473 86.6592,-1663.2151"/>
<polygon fill="#000000" stroke="#000000" points="85.0197,-1660.1216 77.629,-1667.713 88.1406,-1666.3874 85.0197,-1660.1216"/>
</g>
<!-- eigen32&#45;&gt;cmake -->
<g id="edge10" class="edge">
<title>eigen32&#45;&gt;cmake</title>
<path fill="none" stroke="#000000" d="M176.0652,-1556.1186C162.3591,-1551.359 147.9037,-1543.8282 138.6909,-1532 106.7758,-1491.0248 65.6244,-1125.7636 54.3269,-1020.3577"/>
<polygon fill="#000000" stroke="#000000" points="57.7812,-1019.7421 53.2413,-1010.1692 50.8206,-1020.4838 57.7812,-1019.7421"/>
</g>
<!-- freeglut -->
<g id="node44" class="node">
<title>freeglut</title>
<ellipse fill="none" stroke="#000000" cx="51.3454" cy="-1456" rx="38.9931" ry="18"/>
<text text-anchor="middle" x="51.3454" y="-1452.3" font-family="Times,serif" font-size="14.00" fill="#000000">freeglut</text>
</g>
<!-- eigen32&#45;&gt;freeglut -->
<g id="edge11" class="edge">
<title>eigen32&#45;&gt;freeglut</title>
<path fill="none" stroke="#000000" d="M179.3684,-1553.874C165.845,-1548.7267 150.6391,-1541.5133 138.6909,-1532 117.55,-1515.1674 123.1733,-1500.6279 102.6909,-1483 98.5401,-1479.4277 93.8362,-1476.1548 89.0013,-1473.2153"/>
<polygon fill="#000000" stroke="#000000" points="90.68,-1470.1439 80.2483,-1468.2916 87.2481,-1476.2449 90.68,-1470.1439"/>
</g>
<!-- boost -->
<g id="node45" class="node">
<title>boost</title>
<ellipse fill="none" stroke="#000000" cx="51.3454" cy="-469" rx="31.3957" ry="18"/>
<text text-anchor="middle" x="51.3454" y="-465.3" font-family="Times,serif" font-size="14.00" fill="#000000">boost</text>
</g>
<!-- eigen32&#45;&gt;boost -->
<g id="edge16" class="edge">
<title>eigen32&#45;&gt;boost</title>
<path fill="none" stroke="#000000" d="M196.2038,-1547.566C178.2903,-1528.5927 150.7019,-1495.5375 138.6909,-1461 81.258,-1295.8519 127.959,-848.0144 102.6909,-675 93.2052,-610.05 72.0695,-535.7758 60.0828,-496.5812"/>
<polygon fill="#000000" stroke="#000000" points="63.4014,-495.4655 57.1033,-486.9458 56.7138,-497.5335 63.4014,-495.4655"/>
</g>
<!-- gcc&#45;libs -->
<g id="node10" class="node">
<title>gcc&#45;libs</title>
<ellipse fill="none" stroke="#000000" cx="51.3454" cy="-702" rx="39.7935" ry="18"/>
<text text-anchor="middle" x="51.3454" y="-698.3" font-family="Times,serif" font-size="14.00" fill="#000000">gcc&#45;libs</text>
</g>
<!-- hpp&#45;util&#45;git -->
<g id="node11" class="node">
<title>hpp&#45;util&#45;git</title>
<ellipse fill="none" stroke="#000000" cx="408.6701" cy="-556" rx="53.0913" ry="18"/>
<text text-anchor="middle" x="408.6701" y="-552.3" font-family="Times,serif" font-size="14.00" fill="#000000">hpp&#45;util&#45;git</text>
</g>
<!-- hpp&#45;util&#45;git&#45;&gt;doxygen -->
<g id="edge63" class="edge">
<title>hpp&#45;util&#45;git&#45;&gt;doxygen</title>
<path fill="none" stroke="#000000" d="M362.8653,-546.5714C348.6407,-541.7761 333.8365,-534.6209 322.8777,-524 292.5332,-494.591 316.4674,-466.1684 286.8777,-436 279.2938,-428.2677 269.5347,-422.2874 259.6054,-417.7061"/>
<polygon fill="#000000" stroke="#000000" points="260.6749,-414.3597 250.0988,-413.7308 257.9744,-420.8178 260.6749,-414.3597"/>
</g>
<!-- hpp&#45;util&#45;git&#45;&gt;git -->
<g id="edge65" class="edge">
<title>hpp&#45;util&#45;git&#45;&gt;git</title>
<path fill="none" stroke="#000000" d="M396.7115,-538.1126C363.2012,-487.989 268.3112,-346.0554 229.5709,-288.1088"/>
<polygon fill="#000000" stroke="#000000" points="232.321,-285.9248 223.8534,-279.5568 226.5017,-289.8154 232.321,-285.9248"/>
</g>
<!-- hpp&#45;util&#45;git&#45;&gt;tinyxml -->
<g id="edge67" class="edge">
<title>hpp&#45;util&#45;git&#45;&gt;tinyxml</title>
<path fill="none" stroke="#000000" d="M356.6906,-560.2457C327.6179,-562.6204 291.5574,-565.5658 262.8072,-567.9141"/>
<polygon fill="#000000" stroke="#000000" points="262.2541,-564.4475 252.5722,-568.7501 262.824,-571.4243 262.2541,-564.4475"/>
</g>
<!-- hpp&#45;util&#45;git&#45;&gt;cmake -->
<g id="edge64" class="edge">
<title>hpp&#45;util&#45;git&#45;&gt;cmake</title>
<path fill="none" stroke="#000000" d="M375.1614,-541.88C319.2509,-520.8087 206.407,-489.2352 138.6909,-545 138.6909,-545 76.0064,-865.7946 56.8437,-963.8622"/>
<polygon fill="#000000" stroke="#000000" points="53.3605,-963.4378 54.8777,-973.9234 60.2306,-964.7803 53.3605,-963.4378"/>
</g>
<!-- hpp&#45;util&#45;git&#45;&gt;boost -->
<g id="edge66" class="edge">
<title>hpp&#45;util&#45;git&#45;&gt;boost</title>
<path fill="none" stroke="#000000" d="M365.1217,-545.2789C350.7371,-540.3563 335.262,-533.4516 322.8777,-524 301.11,-507.387 311.1155,-486.7419 286.8777,-474 224.3507,-441.1292 138.9849,-450.3363 90.0583,-459.806"/>
<polygon fill="#000000" stroke="#000000" points="89.2925,-456.3901 80.1923,-461.8157 90.6897,-463.2492 89.2925,-456.3901"/>
</g>
<!-- pinocchio -->
<g id="node12" class="node">
<title>pinocchio</title>
<ellipse fill="none" stroke="#000000" cx="609.1055" cy="-1508" rx="48.1917" ry="18"/>
<text text-anchor="middle" x="609.1055" y="-1504.3" font-family="Times,serif" font-size="14.00" fill="#000000">pinocchio</text>
</g>
<!-- pinocchio&#45;&gt;urdfdom -->
<g id="edge30" class="edge">
<title>pinocchio&#45;&gt;urdfdom</title>
<path fill="none" stroke="#000000" d="M595.6003,-1490.6213C578.3075,-1467.6231 548.4353,-1425.2734 530.4625,-1385 464.5451,-1237.2923 426.2216,-1045.4302 413.4705,-974.2158"/>
<polygon fill="#000000" stroke="#000000" points="416.8922,-973.4649 411.7087,-964.2247 409.9985,-974.6806 416.8922,-973.4649"/>
</g>
<!-- pinocchio&#45;&gt;eigen32 -->
<g id="edge27" class="edge">
<title>pinocchio&#45;&gt;eigen32</title>
<path fill="none" stroke="#000000" d="M600.1263,-1525.9812C583.8732,-1556.2339 546.3833,-1616.3244 494.4625,-1640 425.076,-1671.6399 395.6841,-1662.6893 322.8777,-1640 289.8461,-1629.706 257.9776,-1605.6574 237.1037,-1587.3477"/>
<polygon fill="#000000" stroke="#000000" points="239.4372,-1584.7391 229.6624,-1580.652 234.755,-1589.9427 239.4372,-1584.7391"/>
</g>
<!-- eigenpy -->
<g id="node24" class="node">
<title>eigenpy</title>
<ellipse fill="none" stroke="#000000" cx="408.6701" cy="-1342" rx="40.0939" ry="18"/>
<text text-anchor="middle" x="408.6701" y="-1338.3" font-family="Times,serif" font-size="14.00" fill="#000000">eigenpy</text>
</g>
<!-- pinocchio&#45;&gt;eigenpy -->
<g id="edge29" class="edge">
<title>pinocchio&#45;&gt;eigenpy</title>
<path fill="none" stroke="#000000" d="M590.8046,-1491.1259C568.4748,-1470.714 529.3754,-1435.5398 494.4625,-1407 476.1053,-1391.9938 454.8698,-1375.8952 438.1186,-1363.4735"/>
<polygon fill="#000000" stroke="#000000" points="439.9308,-1360.4609 429.8066,-1357.3382 435.7737,-1366.0929 439.9308,-1360.4609"/>
</g>
<!-- hpp&#45;fcl -->
<g id="node29" class="node">
<title>hpp&#45;fcl</title>
<ellipse fill="none" stroke="#000000" cx="408.6701" cy="-1434" rx="37.8943" ry="18"/>
<text text-anchor="middle" x="408.6701" y="-1430.3" font-family="Times,serif" font-size="14.00" fill="#000000">hpp&#45;fcl</text>
</g>
<!-- pinocchio&#45;&gt;hpp&#45;fcl -->
<g id="edge28" class="edge">
<title>pinocchio&#45;&gt;hpp&#45;fcl</title>
<path fill="none" stroke="#000000" d="M574.6495,-1495.2789C539.51,-1482.3056 485.0584,-1462.2023 448.1899,-1448.5906"/>
<polygon fill="#000000" stroke="#000000" points="449.3469,-1445.2868 438.7536,-1445.1067 446.9224,-1451.8536 449.3469,-1445.2868"/>
</g>
<!-- metapod&#45;git -->
<g id="node32" class="node">
<title>metapod&#45;git</title>
<ellipse fill="none" stroke="#000000" cx="408.6701" cy="-1526" rx="55.7903" ry="18"/>
<text text-anchor="middle" x="408.6701" y="-1522.3" font-family="Times,serif" font-size="14.00" fill="#000000">metapod&#45;git</text>
</g>
<!-- pinocchio&#45;&gt;metapod&#45;git -->
<g id="edge24" class="edge">
<title>pinocchio&#45;&gt;metapod&#45;git</title>
<path fill="none" stroke="#000000" d="M562.1123,-1512.2202C535.5116,-1514.6091 501.8632,-1517.6308 472.8591,-1520.2355"/>
<polygon fill="#000000" stroke="#000000" points="472.4596,-1516.7572 462.8128,-1521.1377 473.0858,-1523.7292 472.4596,-1516.7572"/>
</g>
<!-- lua51 -->
<g id="node34" class="node">
<title>lua51</title>
<ellipse fill="none" stroke="#000000" cx="408.6701" cy="-1580" rx="31.6951" ry="18"/>
<text text-anchor="middle" x="408.6701" y="-1576.3" font-family="Times,serif" font-size="14.00" fill="#000000">lua51</text>
</g>
<!-- pinocchio&#45;&gt;lua51 -->
<g id="edge25" class="edge">
<title>pinocchio&#45;&gt;lua51</title>
<path fill="none" stroke="#000000" d="M576.716,-1521.4052C553.8771,-1530.6872 522.4869,-1543.1034 494.4625,-1553 479.0304,-1558.4498 461.8536,-1563.9629 446.9476,-1568.5741"/>
<polygon fill="#000000" stroke="#000000" points="445.5757,-1565.3338 437.0403,-1571.6104 447.6269,-1572.0265 445.5757,-1565.3338"/>
</g>
<!-- pinocchio&#45;&gt;cmake -->
<g id="edge26" class="edge">
<title>pinocchio&#45;&gt;cmake</title>
<path fill="none" stroke="#000000" d="M595.881,-1525.4258C576.6221,-1549.1918 538.3343,-1590.6789 494.4625,-1607 422.9883,-1633.5897 387.975,-1646.723 322.8777,-1607 293.0143,-1588.777 313.0498,-1560.2148 286.8777,-1537 234.3225,-1490.3832 183.7272,-1535.9158 138.6909,-1482 79.1437,-1410.7124 58.0105,-1113.5827 52.7675,-1020.2097"/>
<polygon fill="#000000" stroke="#000000" points="56.2559,-1019.8988 52.2181,-1010.1036 49.2662,-1020.2789 56.2559,-1019.8988"/>
</g>
<!-- urdf&#45;git -->
<g id="node13" class="node">
<title>urdf&#45;git</title>
<ellipse fill="none" stroke="#000000" cx="609.1055" cy="-426" rx="38.9931" ry="18"/>
<text text-anchor="middle" x="609.1055" y="-422.3" font-family="Times,serif" font-size="14.00" fill="#000000">urdf&#45;git</text>
</g>
<!-- urdf&#45;git&#45;&gt;urdfdom -->
<g id="edge106" class="edge">
<title>urdf&#45;git&#45;&gt;urdfdom</title>
<path fill="none" stroke="#000000" d="M583.5277,-439.6943C565.3671,-450.9044 542.2043,-468.556 530.4625,-491 486.2175,-575.5725 554.1,-844.4783 494.4625,-919 486.1436,-929.3951 473.8489,-935.8609 461.1496,-939.8616"/>
<polygon fill="#000000" stroke="#000000" points="460.1745,-936.4993 451.4187,-942.4648 461.9836,-943.2615 460.1745,-936.4993"/>
</g>
<!-- urdf&#45;git&#45;&gt;doxygen -->
<g id="edge102" class="edge">
<title>urdf&#45;git&#45;&gt;doxygen</title>
<path fill="none" stroke="#000000" d="M570.383,-423.8505C499.3109,-419.9052 347.9122,-411.501 266.7803,-406.9973"/>
<polygon fill="#000000" stroke="#000000" points="266.9464,-403.5013 256.7677,-406.4415 266.5583,-410.4905 266.9464,-403.5013"/>
</g>
<!-- urdf&#45;git&#45;&gt;git -->
<g id="edge104" class="edge">
<title>urdf&#45;git&#45;&gt;git</title>
<path fill="none" stroke="#000000" d="M572.9831,-418.9581C558.6892,-414.8716 542.7695,-408.5707 530.4625,-399 507.4001,-381.0652 517.9721,-361.3444 494.4625,-344 419.4876,-288.6867 307.6631,-271.0609 250.0579,-265.5079"/>
<polygon fill="#000000" stroke="#000000" points="250.2256,-262.0091 239.9538,-264.6052 249.6027,-268.9813 250.2256,-262.0091"/>
</g>
<!-- urdf&#45;git&#45;&gt;cmake -->
<g id="edge103" class="edge">
<title>urdf&#45;git&#45;&gt;cmake</title>
<path fill="none" stroke="#000000" d="M583.7779,-439.8283C565.745,-451.1067 542.6324,-468.7852 530.4625,-491 467.4261,-606.0662 584.615,-688.6776 494.4625,-784 439.2658,-842.3621 204.909,-802.525 138.6909,-848 97.4068,-876.3517 72.2661,-931.2268 60.1476,-964.4417"/>
<polygon fill="#000000" stroke="#000000" points="56.8019,-963.4062 56.8013,-974.001 63.4088,-965.719 56.8019,-963.4062"/>
</g>
<!-- urdf&#45;git&#45;&gt;boost -->
<g id="edge105" class="edge">
<title>urdf&#45;git&#45;&gt;boost</title>
<path fill="none" stroke="#000000" d="M573.9688,-417.9237C478.6623,-396.7101 217.1555,-343.2998 138.6909,-377 107.4269,-390.4278 82.0869,-421.1545 66.907,-443.4105"/>
<polygon fill="#000000" stroke="#000000" points="63.9823,-441.4879 61.4089,-451.7655 69.8298,-445.336 63.9823,-441.4879"/>
</g>
<!-- urdf -->
<g id="node14" class="node">
<title>urdf</title>
<ellipse fill="none" stroke="#000000" cx="609.1055" cy="-1086" rx="27" ry="18"/>
<text text-anchor="middle" x="609.1055" y="-1082.3" font-family="Times,serif" font-size="14.00" fill="#000000">urdf</text>
</g>
<!-- java&#45;runtime -->
<g id="node15" class="node">
<title>java&#45;runtime</title>
<ellipse fill="none" stroke="#000000" cx="825.7895" cy="-1535" rx="57.6901" ry="18"/>
<text text-anchor="middle" x="825.7895" y="-1531.3" font-family="Times,serif" font-size="14.00" fill="#000000">java&#45;runtime</text>
</g>
<!-- hpp&#45;statistics&#45;git -->
<g id="node16" class="node">
<title>hpp&#45;statistics&#45;git</title>
<ellipse fill="none" stroke="#000000" cx="609.1055" cy="-372" rx="71.4873" ry="18"/>
<text text-anchor="middle" x="609.1055" y="-368.3" font-family="Times,serif" font-size="14.00" fill="#000000">hpp&#45;statistics&#45;git</text>
</g>
<!-- hpp&#45;statistics&#45;git&#45;&gt;doxygen -->
<g id="edge92" class="edge">
<title>hpp&#45;statistics&#45;git&#45;&gt;doxygen</title>
<path fill="none" stroke="#000000" d="M540.9755,-377.501C463.1378,-383.7858 337.3766,-393.9401 266.2596,-399.6823"/>
<polygon fill="#000000" stroke="#000000" points="265.8615,-396.2029 256.1756,-400.4965 266.4249,-403.1802 265.8615,-396.2029"/>
</g>
<!-- hpp&#45;statistics&#45;git&#45;&gt;hpp&#45;util&#45;git -->
<g id="edge95" class="edge">
<title>hpp&#45;statistics&#45;git&#45;&gt;hpp&#45;util&#45;git</title>
<path fill="none" stroke="#000000" d="M557.9032,-384.7382C548.2858,-388.4392 538.6816,-393.1216 530.4625,-399 481.4757,-434.0363 442.66,-494.3041 422.9258,-529.0938"/>
<polygon fill="#000000" stroke="#000000" points="419.6701,-527.7472 417.8731,-538.1885 425.7892,-531.1467 419.6701,-527.7472"/>
</g>
<!-- hpp&#45;statistics&#45;git&#45;&gt;git -->
<g id="edge94" class="edge">
<title>hpp&#45;statistics&#45;git&#45;&gt;git</title>
<path fill="none" stroke="#000000" d="M555.1592,-359.9824C546.2085,-356.2477 537.5489,-351.3684 530.4625,-345 502.3641,-319.7485 526.1529,-288.564 494.4625,-268 418.1783,-218.4989 304.1211,-238.2637 247.397,-252.7925"/>
<polygon fill="#000000" stroke="#000000" points="246.2589,-249.4735 237.4946,-255.4266 248.0583,-256.2383 246.2589,-249.4735"/>
</g>
<!-- hpp&#45;statistics&#45;git&#45;&gt;cmake -->
<g id="edge93" class="edge">
<title>hpp&#45;statistics&#45;git&#45;&gt;cmake</title>
<path fill="none" stroke="#000000" d="M551.6627,-382.9465C543.5173,-386.7984 536.0325,-391.9944 530.4625,-399 482.2156,-459.6824 546.5013,-688.5362 494.4625,-746 467.375,-775.9114 170.747,-794.4882 138.6909,-819 91.0513,-855.4277 67.4077,-924.9955 57.4398,-963.8959"/>
<polygon fill="#000000" stroke="#000000" points="53.9444,-963.4577 54.9824,-974.0016 60.7462,-965.1117 53.9444,-963.4577"/>
</g>
<!-- srdfdom -->
<g id="node17" class="node">
<title>srdfdom</title>
<ellipse fill="none" stroke="#000000" cx="609.1055" cy="-994" rx="42.4939" ry="18"/>
<text text-anchor="middle" x="609.1055" y="-990.3" font-family="Times,serif" font-size="14.00" fill="#000000">srdfdom</text>
</g>
<!-- urdfdom&#45;headers&#45;&gt;cmake -->
<g id="edge62" class="edge">
<title>urdfdom&#45;headers&#45;&gt;cmake</title>
<path fill="none" stroke="#000000" d="M174.2727,-923.5144C162.6901,-928.4784 150.0456,-934.1988 138.6909,-940 119.3311,-949.8911 98.378,-962.3038 81.8478,-972.521"/>
<polygon fill="#000000" stroke="#000000" points="79.7901,-969.6794 73.1576,-977.9414 83.4948,-975.6187 79.7901,-969.6794"/>
</g>
<!-- hpp&#45;pinocchio&#45;git -->
<g id="node20" class="node">
<title>hpp&#45;pinocchio&#45;git</title>
<ellipse fill="none" stroke="#000000" cx="1041.8235" cy="-1017" rx="77.9862" ry="18"/>
<text text-anchor="middle" x="1041.8235" y="-1013.3" font-family="Times,serif" font-size="14.00" fill="#000000">hpp&#45;pinocchio&#45;git</text>
</g>
<!-- hpp&#45;pinocchio&#45;git&#45;&gt;hpp_environments -->
<g id="edge74" class="edge">
<title>hpp&#45;pinocchio&#45;git&#45;&gt;hpp_environments</title>
<path fill="none" stroke="#000000" d="M1040.9456,-1035.2662C1037.3199,-1089.5515 1018.9943,-1251.3178 927.8305,-1335 921.3568,-1340.9424 913.7281,-1345.6059 905.6041,-1349.2611"/>
<polygon fill="#000000" stroke="#000000" points="904.2582,-1346.0297 896.2565,-1352.9741 906.8423,-1352.5352 904.2582,-1346.0297"/>
</g>
<!-- hpp&#45;pinocchio&#45;git&#45;&gt;doxygen -->
<g id="edge75" class="edge">
<title>hpp&#45;pinocchio&#45;git&#45;&gt;doxygen</title>
<path fill="none" stroke="#000000" d="M1040.2298,-998.6622C1034.6838,-945.5525 1011.7148,-789.7092 927.8305,-700 798.3563,-561.5352 707.6771,-612.3131 530.4625,-545 514.0944,-538.7828 510.5016,-536.0226 494.4625,-529 418.3855,-495.6902 398.6928,-488.9017 322.8777,-455 298.8647,-444.2622 272.0826,-431.8651 250.9466,-421.9823"/>
<polygon fill="#000000" stroke="#000000" points="252.2034,-418.7061 241.663,-417.6335 249.2339,-425.0451 252.2034,-418.7061"/>
</g>
<!-- hpp&#45;pinocchio&#45;git&#45;&gt;hpp&#45;util&#45;git -->
<g id="edge81" class="edge">
<title>hpp&#45;pinocchio&#45;git&#45;&gt;hpp&#45;util&#45;git</title>
<path fill="none" stroke="#000000" d="M1030.0093,-998.8547C1010.8139,-970.2183 970.665,-913.7232 927.8305,-874 756.9884,-715.5673 706.2691,-676.0871 494.4625,-579 485.008,-574.6663 474.5804,-571.0197 464.3486,-567.9989"/>
<polygon fill="#000000" stroke="#000000" points="465.2095,-564.6055 454.637,-565.2924 463.3303,-571.3485 465.2095,-564.6055"/>
</g>
<!-- hpp&#45;pinocchio&#45;git&#45;&gt;pinocchio -->
<g id="edge79" class="edge">
<title>hpp&#45;pinocchio&#45;git&#45;&gt;pinocchio</title>
<path fill="none" stroke="#000000" d="M1039.2838,-1035.4742C1028.8829,-1108.4812 987.2607,-1375.6916 927.8305,-1433 890.7964,-1468.7118 746.7902,-1491.418 665.5988,-1501.6564"/>
<polygon fill="#000000" stroke="#000000" points="665.0334,-1498.1996 655.5392,-1502.9018 665.8935,-1505.1466 665.0334,-1498.1996"/>
</g>
<!-- hpp&#45;pinocchio&#45;git&#45;&gt;git -->
<g id="edge77" class="edge">
<title>hpp&#45;pinocchio&#45;git&#45;&gt;git</title>
<path fill="none" stroke="#000000" d="M1041.2928,-998.7288C1038.5411,-925.4946 1022.0846,-647.4049 927.8305,-445 855.7397,-290.1896 836.1736,-229.4591 687.7486,-145 546.4196,-64.5789 468.5329,-45.709 322.8777,-118 273.4022,-142.5555 240.1725,-201.1521 224.0633,-235.8737"/>
<polygon fill="#000000" stroke="#000000" points="220.6888,-234.8454 219.794,-245.4024 227.0769,-237.7076 220.6888,-234.8454"/>
</g>
<!-- romeo_description -->
<g id="node26" class="node">
<title>romeo_description</title>
<ellipse fill="none" stroke="#000000" cx="825.7895" cy="-1308" rx="80.6858" ry="18"/>
<text text-anchor="middle" x="825.7895" y="-1304.3" font-family="Times,serif" font-size="14.00" fill="#000000">romeo_description</text>
</g>
<!-- hpp&#45;pinocchio&#45;git&#45;&gt;romeo_description -->
<g id="edge73" class="edge">
<title>hpp&#45;pinocchio&#45;git&#45;&gt;romeo_description</title>
<path fill="none" stroke="#000000" d="M1039.4479,-1035.2487C1032.2122,-1083.2082 1005.9491,-1213.7285 927.8305,-1281 920.9471,-1286.9275 912.9036,-1291.5719 904.4072,-1295.2077"/>
<polygon fill="#000000" stroke="#000000" points="903.1453,-1291.943 895.0434,-1298.7701 905.6344,-1298.4855 903.1453,-1291.943"/>
</g>
<!-- hpp&#45;pinocchio&#45;git&#45;&gt;hpp&#45;fcl -->
<g id="edge82" class="edge">
<title>hpp&#45;pinocchio&#45;git&#45;&gt;hpp&#45;fcl</title>
<path fill="none" stroke="#000000" d="M1038.9725,-1035.1518C1027.879,-1103.3173 985.3453,-1342.4942 927.8305,-1389 891.6439,-1418.26 578.2627,-1429.5548 456.6379,-1432.8614"/>
<polygon fill="#000000" stroke="#000000" points="456.4072,-1429.3662 446.5037,-1433.1304 456.5931,-1436.3637 456.4072,-1429.3662"/>
</g>
<!-- hpp&#45;pinocchio&#45;git&#45;&gt;hpp&#45;model -->
<g id="edge71" class="edge">
<title>hpp&#45;pinocchio&#45;git&#45;&gt;hpp&#45;model</title>
<path fill="none" stroke="#000000" d="M1035.5159,-1034.9729C1022.0184,-1070.4453 986.6841,-1149.0441 927.8305,-1184 885.9601,-1208.8687 752.206,-1214.6877 671.8852,-1215.8825"/>
<polygon fill="#000000" stroke="#000000" points="671.3571,-1212.3889 661.4028,-1216.0167 671.4468,-1219.3883 671.3571,-1212.3889"/>
</g>
<!-- hpp&#45;pinocchio&#45;git&#45;&gt;cmake -->
<g id="edge76" class="edge">
<title>hpp&#45;pinocchio&#45;git&#45;&gt;cmake</title>
<path fill="none" stroke="#000000" d="M990.7712,-1003.3309C971.2056,-998.5088 948.5977,-993.4375 927.8305,-990 822.0778,-972.4951 794.8179,-972.1169 687.7486,-967 617.9233,-963.663 594.1451,-938.169 530.4625,-967 508.3713,-977.0013 516.357,-997.5751 494.4625,-1008 411.1013,-1047.6919 379.189,-1014.2219 286.8777,-1016 221.0291,-1017.2684 203.9606,-1024.804 138.6909,-1016 122.4825,-1013.8137 105.028,-1009.4428 90.0149,-1005.0232"/>
<polygon fill="#000000" stroke="#000000" points="90.6428,-1001.5554 80.0565,-1001.9819 88.5981,-1008.2502 90.6428,-1001.5554"/>
</g>
<!-- hpp&#45;model&#45;urdf -->
<g id="node39" class="node">
<title>hpp&#45;model&#45;urdf</title>
<ellipse fill="none" stroke="#000000" cx="825.7895" cy="-1017" rx="70.3881" ry="18"/>
<text text-anchor="middle" x="825.7895" y="-1013.3" font-family="Times,serif" font-size="14.00" fill="#000000">hpp&#45;model&#45;urdf</text>
</g>
<!-- hpp&#45;pinocchio&#45;git&#45;&gt;hpp&#45;model&#45;urdf -->
<g id="edge72" class="edge">
<title>hpp&#45;pinocchio&#45;git&#45;&gt;hpp&#45;model&#45;urdf</title>
<path fill="none" stroke="#000000" d="M963.8303,-1017C945.0823,-1017 925.0236,-1017 906.1693,-1017"/>
<polygon fill="#000000" stroke="#000000" points="906.1349,-1013.5001 896.1348,-1017 906.1348,-1020.5001 906.1349,-1013.5001"/>
</g>
<!-- assimp -->
<g id="node41" class="node">
<title>assimp</title>
<ellipse fill="none" stroke="#000000" cx="212.7843" cy="-1136" rx="36.2938" ry="18"/>
<text text-anchor="middle" x="212.7843" y="-1132.3" font-family="Times,serif" font-size="14.00" fill="#000000">assimp</text>
</g>
<!-- hpp&#45;pinocchio&#45;git&#45;&gt;assimp -->
<g id="edge80" class="edge">
<title>hpp&#45;pinocchio&#45;git&#45;&gt;assimp</title>
<path fill="none" stroke="#000000" d="M1006.6156,-1033.1216C944.0553,-1060.7829 808.7084,-1116.2172 687.7486,-1136 532.0952,-1161.4569 343.8911,-1148.8732 258.6697,-1140.8823"/>
<polygon fill="#000000" stroke="#000000" points="258.8427,-1137.3829 248.5535,-1139.9095 258.1726,-1144.3508 258.8427,-1137.3829"/>
</g>
<!-- resource&#45;retriever -->
<g id="node43" class="node">
<title>resource&#45;retriever</title>
<ellipse fill="none" stroke="#000000" cx="609.1055" cy="-864" rx="74.9875" ry="18"/>
<text text-anchor="middle" x="609.1055" y="-860.3" font-family="Times,serif" font-size="14.00" fill="#000000">resource&#45;retriever</text>
</g>
<!-- hpp&#45;pinocchio&#45;git&#45;&gt;resource&#45;retriever -->
<g id="edge83" class="edge">
<title>hpp&#45;pinocchio&#45;git&#45;&gt;resource&#45;retriever</title>
<path fill="none" stroke="#000000" d="M1022.8159,-999.2753C1001.3741,-980.2621 964.6672,-950.5728 927.8305,-934 850.5541,-899.2335 754.7758,-881.1971 688.4951,-872.2093"/>
<polygon fill="#000000" stroke="#000000" points="688.8989,-868.7323 678.5273,-870.8956 687.9843,-875.6723 688.8989,-868.7323"/>
</g>
<!-- hpp&#45;pinocchio&#45;git&#45;&gt;boost -->
<g id="edge78" class="edge">
<title>hpp&#45;pinocchio&#45;git&#45;&gt;boost</title>
<path fill="none" stroke="#000000" d="M1041.6297,-998.9407C1040.1255,-888.5946 1027.4976,-305.3299 927.8305,-164 836.0186,-33.8091 768.4137,0 609.1055,0 609.1055,0 609.1055,0 408.6701,0 272.2577,0 223.3562,-39.0414 138.6909,-146 101.8152,-192.5855 68.1022,-370.9518 56.042,-440.7562"/>
<polygon fill="#000000" stroke="#000000" points="52.5276,-440.5441 54.2951,-450.9905 59.4278,-441.722 52.5276,-440.5441"/>
</g>
<!-- boost&#45;libs -->
<g id="node21" class="node">
<title>boost&#45;libs</title>
<ellipse fill="none" stroke="#000000" cx="212.7843" cy="-1434" rx="47.3916" ry="18"/>
<text text-anchor="middle" x="212.7843" y="-1430.3" font-family="Times,serif" font-size="14.00" fill="#000000">boost&#45;libs</text>
</g>
<!-- console&#45;bridge&#45;&gt;gcc&#45;libs -->
<g id="edge18" class="edge">
<title>console&#45;bridge&#45;&gt;gcc&#45;libs</title>
<path fill="none" stroke="#000000" d="M147.1209,-702C131.8074,-702 115.7444,-702 101.243,-702"/>
<polygon fill="#000000" stroke="#000000" points="100.9929,-698.5001 90.9929,-702 100.9928,-705.5001 100.9929,-698.5001"/>
</g>
<!-- console&#45;bridge&#45;&gt;cmake -->
<g id="edge17" class="edge">
<title>console&#45;bridge&#45;&gt;cmake</title>
<path fill="none" stroke="#000000" d="M166.6491,-714.8917C156.3736,-719.5427 146.2887,-725.7583 138.6909,-734 77.3464,-800.543 58.9063,-911.7897 53.5057,-963.707"/>
<polygon fill="#000000" stroke="#000000" points="50.0039,-963.561 52.5405,-973.8477 56.9724,-964.2243 50.0039,-963.561"/>
</g>
<!-- eigenpy&#45;&gt;doxygen -->
<g id="edge96" class="edge">
<title>eigenpy&#45;&gt;doxygen</title>
<path fill="none" stroke="#000000" d="M403.5439,-1324.1348C388.5387,-1271.1036 344.4125,-1109.7633 322.8777,-973 293.1854,-784.4294 340.3421,-728.2541 286.8777,-545 274.4223,-502.3079 248.3757,-457.6102 230.7294,-430.2748"/>
<polygon fill="#000000" stroke="#000000" points="233.5127,-428.1368 225.0988,-421.6981 227.6611,-431.9785 233.5127,-428.1368"/>
</g>
<!-- eigenpy&#45;&gt;eigen32 -->
<g id="edge98" class="edge">
<title>eigenpy&#45;&gt;eigen32</title>
<path fill="none" stroke="#000000" d="M371.2319,-1348.8742C354.6795,-1353.5564 336.031,-1361.3035 322.8777,-1374 292.7699,-1403.0625 307.2319,-1424.4375 286.8777,-1461 271.2212,-1489.1241 249.2975,-1518.7005 233.3624,-1538.908"/>
<polygon fill="#000000" stroke="#000000" points="230.4364,-1536.9635 226.9355,-1546.9632 235.9082,-1541.3292 230.4364,-1536.9635"/>
</g>
<!-- eigenpy&#45;&gt;boost&#45;libs -->
<g id="edge101" class="edge">
<title>eigenpy&#45;&gt;boost&#45;libs</title>
<path fill="none" stroke="#000000" d="M374.2866,-1351.4665C358.0224,-1356.7678 338.7392,-1364.2866 322.8777,-1374 304.3677,-1385.3353 305.4305,-1395.7347 286.8777,-1407 278.7134,-1411.9574 269.4962,-1416.218 260.4064,-1419.7935"/>
<polygon fill="#000000" stroke="#000000" points="259.1877,-1416.5124 251.0293,-1423.272 261.6224,-1423.0754 259.1877,-1416.5124"/>
</g>
<!-- python2&#45;numpy -->
<g id="node25" class="node">
<title>python2&#45;numpy</title>
<ellipse fill="none" stroke="#000000" cx="212.7843" cy="-1380" rx="72.2875" ry="18"/>
<text text-anchor="middle" x="212.7843" y="-1376.3" font-family="Times,serif" font-size="14.00" fill="#000000">python2&#45;numpy</text>
</g>
<!-- eigenpy&#45;&gt;python2&#45;numpy -->
<g id="edge100" class="edge">
<title>eigenpy&#45;&gt;python2&#45;numpy</title>
<path fill="none" stroke="#000000" d="M371.3644,-1349.237C345.6339,-1354.2284 310.6982,-1361.0056 280.166,-1366.9286"/>
<polygon fill="#000000" stroke="#000000" points="279.1505,-1363.5603 270.0001,-1368.9007 280.4836,-1370.4321 279.1505,-1363.5603"/>
</g>
<!-- eigenpy&#45;&gt;cmake -->
<g id="edge97" class="edge">
<title>eigenpy&#45;&gt;cmake</title>
<path fill="none" stroke="#000000" d="M368.2304,-1342.5507C301.4719,-1342.6082 172.2378,-1338.8553 138.6909,-1310 94.2054,-1271.7359 64.9604,-1090.8744 55.07,-1020.3007"/>
<polygon fill="#000000" stroke="#000000" points="58.5298,-1019.7682 53.7004,-1010.3381 51.595,-1020.7217 58.5298,-1019.7682"/>
</g>
<!-- eigenpy&#45;&gt;boost -->
<g id="edge99" class="edge">
<title>eigenpy&#45;&gt;boost</title>
<path fill="none" stroke="#000000" d="M375.7862,-1331.1703C316.5269,-1309.7184 192.9442,-1255.7055 138.6909,-1163 83.7682,-1069.1506 119.9028,-782.3683 102.6909,-675 92.3011,-610.1884 71.5192,-535.8601 59.8315,-496.6197"/>
<polygon fill="#000000" stroke="#000000" points="63.1619,-495.5406 56.93,-486.9724 56.4585,-497.5567 63.1619,-495.5406"/>
</g>
<!-- hpp&#45;fcl&#45;&gt;eigen32 -->
<g id="edge69" class="edge">
<title>hpp&#45;fcl&#45;&gt;eigen32</title>
<path fill="none" stroke="#000000" d="M376.0046,-1443.0306C359.4218,-1448.3828 339.3544,-1456.0746 322.8777,-1466 304.6236,-1476.9962 263.5193,-1515.1677 237.0254,-1540.4982"/>
<polygon fill="#000000" stroke="#000000" points="234.4327,-1538.1354 229.6427,-1547.5856 239.2805,-1543.1851 234.4327,-1538.1354"/>
</g>
<!-- hpp&#45;fcl&#45;&gt;cmake -->
<g id="edge68" class="edge">
<title>hpp&#45;fcl&#45;&gt;cmake</title>
<path fill="none" stroke="#000000" d="M375.513,-1442.995C311.4632,-1459.4812 173.9241,-1490.2773 138.6909,-1461 70.2925,-1404.1639 55.1837,-1112.6563 52.0905,-1020.1832"/>
<polygon fill="#000000" stroke="#000000" points="55.588,-1020.0477 51.777,-1010.1621 48.5915,-1020.2666 55.588,-1020.0477"/>
</g>
<!-- hpp&#45;fcl&#45;&gt;assimp -->
<g id="edge70" class="edge">
<title>hpp&#45;fcl&#45;&gt;assimp</title>
<path fill="none" stroke="#000000" d="M384.2873,-1420.0424C365.5598,-1408.3443 340.0734,-1390.1812 322.8777,-1369 270.1838,-1304.0928 235.757,-1209.7949 221.0059,-1163.5981"/>
<polygon fill="#000000" stroke="#000000" points="224.322,-1162.4753 217.9972,-1153.9755 217.6409,-1164.5643 224.322,-1162.4753"/>
</g>
<!-- pinocchio&#45;git -->
<g id="node33" class="node">
<title>pinocchio&#45;git</title>
<ellipse fill="none" stroke="#000000" cx="609.1055" cy="-1358" rx="60.3893" ry="18"/>
<text text-anchor="middle" x="609.1055" y="-1354.3" font-family="Times,serif" font-size="14.00" fill="#000000">pinocchio&#45;git</text>
</g>
<!-- pinocchio&#45;git&#45;&gt;urdfdom -->
<g id="edge8" class="edge">
<title>pinocchio&#45;git&#45;&gt;urdfdom</title>
<path fill="none" stroke="#000000" d="M595.3449,-1340.4253C578.5863,-1318.4867 550.0912,-1279.4059 530.4625,-1243 479.3848,-1148.2646 436.0592,-1027.439 417.8583,-973.8027"/>
<polygon fill="#000000" stroke="#000000" points="421.0656,-972.3598 414.5582,-963.9989 414.4314,-974.593 421.0656,-972.3598"/>
</g>
<!-- pinocchio&#45;git&#45;&gt;eigen32 -->
<g id="edge5" class="edge">
<title>pinocchio&#45;git&#45;&gt;eigen32</title>
<path fill="none" stroke="#000000" d="M594.7852,-1375.5802C574.8236,-1398.8573 536.3415,-1439.4654 494.4625,-1461 425.0002,-1496.7182 395.5391,-1470.3447 322.8777,-1499 294.0223,-1510.3796 263.8637,-1528.7046 242.4233,-1543.0013"/>
<polygon fill="#000000" stroke="#000000" points="240.3988,-1540.1452 234.0839,-1548.6524 244.3257,-1545.94 240.3988,-1540.1452"/>
</g>
<!-- pinocchio&#45;git&#45;&gt;git -->
<g id="edge4" class="edge">
<title>pinocchio&#45;git&#45;&gt;git</title>
<path fill="none" stroke="#000000" d="M592.6292,-1340.5777C573.7566,-1319.3957 543.7348,-1281.6618 530.4625,-1243 488.2447,-1120.0206 568.704,-765.7449 494.4625,-659 446.8393,-590.5271 374.2405,-648.7144 322.8777,-583 265.6417,-509.7712 320.8919,-463.4954 286.8777,-377 273.6081,-343.2565 249.5861,-308.9626 232.4931,-286.9281"/>
<polygon fill="#000000" stroke="#000000" points="235.0404,-284.5065 226.0937,-278.8312 229.5485,-288.847 235.0404,-284.5065"/>
</g>
<!-- pinocchio&#45;git&#45;&gt;eigenpy -->
<g id="edge6" class="edge">
<title>pinocchio&#45;git&#45;&gt;eigenpy</title>
<path fill="none" stroke="#000000" d="M550.5925,-1353.3291C521.4939,-1351.0063 486.6861,-1348.2277 458.8247,-1346.0037"/>
<polygon fill="#000000" stroke="#000000" points="458.7599,-1342.4874 448.5131,-1345.1805 458.2029,-1349.4652 458.7599,-1342.4874"/>
</g>
<!-- pinocchio&#45;git&#45;&gt;hpp&#45;fcl -->
<g id="edge7" class="edge">
<title>pinocchio&#45;git&#45;&gt;hpp&#45;fcl</title>
<path fill="none" stroke="#000000" d="M571.9653,-1372.3564C549.5418,-1380.9987 520.3835,-1392.1919 494.4625,-1402 479.3621,-1407.7138 462.7401,-1413.9305 448.1804,-1419.3518"/>
<polygon fill="#000000" stroke="#000000" points="446.6268,-1416.1954 438.4742,-1422.962 449.0671,-1422.7563 446.6268,-1416.1954"/>
</g>
<!-- pinocchio&#45;git&#45;&gt;metapod&#45;git -->
<g id="edge1" class="edge">
<title>pinocchio&#45;git&#45;&gt;metapod&#45;git</title>
<path fill="none" stroke="#000000" d="M598.3195,-1375.9884C580.2392,-1404.7267 541.167,-1461.099 494.4625,-1494 484.614,-1500.9378 473.0784,-1506.5722 461.7175,-1511.067"/>
<polygon fill="#000000" stroke="#000000" points="460.4138,-1507.8175 452.2563,-1514.5782 462.8493,-1514.3802 460.4138,-1507.8175"/>
</g>
<!-- pinocchio&#45;git&#45;&gt;lua51 -->
<g id="edge2" class="edge">
<title>pinocchio&#45;git&#45;&gt;lua51</title>
<path fill="none" stroke="#000000" d="M596.7691,-1375.9695C580.74,-1399.6065 552.2325,-1442.6459 530.4625,-1481 512.8019,-1512.1143 521.687,-1529.7873 494.4625,-1553 481.9864,-1563.6376 465.312,-1570.0912 449.9819,-1574.0034"/>
<polygon fill="#000000" stroke="#000000" points="449.1407,-1570.6052 440.1596,-1576.2258 450.6855,-1577.4326 449.1407,-1570.6052"/>
</g>
<!-- pinocchio&#45;git&#45;&gt;cmake -->
<g id="edge3" class="edge">
<title>pinocchio&#45;git&#45;&gt;cmake</title>
<path fill="none" stroke="#000000" d="M575.4149,-1342.9302C552.9219,-1333.4806 522.4436,-1321.8344 494.4625,-1315 417.101,-1296.1045 199.8887,-1322.9576 138.6909,-1272 99.2948,-1239.196 67.8367,-1084.7786 56.2012,-1020.3463"/>
<polygon fill="#000000" stroke="#000000" points="59.5777,-1019.3423 54.3831,-1010.1083 52.6856,-1020.5663 59.5777,-1019.3423"/>
</g>
<!-- tabula -->
<g id="node35" class="node">
<title>tabula</title>
<ellipse fill="none" stroke="#000000" cx="1041.8235" cy="-1535" rx="33.2948" ry="18"/>
<text text-anchor="middle" x="1041.8235" y="-1531.3" font-family="Times,serif" font-size="14.00" fill="#000000">tabula</text>
</g>
<!-- tabula&#45;&gt;java&#45;runtime -->
<g id="edge61" class="edge">
<title>tabula&#45;&gt;java&#45;runtime</title>
<path fill="none" stroke="#000000" d="M1008.5417,-1535C978.12,-1535 932.1856,-1535 893.9806,-1535"/>
<polygon fill="#000000" stroke="#000000" points="893.9402,-1531.5001 883.9402,-1535 893.9401,-1538.5001 893.9402,-1531.5001"/>
</g>
<!-- curl -->
<g id="node36" class="node">
<title>curl</title>
<ellipse fill="none" stroke="#000000" cx="408.6701" cy="-892" rx="27" ry="18"/>
<text text-anchor="middle" x="408.6701" y="-888.3" font-family="Times,serif" font-size="14.00" fill="#000000">curl</text>
</g>
<!-- hpp&#45;model&#45;&gt;eigen32 -->
<g id="edge21" class="edge">
<title>hpp&#45;model&#45;&gt;eigen32</title>
<path fill="none" stroke="#000000" d="M596.8506,-1233.757C570.2264,-1272.1218 508.3743,-1360.027 494.4625,-1369 428.8238,-1411.3363 387.3264,-1362.8732 322.8777,-1407 299.0775,-1423.2956 303.3023,-1437.2885 286.8777,-1461 268.4393,-1487.6188 246.7456,-1517.6295 231.6148,-1538.3597"/>
<polygon fill="#000000" stroke="#000000" points="228.6381,-1536.5009 225.5606,-1546.639 234.2886,-1540.6329 228.6381,-1536.5009"/>
</g>
<!-- hpp&#45;model&#45;&gt;hpp&#45;util&#45;git -->
<g id="edge22" class="edge">
<title>hpp&#45;model&#45;&gt;hpp&#45;util&#45;git</title>
<path fill="none" stroke="#000000" d="M591.0108,-1199.0183C572.153,-1180.0636 543.5621,-1147.4937 530.4625,-1113 491.9357,-1011.5518 544.5837,-722.2492 494.4625,-626 483.7803,-605.4866 464.1896,-588.7936 446.4232,-576.8608"/>
<polygon fill="#000000" stroke="#000000" points="448.2018,-573.8435 437.8951,-571.3894 444.4218,-579.7352 448.2018,-573.8435"/>
</g>
<!-- hpp&#45;model&#45;&gt;hpp&#45;fcl -->
<g id="edge23" class="edge">
<title>hpp&#45;model&#45;&gt;hpp&#45;fcl</title>
<path fill="none" stroke="#000000" d="M596.1062,-1233.4564C579.8717,-1255.5942 551.6564,-1295.2011 530.4625,-1331 512.4384,-1361.4448 520.8441,-1378.4253 494.4625,-1402 483.0015,-1412.2416 467.9598,-1419.3117 453.6771,-1424.145"/>
<polygon fill="#000000" stroke="#000000" points="452.4853,-1420.8499 443.9636,-1427.1453 454.5512,-1427.5381 452.4853,-1420.8499"/>
</g>
<!-- hpp&#45;model&#45;&gt;cmake -->
<g id="edge20" class="edge">
<title>hpp&#45;model&#45;&gt;cmake</title>
<path fill="none" stroke="#000000" d="M562.8456,-1224.4742C472.1275,-1238.3934 268.4327,-1256.0266 138.6909,-1163 90.402,-1128.3762 67.0132,-1059.07 57.26,-1020.1619"/>
<polygon fill="#000000" stroke="#000000" points="60.5746,-1018.9704 54.8614,-1010.0481 53.7636,-1020.5859 60.5746,-1018.9704"/>
</g>
<!-- hpp&#45;model&#45;&gt;assimp -->
<g id="edge19" class="edge">
<title>hpp&#45;model&#45;&gt;assimp</title>
<path fill="none" stroke="#000000" d="M564.0283,-1206.9009C487.3931,-1191.4316 332.6559,-1160.1969 256.7697,-1144.8787"/>
<polygon fill="#000000" stroke="#000000" points="257.0964,-1141.3742 246.6015,-1142.8262 255.7113,-1148.2358 257.0964,-1141.3742"/>
</g>
<!-- hpp&#45;model&#45;urdf&#45;&gt;urdfdom -->
<g id="edge90" class="edge">
<title>hpp&#45;model&#45;urdf&#45;&gt;urdfdom</title>
<path fill="none" stroke="#000000" d="M790.8201,-1001.3233C763.372,-989.7631 723.8857,-974.7518 687.7486,-967 610.6001,-950.4508 519.0296,-946.4471 462.3783,-945.7319"/>
<polygon fill="#000000" stroke="#000000" points="462.2511,-942.2306 452.2179,-945.6344 462.1838,-949.2303 462.2511,-942.2306"/>
</g>
<!-- hpp&#45;model&#45;urdf&#45;&gt;hpp&#45;util&#45;git -->
<g id="edge86" class="edge">
<title>hpp&#45;model&#45;urdf&#45;&gt;hpp&#45;util&#45;git</title>
<path fill="none" stroke="#000000" d="M817.153,-999.0669C798.6959,-962.6945 751.8132,-880.0544 687.7486,-837 627.5995,-796.577 579.2464,-847.5917 530.4625,-794 467.8972,-725.2686 553.8675,-659.4805 494.4625,-588 486.9969,-579.0168 476.7493,-572.5541 465.9317,-567.9052"/>
<polygon fill="#000000" stroke="#000000" points="466.9255,-564.539 456.3342,-564.2688 464.4454,-571.0849 466.9255,-564.539"/>
</g>
<!-- hpp&#45;model&#45;urdf&#45;&gt;urdf -->
<g id="edge88" class="edge">
<title>hpp&#45;model&#45;urdf&#45;&gt;urdf</title>
<path fill="none" stroke="#000000" d="M781.6791,-1031.0463C740.8476,-1044.0486 680.9663,-1063.1169 643.5497,-1075.0317"/>
<polygon fill="#000000" stroke="#000000" points="642.093,-1071.8223 633.6265,-1078.1916 644.217,-1078.4923 642.093,-1071.8223"/>
</g>
<!-- hpp&#45;model&#45;urdf&#45;&gt;srdfdom -->
<g id="edge91" class="edge">
<title>hpp&#45;model&#45;urdf&#45;&gt;srdfdom</title>
<path fill="none" stroke="#000000" d="M760.7772,-1010.0992C728.6618,-1006.6903 690.4648,-1002.6359 660.4376,-999.4487"/>
<polygon fill="#000000" stroke="#000000" points="660.4942,-995.9351 650.1806,-998.3599 659.7553,-1002.896 660.4942,-995.9351"/>
</g>
<!-- hpp&#45;model&#45;urdf&#45;&gt;hpp&#45;model -->
<g id="edge87" class="edge">
<title>hpp&#45;model&#45;urdf&#45;&gt;hpp&#45;model</title>
<path fill="none" stroke="#000000" d="M807.168,-1034.6716C780.7733,-1059.6581 730.887,-1106.6553 687.7486,-1146 670.613,-1161.6286 651.1444,-1178.9609 635.8648,-1192.4687"/>
<polygon fill="#000000" stroke="#000000" points="633.4716,-1189.9127 628.291,-1199.1546 638.1042,-1195.1606 633.4716,-1189.9127"/>
</g>
<!-- hpp&#45;model&#45;urdf&#45;&gt;cmake -->
<g id="edge84" class="edge">
<title>hpp&#45;model&#45;urdf&#45;&gt;cmake</title>
<path fill="none" stroke="#000000" d="M761.668,-1024.4579C614.1986,-1040.814 254.729,-1075.9262 138.6909,-1044 116.8682,-1037.9958 94.9891,-1024.9567 78.5871,-1013.4383"/>
<polygon fill="#000000" stroke="#000000" points="80.2203,-1010.2985 70.0735,-1007.2499 76.1045,-1015.9607 80.2203,-1010.2985"/>
</g>
<!-- hpp&#45;model&#45;urdf&#45;&gt;assimp -->
<g id="edge85" class="edge">
<title>hpp&#45;model&#45;urdf&#45;&gt;assimp</title>
<path fill="none" stroke="#000000" d="M808.0267,-1034.4294C783.402,-1057.3077 736.4006,-1096.4924 687.7486,-1113 610.8823,-1139.0807 403.9446,-1125.9025 322.8777,-1130 301.9733,-1131.0566 278.8408,-1132.3053 259.1975,-1133.3891"/>
<polygon fill="#000000" stroke="#000000" points="258.7687,-1129.9074 248.9777,-1133.9555 259.1561,-1136.8967 258.7687,-1129.9074"/>
</g>
<!-- hpp&#45;model&#45;urdf&#45;&gt;resource&#45;retriever -->
<g id="edge89" class="edge">
<title>hpp&#45;model&#45;urdf&#45;&gt;resource&#45;retriever</title>
<path fill="none" stroke="#000000" d="M809.4207,-999.3065C784.976,-973.7125 736.5605,-926.1338 687.7486,-896 679.827,-891.1097 671.0276,-886.6847 662.2656,-882.7931"/>
<polygon fill="#000000" stroke="#000000" points="663.3885,-879.4675 652.8158,-878.7828 660.6539,-885.9113 663.3885,-879.4675"/>
</g>
<!-- srdfdom&#45;git -->
<g id="node40" class="node">
<title>srdfdom&#45;git</title>
<ellipse fill="none" stroke="#000000" cx="408.6701" cy="-686" rx="54.6905" ry="18"/>
<text text-anchor="middle" x="408.6701" y="-682.3" font-family="Times,serif" font-size="14.00" fill="#000000">srdfdom&#45;git</text>
</g>
<!-- srdfdom&#45;git&#45;&gt;doxygen -->
<g id="edge46" class="edge">
<title>srdfdom&#45;git&#45;&gt;doxygen</title>
<path fill="none" stroke="#000000" d="M361.5348,-676.7078C347.5613,-671.9392 333.2413,-664.7653 322.8777,-654 287.4945,-617.2455 306.8115,-591.9629 286.8777,-545 269.4047,-503.8344 244.4397,-458.4108 228.4211,-430.5365"/>
<polygon fill="#000000" stroke="#000000" points="231.3952,-428.6879 223.3554,-421.7877 225.3374,-432.1955 231.3952,-428.6879"/>
</g>
<!-- srdfdom&#45;git&#45;&gt;git -->
<g id="edge48" class="edge">
<title>srdfdom&#45;git&#45;&gt;git</title>
<path fill="none" stroke="#000000" d="M359.8055,-677.678C345.9134,-672.9622 332.076,-665.5742 322.8777,-654 245.6374,-556.808 329.7722,-493.5007 286.8777,-377 274.3498,-342.9742 250.1794,-308.7368 232.849,-286.7926"/>
<polygon fill="#000000" stroke="#000000" points="235.353,-284.3219 226.3523,-278.7328 229.903,-288.7149 235.353,-284.3219"/>
</g>
<!-- srdfdom&#45;git&#45;&gt;urdfdom&#45;headers -->
<g id="edge51" class="edge">
<title>srdfdom&#45;git&#45;&gt;urdfdom&#45;headers</title>
<path fill="none" stroke="#000000" d="M393.2993,-703.42C358.8405,-742.4725 275.2923,-837.1589 235.1046,-882.7041"/>
<polygon fill="#000000" stroke="#000000" points="232.3467,-880.5397 228.3548,-890.3538 237.5955,-885.1711 232.3467,-880.5397"/>
</g>
<!-- srdfdom&#45;git&#45;&gt;console&#45;bridge -->
<g id="edge52" class="edge">
<title>srdfdom&#45;git&#45;&gt;console&#45;bridge</title>
<path fill="none" stroke="#000000" d="M355.6606,-690.3298C334.2428,-692.0792 309.165,-694.1276 286.049,-696.0157"/>
<polygon fill="#000000" stroke="#000000" points="285.6157,-692.5394 275.9339,-696.8419 286.1856,-699.5161 285.6157,-692.5394"/>
</g>
<!-- srdfdom&#45;git&#45;&gt;tinyxml -->
<g id="edge50" class="edge">
<title>srdfdom&#45;git&#45;&gt;tinyxml</title>
<path fill="none" stroke="#000000" d="M364.681,-675.1276C350.4216,-670.2151 335.1357,-663.3552 322.8777,-654 301.11,-637.387 308.2176,-621.1592 286.8777,-604 277.672,-596.5977 266.4941,-590.6005 255.6414,-585.8856"/>
<polygon fill="#000000" stroke="#000000" points="256.8276,-582.5898 246.2455,-582.0693 254.1933,-589.0752 256.8276,-582.5898"/>
</g>
<!-- srdfdom&#45;git&#45;&gt;cmake -->
<g id="edge47" class="edge">
<title>srdfdom&#45;git&#45;&gt;cmake</title>
<path fill="none" stroke="#000000" d="M374.2715,-671.9598C318.5727,-651.7333 207.9141,-622.2707 138.6909,-675 92.0411,-710.5345 64.0108,-893.2085 54.7604,-963.9607"/>
<polygon fill="#000000" stroke="#000000" points="51.2815,-963.5737 53.4843,-973.937 58.2249,-964.4619 51.2815,-963.5737"/>
</g>
<!-- srdfdom&#45;git&#45;&gt;boost -->
<g id="edge49" class="edge">
<title>srdfdom&#45;git&#45;&gt;boost</title>
<path fill="none" stroke="#000000" d="M372.9073,-672.3947C348.7484,-663.3734 316.0601,-651.4945 286.8777,-642 221.6649,-620.783 194.071,-639.4466 138.6909,-599 102.1944,-572.345 76.2698,-525.5019 62.574,-495.9215"/>
<polygon fill="#000000" stroke="#000000" points="65.6832,-494.3009 58.4005,-486.6058 59.295,-497.1628 65.6832,-494.3009"/>
</g>
<!-- gepetto&#45;viewer&#45;git&#45;&gt;urdfdom -->
<g id="edge59" class="edge">
<title>gepetto&#45;viewer&#45;git&#45;&gt;urdfdom</title>
<path fill="none" stroke="#000000" d="M549.0797,-329.9178C541.8835,-333.663 535.3635,-338.5712 530.4625,-345 452.9778,-446.6392 573.2527,-818.3693 494.4625,-919 486.2547,-929.483 473.997,-935.9781 461.2978,-939.9789"/>
<polygon fill="#000000" stroke="#000000" points="460.3202,-936.6173 451.5604,-942.5769 462.1247,-943.3807 460.3202,-936.6173"/>
</g>
<!-- gepetto&#45;viewer&#45;git&#45;&gt;openscenegraph&#45;qt4 -->
<g id="edge60" class="edge">
<title>gepetto&#45;viewer&#45;git&#45;&gt;openscenegraph&#45;qt4</title>
<path fill="none" stroke="#000000" d="M554.4237,-304.9018C545.8518,-301.3021 537.5101,-296.748 530.4625,-291 506.0672,-271.1033 518.5942,-250.2157 494.4625,-230 487.9811,-224.5704 480.4896,-220.0156 472.6875,-216.2065"/>
<polygon fill="#000000" stroke="#000000" points="473.9857,-212.9531 463.4278,-212.0698 471.1305,-219.3444 473.9857,-212.9531"/>
</g>
<!-- gepetto&#45;viewer&#45;git&#45;&gt;doxygen -->
<g id="edge55" class="edge">
<title>gepetto&#45;viewer&#45;git&#45;&gt;doxygen</title>
<path fill="none" stroke="#000000" d="M550.082,-329.9188C492.1428,-341.7256 401.3012,-360.5229 322.8777,-378 302.4733,-382.5473 280.003,-387.8082 260.7127,-392.4031"/>
<polygon fill="#000000" stroke="#000000" points="259.8553,-389.0093 250.9427,-394.7379 261.4824,-395.8176 259.8553,-389.0093"/>
</g>
<!-- gepetto&#45;viewer&#45;git&#45;&gt;git -->
<g id="edge57" class="edge">
<title>gepetto&#45;viewer&#45;git&#45;&gt;git</title>
<path fill="none" stroke="#000000" d="M551.5556,-305.5483C543.7249,-301.8831 536.3656,-297.1395 530.4625,-291 491.87,-250.8619 539.1355,-204.2381 494.4625,-171 433.2797,-125.4781 394.565,-144.9902 322.8777,-171 285.7577,-184.468 252.3924,-216.5363 232.3666,-239.0031"/>
<polygon fill="#000000" stroke="#000000" points="229.5178,-236.9459 225.61,-246.7938 234.8061,-241.5323 229.5178,-236.9459"/>
</g>
<!-- gepetto&#45;viewer&#45;git&#45;&gt;cmake -->
<g id="edge56" class="edge">
<title>gepetto&#45;viewer&#45;git&#45;&gt;cmake</title>
<path fill="none" stroke="#000000" d="M549.6714,-329.8777C542.2931,-333.625 535.5644,-338.5444 530.4625,-345 479.5146,-409.4664 549.8161,-652.2745 494.4625,-713 442.1476,-770.3919 398.9574,-730.4252 322.8777,-746 240.8108,-762.8005 203.2008,-732.5612 138.6909,-786 83.3014,-831.8836 62.343,-919.1567 54.985,-963.9456"/>
<polygon fill="#000000" stroke="#000000" points="51.5216,-963.4405 53.4668,-973.8552 58.4409,-964.5006 51.5216,-963.4405"/>
</g>
<!-- gepetto&#45;viewer&#45;git&#45;&gt;boost -->
<g id="edge58" class="edge">
<title>gepetto&#45;viewer&#45;git&#45;&gt;boost</title>
<path fill="none" stroke="#000000" d="M550.8427,-305.6555C543.2041,-301.9757 536.0899,-297.1995 530.4625,-291 484.0919,-239.9151 548.6094,-182.7553 494.4625,-140 434.6116,-92.7407 396.9476,-121.8554 322.8777,-140 233.2161,-161.9641 199.8716,-166.8729 138.6909,-236 85.0353,-296.6245 63.1289,-393.3506 55.2414,-440.835"/>
<polygon fill="#000000" stroke="#000000" points="51.7398,-440.5726 53.645,-450.9947 58.6549,-441.6592 51.7398,-440.5726"/>
</g>
<!-- resource&#45;retriever&#45;&gt;urdfdom -->
<g id="edge36" class="edge">
<title>resource&#45;retriever&#45;&gt;urdfdom</title>
<path fill="none" stroke="#000000" d="M568.0566,-879.0621C555.7568,-884.0105 542.3759,-889.8358 530.4625,-896 513.5994,-904.7252 511.6672,-910.9693 494.4625,-919 482.2853,-924.6839 468.5996,-929.5977 455.7957,-933.6167"/>
<polygon fill="#000000" stroke="#000000" points="454.7749,-930.2688 446.2161,-936.5136 456.8011,-936.9692 454.7749,-930.2688"/>
</g>
<!-- resource&#45;retriever&#45;&gt;curl -->
<g id="edge37" class="edge">
<title>resource&#45;retriever&#45;&gt;curl</title>
<path fill="none" stroke="#000000" d="M544.3067,-873.0521C511.4471,-877.6425 472.7573,-883.0473 445.1266,-886.9072"/>
<polygon fill="#000000" stroke="#000000" points="444.5331,-883.456 435.1135,-888.306 445.5016,-890.3887 444.5331,-883.456"/>
</g>
<!-- resource&#45;retriever&#45;&gt;cmake -->
<g id="edge35" class="edge">
<title>resource&#45;retriever&#45;&gt;cmake</title>
<path fill="none" stroke="#000000" d="M588.57,-881.3088C572.4044,-895.1629 549.5028,-915.3013 530.4625,-934 513.6322,-950.5283 515.8635,-963.0783 494.4625,-973 359.304,-1035.6609 175.3428,-1014.4607 93.5448,-1000.367"/>
<polygon fill="#000000" stroke="#000000" points="94.0797,-996.9073 83.6218,-998.6048 92.8557,-1003.7995 94.0797,-996.9073"/>
</g>
<!-- resource&#45;retriever&#45;&gt;boost -->
<g id="edge38" class="edge">
<title>resource&#45;retriever&#45;&gt;boost</title>
<path fill="none" stroke="#000000" d="M558.5638,-850.5761C547.9725,-845.65 537.804,-838.9842 530.4625,-830 481.3185,-769.8596 543.3386,-719.3583 494.4625,-659 441.9744,-594.181 391.0163,-631.1004 322.8777,-583 303.8718,-569.5833 306.5605,-557.4025 286.8777,-545 224.771,-505.8653 140.6579,-485.1161 91.5729,-475.6425"/>
<polygon fill="#000000" stroke="#000000" points="92.1236,-472.1849 81.6509,-473.7895 90.8384,-479.0659 92.1236,-472.1849"/>
</g>
</g>
</svg>
