<?xml version="1.0" encoding="UTF-8" standalone="no"?>
<!DOCTYPE svg PUBLIC "-//W3C//DTD SVG 1.1//EN"
 "http://www.w3.org/Graphics/SVG/1.1/DTD/svg11.dtd">
<!-- Generated by graphviz version 2.40.1 (20161225.0304)
 -->
<!-- Title: dependencies Pages: 1 -->
<svg width="1336pt" height="1760pt"
 viewBox="0.00 0.00 1335.80 1760.43" xmlns="http://www.w3.org/2000/svg" xmlns:xlink="http://www.w3.org/1999/xlink">
<g id="graph0" class="graph" transform="scale(1 1) rotate(0) translate(4 1756.429)">
<title>dependencies</title>
<polygon fill="#ffffff" stroke="transparent" points="-4,4 -4,-1756.429 1331.7982,-1756.429 1331.7982,4 -4,4"/>
<!-- console&#45;bridge -->
<g id="node1" class="node">
<title>console&#45;bridge</title>
<ellipse fill="none" stroke="#000000" cx="255.0306" cy="-717.429" rx="79.0865" ry="18"/>
<text text-anchor="middle" x="255.0306" y="-713.729" font-family="Times,serif" font-size="14.00" fill="#000000">console&#45;bridge</text>
</g>
<!-- gcc&#45;libs -->
<g id="node12" class="node">
<title>gcc&#45;libs</title>
<ellipse fill="none" stroke="#000000" cx="64.3443" cy="-717.429" rx="46.5926" ry="18"/>
<text text-anchor="middle" x="64.3443" y="-713.729" font-family="Times,serif" font-size="14.00" fill="#000000">gcc&#45;libs</text>
</g>
<!-- console&#45;bridge&#45;&gt;gcc&#45;libs -->
<g id="edge106" class="edge">
<title>console&#45;bridge&#45;&gt;gcc&#45;libs</title>
<path fill="none" stroke="#000000" d="M175.5432,-717.429C157.4329,-717.429 138.5374,-717.429 121.5699,-717.429"/>
<polygon fill="#000000" stroke="#000000" points="121.2786,-713.9291 111.2786,-717.429 121.2786,-720.9291 121.2786,-713.9291"/>
</g>
<!-- cmake -->
<g id="node40" class="node">
<title>cmake</title>
<ellipse fill="none" stroke="#000000" cx="64.3443" cy="-893.429" rx="41.6928" ry="18"/>
<text text-anchor="middle" x="64.3443" y="-889.729" font-family="Times,serif" font-size="14.00" fill="#000000">cmake</text>
</g>
<!-- console&#45;bridge&#45;&gt;cmake -->
<g id="edge105" class="edge">
<title>console&#45;bridge&#45;&gt;cmake</title>
<path fill="none" stroke="#000000" d="M200.6531,-730.5646C188.0674,-735.2082 175.275,-741.3593 164.6886,-749.429 123.401,-780.9014 92.6243,-834.2638 76.6553,-866.4394"/>
<polygon fill="#000000" stroke="#000000" points="73.3811,-865.1706 72.1795,-875.6971 79.6833,-868.2175 73.3811,-865.1706"/>
</g>
<!-- urdfdom&#45;headers -->
<g id="node2" class="node">
<title>urdfdom&#45;headers</title>
<ellipse fill="none" stroke="#000000" cx="255.0306" cy="-847.429" rx="90.1842" ry="18"/>
<text text-anchor="middle" x="255.0306" y="-843.729" font-family="Times,serif" font-size="14.00" fill="#000000">urdfdom&#45;headers</text>
</g>
<!-- urdfdom&#45;headers&#45;&gt;cmake -->
<g id="edge42" class="edge">
<title>urdfdom&#45;headers&#45;&gt;cmake</title>
<path fill="none" stroke="#000000" d="M197.3009,-861.3554C169.6243,-868.0319 136.9118,-875.9233 110.8605,-882.2078"/>
<polygon fill="#000000" stroke="#000000" points="109.7659,-878.8713 100.8655,-884.6189 111.4075,-885.6761 109.7659,-878.8713"/>
</g>
<!-- assimp -->
<g id="node3" class="node">
<title>assimp</title>
<ellipse fill="none" stroke="#000000" cx="255.0306" cy="-1205.429" rx="43.5923" ry="18"/>
<text text-anchor="middle" x="255.0306" y="-1201.729" font-family="Times,serif" font-size="14.00" fill="#000000">assimp</text>
</g>
<!-- git -->
<g id="node4" class="node">
<title>git</title>
<ellipse fill="none" stroke="#000000" cx="255.0306" cy="-335.429" rx="27" ry="18"/>
<text text-anchor="middle" x="255.0306" y="-331.729" font-family="Times,serif" font-size="14.00" fill="#000000">git</text>
</g>
<!-- omniorb -->
<g id="node5" class="node">
<title>omniorb</title>
<ellipse fill="none" stroke="#000000" cx="725.4452" cy="-351.429" rx="49.2915" ry="18"/>
<text text-anchor="middle" x="725.4452" y="-347.729" font-family="Times,serif" font-size="14.00" fill="#000000">omniorb</text>
</g>
<!-- hpp&#45;pinocchio&#45;git -->
<g id="node6" class="node">
<title>hpp&#45;pinocchio&#45;git</title>
<ellipse fill="none" stroke="#000000" cx="1236.1563" cy="-1099.429" rx="91.784" ry="18"/>
<text text-anchor="middle" x="1236.1563" y="-1095.729" font-family="Times,serif" font-size="14.00" fill="#000000">hpp&#45;pinocchio&#45;git</text>
</g>
<!-- hpp&#45;pinocchio&#45;git&#45;&gt;assimp -->
<g id="edge32" class="edge">
<title>hpp&#45;pinocchio&#45;git&#45;&gt;assimp</title>
<path fill="none" stroke="#000000" d="M1144.967,-1101.6235C1068.1884,-1104.0417 955.5444,-1108.925 857.6367,-1118.429 651.6618,-1138.4232 408.295,-1178.7178 305.1907,-1196.5697"/>
<polygon fill="#000000" stroke="#000000" points="304.3246,-1193.1676 295.0714,-1198.3278 305.5229,-1200.0643 304.3246,-1193.1676"/>
</g>
<!-- hpp&#45;pinocchio&#45;git&#45;&gt;git -->
<g id="edge29" class="edge">
<title>hpp&#45;pinocchio&#45;git&#45;&gt;git</title>
<path fill="none" stroke="#000000" d="M1234.6838,-1081.3084C1224.8863,-962.6382 1167.7025,-299.2559 1108.5144,-233.429 891.3194,8.1274 670.3878,-11.1273 381.3725,-159.429 320.1595,-190.8392 281.9196,-267.2184 265.0752,-308.2676"/>
<polygon fill="#000000" stroke="#000000" points="261.7848,-307.0702 261.344,-317.6558 268.2899,-309.6555 261.7848,-307.0702"/>
</g>
<!-- pinocchio -->
<g id="node7" class="node">
<title>pinocchio</title>
<ellipse fill="none" stroke="#000000" cx="725.4452" cy="-1426.429" rx="55.7903" ry="18"/>
<text text-anchor="middle" x="725.4452" y="-1422.729" font-family="Times,serif" font-size="14.00" fill="#000000">pinocchio</text>
</g>
<!-- hpp&#45;pinocchio&#45;git&#45;&gt;pinocchio -->
<g id="edge31" class="edge">
<title>hpp&#45;pinocchio&#45;git&#45;&gt;pinocchio</title>
<path fill="none" stroke="#000000" d="M1233.0997,-1117.5713C1223.9514,-1165.8057 1192.0583,-1297.7996 1108.5144,-1360.429 1014.6594,-1430.7883 871.6594,-1436.03 789.5172,-1432.1442"/>
<polygon fill="#000000" stroke="#000000" points="789.4925,-1428.638 779.3201,-1431.5999 789.1193,-1435.628 789.4925,-1428.638"/>
</g>
<!-- boost -->
<g id="node8" class="node">
<title>boost</title>
<ellipse fill="none" stroke="#000000" cx="64.3443" cy="-1102.429" rx="36.2938" ry="18"/>
<text text-anchor="middle" x="64.3443" y="-1098.729" font-family="Times,serif" font-size="14.00" fill="#000000">boost</text>
</g>
<!-- hpp&#45;pinocchio&#45;git&#45;&gt;boost -->
<g id="edge30" class="edge">
<title>hpp&#45;pinocchio&#45;git&#45;&gt;boost</title>
<path fill="none" stroke="#000000" d="M1234.1372,-1117.6101C1227.2388,-1170.8993 1199.7267,-1328.126 1108.5144,-1410.429 1028.8402,-1482.3211 247.5354,-1683.6408 164.6886,-1615.429 145.5117,-1599.6398 85.7213,-1235.5056 68.8296,-1130.5199"/>
<polygon fill="#000000" stroke="#000000" points="72.2852,-1129.9636 67.2444,-1120.6448 65.3737,-1131.0732 72.2852,-1129.9636"/>
</g>
<!-- hpp&#45;fcl -->
<g id="node19" class="node">
<title>hpp&#45;fcl</title>
<ellipse fill="none" stroke="#000000" cx="487.3131" cy="-1297.429" rx="42.7926" ry="18"/>
<text text-anchor="middle" x="487.3131" y="-1293.729" font-family="Times,serif" font-size="14.00" fill="#000000">hpp&#45;fcl</text>
</g>
<!-- hpp&#45;pinocchio&#45;git&#45;&gt;hpp&#45;fcl -->
<g id="edge34" class="edge">
<title>hpp&#45;pinocchio&#45;git&#45;&gt;hpp&#45;fcl</title>
<path fill="none" stroke="#000000" d="M1219.4736,-1117.2229C1196.7463,-1140.2576 1153.6855,-1179.7686 1108.5144,-1199.429 1056.3853,-1222.118 677.8584,-1272.7608 538.5721,-1290.8499"/>
<polygon fill="#000000" stroke="#000000" points="538.0406,-1287.3894 528.5735,-1292.1458 538.9404,-1294.3313 538.0406,-1287.3894"/>
</g>
<!-- romeo_description -->
<g id="node20" class="node">
<title>romeo_description</title>
<ellipse fill="none" stroke="#000000" cx="983.0755" cy="-1333.429" rx="97.4827" ry="18"/>
<text text-anchor="middle" x="983.0755" y="-1329.729" font-family="Times,serif" font-size="14.00" fill="#000000">romeo_description</text>
</g>
<!-- hpp&#45;pinocchio&#45;git&#45;&gt;romeo_description -->
<g id="edge25" class="edge">
<title>hpp&#45;pinocchio&#45;git&#45;&gt;romeo_description</title>
<path fill="none" stroke="#000000" d="M1230.508,-1117.5102C1216.7876,-1158.273 1177.6499,-1257.5796 1108.5144,-1306.429 1099.3681,-1312.8916 1088.9765,-1317.8572 1078.1815,-1321.6645"/>
<polygon fill="#000000" stroke="#000000" points="1077.0734,-1318.3442 1068.6122,-1324.7207 1079.2031,-1325.0123 1077.0734,-1318.3442"/>
</g>
<!-- hpp&#45;model -->
<g id="node23" class="node">
<title>hpp&#45;model</title>
<ellipse fill="none" stroke="#000000" cx="725.4452" cy="-1187.429" rx="59.5901" ry="18"/>
<text text-anchor="middle" x="725.4452" y="-1183.729" font-family="Times,serif" font-size="14.00" fill="#000000">hpp&#45;model</text>
</g>
<!-- hpp&#45;pinocchio&#45;git&#45;&gt;hpp&#45;model -->
<g id="edge23" class="edge">
<title>hpp&#45;pinocchio&#45;git&#45;&gt;hpp&#45;model</title>
<path fill="none" stroke="#000000" d="M1213.2452,-1117.1162C1188.8223,-1134.8227 1148.2672,-1161.027 1108.5144,-1172.429 1001.0602,-1203.2494 869.7116,-1200.0847 792.0764,-1194.2627"/>
<polygon fill="#000000" stroke="#000000" points="792.1953,-1190.7613 781.9513,-1193.4653 791.6456,-1197.7397 792.1953,-1190.7613"/>
</g>
<!-- hpp_environments -->
<g id="node35" class="node">
<title>hpp_environments</title>
<ellipse fill="none" stroke="#000000" cx="983.0755" cy="-1279.429" rx="96.6831" ry="18"/>
<text text-anchor="middle" x="983.0755" y="-1275.729" font-family="Times,serif" font-size="14.00" fill="#000000">hpp_environments</text>
</g>
<!-- hpp&#45;pinocchio&#45;git&#45;&gt;hpp_environments -->
<g id="edge26" class="edge">
<title>hpp&#45;pinocchio&#45;git&#45;&gt;hpp_environments</title>
<path fill="none" stroke="#000000" d="M1225.7072,-1117.5975C1206.6253,-1149.088 1163.0358,-1213.667 1108.5144,-1247.429 1096.2494,-1255.0241 1082.249,-1260.8222 1068.1544,-1265.247"/>
<polygon fill="#000000" stroke="#000000" points="1067.019,-1261.9323 1058.4017,-1268.0962 1068.982,-1268.6515 1067.019,-1261.9323"/>
</g>
<!-- doxygen -->
<g id="node37" class="node">
<title>doxygen</title>
<ellipse fill="none" stroke="#000000" cx="255.0306" cy="-487.429" rx="50.0912" ry="18"/>
<text text-anchor="middle" x="255.0306" y="-483.729" font-family="Times,serif" font-size="14.00" fill="#000000">doxygen</text>
</g>
<!-- hpp&#45;pinocchio&#45;git&#45;&gt;doxygen -->
<g id="edge27" class="edge">
<title>hpp&#45;pinocchio&#45;git&#45;&gt;doxygen</title>
<path fill="none" stroke="#000000" d="M1234.7314,-1081.389C1225.4495,-966.1171 1171.9801,-335.7594 1108.5144,-281.429 984.9846,-175.6802 520.1929,-278.7453 381.3725,-363.429 338.0976,-389.8278 298.1403,-433.683 275.1893,-461.5423"/>
<polygon fill="#000000" stroke="#000000" points="272.2055,-459.6653 268.6278,-469.6378 277.6435,-464.073 272.2055,-459.6653"/>
</g>
<!-- hpp&#45;pinocchio&#45;git&#45;&gt;cmake -->
<g id="edge28" class="edge">
<title>hpp&#45;pinocchio&#45;git&#45;&gt;cmake</title>
<path fill="none" stroke="#000000" d="M1235.2731,-1081.1287C1228.6922,-948.3768 1185.4253,-136.1962 1108.5144,-62.429 985.2407,55.8058 896.2548,-31.429 725.4452,-31.429 725.4452,-31.429 725.4452,-31.429 487.3131,-31.429 415.0589,-31.429 186.2127,-136.248 164.6886,-167.429 91.7052,-273.1568 158.5999,-619.4881 128.6886,-744.429 117.9615,-789.2367 94.6867,-837.5931 79.2699,-866.6842"/>
<polygon fill="#000000" stroke="#000000" points="76.0324,-865.3144 74.3724,-875.7784 82.1955,-868.6335 76.0324,-865.3144"/>
</g>
<!-- hpp&#45;model&#45;urdf -->
<g id="node41" class="node">
<title>hpp&#45;model&#45;urdf</title>
<ellipse fill="none" stroke="#000000" cx="983.0755" cy="-855.429" rx="81.7856" ry="18"/>
<text text-anchor="middle" x="983.0755" y="-851.729" font-family="Times,serif" font-size="14.00" fill="#000000">hpp&#45;model&#45;urdf</text>
</g>
<!-- hpp&#45;pinocchio&#45;git&#45;&gt;hpp&#45;model&#45;urdf -->
<g id="edge24" class="edge">
<title>hpp&#45;pinocchio&#45;git&#45;&gt;hpp&#45;model&#45;urdf</title>
<path fill="none" stroke="#000000" d="M1217.5467,-1081.4871C1172.921,-1038.4627 1059.7476,-929.3501 1008.7205,-880.1539"/>
<polygon fill="#000000" stroke="#000000" points="1010.9995,-877.4893 1001.3711,-873.0682 1006.1409,-882.5286 1010.9995,-877.4893"/>
</g>
<!-- resource&#45;retriever -->
<g id="node42" class="node">
<title>resource&#45;retriever</title>
<ellipse fill="none" stroke="#000000" cx="725.4452" cy="-1026.429" rx="96.3833" ry="18"/>
<text text-anchor="middle" x="725.4452" y="-1022.729" font-family="Times,serif" font-size="14.00" fill="#000000">resource&#45;retriever</text>
</g>
<!-- hpp&#45;pinocchio&#45;git&#45;&gt;resource&#45;retriever -->
<g id="edge35" class="edge">
<title>hpp&#45;pinocchio&#45;git&#45;&gt;resource&#45;retriever</title>
<path fill="none" stroke="#000000" d="M1161.8945,-1088.8142C1069.0846,-1075.5482 910.5186,-1052.8831 812.2134,-1038.8315"/>
<polygon fill="#000000" stroke="#000000" points="812.6979,-1035.3653 802.3033,-1037.415 811.7074,-1042.2949 812.6979,-1035.3653"/>
</g>
<!-- hpp&#45;util&#45;git -->
<g id="node43" class="node">
<title>hpp&#45;util&#45;git</title>
<ellipse fill="none" stroke="#000000" cx="487.3131" cy="-419.429" rx="62.2891" ry="18"/>
<text text-anchor="middle" x="487.3131" y="-415.729" font-family="Times,serif" font-size="14.00" fill="#000000">hpp&#45;util&#45;git</text>
</g>
<!-- hpp&#45;pinocchio&#45;git&#45;&gt;hpp&#45;util&#45;git -->
<g id="edge33" class="edge">
<title>hpp&#45;pinocchio&#45;git&#45;&gt;hpp&#45;util&#45;git</title>
<path fill="none" stroke="#000000" d="M1235.1328,-1081.3088C1229.3135,-984.3776 1197.4506,-527.6618 1108.5144,-424.429 966.4926,-259.5772 837.4521,-261.1852 629.2537,-324.429 583.9998,-338.1757 540.037,-371.6706 513.3234,-394.9692"/>
<polygon fill="#000000" stroke="#000000" points="510.7474,-392.5764 505.6044,-401.8393 515.4013,-397.8054 510.7474,-392.5764"/>
</g>
<!-- lua51 -->
<g id="node10" class="node">
<title>lua51</title>
<ellipse fill="none" stroke="#000000" cx="487.3131" cy="-1443.429" rx="36.2938" ry="18"/>
<text text-anchor="middle" x="487.3131" y="-1439.729" font-family="Times,serif" font-size="14.00" fill="#000000">lua51</text>
</g>
<!-- pinocchio&#45;&gt;lua51 -->
<g id="edge6" class="edge">
<title>pinocchio&#45;&gt;lua51</title>
<path fill="none" stroke="#000000" d="M670.8129,-1430.3292C629.3425,-1433.2897 572.9487,-1437.3156 533.6665,-1440.1199"/>
<polygon fill="#000000" stroke="#000000" points="533.2937,-1436.6375 523.5683,-1440.8408 533.7922,-1443.6198 533.2937,-1436.6375"/>
</g>
<!-- urdfdom -->
<g id="node17" class="node">
<title>urdfdom</title>
<ellipse fill="none" stroke="#000000" cx="487.3131" cy="-809.429" rx="50.0912" ry="18"/>
<text text-anchor="middle" x="487.3131" y="-805.729" font-family="Times,serif" font-size="14.00" fill="#000000">urdfdom</text>
</g>
<!-- pinocchio&#45;&gt;urdfdom -->
<g id="edge11" class="edge">
<title>pinocchio&#45;&gt;urdfdom</title>
<path fill="none" stroke="#000000" d="M677.8126,-1417.0027C659.8008,-1410.9912 640.8664,-1401.2258 629.2537,-1385.429 581.7642,-1320.8284 615.1844,-1103.5493 593.2537,-1026.429 572.5087,-953.4782 528.1783,-875.2653 503.9566,-835.6581"/>
<polygon fill="#000000" stroke="#000000" points="506.9179,-833.7921 498.683,-827.1259 500.9635,-837.4725 506.9179,-833.7921"/>
</g>
<!-- eigenpy -->
<g id="node18" class="node">
<title>eigenpy</title>
<ellipse fill="none" stroke="#000000" cx="487.3131" cy="-1535.429" rx="47.3916" ry="18"/>
<text text-anchor="middle" x="487.3131" y="-1531.729" font-family="Times,serif" font-size="14.00" fill="#000000">eigenpy</text>
</g>
<!-- pinocchio&#45;&gt;eigenpy -->
<g id="edge10" class="edge">
<title>pinocchio&#45;&gt;eigenpy</title>
<path fill="none" stroke="#000000" d="M701.0233,-1443.0066C675.1637,-1459.9879 632.7073,-1486.2629 593.2537,-1503.429 575.4157,-1511.1904 555.1159,-1517.818 537.092,-1522.9946"/>
<polygon fill="#000000" stroke="#000000" points="536.0318,-1519.6567 527.343,-1525.7193 537.916,-1526.3984 536.0318,-1519.6567"/>
</g>
<!-- pinocchio&#45;&gt;hpp&#45;fcl -->
<g id="edge9" class="edge">
<title>pinocchio&#45;&gt;hpp&#45;fcl</title>
<path fill="none" stroke="#000000" d="M689.1574,-1412.6203C670.8584,-1405.2434 648.5185,-1395.599 629.2537,-1385.429 612.4631,-1376.5652 609.3461,-1372.5052 593.2537,-1362.429 569.038,-1347.2664 541.5316,-1330.4003 520.6164,-1317.649"/>
<polygon fill="#000000" stroke="#000000" points="522.1575,-1314.4896 511.7962,-1312.2773 518.5164,-1320.4681 522.1575,-1314.4896"/>
</g>
<!-- metapod&#45;git -->
<g id="node28" class="node">
<title>metapod&#45;git</title>
<ellipse fill="none" stroke="#000000" cx="487.3131" cy="-1389.429" rx="66.8882" ry="18"/>
<text text-anchor="middle" x="487.3131" y="-1385.729" font-family="Times,serif" font-size="14.00" fill="#000000">metapod&#45;git</text>
</g>
<!-- pinocchio&#45;&gt;metapod&#45;git -->
<g id="edge5" class="edge">
<title>pinocchio&#45;&gt;metapod&#45;git</title>
<path fill="none" stroke="#000000" d="M674.9435,-1418.5823C640.1026,-1413.1689 593.3799,-1405.9093 555.2755,-1399.9888"/>
<polygon fill="#000000" stroke="#000000" points="555.7001,-1396.5128 545.2813,-1398.4359 554.6254,-1403.4298 555.7001,-1396.5128"/>
</g>
<!-- eigen32 -->
<g id="node31" class="node">
<title>eigen32</title>
<ellipse fill="none" stroke="#000000" cx="255.0306" cy="-1680.429" rx="48.1917" ry="18"/>
<text text-anchor="middle" x="255.0306" y="-1676.729" font-family="Times,serif" font-size="14.00" fill="#000000">eigen32</text>
</g>
<!-- pinocchio&#45;&gt;eigen32 -->
<g id="edge8" class="edge">
<title>pinocchio&#45;&gt;eigen32</title>
<path fill="none" stroke="#000000" d="M719.7521,-1444.5804C705.7453,-1485.938 665.398,-1587.1589 593.2537,-1633.429 506.9271,-1688.7952 382.8251,-1690.796 311.4213,-1686.2724"/>
<polygon fill="#000000" stroke="#000000" points="311.4993,-1682.7694 301.2795,-1685.5632 311.011,-1689.7523 311.4993,-1682.7694"/>
</g>
<!-- pinocchio&#45;&gt;cmake -->
<g id="edge7" class="edge">
<title>pinocchio&#45;&gt;cmake</title>
<path fill="none" stroke="#000000" d="M691.966,-1440.9077C665.6855,-1451.4478 627.8744,-1464.8186 593.2537,-1470.429 500.297,-1485.4931 466.4706,-1510.7552 381.3725,-1470.429 358.5396,-1459.609 365.1557,-1442.1467 345.3725,-1426.429 275.2835,-1370.7434 217.0526,-1410.0334 164.6886,-1337.429 95.9334,-1242.0979 156.4208,-1189.6492 128.6886,-1075.429 115.0145,-1019.11 90.4534,-955.8305 75.9534,-920.6931"/>
<polygon fill="#000000" stroke="#000000" points="79.0513,-919.028 71.9737,-911.144 72.59,-921.7209 79.0513,-919.028"/>
</g>
<!-- openscenegraph&#45;qt4 -->
<g id="node9" class="node">
<title>openscenegraph&#45;qt4</title>
<ellipse fill="none" stroke="#000000" cx="487.3131" cy="-473.429" rx="105.8812" ry="18"/>
<text text-anchor="middle" x="487.3131" y="-469.729" font-family="Times,serif" font-size="14.00" fill="#000000">openscenegraph&#45;qt4</text>
</g>
<!-- suitesparse -->
<g id="node11" class="node">
<title>suitesparse</title>
<ellipse fill="none" stroke="#000000" cx="64.3443" cy="-1680.429" rx="64.189" ry="18"/>
<text text-anchor="middle" x="64.3443" y="-1676.729" font-family="Times,serif" font-size="14.00" fill="#000000">suitesparse</text>
</g>
<!-- tabula -->
<g id="node13" class="node">
<title>tabula</title>
<ellipse fill="none" stroke="#000000" cx="1236.1563" cy="-1703.429" rx="40.0939" ry="18"/>
<text text-anchor="middle" x="1236.1563" y="-1699.729" font-family="Times,serif" font-size="14.00" fill="#000000">tabula</text>
</g>
<!-- java&#45;runtime -->
<g id="node24" class="node">
<title>java&#45;runtime</title>
<ellipse fill="none" stroke="#000000" cx="983.0755" cy="-1703.429" rx="69.5877" ry="18"/>
<text text-anchor="middle" x="983.0755" y="-1699.729" font-family="Times,serif" font-size="14.00" fill="#000000">java&#45;runtime</text>
</g>
<!-- tabula&#45;&gt;java&#45;runtime -->
<g id="edge88" class="edge">
<title>tabula&#45;&gt;java&#45;runtime</title>
<path fill="none" stroke="#000000" d="M1195.775,-1703.429C1160.1064,-1703.429 1107.0443,-1703.429 1062.8432,-1703.429"/>
<polygon fill="#000000" stroke="#000000" points="1062.6878,-1699.9291 1052.6878,-1703.429 1062.6877,-1706.9291 1062.6878,-1699.9291"/>
</g>
<!-- python2&#45;numpy -->
<g id="node14" class="node">
<title>python2&#45;numpy</title>
<ellipse fill="none" stroke="#000000" cx="255.0306" cy="-1534.429" rx="83.3857" ry="18"/>
<text text-anchor="middle" x="255.0306" y="-1530.729" font-family="Times,serif" font-size="14.00" fill="#000000">python2&#45;numpy</text>
</g>
<!-- gcc&#45;fortran -->
<g id="node15" class="node">
<title>gcc&#45;fortran</title>
<ellipse fill="none" stroke="#000000" cx="64.3443" cy="-1626.429" rx="63.0888" ry="18"/>
<text text-anchor="middle" x="64.3443" y="-1622.729" font-family="Times,serif" font-size="14.00" fill="#000000">gcc&#45;fortran</text>
</g>
<!-- freeglut -->
<g id="node16" class="node">
<title>freeglut</title>
<ellipse fill="none" stroke="#000000" cx="64.3443" cy="-1572.429" rx="48.1917" ry="18"/>
<text text-anchor="middle" x="64.3443" y="-1568.729" font-family="Times,serif" font-size="14.00" fill="#000000">freeglut</text>
</g>
<!-- urdfdom&#45;&gt;console&#45;bridge -->
<g id="edge3" class="edge">
<title>urdfdom&#45;&gt;console&#45;bridge</title>
<path fill="none" stroke="#000000" d="M453.5373,-796.0515C414.267,-780.4977 349.1125,-754.692 304.2221,-736.9123"/>
<polygon fill="#000000" stroke="#000000" points="305.2723,-733.5638 294.6861,-733.1354 302.6946,-740.0719 305.2723,-733.5638"/>
</g>
<!-- urdfdom&#45;&gt;urdfdom&#45;headers -->
<g id="edge4" class="edge">
<title>urdfdom&#45;&gt;urdfdom&#45;headers</title>
<path fill="none" stroke="#000000" d="M441.6987,-816.8913C411.3858,-821.8503 370.7571,-828.4969 335.1444,-834.3229"/>
<polygon fill="#000000" stroke="#000000" points="334.5492,-830.8737 325.2455,-835.9423 335.6794,-837.7818 334.5492,-830.8737"/>
</g>
<!-- tinyxml -->
<g id="node27" class="node">
<title>tinyxml</title>
<ellipse fill="none" stroke="#000000" cx="255.0306" cy="-663.429" rx="46.2923" ry="18"/>
<text text-anchor="middle" x="255.0306" y="-659.729" font-family="Times,serif" font-size="14.00" fill="#000000">tinyxml</text>
</g>
<!-- urdfdom&#45;&gt;tinyxml -->
<g id="edge2" class="edge">
<title>urdfdom&#45;&gt;tinyxml</title>
<path fill="none" stroke="#000000" d="M456.6032,-795.127C434.0507,-783.6069 403.599,-765.8334 381.3725,-744.429 360.5959,-724.4208 368.5669,-707.5761 345.3725,-690.429 334.4635,-682.3642 321.1496,-676.6914 308.1313,-672.707"/>
<polygon fill="#000000" stroke="#000000" points="308.8499,-669.2744 298.2784,-669.9777 306.9811,-676.0203 308.8499,-669.2744"/>
</g>
<!-- urdfdom&#45;&gt;cmake -->
<g id="edge1" class="edge">
<title>urdfdom&#45;&gt;cmake</title>
<path fill="none" stroke="#000000" d="M443.2556,-818.0394C423.4962,-823.0595 400.406,-830.5907 381.3725,-841.429 362.5111,-852.1695 365.3241,-865.8823 345.3725,-874.429 269.8929,-906.7627 172.5213,-904.8538 114.4516,-899.7124"/>
<polygon fill="#000000" stroke="#000000" points="114.7169,-896.2219 104.4301,-898.758 114.0532,-903.1904 114.7169,-896.2219"/>
</g>
<!-- eigenpy&#45;&gt;boost -->
<g id="edge60" class="edge">
<title>eigenpy&#45;&gt;boost</title>
<path fill="none" stroke="#000000" d="M445.603,-1526.8313C359.5388,-1509.0132 169.8337,-1469.3046 164.6886,-1464.429 115.4072,-1417.7296 79.9129,-1207.5398 68.3776,-1130.6862"/>
<polygon fill="#000000" stroke="#000000" points="71.8348,-1130.1383 66.91,-1120.7576 64.91,-1131.162 71.8348,-1130.1383"/>
</g>
<!-- eigenpy&#45;&gt;python2&#45;numpy -->
<g id="edge61" class="edge">
<title>eigenpy&#45;&gt;python2&#45;numpy</title>
<path fill="none" stroke="#000000" d="M439.7468,-1535.2243C413.398,-1535.1108 379.7128,-1534.9658 348.3412,-1534.8308"/>
<polygon fill="#000000" stroke="#000000" points="348.2642,-1531.3305 338.2492,-1534.7873 348.234,-1538.3304 348.2642,-1531.3305"/>
</g>
<!-- eigenpy&#45;&gt;eigen32 -->
<g id="edge59" class="edge">
<title>eigenpy&#45;&gt;eigen32</title>
<path fill="none" stroke="#000000" d="M443.3022,-1542.2119C423.1004,-1546.8877 399.6362,-1554.6556 381.3725,-1567.429 359.5201,-1582.7125 364.4146,-1596.7606 345.3725,-1615.429 328.4167,-1632.0522 306.9215,-1647.6943 289.1524,-1659.4667"/>
<polygon fill="#000000" stroke="#000000" points="287.2392,-1656.5358 280.7649,-1664.9223 291.056,-1662.4037 287.2392,-1656.5358"/>
</g>
<!-- boost&#45;libs -->
<g id="node34" class="node">
<title>boost&#45;libs</title>
<ellipse fill="none" stroke="#000000" cx="255.0306" cy="-1588.429" rx="55.7903" ry="18"/>
<text text-anchor="middle" x="255.0306" y="-1584.729" font-family="Times,serif" font-size="14.00" fill="#000000">boost&#45;libs</text>
</g>
<!-- eigenpy&#45;&gt;boost&#45;libs -->
<g id="edge62" class="edge">
<title>eigenpy&#45;&gt;boost&#45;libs</title>
<path fill="none" stroke="#000000" d="M446.5868,-1544.7216C408.8841,-1553.3242 352.5009,-1566.1892 310.6583,-1575.7365"/>
<polygon fill="#000000" stroke="#000000" points="309.8632,-1572.3278 300.8923,-1577.9648 311.4204,-1579.1524 309.8632,-1572.3278"/>
</g>
<!-- eigenpy&#45;&gt;doxygen -->
<g id="edge57" class="edge">
<title>eigenpy&#45;&gt;doxygen</title>
<path fill="none" stroke="#000000" d="M451.4658,-1523.6318C427.1556,-1513.5866 396.7463,-1496.5596 381.3725,-1470.429 334.3384,-1390.4859 372.2594,-725.1996 345.3725,-636.429 330.9883,-588.9376 297.9469,-541.1332 276.0629,-512.9148"/>
<polygon fill="#000000" stroke="#000000" points="278.6063,-510.488 269.6625,-504.8082 273.1122,-514.8257 278.6063,-510.488"/>
</g>
<!-- eigenpy&#45;&gt;cmake -->
<g id="edge58" class="edge">
<title>eigenpy&#45;&gt;cmake</title>
<path fill="none" stroke="#000000" d="M444.1241,-1527.8594C423.989,-1523.0008 400.3446,-1515.3066 381.3725,-1503.429 361.3786,-1490.9117 365.8864,-1476.0749 345.3725,-1464.429 274.0097,-1423.916 219.5868,-1487.4221 164.6886,-1426.429 112.2332,-1368.1501 145.8775,-1151.9309 128.6886,-1075.429 116.017,-1019.0323 91.2133,-956.0161 76.3767,-920.8989"/>
<polygon fill="#000000" stroke="#000000" points="79.4436,-919.1686 72.2957,-911.3481 73.0066,-921.9191 79.4436,-919.1686"/>
</g>
<!-- hpp&#45;fcl&#45;&gt;assimp -->
<g id="edge14" class="edge">
<title>hpp&#45;fcl&#45;&gt;assimp</title>
<path fill="none" stroke="#000000" d="M455.9865,-1285.0215C414.5977,-1268.6287 341.6117,-1239.7212 295.9179,-1221.6233"/>
<polygon fill="#000000" stroke="#000000" points="297.1889,-1218.3622 286.6028,-1217.9338 294.6112,-1224.8703 297.1889,-1218.3622"/>
</g>
<!-- hpp&#45;fcl&#45;&gt;eigen32 -->
<g id="edge13" class="edge">
<title>hpp&#45;fcl&#45;&gt;eigen32</title>
<path fill="none" stroke="#000000" d="M454.0148,-1308.9512C429.8136,-1319.1338 398.4248,-1336.4532 381.3725,-1362.429 319.0434,-1457.3755 404.1779,-1518.2607 345.3725,-1615.429 333.4223,-1635.1754 312.9543,-1650.6462 294.5195,-1661.5323"/>
<polygon fill="#000000" stroke="#000000" points="292.6779,-1658.5524 285.6792,-1666.5067 296.1107,-1664.653 292.6779,-1658.5524"/>
</g>
<!-- hpp&#45;fcl&#45;&gt;cmake -->
<g id="edge12" class="edge">
<title>hpp&#45;fcl&#45;&gt;cmake</title>
<path fill="none" stroke="#000000" d="M450.0315,-1306.4886C383.4475,-1320.2412 243.68,-1337.7297 164.6886,-1265.429 101.2893,-1207.3998 151.0777,-1158.4085 128.6886,-1075.429 113.5913,-1019.4747 89.5297,-956.0672 75.5038,-920.8083"/>
<polygon fill="#000000" stroke="#000000" points="78.6314,-919.2036 71.6618,-911.2239 72.134,-921.8082 78.6314,-919.2036"/>
</g>
<!-- srdfdom&#45;git -->
<g id="node21" class="node">
<title>srdfdom&#45;git</title>
<ellipse fill="none" stroke="#000000" cx="487.3131" cy="-717.429" rx="64.9885" ry="18"/>
<text text-anchor="middle" x="487.3131" y="-713.729" font-family="Times,serif" font-size="14.00" fill="#000000">srdfdom&#45;git</text>
</g>
<!-- srdfdom&#45;git&#45;&gt;console&#45;bridge -->
<g id="edge54" class="edge">
<title>srdfdom&#45;git&#45;&gt;console&#45;bridge</title>
<path fill="none" stroke="#000000" d="M422.3006,-717.429C398.2481,-717.429 370.5403,-717.429 344.6828,-717.429"/>
<polygon fill="#000000" stroke="#000000" points="344.4963,-713.9291 334.4963,-717.429 344.4962,-720.9291 344.4963,-713.9291"/>
</g>
<!-- srdfdom&#45;git&#45;&gt;urdfdom&#45;headers -->
<g id="edge53" class="edge">
<title>srdfdom&#45;git&#45;&gt;urdfdom&#45;headers</title>
<path fill="none" stroke="#000000" d="M457.5528,-733.6426C435.7569,-745.9985 405.8371,-763.9797 381.3725,-782.429 364.0428,-795.4978 363.976,-804.2477 345.3725,-815.429 336.7087,-820.6364 327.0693,-825.1743 317.4053,-829.0672"/>
<polygon fill="#000000" stroke="#000000" points="315.8624,-825.9098 307.7683,-832.7461 318.359,-832.4495 315.8624,-825.9098"/>
</g>
<!-- srdfdom&#45;git&#45;&gt;git -->
<g id="edge50" class="edge">
<title>srdfdom&#45;git&#45;&gt;git</title>
<path fill="none" stroke="#000000" d="M476.5498,-699.6229C456.9565,-667.0183 414.4374,-595.3773 381.3725,-533.429 364.3386,-501.5153 364.0331,-491.4198 345.3725,-460.429 323.2565,-423.6996 293.4631,-384.0147 274.2486,-359.4405"/>
<polygon fill="#000000" stroke="#000000" points="276.8598,-357.0993 267.9232,-351.4082 271.3603,-361.43 276.8598,-357.0993"/>
</g>
<!-- srdfdom&#45;git&#45;&gt;boost -->
<g id="edge51" class="edge">
<title>srdfdom&#45;git&#45;&gt;boost</title>
<path fill="none" stroke="#000000" d="M450.9599,-732.4138C428.2945,-743.3581 399.997,-760.17 381.3725,-782.429 353.1963,-816.104 373.0051,-840.3066 345.3725,-874.429 284.8588,-949.1555 237.9493,-931.1488 164.6886,-993.429 134.1448,-1019.3948 103.5982,-1054.1462 84.3739,-1077.3607"/>
<polygon fill="#000000" stroke="#000000" points="81.4552,-1075.4005 77.8244,-1085.3538 86.8697,-1079.8371 81.4552,-1075.4005"/>
</g>
<!-- srdfdom&#45;git&#45;&gt;tinyxml -->
<g id="edge52" class="edge">
<title>srdfdom&#45;git&#45;&gt;tinyxml</title>
<path fill="none" stroke="#000000" d="M437.4827,-705.8447C398.241,-696.722 343.8104,-684.0682 304.6288,-674.9594"/>
<polygon fill="#000000" stroke="#000000" points="305.2962,-671.5213 294.7634,-672.6659 303.7111,-678.3395 305.2962,-671.5213"/>
</g>
<!-- srdfdom&#45;git&#45;&gt;doxygen -->
<g id="edge48" class="edge">
<title>srdfdom&#45;git&#45;&gt;doxygen</title>
<path fill="none" stroke="#000000" d="M457.6453,-701.2908C435.3457,-688.3713 404.7473,-668.9077 381.3725,-647.429 375.1904,-641.7483 308.7479,-556.5686 274.7827,-512.8747"/>
<polygon fill="#000000" stroke="#000000" points="277.5447,-510.7248 268.6452,-504.9759 272.0172,-515.0199 277.5447,-510.7248"/>
</g>
<!-- srdfdom&#45;git&#45;&gt;cmake -->
<g id="edge49" class="edge">
<title>srdfdom&#45;git&#45;&gt;cmake</title>
<path fill="none" stroke="#000000" d="M431.9985,-707.8788C414.71,-703.0865 396.2781,-695.9638 381.3725,-685.429 359.3044,-669.832 369.4832,-648.6335 345.3725,-636.429 273.7246,-600.1621 229.8346,-589.4745 164.6886,-636.429 123.6426,-666.0133 146.7348,-697.1603 128.6886,-744.429 112.1651,-787.7091 90.3254,-836.8554 76.8135,-866.4809"/>
<polygon fill="#000000" stroke="#000000" points="73.5535,-865.1937 72.5702,-875.7428 79.9174,-868.1093 73.5535,-865.1937"/>
</g>
<!-- urdf&#45;git -->
<g id="node22" class="node">
<title>urdf&#45;git</title>
<ellipse fill="none" stroke="#000000" cx="725.4452" cy="-767.429" rx="45.4919" ry="18"/>
<text text-anchor="middle" x="725.4452" y="-763.729" font-family="Times,serif" font-size="14.00" fill="#000000">urdf&#45;git</text>
</g>
<!-- urdf&#45;git&#45;&gt;git -->
<g id="edge77" class="edge">
<title>urdf&#45;git&#45;&gt;git</title>
<path fill="none" stroke="#000000" d="M713.8671,-749.804C693.5674,-718.0797 651.5927,-648.6723 629.2537,-584.429 600.7388,-502.4249 655.2069,-453.2533 593.2537,-392.429 582.4953,-381.8666 377.025,-352.3351 291.6969,-340.4642"/>
<polygon fill="#000000" stroke="#000000" points="292.0559,-336.9806 281.6699,-339.0737 291.0943,-343.9142 292.0559,-336.9806"/>
</g>
<!-- urdf&#45;git&#45;&gt;boost -->
<g id="edge78" class="edge">
<title>urdf&#45;git&#45;&gt;boost</title>
<path fill="none" stroke="#000000" d="M713.9737,-785.2236C693.545,-815.3825 647.8412,-876.2881 593.2537,-907.429 509.3857,-955.274 458.4072,-897.2168 381.3725,-955.429 354.7146,-975.5735 371.4369,-1000.5222 345.3725,-1021.429 276.2919,-1076.8404 170.8983,-1094.346 110.7352,-1099.8759"/>
<polygon fill="#000000" stroke="#000000" points="110.4325,-1096.3889 100.7635,-1100.7205 111.0233,-1103.364 110.4325,-1096.3889"/>
</g>
<!-- urdf&#45;git&#45;&gt;urdfdom -->
<g id="edge79" class="edge">
<title>urdf&#45;git&#45;&gt;urdfdom</title>
<path fill="none" stroke="#000000" d="M683.6933,-774.793C644.4237,-781.719 585.3864,-792.1316 542.2975,-799.7313"/>
<polygon fill="#000000" stroke="#000000" points="541.5003,-796.3178 532.2603,-801.5016 542.7162,-803.2114 541.5003,-796.3178"/>
</g>
<!-- urdf&#45;git&#45;&gt;doxygen -->
<g id="edge75" class="edge">
<title>urdf&#45;git&#45;&gt;doxygen</title>
<path fill="none" stroke="#000000" d="M700.1537,-752.375C621.3708,-705.4819 380.2535,-561.9642 289.7977,-508.1231"/>
<polygon fill="#000000" stroke="#000000" points="291.4069,-505.0079 281.0238,-502.9007 287.8266,-511.023 291.4069,-505.0079"/>
</g>
<!-- urdf&#45;git&#45;&gt;cmake -->
<g id="edge76" class="edge">
<title>urdf&#45;git&#45;&gt;cmake</title>
<path fill="none" stroke="#000000" d="M681.0679,-762.8371C583.3061,-754.5558 343.8277,-744.4212 164.6886,-820.429 136.4034,-832.4303 108.4891,-853.7177 89.3119,-870.219"/>
<polygon fill="#000000" stroke="#000000" points="86.849,-867.7241 81.6524,-876.957 91.4725,-872.9799 86.849,-867.7241"/>
</g>
<!-- hpp&#45;model&#45;&gt;assimp -->
<g id="edge100" class="edge">
<title>hpp&#45;model&#45;&gt;assimp</title>
<path fill="none" stroke="#000000" d="M665.8669,-1189.7088C573.476,-1193.244 397.0868,-1199.9934 308.5386,-1203.3816"/>
<polygon fill="#000000" stroke="#000000" points="308.3033,-1199.888 298.4445,-1203.7679 308.571,-1206.8828 308.3033,-1199.888"/>
</g>
<!-- hpp&#45;model&#45;&gt;hpp&#45;fcl -->
<g id="edge104" class="edge">
<title>hpp&#45;model&#45;&gt;hpp&#45;fcl</title>
<path fill="none" stroke="#000000" d="M676.3675,-1197.746C660.3975,-1202.6178 643.2078,-1209.594 629.2537,-1219.429 608.0338,-1234.3853 614.6796,-1250.7694 593.2537,-1265.429 576.7883,-1276.6948 556.2504,-1284.0861 537.6526,-1288.8927"/>
<polygon fill="#000000" stroke="#000000" points="536.7576,-1285.508 527.8481,-1291.2413 538.3883,-1292.3154 536.7576,-1285.508"/>
</g>
<!-- hpp&#45;model&#45;&gt;eigen32 -->
<g id="edge102" class="edge">
<title>hpp&#45;model&#45;&gt;eigen32</title>
<path fill="none" stroke="#000000" d="M709.8789,-1205.0666C688.0424,-1230.8643 648.8027,-1281.2894 629.2537,-1331.429 591.5092,-1428.2371 666.7298,-1488.9599 593.2537,-1562.429 525.86,-1629.8165 470.1113,-1560.6667 381.3725,-1595.429 361.2915,-1603.2955 315.4865,-1635.6624 284.9046,-1658.1038"/>
<polygon fill="#000000" stroke="#000000" points="282.6878,-1655.3897 276.7166,-1664.1416 286.8423,-1661.0236 282.6878,-1655.3897"/>
</g>
<!-- hpp&#45;model&#45;&gt;cmake -->
<g id="edge101" class="edge">
<title>hpp&#45;model&#45;&gt;cmake</title>
<path fill="none" stroke="#000000" d="M679.0684,-1198.9774C559.2909,-1227.6119 243.4651,-1295.1866 164.6886,-1232.429 108.6959,-1187.8223 148.6523,-1144.1778 128.6886,-1075.429 112.5268,-1019.7729 88.8389,-956.2607 75.1675,-920.9024"/>
<polygon fill="#000000" stroke="#000000" points="78.3155,-919.3404 71.4286,-911.2892 71.7915,-921.8778 78.3155,-919.3404"/>
</g>
<!-- hpp&#45;model&#45;&gt;hpp&#45;util&#45;git -->
<g id="edge103" class="edge">
<title>hpp&#45;model&#45;&gt;hpp&#45;util&#45;git</title>
<path fill="none" stroke="#000000" d="M707.6817,-1169.8582C684.8077,-1145.9357 646.0101,-1100.6601 629.2537,-1053.429 606.6637,-989.7545 636.2728,-498.5262 593.2537,-446.429 584.4527,-435.7708 572.0859,-428.9915 558.8943,-424.7468"/>
<polygon fill="#000000" stroke="#000000" points="559.7516,-421.3528 549.1821,-422.0847 557.9011,-428.1038 559.7516,-421.3528"/>
</g>
<!-- gepetto&#45;viewer&#45;git -->
<g id="node25" class="node">
<title>gepetto&#45;viewer&#45;git</title>
<ellipse fill="none" stroke="#000000" cx="725.4452" cy="-557.429" rx="96.3833" ry="18"/>
<text text-anchor="middle" x="725.4452" y="-553.729" font-family="Times,serif" font-size="14.00" fill="#000000">gepetto&#45;viewer&#45;git</text>
</g>
<!-- gepetto&#45;viewer&#45;git&#45;&gt;git -->
<g id="edge38" class="edge">
<title>gepetto&#45;viewer&#45;git&#45;&gt;git</title>
<path fill="none" stroke="#000000" d="M709.9131,-539.6188C689.8284,-516.0855 654.4426,-472.8732 629.2537,-432.429 610.1295,-401.7223 623.2781,-379.6078 593.2537,-359.429 499.5727,-296.4678 356.4846,-314.3578 290.5546,-327.3057"/>
<polygon fill="#000000" stroke="#000000" points="289.7522,-323.8973 280.6552,-329.3282 291.1534,-330.7556 289.7522,-323.8973"/>
</g>
<!-- gepetto&#45;viewer&#45;git&#45;&gt;boost -->
<g id="edge39" class="edge">
<title>gepetto&#45;viewer&#45;git&#45;&gt;boost</title>
<path fill="none" stroke="#000000" d="M714.9764,-575.4946C696.4142,-607.9089 657.0724,-678.3618 629.2537,-740.429 610.6164,-782.0114 626.041,-804.7835 593.2537,-836.429 521.7936,-905.4007 464.0752,-852.439 381.3725,-907.429 361.1792,-920.8559 365.1496,-934.3963 345.3725,-948.429 274.7368,-998.5485 239.3488,-977.529 164.6886,-1021.429 136.7008,-1037.8858 108.2214,-1061.6908 88.7888,-1079.2376"/>
<polygon fill="#000000" stroke="#000000" points="86.308,-1076.7635 81.2968,-1086.0983 91.0355,-1081.926 86.308,-1076.7635"/>
</g>
<!-- gepetto&#45;viewer&#45;git&#45;&gt;openscenegraph&#45;qt4 -->
<g id="edge41" class="edge">
<title>gepetto&#45;viewer&#45;git&#45;&gt;openscenegraph&#45;qt4</title>
<path fill="none" stroke="#000000" d="M686.1356,-540.9943C660.0074,-530.3118 624.823,-516.3857 593.2537,-505.429 579.8893,-500.7907 565.4489,-496.1734 551.657,-491.9487"/>
<polygon fill="#000000" stroke="#000000" points="552.3389,-488.4982 541.7536,-488.9471 550.3085,-495.1972 552.3389,-488.4982"/>
</g>
<!-- gepetto&#45;viewer&#45;git&#45;&gt;urdfdom -->
<g id="edge40" class="edge">
<title>gepetto&#45;viewer&#45;git&#45;&gt;urdfdom</title>
<path fill="none" stroke="#000000" d="M715.9933,-575.466C696.6726,-611.0803 649.6822,-691.5554 593.2537,-744.429 573.6393,-762.8078 548.0299,-778.6907 526.9037,-790.1552"/>
<polygon fill="#000000" stroke="#000000" points="525.0524,-787.175 517.8533,-794.9483 528.3286,-793.3611 525.0524,-787.175"/>
</g>
<!-- gepetto&#45;viewer&#45;git&#45;&gt;doxygen -->
<g id="edge36" class="edge">
<title>gepetto&#45;viewer&#45;git&#45;&gt;doxygen</title>
<path fill="none" stroke="#000000" d="M650.1259,-546.2212C555.721,-532.1733 396.0618,-508.4152 311.4996,-495.8319"/>
<polygon fill="#000000" stroke="#000000" points="311.9751,-492.3642 301.5688,-494.3542 310.9448,-499.288 311.9751,-492.3642"/>
</g>
<!-- gepetto&#45;viewer&#45;git&#45;&gt;cmake -->
<g id="edge37" class="edge">
<title>gepetto&#45;viewer&#45;git&#45;&gt;cmake</title>
<path fill="none" stroke="#000000" d="M632.8232,-552.5196C482.772,-545.4795 199.698,-536.34 164.6886,-565.429 102.2737,-617.2891 152.9067,-666.9786 128.6886,-744.429 114.9382,-788.4032 92.5023,-836.9909 78.0862,-866.3579"/>
<polygon fill="#000000" stroke="#000000" points="74.837,-865.032 73.5288,-875.5458 81.1079,-868.1426 74.837,-865.032"/>
</g>
<!-- fftw -->
<g id="node26" class="node">
<title>fftw</title>
<ellipse fill="none" stroke="#000000" cx="64.3443" cy="-1518.429" rx="29.4969" ry="18"/>
<text text-anchor="middle" x="64.3443" y="-1514.729" font-family="Times,serif" font-size="14.00" fill="#000000">fftw</text>
</g>
<!-- qt4 -->
<g id="node29" class="node">
<title>qt4</title>
<ellipse fill="none" stroke="#000000" cx="64.3443" cy="-1734.429" rx="27" ry="18"/>
<text text-anchor="middle" x="64.3443" y="-1730.729" font-family="Times,serif" font-size="14.00" fill="#000000">qt4</text>
</g>
<!-- hpp&#45;constraints -->
<g id="node30" class="node">
<title>hpp&#45;constraints</title>
<ellipse fill="none" stroke="#000000" cx="983.0755" cy="-1145.429" rx="83.6854" ry="18"/>
<text text-anchor="middle" x="983.0755" y="-1141.729" font-family="Times,serif" font-size="14.00" fill="#000000">hpp&#45;constraints</text>
</g>
<!-- hpp&#45;constraints&#45;&gt;hpp&#45;model -->
<g id="edge56" class="edge">
<title>hpp&#45;constraints&#45;&gt;hpp&#45;model</title>
<path fill="none" stroke="#000000" d="M916.0588,-1156.3544C876.6428,-1162.7802 827.1099,-1170.8552 788.4173,-1177.1631"/>
<polygon fill="#000000" stroke="#000000" points="787.6256,-1173.7458 778.3191,-1178.8093 788.752,-1180.6546 787.6256,-1173.7458"/>
</g>
<!-- hpp&#45;constraints&#45;&gt;cmake -->
<g id="edge55" class="edge">
<title>hpp&#45;constraints&#45;&gt;cmake</title>
<path fill="none" stroke="#000000" d="M906.8043,-1152.9121C752.6832,-1164.0808 398.9299,-1169.2929 164.6886,-1013.429 127.9218,-988.9645 97.3755,-947.1598 79.9825,-919.9164"/>
<polygon fill="#000000" stroke="#000000" points="82.8595,-917.9152 74.5983,-911.2816 76.9196,-921.619 82.8595,-917.9152"/>
</g>
<!-- eigen32&#45;&gt;boost -->
<g id="edge70" class="edge">
<title>eigen32&#45;&gt;boost</title>
<path fill="none" stroke="#000000" d="M209.6476,-1674.0387C193.2597,-1669.4953 176.0247,-1661.7232 164.6886,-1648.429 147.4783,-1628.2459 85.6505,-1238.9265 68.68,-1130.3382"/>
<polygon fill="#000000" stroke="#000000" points="72.1367,-1129.7892 67.1371,-1120.4482 65.2204,-1130.8682 72.1367,-1129.7892"/>
</g>
<!-- eigen32&#45;&gt;suitesparse -->
<g id="edge69" class="edge">
<title>eigen32&#45;&gt;suitesparse</title>
<path fill="none" stroke="#000000" d="M206.9124,-1680.429C186.3452,-1680.429 161.8556,-1680.429 139.0262,-1680.429"/>
<polygon fill="#000000" stroke="#000000" points="139.0184,-1676.9291 129.0183,-1680.429 139.0183,-1683.9291 139.0184,-1676.9291"/>
</g>
<!-- eigen32&#45;&gt;gcc&#45;fortran -->
<g id="edge66" class="edge">
<title>eigen32&#45;&gt;gcc&#45;fortran</title>
<path fill="none" stroke="#000000" d="M216.4424,-1669.5013C188.4557,-1661.5759 150.2111,-1650.7455 119.074,-1641.9278"/>
<polygon fill="#000000" stroke="#000000" points="119.8116,-1638.4991 109.2363,-1639.1419 117.9042,-1645.2343 119.8116,-1638.4991"/>
</g>
<!-- eigen32&#45;&gt;freeglut -->
<g id="edge65" class="edge">
<title>eigen32&#45;&gt;freeglut</title>
<path fill="none" stroke="#000000" d="M213.369,-1671.3149C197.1095,-1666.3761 178.9819,-1659.0442 164.6886,-1648.429 142.9936,-1632.3169 149.9166,-1616.1516 128.6886,-1599.429 123.3178,-1595.1981 117.1878,-1591.5204 110.8944,-1588.3577"/>
<polygon fill="#000000" stroke="#000000" points="112.1733,-1585.0934 101.6263,-1584.0879 109.2442,-1591.4511 112.1733,-1585.0934"/>
</g>
<!-- eigen32&#45;&gt;fftw -->
<g id="edge67" class="edge">
<title>eigen32&#45;&gt;fftw</title>
<path fill="none" stroke="#000000" d="M210.6831,-1673.0843C194.43,-1668.4166 177.0167,-1660.8088 164.6886,-1648.429 130.4703,-1614.0675 161.9159,-1580.7498 128.6886,-1545.429 121.4047,-1537.6862 111.5542,-1532.0791 101.7524,-1528.0534"/>
<polygon fill="#000000" stroke="#000000" points="102.6579,-1524.6586 92.0638,-1524.5342 100.268,-1531.238 102.6579,-1524.6586"/>
</g>
<!-- eigen32&#45;&gt;qt4 -->
<g id="edge63" class="edge">
<title>eigen32&#45;&gt;qt4</title>
<path fill="none" stroke="#000000" d="M210.3231,-1687.2692C175.1602,-1695.7984 127.0527,-1709.6398 95.8391,-1720.3434"/>
<polygon fill="#000000" stroke="#000000" points="94.6011,-1717.0687 86.3362,-1723.6976 96.931,-1723.6695 94.6011,-1717.0687"/>
</g>
<!-- eigen32&#45;&gt;qt4 -->
<g id="edge68" class="edge">
<title>eigen32&#45;&gt;qt4</title>
<path fill="none" stroke="#000000" d="M223.9691,-1694.3659C190.3509,-1705.9208 136.7742,-1721.1985 101.0882,-1729.4805"/>
<polygon fill="#000000" stroke="#000000" points="100.0749,-1726.1206 91.0796,-1731.7183 101.6024,-1732.9519 100.0749,-1726.1206"/>
</g>
<!-- eigen32&#45;&gt;cmake -->
<g id="edge64" class="edge">
<title>eigen32&#45;&gt;cmake</title>
<path fill="none" stroke="#000000" d="M223.3923,-1666.589C202.8731,-1655.8084 177.632,-1638.7414 164.6886,-1615.429 106.3093,-1510.2822 152.9585,-1193.2211 128.6886,-1075.429 117.0239,-1018.8155 91.8703,-955.8746 76.6983,-920.8296"/>
<polygon fill="#000000" stroke="#000000" points="79.7409,-919.0527 72.5197,-911.2999 73.3301,-921.8637 79.7409,-919.0527"/>
</g>
<!-- hpp&#45;statistics&#45;git -->
<g id="node32" class="node">
<title>hpp&#45;statistics&#45;git</title>
<ellipse fill="none" stroke="#000000" cx="725.4452" cy="-198.429" rx="89.8845" ry="18"/>
<text text-anchor="middle" x="725.4452" y="-194.729" font-family="Times,serif" font-size="14.00" fill="#000000">hpp&#45;statistics&#45;git</text>
</g>
<!-- hpp&#45;statistics&#45;git&#45;&gt;git -->
<g id="edge73" class="edge">
<title>hpp&#45;statistics&#45;git&#45;&gt;git</title>
<path fill="none" stroke="#000000" d="M659.8914,-186.1202C588.2668,-175.7886 471.698,-168.2745 381.3725,-207.429 332.0919,-228.7914 291.9939,-279.2392 270.9891,-310.0389"/>
<polygon fill="#000000" stroke="#000000" points="267.9597,-308.2737 265.3365,-318.5387 273.7885,-312.1501 267.9597,-308.2737"/>
</g>
<!-- hpp&#45;statistics&#45;git&#45;&gt;doxygen -->
<g id="edge71" class="edge">
<title>hpp&#45;statistics&#45;git&#45;&gt;doxygen</title>
<path fill="none" stroke="#000000" d="M642.0773,-205.1255C546.6514,-213.5146 400.9322,-228.819 381.3725,-245.429 339.9022,-280.6456 369.6312,-313.7308 345.3725,-362.429 326.7898,-399.7331 297.4074,-437.8836 277.2271,-462.0612"/>
<polygon fill="#000000" stroke="#000000" points="274.2924,-460.111 270.5057,-470.006 279.6365,-464.6322 274.2924,-460.111"/>
</g>
<!-- hpp&#45;statistics&#45;git&#45;&gt;cmake -->
<g id="edge72" class="edge">
<title>hpp&#45;statistics&#45;git&#45;&gt;cmake</title>
<path fill="none" stroke="#000000" d="M664.8821,-185.0757C642.4955,-180.7645 616.8333,-176.5522 593.2537,-174.429 394.4909,-156.5322 268.9427,-138.2584 164.6886,-308.429 113.9014,-391.3273 152.2711,-650.114 128.6886,-744.429 117.5124,-789.1268 94.3622,-837.5137 79.0941,-866.6412"/>
<polygon fill="#000000" stroke="#000000" points="75.856,-865.2758 74.2471,-875.7477 82.0352,-868.5647 75.856,-865.2758"/>
</g>
<!-- hpp&#45;statistics&#45;git&#45;&gt;hpp&#45;util&#45;git -->
<g id="edge74" class="edge">
<title>hpp&#45;statistics&#45;git&#45;&gt;hpp&#45;util&#45;git</title>
<path fill="none" stroke="#000000" d="M706.3604,-216.1408C664.019,-255.4361 562.1458,-349.9802 513.7281,-394.9145"/>
<polygon fill="#000000" stroke="#000000" points="511.1073,-392.5717 506.1583,-401.9397 515.869,-397.7026 511.1073,-392.5717"/>
</g>
<!-- pinocchio&#45;git -->
<g id="node33" class="node">
<title>pinocchio&#45;git</title>
<ellipse fill="none" stroke="#000000" cx="725.4452" cy="-1358.429" rx="71.4873" ry="18"/>
<text text-anchor="middle" x="725.4452" y="-1354.729" font-family="Times,serif" font-size="14.00" fill="#000000">pinocchio&#45;git</text>
</g>
<!-- pinocchio&#45;git&#45;&gt;git -->
<g id="edge83" class="edge">
<title>pinocchio&#45;git&#45;&gt;git</title>
<path fill="none" stroke="#000000" d="M708.9093,-1340.5767C686.2874,-1314.9115 646.5321,-1265.0782 629.2537,-1214.429 591.5689,-1103.9611 644.4627,-795.3145 593.2537,-690.429 537.7596,-576.7667 467.2785,-593.2671 381.3725,-500.429 338.4093,-453.9989 295.0324,-393.7705 271.9615,-360.4236"/>
<polygon fill="#000000" stroke="#000000" points="274.8274,-358.4142 266.2777,-352.1569 269.0592,-362.3801 274.8274,-358.4142"/>
</g>
<!-- pinocchio&#45;git&#45;&gt;lua51 -->
<g id="edge81" class="edge">
<title>pinocchio&#45;git&#45;&gt;lua51</title>
<path fill="none" stroke="#000000" d="M688.3019,-1373.8701C670.3871,-1381.417 648.6297,-1390.7286 629.2537,-1399.429 613.1121,-1406.6771 609.9032,-1410.4389 593.2537,-1416.429 573.1784,-1423.6518 550.3076,-1429.7373 530.9668,-1434.2916"/>
<polygon fill="#000000" stroke="#000000" points="530.1715,-1430.8831 521.208,-1436.5316 531.7376,-1437.7057 530.1715,-1430.8831"/>
</g>
<!-- pinocchio&#45;git&#45;&gt;urdfdom -->
<g id="edge87" class="edge">
<title>pinocchio&#45;git&#45;&gt;urdfdom</title>
<path fill="none" stroke="#000000" d="M710.1135,-1340.6977C688.5624,-1314.7858 649.6671,-1264.223 629.2537,-1214.429 596.9836,-1135.7133 620.151,-1107.1388 593.2537,-1026.429 569.264,-954.4437 526.2422,-875.7795 503.0904,-835.8614"/>
<polygon fill="#000000" stroke="#000000" points="505.9955,-833.8959 497.9254,-827.0313 499.9533,-837.4303 505.9955,-833.8959"/>
</g>
<!-- pinocchio&#45;git&#45;&gt;eigenpy -->
<g id="edge85" class="edge">
<title>pinocchio&#45;git&#45;&gt;eigenpy</title>
<path fill="none" stroke="#000000" d="M676.5863,-1371.7304C660.0862,-1378.0559 642.509,-1387.0254 629.2537,-1399.429 603.4202,-1423.603 617.2371,-1444.4184 593.2537,-1470.429 575.0328,-1490.1902 549.4608,-1506.1102 528.0056,-1517.2483"/>
<polygon fill="#000000" stroke="#000000" points="526.1549,-1514.2611 518.7883,-1521.8758 529.2957,-1520.5169 526.1549,-1514.2611"/>
</g>
<!-- pinocchio&#45;git&#45;&gt;hpp&#45;fcl -->
<g id="edge86" class="edge">
<title>pinocchio&#45;git&#45;&gt;hpp&#45;fcl</title>
<path fill="none" stroke="#000000" d="M675.2345,-1345.5671C633.5964,-1334.901 574.8413,-1319.8503 534.1614,-1309.4297"/>
<polygon fill="#000000" stroke="#000000" points="534.7857,-1305.9767 524.2299,-1306.8857 533.0486,-1312.7578 534.7857,-1305.9767"/>
</g>
<!-- pinocchio&#45;git&#45;&gt;metapod&#45;git -->
<g id="edge80" class="edge">
<title>pinocchio&#45;git&#45;&gt;metapod&#45;git</title>
<path fill="none" stroke="#000000" d="M661.6302,-1366.7365C629.543,-1370.9136 590.5771,-1375.9862 557.6304,-1380.2752"/>
<polygon fill="#000000" stroke="#000000" points="557.0776,-1376.8175 547.6131,-1381.5792 557.9813,-1383.7589 557.0776,-1376.8175"/>
</g>
<!-- pinocchio&#45;git&#45;&gt;eigen32 -->
<g id="edge84" class="edge">
<title>pinocchio&#45;git&#45;&gt;eigen32</title>
<path fill="none" stroke="#000000" d="M672.1968,-1370.6054C656.2205,-1376.7487 640.0842,-1385.8916 629.2537,-1399.429 573.9239,-1468.5879 656.0121,-1532.9331 593.2537,-1595.429 525.4619,-1662.9374 473.6595,-1608.2054 381.3725,-1633.429 352.2756,-1641.3818 320.4515,-1653.2405 296.0222,-1663.0561"/>
<polygon fill="#000000" stroke="#000000" points="294.6535,-1659.8343 286.7083,-1666.8431 297.2901,-1666.3188 294.6535,-1659.8343"/>
</g>
<!-- pinocchio&#45;git&#45;&gt;cmake -->
<g id="edge82" class="edge">
<title>pinocchio&#45;git&#45;&gt;cmake</title>
<path fill="none" stroke="#000000" d="M654.0494,-1356.6298C510.9466,-1352.3388 199.6673,-1339.2992 164.6886,-1306.429 126.8289,-1270.8516 141.4016,-1125.8026 128.6886,-1075.429 114.5068,-1019.2357 90.1239,-955.9121 75.793,-920.7328"/>
<polygon fill="#000000" stroke="#000000" points="78.9018,-919.0897 71.8624,-911.1715 72.4275,-921.7513 78.9018,-919.0897"/>
</g>
<!-- omniorbpy -->
<g id="node36" class="node">
<title>omniorbpy</title>
<ellipse fill="none" stroke="#000000" cx="725.4452" cy="-405.429" rx="60.3893" ry="18"/>
<text text-anchor="middle" x="725.4452" y="-401.729" font-family="Times,serif" font-size="14.00" fill="#000000">omniorbpy</text>
</g>
<!-- gepetto&#45;viewer&#45;corba&#45;git -->
<g id="node38" class="node">
<title>gepetto&#45;viewer&#45;corba&#45;git</title>
<ellipse fill="none" stroke="#000000" cx="983.0755" cy="-451.429" rx="125.3778" ry="18"/>
<text text-anchor="middle" x="983.0755" y="-447.729" font-family="Times,serif" font-size="14.00" fill="#000000">gepetto&#45;viewer&#45;corba&#45;git</text>
</g>
<!-- gepetto&#45;viewer&#45;corba&#45;git&#45;&gt;git -->
<g id="edge95" class="edge">
<title>gepetto&#45;viewer&#45;corba&#45;git&#45;&gt;git</title>
<path fill="none" stroke="#000000" d="M979.1944,-433.2663C966.9385,-381.029 923.6681,-230.3769 821.6367,-171.429 797.7826,-157.6476 407.1335,-161.7053 381.3725,-174.429 324.2022,-202.6664 285.0984,-270.4351 266.8266,-308.4331"/>
<polygon fill="#000000" stroke="#000000" points="263.486,-307.3152 262.4293,-317.8572 269.8295,-310.2751 263.486,-307.3152"/>
</g>
<!-- gepetto&#45;viewer&#45;corba&#45;git&#45;&gt;omniorb -->
<g id="edge97" class="edge">
<title>gepetto&#45;viewer&#45;corba&#45;git&#45;&gt;omniorb</title>
<path fill="none" stroke="#000000" d="M948.7496,-434.0765C916.4905,-418.2111 866.5821,-394.7925 821.6367,-378.429 807.2021,-373.1738 791.2426,-368.3233 776.5408,-364.2264"/>
<polygon fill="#000000" stroke="#000000" points="777.1663,-360.7692 766.5977,-361.5148 775.3245,-367.5226 777.1663,-360.7692"/>
</g>
<!-- gepetto&#45;viewer&#45;corba&#45;git&#45;&gt;gepetto&#45;viewer&#45;git -->
<g id="edge96" class="edge">
<title>gepetto&#45;viewer&#45;corba&#45;git&#45;&gt;gepetto&#45;viewer&#45;git</title>
<path fill="none" stroke="#000000" d="M941.6828,-468.4598C896.2109,-487.1688 823.2205,-517.2002 774.8038,-537.1208"/>
<polygon fill="#000000" stroke="#000000" points="773.3797,-533.922 765.4636,-540.9638 776.0432,-540.3955 773.3797,-533.922"/>
</g>
<!-- gepetto&#45;viewer&#45;corba&#45;git&#45;&gt;qt4 -->
<g id="edge98" class="edge">
<title>gepetto&#45;viewer&#45;corba&#45;git&#45;&gt;qt4</title>
<path fill="none" stroke="#000000" d="M975.1868,-469.4089C952.1645,-522.8397 884.9697,-685.8234 857.6367,-828.429 831.4487,-965.0611 879.7343,-1327.0218 821.6367,-1453.429 762.7795,-1581.4888 720.0682,-1611.9346 593.2537,-1673.429 424.4192,-1755.2997 190.7716,-1745.6859 101.2604,-1738.1956"/>
<polygon fill="#000000" stroke="#000000" points="101.3413,-1734.6893 91.0729,-1737.299 100.7275,-1741.6624 101.3413,-1734.6893"/>
</g>
<!-- gepetto&#45;viewer&#45;corba&#45;git&#45;&gt;omniorbpy -->
<g id="edge99" class="edge">
<title>gepetto&#45;viewer&#45;corba&#45;git&#45;&gt;omniorbpy</title>
<path fill="none" stroke="#000000" d="M904.3781,-437.3776C866.9364,-430.6923 822.802,-422.8121 787.7338,-416.5507"/>
<polygon fill="#000000" stroke="#000000" points="788.0886,-413.0588 777.629,-414.7465 786.8581,-419.9498 788.0886,-413.0588"/>
</g>
<!-- gepetto&#45;viewer&#45;corba&#45;git&#45;&gt;doxygen -->
<g id="edge93" class="edge">
<title>gepetto&#45;viewer&#45;corba&#45;git&#45;&gt;doxygen</title>
<path fill="none" stroke="#000000" d="M859.4175,-454.6813C773.9513,-455.0745 668.7999,-451.3283 629.2537,-432.429 607.6739,-422.116 615.1024,-402.1596 593.2537,-392.429 507.23,-354.1173 470.6911,-362.595 381.3725,-392.429 339.7993,-406.3153 300.9234,-439.8519 277.5609,-463.1147"/>
<polygon fill="#000000" stroke="#000000" points="275.0455,-460.6808 270.537,-470.2686 280.0405,-465.585 275.0455,-460.6808"/>
</g>
<!-- gepetto&#45;viewer&#45;corba&#45;git&#45;&gt;cmake -->
<g id="edge94" class="edge">
<title>gepetto&#45;viewer&#45;corba&#45;git&#45;&gt;cmake</title>
<path fill="none" stroke="#000000" d="M968.4922,-469.5392C942.6774,-500.01 885.5908,-560.5396 821.6367,-584.429 684.8321,-635.5311 278.6989,-510.1682 164.6886,-601.429 113.523,-642.3851 149.7483,-682.3662 128.6886,-744.429 113.8835,-788.0594 91.7403,-836.7425 77.6733,-866.2233"/>
<polygon fill="#000000" stroke="#000000" points="74.4158,-864.9211 73.2346,-875.4499 80.7238,-867.9558 74.4158,-864.9211"/>
</g>
<!-- curl -->
<g id="node39" class="node">
<title>curl</title>
<ellipse fill="none" stroke="#000000" cx="487.3131" cy="-1053.429" rx="29.4969" ry="18"/>
<text text-anchor="middle" x="487.3131" y="-1049.729" font-family="Times,serif" font-size="14.00" fill="#000000">curl</text>
</g>
<!-- hpp&#45;model&#45;urdf&#45;&gt;assimp -->
<g id="edge16" class="edge">
<title>hpp&#45;model&#45;urdf&#45;&gt;assimp</title>
<path fill="none" stroke="#000000" d="M928.1499,-868.8121C788.3742,-903.181 426.9762,-994.1103 381.3725,-1026.429 373.8677,-1031.7477 305.5541,-1131.2513 272.6239,-1179.5515"/>
<polygon fill="#000000" stroke="#000000" points="269.6469,-1177.7049 266.9095,-1187.9401 275.4321,-1181.6459 269.6469,-1177.7049"/>
</g>
<!-- hpp&#45;model&#45;urdf&#45;&gt;urdfdom -->
<g id="edge21" class="edge">
<title>hpp&#45;model&#45;urdf&#45;&gt;urdfdom</title>
<path fill="none" stroke="#000000" d="M907.5103,-848.4176C808.199,-839.2029 635.8518,-823.2114 545.8493,-814.8604"/>
<polygon fill="#000000" stroke="#000000" points="546.0997,-811.3687 535.8191,-813.9297 545.4529,-818.3388 546.0997,-811.3687"/>
</g>
<!-- hpp&#45;model&#45;urdf&#45;&gt;srdfdom&#45;git -->
<g id="edge22" class="edge">
<title>hpp&#45;model&#45;urdf&#45;&gt;srdfdom&#45;git</title>
<path fill="none" stroke="#000000" d="M965.1865,-837.4492C937.3214,-810.7589 880.6002,-761.5407 821.6367,-740.429 735.4115,-709.5564 628.8134,-707.9552 559.5015,-711.3"/>
<polygon fill="#000000" stroke="#000000" points="558.93,-707.8254 549.1298,-711.851 559.3014,-714.8155 558.93,-707.8254"/>
</g>
<!-- hpp&#45;model&#45;urdf&#45;&gt;urdf&#45;git -->
<g id="edge19" class="edge">
<title>hpp&#45;model&#45;urdf&#45;&gt;urdf&#45;git</title>
<path fill="none" stroke="#000000" d="M938.4939,-840.2011C891.166,-824.0351 816.8237,-798.6416 769.6427,-782.5258"/>
<polygon fill="#000000" stroke="#000000" points="770.6011,-779.1546 760.0065,-779.2343 768.3383,-785.7789 770.6011,-779.1546"/>
</g>
<!-- hpp&#45;model&#45;urdf&#45;&gt;hpp&#45;model -->
<g id="edge18" class="edge">
<title>hpp&#45;model&#45;urdf&#45;&gt;hpp&#45;model</title>
<path fill="none" stroke="#000000" d="M969.2242,-873.2788C926.3132,-928.5768 795.4662,-1097.1953 745.3055,-1161.8358"/>
<polygon fill="#000000" stroke="#000000" points="742.4179,-1159.8479 739.0524,-1169.894 747.9482,-1164.1393 742.4179,-1159.8479"/>
</g>
<!-- hpp&#45;model&#45;urdf&#45;&gt;cmake -->
<g id="edge15" class="edge">
<title>hpp&#45;model&#45;urdf&#45;&gt;cmake</title>
<path fill="none" stroke="#000000" d="M908.0786,-862.9101C788.9888,-874.3749 549.238,-895.7674 345.3725,-903.429 265.1252,-906.4449 244.8936,-907.4157 164.6886,-903.429 148.4803,-902.6234 130.8536,-901.0901 114.9608,-899.4617"/>
<polygon fill="#000000" stroke="#000000" points="115.1129,-895.9583 104.7996,-898.3846 114.3749,-902.9193 115.1129,-895.9583"/>
</g>
<!-- hpp&#45;model&#45;urdf&#45;&gt;resource&#45;retriever -->
<g id="edge20" class="edge">
<title>hpp&#45;model&#45;urdf&#45;&gt;resource&#45;retriever</title>
<path fill="none" stroke="#000000" d="M963.8772,-873.3032C934.7698,-899.7648 876.9855,-949.8454 821.6367,-983.429 807.7816,-991.8358 791.9959,-999.5738 777.2752,-1006.099"/>
<polygon fill="#000000" stroke="#000000" points="775.5728,-1003.022 767.7863,-1010.2067 778.3538,-1009.4459 775.5728,-1003.022"/>
</g>
<!-- hpp&#45;model&#45;urdf&#45;&gt;hpp&#45;util&#45;git -->
<g id="edge17" class="edge">
<title>hpp&#45;model&#45;urdf&#45;&gt;hpp&#45;util&#45;git</title>
<path fill="none" stroke="#000000" d="M979.2356,-837.3268C966.7226,-782.7298 922.0067,-618.0695 821.6367,-530.429 753.6537,-471.068 712.1788,-501.0501 629.2537,-465.429 612.6308,-458.2886 610.1369,-452.9305 593.2537,-446.429 579.0782,-440.9702 563.412,-436.2857 548.5726,-432.4249"/>
<polygon fill="#000000" stroke="#000000" points="549.0112,-428.9264 538.4597,-429.8843 547.3055,-435.7154 549.0112,-428.9264"/>
</g>
<!-- resource&#45;retriever&#45;&gt;boost -->
<g id="edge92" class="edge">
<title>resource&#45;retriever&#45;&gt;boost</title>
<path fill="none" stroke="#000000" d="M692.4588,-1043.3666C666.2882,-1055.9426 628.3899,-1072.271 593.2537,-1080.429 418.6979,-1120.9583 203.2116,-1112.5112 110.41,-1106.1824"/>
<polygon fill="#000000" stroke="#000000" points="110.4585,-1102.6772 100.2365,-1105.4631 109.9647,-1109.6598 110.4585,-1102.6772"/>
</g>
<!-- resource&#45;retriever&#45;&gt;urdfdom -->
<g id="edge90" class="edge">
<title>resource&#45;retriever&#45;&gt;urdfdom</title>
<path fill="none" stroke="#000000" d="M705.9579,-1008.671C663.2377,-969.7419 561.3304,-876.878 513.2571,-833.0707"/>
<polygon fill="#000000" stroke="#000000" points="515.4972,-830.3768 505.7483,-826.2283 510.7823,-835.5508 515.4972,-830.3768"/>
</g>
<!-- resource&#45;retriever&#45;&gt;curl -->
<g id="edge91" class="edge">
<title>resource&#45;retriever&#45;&gt;curl</title>
<path fill="none" stroke="#000000" d="M643.1602,-1035.7587C603.5437,-1040.2505 557.9031,-1045.4254 526.2966,-1049.009"/>
<polygon fill="#000000" stroke="#000000" points="525.6869,-1045.5556 516.1449,-1050.16 526.4756,-1052.5111 525.6869,-1045.5556"/>
</g>
<!-- resource&#45;retriever&#45;&gt;cmake -->
<g id="edge89" class="edge">
<title>resource&#45;retriever&#45;&gt;cmake</title>
<path fill="none" stroke="#000000" d="M629.0364,-1026.4498C491.2565,-1025.2293 245.7204,-1018.0542 164.6886,-983.429 131.6776,-969.3234 102.1978,-939.8061 83.8706,-918.4123"/>
<polygon fill="#000000" stroke="#000000" points="86.4998,-916.1001 77.4085,-910.6597 81.1228,-920.5821 86.4998,-916.1001"/>
</g>
<!-- hpp&#45;util&#45;git&#45;&gt;git -->
<g id="edge45" class="edge">
<title>hpp&#45;util&#45;git&#45;&gt;git</title>
<path fill="none" stroke="#000000" d="M442.4122,-406.9144C423.4406,-401.3568 401.1933,-394.4827 381.3725,-387.429 348.8215,-375.845 312.4089,-360.6081 287.068,-349.6256"/>
<polygon fill="#000000" stroke="#000000" points="288.1621,-346.2845 277.5967,-345.4955 285.364,-352.701 288.1621,-346.2845"/>
</g>
<!-- hpp&#45;util&#45;git&#45;&gt;boost -->
<g id="edge46" class="edge">
<title>hpp&#45;util&#45;git&#45;&gt;boost</title>
<path fill="none" stroke="#000000" d="M425.6678,-422.5748C409.0865,-426.4474 392.6458,-433.5947 381.3725,-446.429 293.332,-546.6607 425.7293,-637.9381 345.3725,-744.429 292.8974,-813.9706 224.5326,-757.1174 164.6886,-820.429 163.5376,-821.6467 99.0451,-1004.1263 74.0731,-1074.8604"/>
<polygon fill="#000000" stroke="#000000" points="70.716,-1073.8561 70.6877,-1084.4509 77.3168,-1076.1862 70.716,-1073.8561"/>
</g>
<!-- hpp&#45;util&#45;git&#45;&gt;tinyxml -->
<g id="edge47" class="edge">
<title>hpp&#45;util&#45;git&#45;&gt;tinyxml</title>
<path fill="none" stroke="#000000" d="M428.381,-425.4386C411.8759,-429.3918 394.7968,-435.8651 381.3725,-446.429 354.4993,-467.5765 362.2445,-484.6848 345.3725,-514.429 320.6193,-558.0677 290.023,-607.6981 271.5426,-637.2427"/>
<polygon fill="#000000" stroke="#000000" points="268.563,-635.4063 266.2162,-645.738 274.4937,-639.1248 268.563,-635.4063"/>
</g>
<!-- hpp&#45;util&#45;git&#45;&gt;doxygen -->
<g id="edge43" class="edge">
<title>hpp&#45;util&#45;git&#45;&gt;doxygen</title>
<path fill="none" stroke="#000000" d="M439.1451,-431.0108C420.9695,-435.5628 400.1519,-440.995 381.3725,-446.429 354.505,-454.2036 324.736,-463.8145 300.846,-471.7767"/>
<polygon fill="#000000" stroke="#000000" points="299.6996,-468.4695 291.3292,-474.9646 301.9231,-475.1069 299.6996,-468.4695"/>
</g>
<!-- hpp&#45;util&#45;git&#45;&gt;cmake -->
<g id="edge44" class="edge">
<title>hpp&#45;util&#45;git&#45;&gt;cmake</title>
<path fill="none" stroke="#000000" d="M436.4024,-408.8779C365.0447,-397.3631 236.0422,-389.0528 164.6886,-460.429 119.7123,-505.4196 145.465,-683.0649 128.6886,-744.429 116.5383,-788.8719 93.6584,-837.3295 78.7127,-866.5414"/>
<polygon fill="#000000" stroke="#000000" points="75.472,-865.188 73.9753,-875.6766 81.6861,-868.4106 75.472,-865.188"/>
</g>
</g>
</svg>
