<?xml version="1.0" encoding="UTF-8" standalone="no"?>
<!DOCTYPE svg PUBLIC "-//W3C//DTD SVG 1.1//EN"
 "http://www.w3.org/Graphics/SVG/1.1/DTD/svg11.dtd">
<!-- Generated by graphviz version 2.40.1 (20161225.0304)
 -->
<!-- Title: dependencies Pages: 1 -->
<svg width="1086pt" height="1749pt"
 viewBox="0.00 0.00 1086.22 1748.68" xmlns="http://www.w3.org/2000/svg" xmlns:xlink="http://www.w3.org/1999/xlink">
<g id="graph0" class="graph" transform="scale(1 1) rotate(0) translate(4 1744.6821)">
<title>dependencies</title>
<polygon fill="#ffffff" stroke="transparent" points="-4,4 -4,-1744.6821 1082.2203,-1744.6821 1082.2203,4 -4,4"/>
<!-- resource&#45;retriever -->
<g id="node1" class="node">
<title>resource&#45;retriever</title>
<ellipse fill="none" stroke="#000000" cx="609.1055" cy="-1002.6821" rx="74.9875" ry="18"/>
<text text-anchor="middle" x="609.1055" y="-998.9821" font-family="Times,serif" font-size="14.00" fill="#000000">resource&#45;retriever</text>
</g>
<!-- urdfdom -->
<g id="node11" class="node">
<title>urdfdom</title>
<ellipse fill="none" stroke="#000000" cx="408.6701" cy="-720.6821" rx="43.5923" ry="18"/>
<text text-anchor="middle" x="408.6701" y="-716.9821" font-family="Times,serif" font-size="14.00" fill="#000000">urdfdom</text>
</g>
<!-- resource&#45;retriever&#45;&gt;urdfdom -->
<g id="edge36" class="edge">
<title>resource&#45;retriever&#45;&gt;urdfdom</title>
<path fill="none" stroke="#000000" d="M596.2763,-984.7902C580.6875,-963.0378 553.5993,-925.2 530.4625,-892.6821 493.6601,-840.9577 450.8014,-780.3424 426.9989,-746.6444"/>
<polygon fill="#000000" stroke="#000000" points="429.7199,-744.4301 421.0922,-738.2809 424.0021,-748.4683 429.7199,-744.4301"/>
</g>
<!-- cmake -->
<g id="node32" class="node">
<title>cmake</title>
<ellipse fill="none" stroke="#000000" cx="51.3454" cy="-747.6821" rx="34.394" ry="18"/>
<text text-anchor="middle" x="51.3454" y="-743.9821" font-family="Times,serif" font-size="14.00" fill="#000000">cmake</text>
</g>
<!-- resource&#45;retriever&#45;&gt;cmake -->
<g id="edge35" class="edge">
<title>resource&#45;retriever&#45;&gt;cmake</title>
<path fill="none" stroke="#000000" d="M561.2942,-1016.5501C540.8925,-1021.7852 516.7033,-1027.0984 494.4625,-1029.6821 415.9151,-1038.8068 201.612,-1070.5767 138.6909,-1022.6821 98.5618,-992.1365 67.5237,-839.518 56.101,-775.7509"/>
<polygon fill="#000000" stroke="#000000" points="59.4979,-774.8588 54.3175,-765.6168 52.6038,-776.0722 59.4979,-774.8588"/>
</g>
<!-- curl -->
<g id="node35" class="node">
<title>curl</title>
<ellipse fill="none" stroke="#000000" cx="408.6701" cy="-1002.6821" rx="27" ry="18"/>
<text text-anchor="middle" x="408.6701" y="-998.9821" font-family="Times,serif" font-size="14.00" fill="#000000">curl</text>
</g>
<!-- resource&#45;retriever&#45;&gt;curl -->
<g id="edge37" class="edge">
<title>resource&#45;retriever&#45;&gt;curl</title>
<path fill="none" stroke="#000000" d="M534.1858,-1002.6821C504.0247,-1002.6821 470.5926,-1002.6821 445.8208,-1002.6821"/>
<polygon fill="#000000" stroke="#000000" points="445.7693,-999.1822 435.7693,-1002.6821 445.7693,-1006.1822 445.7693,-999.1822"/>
</g>
<!-- boost -->
<g id="node41" class="node">
<title>boost</title>
<ellipse fill="none" stroke="#000000" cx="51.3454" cy="-1170.6821" rx="31.3957" ry="18"/>
<text text-anchor="middle" x="51.3454" y="-1166.9821" font-family="Times,serif" font-size="14.00" fill="#000000">boost</text>
</g>
<!-- resource&#45;retriever&#45;&gt;boost -->
<g id="edge38" class="edge">
<title>resource&#45;retriever&#45;&gt;boost</title>
<path fill="none" stroke="#000000" d="M594.089,-1020.5339C573.9307,-1043.1886 535.8377,-1081.6071 494.4625,-1100.6821 357.3898,-1163.8759 173.9068,-1171.5072 92.8361,-1171.4849"/>
<polygon fill="#000000" stroke="#000000" points="92.5644,-1167.9837 82.5492,-1171.4399 92.5337,-1174.9837 92.5644,-1167.9837"/>
</g>
<!-- hpp&#45;model -->
<g id="node2" class="node">
<title>hpp&#45;model</title>
<ellipse fill="none" stroke="#000000" cx="609.1055" cy="-865.6821" rx="51.9908" ry="18"/>
<text text-anchor="middle" x="609.1055" y="-861.9821" font-family="Times,serif" font-size="14.00" fill="#000000">hpp&#45;model</text>
</g>
<!-- hpp&#45;fcl -->
<g id="node3" class="node">
<title>hpp&#45;fcl</title>
<ellipse fill="none" stroke="#000000" cx="408.6701" cy="-1208.6821" rx="37.8943" ry="18"/>
<text text-anchor="middle" x="408.6701" y="-1204.9821" font-family="Times,serif" font-size="14.00" fill="#000000">hpp&#45;fcl</text>
</g>
<!-- hpp&#45;model&#45;&gt;hpp&#45;fcl -->
<g id="edge23" class="edge">
<title>hpp&#45;model&#45;&gt;hpp&#45;fcl</title>
<path fill="none" stroke="#000000" d="M595.5188,-883.0725C579.1844,-904.3313 551.3621,-941.6831 530.4625,-975.6821 486.1288,-1047.8032 442.1056,-1137.7231 421.2139,-1181.7946"/>
<polygon fill="#000000" stroke="#000000" points="417.9819,-1180.4423 416.8805,-1190.9797 424.3128,-1183.429 417.9819,-1180.4423"/>
</g>
<!-- eigen32 -->
<g id="node4" class="node">
<title>eigen32</title>
<ellipse fill="none" stroke="#000000" cx="212.7843" cy="-1384.6821" rx="40.0939" ry="18"/>
<text text-anchor="middle" x="212.7843" y="-1380.9821" font-family="Times,serif" font-size="14.00" fill="#000000">eigen32</text>
</g>
<!-- hpp&#45;model&#45;&gt;eigen32 -->
<g id="edge21" class="edge">
<title>hpp&#45;model&#45;&gt;eigen32</title>
<path fill="none" stroke="#000000" d="M570.8081,-877.9516C496.5394,-902.0916 338.7998,-955.1879 322.8777,-975.6821 238.8648,-1083.8201 336.4417,-1154.0286 286.8777,-1281.6821 275.2454,-1311.6416 252.8061,-1340.9071 235.6562,-1360.5387"/>
<polygon fill="#000000" stroke="#000000" points="232.9683,-1358.2939 228.9109,-1368.0811 238.1861,-1362.9603 232.9683,-1358.2939"/>
</g>
<!-- hpp&#45;util&#45;git -->
<g id="node12" class="node">
<title>hpp&#45;util&#45;git</title>
<ellipse fill="none" stroke="#000000" cx="408.6701" cy="-254.6821" rx="53.0913" ry="18"/>
<text text-anchor="middle" x="408.6701" y="-250.9821" font-family="Times,serif" font-size="14.00" fill="#000000">hpp&#45;util&#45;git</text>
</g>
<!-- hpp&#45;model&#45;&gt;hpp&#45;util&#45;git -->
<g id="edge22" class="edge">
<title>hpp&#45;model&#45;&gt;hpp&#45;util&#45;git</title>
<path fill="none" stroke="#000000" d="M594.1114,-848.0456C575.5186,-825.0376 544.56,-782.7378 530.4625,-740.6821 500.6194,-651.6539 539.7971,-401.91 494.4625,-319.6821 484.0138,-300.7301 465.4607,-285.6228 448.2744,-274.7602"/>
<polygon fill="#000000" stroke="#000000" points="449.8368,-271.6159 439.4618,-269.4688 446.2334,-277.6172 449.8368,-271.6159"/>
</g>
<!-- assimp -->
<g id="node30" class="node">
<title>assimp</title>
<ellipse fill="none" stroke="#000000" cx="212.7843" cy="-995.6821" rx="36.2938" ry="18"/>
<text text-anchor="middle" x="212.7843" y="-991.9821" font-family="Times,serif" font-size="14.00" fill="#000000">assimp</text>
</g>
<!-- hpp&#45;model&#45;&gt;assimp -->
<g id="edge19" class="edge">
<title>hpp&#45;model&#45;&gt;assimp</title>
<path fill="none" stroke="#000000" d="M558.2942,-861.8011C498.1865,-859.5397 396.9474,-863.2269 322.8777,-904.6821 300.8291,-917.0222 305.7871,-931.9234 286.8777,-948.6821 274.7436,-959.4362 259.8913,-969.3725 246.6787,-977.312"/>
<polygon fill="#000000" stroke="#000000" points="244.7135,-974.4066 237.847,-982.4751 248.2464,-980.4497 244.7135,-974.4066"/>
</g>
<!-- hpp&#45;model&#45;&gt;cmake -->
<g id="edge20" class="edge">
<title>hpp&#45;model&#45;&gt;cmake</title>
<path fill="none" stroke="#000000" d="M558.0589,-861.8965C538.2173,-860.6004 515.2905,-859.3174 494.4625,-858.6821 418.2381,-856.3572 396.9006,-840.3468 322.8777,-858.6821 305.3168,-863.0319 304.4387,-873.3323 286.8777,-877.6821 222.9489,-893.5172 196.8146,-908.6543 138.6909,-877.6821 98.1998,-856.1058 73.1389,-806.4933 60.7588,-775.1779"/>
<polygon fill="#000000" stroke="#000000" points="63.9907,-773.8291 57.1813,-765.7122 57.4427,-776.3038 63.9907,-773.8291"/>
</g>
<!-- hpp&#45;fcl&#45;&gt;eigen32 -->
<g id="edge62" class="edge">
<title>hpp&#45;fcl&#45;&gt;eigen32</title>
<path fill="none" stroke="#000000" d="M387.2166,-1223.6455C369.4555,-1236.334 343.8299,-1255.345 322.8777,-1273.6821 290.7649,-1301.7869 256.5701,-1337.2388 234.9636,-1360.4121"/>
<polygon fill="#000000" stroke="#000000" points="232.3723,-1358.059 228.1399,-1367.7718 237.5055,-1362.8183 232.3723,-1358.059"/>
</g>
<!-- hpp&#45;fcl&#45;&gt;assimp -->
<g id="edge63" class="edge">
<title>hpp&#45;fcl&#45;&gt;assimp</title>
<path fill="none" stroke="#000000" d="M373.1885,-1202.5948C356.0732,-1198.0327 336.3786,-1190.1592 322.8777,-1176.6821 290.6279,-1144.489 310.2222,-1119.8162 286.8777,-1080.6821 273.2603,-1057.8541 253.2442,-1035.3297 237.4479,-1019.2088"/>
<polygon fill="#000000" stroke="#000000" points="239.6237,-1016.4347 230.0789,-1011.836 234.6727,-1021.3832 239.6237,-1016.4347"/>
</g>
<!-- hpp&#45;fcl&#45;&gt;cmake -->
<g id="edge61" class="edge">
<title>hpp&#45;fcl&#45;&gt;cmake</title>
<path fill="none" stroke="#000000" d="M373.8321,-1201.295C357.0809,-1196.4248 337.5138,-1188.6675 322.8777,-1176.6821 299.4044,-1157.4599 310.766,-1137.3862 286.8777,-1118.6821 232.3688,-1076.0027 186.4261,-1120.823 138.6909,-1070.6821 97.6395,-1027.5619 66.3292,-846.4153 55.4792,-775.9207"/>
<polygon fill="#000000" stroke="#000000" points="58.9306,-775.3353 53.9715,-765.9727 52.0096,-776.3843 58.9306,-775.3353"/>
</g>
<!-- suitesparse -->
<g id="node14" class="node">
<title>suitesparse</title>
<ellipse fill="none" stroke="#000000" cx="51.3454" cy="-1465.6821" rx="50.0912" ry="18"/>
<text text-anchor="middle" x="51.3454" y="-1461.9821" font-family="Times,serif" font-size="14.00" fill="#000000">suitesparse</text>
</g>
<!-- eigen32&#45;&gt;suitesparse -->
<g id="edge15" class="edge">
<title>eigen32&#45;&gt;suitesparse</title>
<path fill="none" stroke="#000000" d="M185.7631,-1398.2397C159.5206,-1411.4065 119.4199,-1431.5266 89.844,-1446.3659"/>
<polygon fill="#000000" stroke="#000000" points="88.0107,-1443.3699 80.6422,-1450.9828 91.1499,-1449.6265 88.0107,-1443.3699"/>
</g>
<!-- fftw -->
<g id="node16" class="node">
<title>fftw</title>
<ellipse fill="none" stroke="#000000" cx="51.3454" cy="-1411.6821" rx="27" ry="18"/>
<text text-anchor="middle" x="51.3454" y="-1407.9821" font-family="Times,serif" font-size="14.00" fill="#000000">fftw</text>
</g>
<!-- eigen32&#45;&gt;fftw -->
<g id="edge13" class="edge">
<title>eigen32&#45;&gt;fftw</title>
<path fill="none" stroke="#000000" d="M174.9341,-1391.0124C148.7226,-1395.3962 114.0153,-1401.2008 88.0551,-1405.5426"/>
<polygon fill="#000000" stroke="#000000" points="87.1538,-1402.1446 77.8682,-1407.2463 88.3085,-1409.0487 87.1538,-1402.1446"/>
</g>
<!-- gcc&#45;fortran -->
<g id="node23" class="node">
<title>gcc&#45;fortran</title>
<ellipse fill="none" stroke="#000000" cx="51.3454" cy="-1357.6821" rx="51.1914" ry="18"/>
<text text-anchor="middle" x="51.3454" y="-1353.9821" font-family="Times,serif" font-size="14.00" fill="#000000">gcc&#45;fortran</text>
</g>
<!-- eigen32&#45;&gt;gcc&#45;fortran -->
<g id="edge12" class="edge">
<title>eigen32&#45;&gt;gcc&#45;fortran</title>
<path fill="none" stroke="#000000" d="M174.9341,-1378.3518C154.9719,-1375.0132 130.082,-1370.8505 107.8811,-1367.1375"/>
<polygon fill="#000000" stroke="#000000" points="108.3376,-1363.6653 97.8972,-1365.4677 107.1829,-1370.5694 108.3376,-1363.6653"/>
</g>
<!-- qt4 -->
<g id="node26" class="node">
<title>qt4</title>
<ellipse fill="none" stroke="#000000" cx="51.3454" cy="-1303.6821" rx="27" ry="18"/>
<text text-anchor="middle" x="51.3454" y="-1299.9821" font-family="Times,serif" font-size="14.00" fill="#000000">qt4</text>
</g>
<!-- eigen32&#45;&gt;qt4 -->
<g id="edge9" class="edge">
<title>eigen32&#45;&gt;qt4</title>
<path fill="none" stroke="#000000" d="M191.9814,-1369.1182C176.9276,-1361.5567 156.2321,-1352.7724 138.6909,-1343.6821 122.0425,-1335.0545 118.9976,-1330.9394 102.6909,-1321.6821 97.6547,-1318.8231 92.2906,-1315.8863 86.9998,-1313.1528"/>
<polygon fill="#000000" stroke="#000000" points="88.1564,-1309.8197 77.6425,-1308.5129 85.0467,-1316.091 88.1564,-1309.8197"/>
</g>
<!-- eigen32&#45;&gt;qt4 -->
<g id="edge14" class="edge">
<title>eigen32&#45;&gt;qt4</title>
<path fill="none" stroke="#000000" d="M174.9929,-1378.1439C163.2026,-1373.5404 150.2606,-1367.6778 138.6909,-1361.6821 122.0425,-1353.0545 118.9976,-1348.9394 102.6909,-1339.6821 93.7203,-1334.5895 83.7089,-1329.25 74.9254,-1324.0999"/>
<polygon fill="#000000" stroke="#000000" points="76.6667,-1321.0621 66.3118,-1318.8199 73.0084,-1327.0301 76.6667,-1321.0621"/>
</g>
<!-- freeglut -->
<g id="node29" class="node">
<title>freeglut</title>
<ellipse fill="none" stroke="#000000" cx="51.3454" cy="-1519.6821" rx="38.9931" ry="18"/>
<text text-anchor="middle" x="51.3454" y="-1515.9821" font-family="Times,serif" font-size="14.00" fill="#000000">freeglut</text>
</g>
<!-- eigen32&#45;&gt;freeglut -->
<g id="edge11" class="edge">
<title>eigen32&#45;&gt;freeglut</title>
<path fill="none" stroke="#000000" d="M198.4057,-1401.5979C178.5262,-1424.2847 140.7692,-1464.9212 102.6909,-1492.6821 98.164,-1495.9825 93.1801,-1499.1233 88.1517,-1502.0182"/>
<polygon fill="#000000" stroke="#000000" points="86.2365,-1499.0763 79.1414,-1506.9446 89.5946,-1505.2182 86.2365,-1499.0763"/>
</g>
<!-- eigen32&#45;&gt;cmake -->
<g id="edge10" class="edge">
<title>eigen32&#45;&gt;cmake</title>
<path fill="none" stroke="#000000" d="M175.9628,-1376.8797C162.2418,-1372.1317 147.8029,-1364.5881 138.6909,-1352.6821 129.7292,-1340.9727 70.4637,-893.3608 55.0199,-775.7501"/>
<polygon fill="#000000" stroke="#000000" points="58.4756,-775.1831 53.7045,-765.7234 51.5351,-776.0937 58.4756,-775.1831"/>
</g>
<!-- eigen32&#45;&gt;boost -->
<g id="edge16" class="edge">
<title>eigen32&#45;&gt;boost</title>
<path fill="none" stroke="#000000" d="M178.0391,-1375.5042C164.4631,-1370.5335 149.5754,-1363.1955 138.6909,-1352.6821 111.808,-1326.7158 118.8378,-1310.3899 102.6909,-1276.6821 89.7444,-1249.6553 74.7935,-1218.8335 64.3762,-1197.4193"/>
<polygon fill="#000000" stroke="#000000" points="67.456,-1195.7493 59.9323,-1188.2897 61.162,-1198.813 67.456,-1195.7493"/>
</g>
<!-- metapod&#45;git -->
<g id="node5" class="node">
<title>metapod&#45;git</title>
<ellipse fill="none" stroke="#000000" cx="408.6701" cy="-1446.6821" rx="55.7903" ry="18"/>
<text text-anchor="middle" x="408.6701" y="-1442.9821" font-family="Times,serif" font-size="14.00" fill="#000000">metapod&#45;git</text>
</g>
<!-- srdfdom -->
<g id="node6" class="node">
<title>srdfdom</title>
<ellipse fill="none" stroke="#000000" cx="609.1055" cy="-544.6821" rx="42.4939" ry="18"/>
<text text-anchor="middle" x="609.1055" y="-540.9821" font-family="Times,serif" font-size="14.00" fill="#000000">srdfdom</text>
</g>
<!-- urdf&#45;git -->
<g id="node7" class="node">
<title>urdf&#45;git</title>
<ellipse fill="none" stroke="#000000" cx="609.1055" cy="-713.6821" rx="38.9931" ry="18"/>
<text text-anchor="middle" x="609.1055" y="-709.9821" font-family="Times,serif" font-size="14.00" fill="#000000">urdf&#45;git</text>
</g>
<!-- git -->
<g id="node10" class="node">
<title>git</title>
<ellipse fill="none" stroke="#000000" cx="212.7843" cy="-352.6821" rx="27" ry="18"/>
<text text-anchor="middle" x="212.7843" y="-348.9821" font-family="Times,serif" font-size="14.00" fill="#000000">git</text>
</g>
<!-- urdf&#45;git&#45;&gt;git -->
<g id="edge97" class="edge">
<title>urdf&#45;git&#45;&gt;git</title>
<path fill="none" stroke="#000000" d="M571.1294,-709.0949C556.3717,-705.3888 540.6085,-698.7088 530.4625,-686.6821 466.2927,-610.6174 559.4094,-541.0844 494.4625,-465.6821 442.1993,-405.0054 392.7472,-449.8148 322.8777,-410.6821 304.4558,-400.3643 305.0937,-390.3595 286.8777,-379.6821 274.8551,-372.6349 260.6792,-366.9232 247.9632,-362.5992"/>
<polygon fill="#000000" stroke="#000000" points="248.7389,-359.1718 238.1473,-359.4298 246.5881,-365.8332 248.7389,-359.1718"/>
</g>
<!-- urdf&#45;git&#45;&gt;urdfdom -->
<g id="edge99" class="edge">
<title>urdf&#45;git&#45;&gt;urdfdom</title>
<path fill="none" stroke="#000000" d="M569.9838,-715.0484C539.3197,-716.1193 496.3156,-717.6212 462.4198,-718.805"/>
<polygon fill="#000000" stroke="#000000" points="462.0883,-715.3143 452.2166,-719.1613 462.3327,-722.31 462.0883,-715.3143"/>
</g>
<!-- doxygen -->
<g id="node17" class="node">
<title>doxygen</title>
<ellipse fill="none" stroke="#000000" cx="212.7843" cy="-406.6821" rx="44.393" ry="18"/>
<text text-anchor="middle" x="212.7843" y="-402.9821" font-family="Times,serif" font-size="14.00" fill="#000000">doxygen</text>
</g>
<!-- urdf&#45;git&#45;&gt;doxygen -->
<g id="edge95" class="edge">
<title>urdf&#45;git&#45;&gt;doxygen</title>
<path fill="none" stroke="#000000" d="M571.473,-708.7963C556.7707,-705.0421 540.9559,-698.4069 530.4625,-686.6821 481.5641,-632.0456 543.7759,-579.9443 494.4625,-525.6821 440.5111,-466.3165 394.0503,-506.6888 322.8777,-469.6821 305.1331,-460.4557 303.9502,-453.0999 286.8777,-442.6821 276.1003,-436.1056 263.9448,-429.7838 252.6434,-424.3231"/>
<polygon fill="#000000" stroke="#000000" points="253.9364,-421.063 243.4,-419.9519 250.9438,-427.391 253.9364,-421.063"/>
</g>
<!-- urdf&#45;git&#45;&gt;cmake -->
<g id="edge96" class="edge">
<title>urdf&#45;git&#45;&gt;cmake</title>
<path fill="none" stroke="#000000" d="M573.6813,-705.8728C551.1314,-701.3075 521.2336,-695.9998 494.4625,-693.6821 418.4868,-687.1046 398.7706,-686.2088 322.8777,-693.6821 240.1419,-701.8292 145.2498,-723.6188 92.3987,-736.8963"/>
<polygon fill="#000000" stroke="#000000" points="91.2373,-733.58 82.4051,-739.4317 92.9587,-740.365 91.2373,-733.58"/>
</g>
<!-- urdf&#45;git&#45;&gt;boost -->
<g id="edge98" class="edge">
<title>urdf&#45;git&#45;&gt;boost</title>
<path fill="none" stroke="#000000" d="M581.9462,-726.6601C530.7175,-751.3109 416.551,-807.0647 322.8777,-858.6821 302.0004,-870.1863 154.4136,-950.7655 138.6909,-968.6821 92.8067,-1020.9686 68.008,-1101.0577 57.5115,-1142.9546"/>
<polygon fill="#000000" stroke="#000000" points="54.093,-1142.2011 55.147,-1152.7433 60.8972,-1143.8448 54.093,-1142.2011"/>
</g>
<!-- hpp&#45;pinocchio&#45;git -->
<g id="node8" class="node">
<title>hpp&#45;pinocchio&#45;git</title>
<ellipse fill="none" stroke="#000000" cx="1000.2272" cy="-1002.6821" rx="77.9862" ry="18"/>
<text text-anchor="middle" x="1000.2272" y="-998.9821" font-family="Times,serif" font-size="14.00" fill="#000000">hpp&#45;pinocchio&#45;git</text>
</g>
<!-- hpp&#45;pinocchio&#45;git&#45;&gt;resource&#45;retriever -->
<g id="edge76" class="edge">
<title>hpp&#45;pinocchio&#45;git&#45;&gt;resource&#45;retriever</title>
<path fill="none" stroke="#000000" d="M922.0179,-1002.6821C856.0725,-1002.6821 761.8755,-1002.6821 694.0856,-1002.6821"/>
<polygon fill="#000000" stroke="#000000" points="693.8619,-999.1822 683.8618,-1002.6821 693.8618,-1006.1822 693.8619,-999.1822"/>
</g>
<!-- hpp&#45;pinocchio&#45;git&#45;&gt;hpp&#45;model -->
<g id="edge64" class="edge">
<title>hpp&#45;pinocchio&#45;git&#45;&gt;hpp&#45;model</title>
<path fill="none" stroke="#000000" d="M957.2515,-987.6288C883.1843,-961.6849 732.0921,-908.7612 655.6367,-881.9808"/>
<polygon fill="#000000" stroke="#000000" points="656.3986,-878.5392 645.8038,-878.5366 654.0845,-885.1457 656.3986,-878.5392"/>
</g>
<!-- hpp&#45;pinocchio&#45;git&#45;&gt;hpp&#45;fcl -->
<g id="edge75" class="edge">
<title>hpp&#45;pinocchio&#45;git&#45;&gt;hpp&#45;fcl</title>
<path fill="none" stroke="#000000" d="M994.5452,-1020.7087C981.8765,-1057.5218 947.5027,-1140.8772 886.2341,-1176.6821 814.3723,-1218.6776 562.5373,-1214.5427 456.4055,-1210.7584"/>
<polygon fill="#000000" stroke="#000000" points="456.4227,-1207.2567 446.2997,-1210.3832 456.1629,-1214.2519 456.4227,-1207.2567"/>
</g>
<!-- hpp&#45;pinocchio&#45;git&#45;&gt;git -->
<g id="edge70" class="edge">
<title>hpp&#45;pinocchio&#45;git&#45;&gt;git</title>
<path fill="none" stroke="#000000" d="M999.9014,-984.4876C997.6964,-880.6415 981.9793,-363.3238 886.2341,-243.6821 728.2602,-46.2803 542.2242,-38.9427 322.8777,-164.6821 262.3997,-199.3509 231.94,-281.543 219.6223,-324.8618"/>
<polygon fill="#000000" stroke="#000000" points="216.184,-324.1678 216.9388,-334.7357 222.939,-326.0037 216.184,-324.1678"/>
</g>
<!-- hpp&#45;pinocchio&#45;git&#45;&gt;hpp&#45;util&#45;git -->
<g id="edge74" class="edge">
<title>hpp&#45;pinocchio&#45;git&#45;&gt;hpp&#45;util&#45;git</title>
<path fill="none" stroke="#000000" d="M998.6842,-984.5883C989.4278,-878.0629 939.8601,-335.6386 886.2341,-286.6821 827.0353,-232.638 585.8329,-241.8773 470.5725,-249.7106"/>
<polygon fill="#000000" stroke="#000000" points="470.2211,-246.2265 460.4891,-250.4142 470.7085,-253.2095 470.2211,-246.2265"/>
</g>
<!-- hpp&#45;pinocchio&#45;git&#45;&gt;doxygen -->
<g id="edge68" class="edge">
<title>hpp&#45;pinocchio&#45;git&#45;&gt;doxygen</title>
<path fill="none" stroke="#000000" d="M994.5257,-984.6448C963.4585,-890.017 804.4826,-450.2899 494.4625,-319.6821 424.1846,-290.0749 389.2391,-282.1089 322.8777,-319.6821 295.8159,-335.0043 310.864,-359.8889 286.8777,-379.6821 279.3539,-385.8907 270.2787,-390.7349 261.0985,-394.4931"/>
<polygon fill="#000000" stroke="#000000" points="259.7161,-391.2727 251.5543,-398.0282 262.1474,-397.8369 259.7161,-391.2727"/>
</g>
<!-- hpp&#45;model&#45;urdf -->
<g id="node27" class="node">
<title>hpp&#45;model&#45;urdf</title>
<ellipse fill="none" stroke="#000000" cx="804.9913" cy="-804.6821" rx="70.3881" ry="18"/>
<text text-anchor="middle" x="804.9913" y="-800.9821" font-family="Times,serif" font-size="14.00" fill="#000000">hpp&#45;model&#45;urdf</text>
</g>
<!-- hpp&#45;pinocchio&#45;git&#45;&gt;hpp&#45;model&#45;urdf -->
<g id="edge65" class="edge">
<title>hpp&#45;pinocchio&#45;git&#45;&gt;hpp&#45;model&#45;urdf</title>
<path fill="none" stroke="#000000" d="M982.9013,-985.1109C948.0952,-949.812 869.5934,-870.1988 829.5247,-829.5628"/>
<polygon fill="#000000" stroke="#000000" points="831.7918,-826.8771 822.2784,-822.2139 826.8074,-831.792 831.7918,-826.8771"/>
</g>
<!-- hpp&#45;pinocchio&#45;git&#45;&gt;assimp -->
<g id="edge73" class="edge">
<title>hpp&#45;pinocchio&#45;git&#45;&gt;assimp</title>
<path fill="none" stroke="#000000" d="M936.7557,-1013.1518C816.3047,-1031.2689 546.6016,-1063.4417 322.8777,-1029.6821 298.2884,-1025.9716 271.6197,-1017.8474 250.6892,-1010.471"/>
<polygon fill="#000000" stroke="#000000" points="251.802,-1007.1517 241.2077,-1007.0432 249.422,-1013.7347 251.802,-1007.1517"/>
</g>
<!-- hpp&#45;pinocchio&#45;git&#45;&gt;cmake -->
<g id="edge69" class="edge">
<title>hpp&#45;pinocchio&#45;git&#45;&gt;cmake</title>
<path fill="none" stroke="#000000" d="M999.4026,-984.6808C993.4821,-859.1347 955.6893,-117.371 886.2341,-48.6821 798.1477,38.4326 732.9934,-18.6821 609.1055,-18.6821 609.1055,-18.6821 609.1055,-18.6821 408.6701,-18.6821 284.3704,-18.6821 217.8294,4.1695 138.6909,-91.6821 104.0752,-133.6082 112.6986,-526.2415 102.6909,-579.6821 93.1772,-630.4843 73.7584,-687.6479 61.7178,-720.4876"/>
<polygon fill="#000000" stroke="#000000" points="58.436,-719.2714 58.2371,-729.8644 64.9984,-721.7075 58.436,-719.2714"/>
</g>
<!-- pinocchio -->
<g id="node33" class="node">
<title>pinocchio</title>
<ellipse fill="none" stroke="#000000" cx="609.1055" cy="-1362.6821" rx="48.1917" ry="18"/>
<text text-anchor="middle" x="609.1055" y="-1358.9821" font-family="Times,serif" font-size="14.00" fill="#000000">pinocchio</text>
</g>
<!-- hpp&#45;pinocchio&#45;git&#45;&gt;pinocchio -->
<g id="edge72" class="edge">
<title>hpp&#45;pinocchio&#45;git&#45;&gt;pinocchio</title>
<path fill="none" stroke="#000000" d="M994.789,-1020.8891C981.9495,-1061.1861 946.24,-1159.058 886.2341,-1218.6821 819.5612,-1284.931 716.1118,-1327.4874 656.2635,-1348.061"/>
<polygon fill="#000000" stroke="#000000" points="655.0431,-1344.7788 646.6874,-1351.2929 657.2816,-1351.4113 655.0431,-1344.7788"/>
</g>
<!-- romeo_description -->
<g id="node37" class="node">
<title>romeo_description</title>
<ellipse fill="none" stroke="#000000" cx="804.9913" cy="-1668.6821" rx="80.6858" ry="18"/>
<text text-anchor="middle" x="804.9913" y="-1664.9821" font-family="Times,serif" font-size="14.00" fill="#000000">romeo_description</text>
</g>
<!-- hpp&#45;pinocchio&#45;git&#45;&gt;romeo_description -->
<g id="edge66" class="edge">
<title>hpp&#45;pinocchio&#45;git&#45;&gt;romeo_description</title>
<path fill="none" stroke="#000000" d="M999.4364,-1020.7636C994.9872,-1114.5119 970.1952,-1544.6372 886.2341,-1641.6821 882.9429,-1645.4862 879.102,-1648.7564 874.9142,-1651.5673"/>
<polygon fill="#000000" stroke="#000000" points="872.8451,-1648.7184 865.8962,-1656.7161 876.3158,-1654.7974 872.8451,-1648.7184"/>
</g>
<!-- hpp_environments -->
<g id="node39" class="node">
<title>hpp_environments</title>
<ellipse fill="none" stroke="#000000" cx="804.9913" cy="-1614.6821" rx="81.4863" ry="18"/>
<text text-anchor="middle" x="804.9913" y="-1610.9821" font-family="Times,serif" font-size="14.00" fill="#000000">hpp_environments</text>
</g>
<!-- hpp&#45;pinocchio&#45;git&#45;&gt;hpp_environments -->
<g id="edge67" class="edge">
<title>hpp&#45;pinocchio&#45;git&#45;&gt;hpp_environments</title>
<path fill="none" stroke="#000000" d="M998.9779,-1020.7473C992.5473,-1108.9273 960.5604,-1493.5056 886.2341,-1582.6821 881.5633,-1588.2862 875.7774,-1592.9142 869.4609,-1596.735"/>
<polygon fill="#000000" stroke="#000000" points="867.7596,-1593.6755 860.5734,-1601.4607 871.0461,-1599.8561 867.7596,-1593.6755"/>
</g>
<!-- hpp&#45;pinocchio&#45;git&#45;&gt;boost -->
<g id="edge71" class="edge">
<title>hpp&#45;pinocchio&#45;git&#45;&gt;boost</title>
<path fill="none" stroke="#000000" d="M997.1052,-1020.8729C979.3472,-1117.7523 882.0327,-1568.6821 609.1055,-1568.6821 609.1055,-1568.6821 609.1055,-1568.6821 408.6701,-1568.6821 325.0715,-1568.6821 148.9671,-1425.9798 138.6909,-1411.6821 102.4496,-1361.2582 124.3241,-1334.8887 102.6909,-1276.6821 92.2508,-1248.5919 76.9366,-1217.9241 65.7505,-1196.8361"/>
<polygon fill="#000000" stroke="#000000" points="68.7478,-1195.0196 60.9338,-1187.8648 62.5805,-1198.3309 68.7478,-1195.0196"/>
</g>
<!-- tabula -->
<g id="node9" class="node">
<title>tabula</title>
<ellipse fill="none" stroke="#000000" cx="1000.2272" cy="-1722.6821" rx="33.2948" ry="18"/>
<text text-anchor="middle" x="1000.2272" y="-1718.9821" font-family="Times,serif" font-size="14.00" fill="#000000">tabula</text>
</g>
<!-- java&#45;runtime -->
<g id="node38" class="node">
<title>java&#45;runtime</title>
<ellipse fill="none" stroke="#000000" cx="804.9913" cy="-1722.6821" rx="57.6901" ry="18"/>
<text text-anchor="middle" x="804.9913" y="-1718.9821" font-family="Times,serif" font-size="14.00" fill="#000000">java&#45;runtime</text>
</g>
<!-- tabula&#45;&gt;java&#45;runtime -->
<g id="edge54" class="edge">
<title>tabula&#45;&gt;java&#45;runtime</title>
<path fill="none" stroke="#000000" d="M966.665,-1722.6821C940.9883,-1722.6821 904.7256,-1722.6821 873.0485,-1722.6821"/>
<polygon fill="#000000" stroke="#000000" points="872.9441,-1719.1822 862.9441,-1722.6821 872.944,-1726.1822 872.9441,-1719.1822"/>
</g>
<!-- console&#45;bridge -->
<g id="node13" class="node">
<title>console&#45;bridge</title>
<ellipse fill="none" stroke="#000000" cx="212.7843" cy="-552.6821" rx="65.7887" ry="18"/>
<text text-anchor="middle" x="212.7843" y="-548.9821" font-family="Times,serif" font-size="14.00" fill="#000000">console&#45;bridge</text>
</g>
<!-- urdfdom&#45;&gt;console&#45;bridge -->
<g id="edge33" class="edge">
<title>urdfdom&#45;&gt;console&#45;bridge</title>
<path fill="none" stroke="#000000" d="M389.5311,-704.2677C354.6936,-674.3896 280.808,-611.0221 240.4747,-576.4305"/>
<polygon fill="#000000" stroke="#000000" points="242.7461,-573.7677 232.8769,-569.9143 238.189,-579.0812 242.7461,-573.7677"/>
</g>
<!-- tinyxml -->
<g id="node22" class="node">
<title>tinyxml</title>
<ellipse fill="none" stroke="#000000" cx="212.7843" cy="-498.6821" rx="40.0939" ry="18"/>
<text text-anchor="middle" x="212.7843" y="-494.9821" font-family="Times,serif" font-size="14.00" fill="#000000">tinyxml</text>
</g>
<!-- urdfdom&#45;&gt;tinyxml -->
<g id="edge32" class="edge">
<title>urdfdom&#45;&gt;tinyxml</title>
<path fill="none" stroke="#000000" d="M398.0783,-703.0388C369.9415,-656.264 294.9215,-532.1998 286.8777,-525.6821 278.6555,-519.0198 268.6435,-513.9192 258.6722,-510.0446"/>
<polygon fill="#000000" stroke="#000000" points="259.7791,-506.7237 249.1843,-506.6945 257.4484,-513.3243 259.7791,-506.7237"/>
</g>
<!-- urdfdom&#45;headers -->
<g id="node28" class="node">
<title>urdfdom&#45;headers</title>
<ellipse fill="none" stroke="#000000" cx="212.7843" cy="-644.6821" rx="74.187" ry="18"/>
<text text-anchor="middle" x="212.7843" y="-640.9821" font-family="Times,serif" font-size="14.00" fill="#000000">urdfdom&#45;headers</text>
</g>
<!-- urdfdom&#45;&gt;urdfdom&#45;headers -->
<g id="edge34" class="edge">
<title>urdfdom&#45;&gt;urdfdom&#45;headers</title>
<path fill="none" stroke="#000000" d="M376.7617,-708.3022C345.513,-696.1783 297.4779,-677.5416 261.4609,-663.5677"/>
<polygon fill="#000000" stroke="#000000" points="262.7026,-660.2953 252.1137,-659.9412 260.1706,-666.8214 262.7026,-660.2953"/>
</g>
<!-- urdfdom&#45;&gt;cmake -->
<g id="edge31" class="edge">
<title>urdfdom&#45;&gt;cmake</title>
<path fill="none" stroke="#000000" d="M370.2191,-729.2302C346.3589,-734.1345 314.9917,-739.8622 286.8777,-742.6821 220.6672,-749.3231 143.4833,-749.5425 96.0161,-748.8202"/>
<polygon fill="#000000" stroke="#000000" points="95.833,-745.3166 85.7738,-748.6426 95.7115,-752.3156 95.833,-745.3166"/>
</g>
<!-- hpp&#45;util&#45;git&#45;&gt;git -->
<g id="edge58" class="edge">
<title>hpp&#45;util&#45;git&#45;&gt;git</title>
<path fill="none" stroke="#000000" d="M368.0367,-266.5309C353.2903,-271.6733 336.8354,-278.4296 322.8777,-286.6821 304.7023,-297.4283 304.5842,-306.1796 286.8777,-317.6821 274.0137,-326.0388 258.8413,-333.5652 245.5874,-339.4782"/>
<polygon fill="#000000" stroke="#000000" points="244.1198,-336.2996 236.336,-343.4874 246.9032,-342.7224 244.1198,-336.2996"/>
</g>
<!-- hpp&#45;util&#45;git&#45;&gt;doxygen -->
<g id="edge56" class="edge">
<title>hpp&#45;util&#45;git&#45;&gt;doxygen</title>
<path fill="none" stroke="#000000" d="M362.7466,-263.9894C348.5141,-268.7765 333.7352,-275.9576 322.8777,-286.6821 291.3448,-317.8288 318.5282,-348.6548 286.8777,-379.6821 279.9844,-386.4397 271.2677,-391.5231 262.255,-395.3418"/>
<polygon fill="#000000" stroke="#000000" points="260.9535,-392.0918 252.8196,-398.8808 263.4118,-398.646 260.9535,-392.0918"/>
</g>
<!-- hpp&#45;util&#45;git&#45;&gt;tinyxml -->
<g id="edge60" class="edge">
<title>hpp&#45;util&#45;git&#45;&gt;tinyxml</title>
<path fill="none" stroke="#000000" d="M380.2625,-269.9481C361.5075,-281.3651 337.7382,-298.6068 322.8777,-319.6821 292.2591,-363.1057 315.9194,-389.1884 286.8777,-433.6821 275.7754,-450.6916 259.0387,-465.9023 244.2798,-477.3251"/>
<polygon fill="#000000" stroke="#000000" points="241.7962,-474.8115 235.8761,-483.598 245.9834,-480.421 241.7962,-474.8115"/>
</g>
<!-- hpp&#45;util&#45;git&#45;&gt;cmake -->
<g id="edge57" class="edge">
<title>hpp&#45;util&#45;git&#45;&gt;cmake</title>
<path fill="none" stroke="#000000" d="M362.7237,-245.4421C302.3614,-236.2461 197.1847,-230.8707 138.6909,-289.6821 92.8965,-335.7251 116.2318,-516.1705 102.6909,-579.6821 91.96,-630.0135 73.0679,-686.9835 61.4353,-719.9738"/>
<polygon fill="#000000" stroke="#000000" points="57.9924,-719.2088 57.9332,-729.8035 64.5864,-721.5582 57.9924,-719.2088"/>
</g>
<!-- hpp&#45;util&#45;git&#45;&gt;boost -->
<g id="edge59" class="edge">
<title>hpp&#45;util&#45;git&#45;&gt;boost</title>
<path fill="none" stroke="#000000" d="M362.396,-263.828C289.1207,-278.7502 153.1543,-308.3994 138.6909,-325.6821 106.5703,-364.064 107.9102,-724.906 102.6909,-774.6821 88.2024,-912.8572 64.932,-1077.3773 55.5083,-1142.3164"/>
<polygon fill="#000000" stroke="#000000" points="51.9938,-1142.1625 54.0161,-1152.5626 58.9208,-1143.1713 51.9938,-1142.1625"/>
</g>
<!-- gcc&#45;libs -->
<g id="node24" class="node">
<title>gcc&#45;libs</title>
<ellipse fill="none" stroke="#000000" cx="51.3454" cy="-552.6821" rx="39.7935" ry="18"/>
<text text-anchor="middle" x="51.3454" y="-548.9821" font-family="Times,serif" font-size="14.00" fill="#000000">gcc&#45;libs</text>
</g>
<!-- console&#45;bridge&#45;&gt;gcc&#45;libs -->
<g id="edge18" class="edge">
<title>console&#45;bridge&#45;&gt;gcc&#45;libs</title>
<path fill="none" stroke="#000000" d="M147.1209,-552.6821C131.8074,-552.6821 115.7444,-552.6821 101.243,-552.6821"/>
<polygon fill="#000000" stroke="#000000" points="100.9929,-549.1822 90.9929,-552.6821 100.9928,-556.1822 100.9929,-549.1822"/>
</g>
<!-- console&#45;bridge&#45;&gt;cmake -->
<g id="edge17" class="edge">
<title>console&#45;bridge&#45;&gt;cmake</title>
<path fill="none" stroke="#000000" d="M168.3508,-566.16C157.7923,-570.8295 147.1502,-576.9069 138.6909,-584.6821 97.4915,-622.5495 71.9041,-684.4111 59.7679,-720.0413"/>
<polygon fill="#000000" stroke="#000000" points="56.3652,-719.1847 56.565,-729.7776 63.0147,-721.3721 56.3652,-719.1847"/>
</g>
<!-- lua51 -->
<g id="node15" class="node">
<title>lua51</title>
<ellipse fill="none" stroke="#000000" cx="408.6701" cy="-1392.6821" rx="31.6951" ry="18"/>
<text text-anchor="middle" x="408.6701" y="-1388.9821" font-family="Times,serif" font-size="14.00" fill="#000000">lua51</text>
</g>
<!-- srdfdom&#45;git -->
<g id="node18" class="node">
<title>srdfdom&#45;git</title>
<ellipse fill="none" stroke="#000000" cx="408.6701" cy="-552.6821" rx="54.6905" ry="18"/>
<text text-anchor="middle" x="408.6701" y="-548.9821" font-family="Times,serif" font-size="14.00" fill="#000000">srdfdom&#45;git</text>
</g>
<!-- srdfdom&#45;git&#45;&gt;git -->
<g id="edge41" class="edge">
<title>srdfdom&#45;git&#45;&gt;git</title>
<path fill="none" stroke="#000000" d="M393.144,-535.0322C375.1796,-514.198 345.2111,-478.1427 322.8777,-444.6821 304.5445,-417.2147 311.9813,-401.1386 286.8777,-379.6821 276.0964,-370.4671 261.9077,-364.2887 248.8348,-360.1983"/>
<polygon fill="#000000" stroke="#000000" points="249.7049,-356.8072 239.1303,-357.4617 247.8049,-363.5445 249.7049,-356.8072"/>
</g>
<!-- srdfdom&#45;git&#45;&gt;console&#45;bridge -->
<g id="edge45" class="edge">
<title>srdfdom&#45;git&#45;&gt;console&#45;bridge</title>
<path fill="none" stroke="#000000" d="M353.8445,-552.6821C333.7164,-552.6821 310.553,-552.6821 288.891,-552.6821"/>
<polygon fill="#000000" stroke="#000000" points="288.7301,-549.1822 278.7301,-552.6821 288.73,-556.1822 288.7301,-549.1822"/>
</g>
<!-- srdfdom&#45;git&#45;&gt;doxygen -->
<g id="edge39" class="edge">
<title>srdfdom&#45;git&#45;&gt;doxygen</title>
<path fill="none" stroke="#000000" d="M362.5777,-542.9386C348.4993,-538.1347 333.8548,-531.054 322.8777,-520.6821 293.9473,-493.3466 315.1063,-466.7418 286.8777,-438.6821 279.1963,-431.0466 269.3986,-425.1047 259.4629,-420.5297"/>
<polygon fill="#000000" stroke="#000000" points="260.5351,-417.1843 249.9591,-416.5516 257.8322,-423.6414 260.5351,-417.1843"/>
</g>
<!-- srdfdom&#45;git&#45;&gt;tinyxml -->
<g id="edge43" class="edge">
<title>srdfdom&#45;git&#45;&gt;tinyxml</title>
<path fill="none" stroke="#000000" d="M366.6477,-541.0978C334.3523,-532.1949 289.8579,-519.929 257.0217,-510.8771"/>
<polygon fill="#000000" stroke="#000000" points="257.8024,-507.4618 247.2318,-508.1783 255.942,-514.2101 257.8024,-507.4618"/>
</g>
<!-- srdfdom&#45;git&#45;&gt;urdfdom&#45;headers -->
<g id="edge44" class="edge">
<title>srdfdom&#45;git&#45;&gt;urdfdom&#45;headers</title>
<path fill="none" stroke="#000000" d="M377.1977,-567.4635C344.5354,-582.8037 293.1994,-606.9142 256.5844,-624.1109"/>
<polygon fill="#000000" stroke="#000000" points="254.7085,-621.1251 247.145,-628.5442 257.6843,-627.4611 254.7085,-621.1251"/>
</g>
<!-- srdfdom&#45;git&#45;&gt;cmake -->
<g id="edge40" class="edge">
<title>srdfdom&#45;git&#45;&gt;cmake</title>
<path fill="none" stroke="#000000" d="M364.7328,-541.7414C350.4772,-536.8239 335.1805,-529.9783 322.8777,-520.6821 301.3172,-504.3906 310.9884,-483.8865 286.8777,-471.6821 228.1161,-441.938 191.8247,-432.7662 138.6909,-471.6821 136.0876,-473.5888 81.4047,-650.2035 59.912,-719.8739"/>
<polygon fill="#000000" stroke="#000000" points="56.4781,-719.1324 56.876,-729.7198 63.1673,-721.1951 56.4781,-719.1324"/>
</g>
<!-- srdfdom&#45;git&#45;&gt;boost -->
<g id="edge42" class="edge">
<title>srdfdom&#45;git&#45;&gt;boost</title>
<path fill="none" stroke="#000000" d="M381.9219,-568.6537C363.9075,-580.2441 340.3416,-597.0994 322.8777,-615.6821 302.615,-637.2431 305.2983,-648.5274 286.8777,-671.6821 228.1404,-745.5152 184.7198,-741.3247 138.6909,-823.6821 78.5073,-931.3658 59.136,-1080.78 53.4738,-1142.3916"/>
<polygon fill="#000000" stroke="#000000" points="49.9733,-1142.2467 52.5963,-1152.5117 56.9471,-1142.8514 49.9733,-1142.2467"/>
</g>
<!-- eigenpy -->
<g id="node19" class="node">
<title>eigenpy</title>
<ellipse fill="none" stroke="#000000" cx="408.6701" cy="-1300.6821" rx="40.0939" ry="18"/>
<text text-anchor="middle" x="408.6701" y="-1296.9821" font-family="Times,serif" font-size="14.00" fill="#000000">eigenpy</text>
</g>
<!-- eigenpy&#45;&gt;eigen32 -->
<g id="edge91" class="edge">
<title>eigenpy&#45;&gt;eigen32</title>
<path fill="none" stroke="#000000" d="M376.6396,-1311.9033C360.4039,-1317.774 340.4545,-1325.2686 322.8777,-1332.6821 297.768,-1343.2728 270.0276,-1356.3845 248.6744,-1366.792"/>
<polygon fill="#000000" stroke="#000000" points="247.0829,-1363.6742 239.6435,-1371.2178 250.1634,-1369.9599 247.0829,-1363.6742"/>
</g>
<!-- eigenpy&#45;&gt;doxygen -->
<g id="edge89" class="edge">
<title>eigenpy&#45;&gt;doxygen</title>
<path fill="none" stroke="#000000" d="M380.5583,-1287.6888C360.6402,-1276.8365 335.3299,-1259.3254 322.8777,-1235.6821 243.6751,-1085.2978 360.6363,-624.8101 286.8777,-471.6821 278.1686,-453.6014 261.8884,-438.4449 246.802,-427.3281"/>
<polygon fill="#000000" stroke="#000000" points="248.796,-424.4516 238.5992,-421.5749 244.7764,-430.1826 248.796,-424.4516"/>
</g>
<!-- python2&#45;numpy -->
<g id="node21" class="node">
<title>python2&#45;numpy</title>
<ellipse fill="none" stroke="#000000" cx="212.7843" cy="-1254.6821" rx="72.2875" ry="18"/>
<text text-anchor="middle" x="212.7843" y="-1250.9821" font-family="Times,serif" font-size="14.00" fill="#000000">python2&#45;numpy</text>
</g>
<!-- eigenpy&#45;&gt;python2&#45;numpy -->
<g id="edge93" class="edge">
<title>eigenpy&#45;&gt;python2&#45;numpy</title>
<path fill="none" stroke="#000000" d="M372.7416,-1292.245C345.5156,-1285.8515 307.4289,-1276.9076 275.2497,-1269.3509"/>
<polygon fill="#000000" stroke="#000000" points="276.0067,-1265.9335 265.4713,-1267.0546 274.4064,-1272.7481 276.0067,-1265.9335"/>
</g>
<!-- eigenpy&#45;&gt;cmake -->
<g id="edge90" class="edge">
<title>eigenpy&#45;&gt;cmake</title>
<path fill="none" stroke="#000000" d="M373.3806,-1291.8302C357.0977,-1286.7011 338.0594,-1279.1495 322.8777,-1268.6821 302.9134,-1254.9172 305.8061,-1242.8402 286.8777,-1227.6821 228.2909,-1180.7648 183.6976,-1206.7491 138.6909,-1146.6821 94.03,-1087.0765 63.8506,-856.6262 54.4587,-775.85"/>
<polygon fill="#000000" stroke="#000000" points="57.9349,-775.4411 53.32,-765.9041 50.9803,-776.2374 57.9349,-775.4411"/>
</g>
<!-- eigenpy&#45;&gt;boost -->
<g id="edge92" class="edge">
<title>eigenpy&#45;&gt;boost</title>
<path fill="none" stroke="#000000" d="M370.7189,-1307.1836C315.9671,-1314.6209 213.2205,-1321.1656 138.6909,-1281.6821 103.7601,-1263.1768 78.1867,-1223.9632 64.0369,-1197.459"/>
<polygon fill="#000000" stroke="#000000" points="67.0294,-1195.6246 59.3445,-1188.3312 60.8038,-1198.8251 67.0294,-1195.6246"/>
</g>
<!-- boost&#45;libs -->
<g id="node42" class="node">
<title>boost&#45;libs</title>
<ellipse fill="none" stroke="#000000" cx="212.7843" cy="-850.6821" rx="47.3916" ry="18"/>
<text text-anchor="middle" x="212.7843" y="-846.9821" font-family="Times,serif" font-size="14.00" fill="#000000">boost&#45;libs</text>
</g>
<!-- eigenpy&#45;&gt;boost&#45;libs -->
<g id="edge94" class="edge">
<title>eigenpy&#45;&gt;boost&#45;libs</title>
<path fill="none" stroke="#000000" d="M381.152,-1287.3594C361.5368,-1276.339 336.3456,-1258.762 322.8777,-1235.6821 262.5287,-1132.2618 327.639,-1081.2712 286.8777,-968.6821 274.3918,-934.1939 250.7033,-899.1637 233.4631,-876.3327"/>
<polygon fill="#000000" stroke="#000000" points="236.0812,-873.996 227.2081,-868.2064 230.5341,-878.2657 236.0812,-873.996"/>
</g>
<!-- gepetto&#45;viewer&#45;git -->
<g id="node20" class="node">
<title>gepetto&#45;viewer&#45;git</title>
<ellipse fill="none" stroke="#000000" cx="609.1055" cy="-598.6821" rx="78.7863" ry="18"/>
<text text-anchor="middle" x="609.1055" y="-594.9821" font-family="Times,serif" font-size="14.00" fill="#000000">gepetto&#45;viewer&#45;git</text>
</g>
<!-- gepetto&#45;viewer&#45;git&#45;&gt;git -->
<g id="edge50" class="edge">
<title>gepetto&#45;viewer&#45;git&#45;&gt;git</title>
<path fill="none" stroke="#000000" d="M550.8102,-586.367C543.1761,-582.6832 536.0718,-577.898 530.4625,-571.6821 483.0817,-519.1775 544.5907,-466.5705 494.4625,-416.6821 485.6962,-407.9578 323.1353,-374.6672 249.0428,-359.8583"/>
<polygon fill="#000000" stroke="#000000" points="249.2733,-356.3355 238.7819,-357.8127 247.9046,-363.2004 249.2733,-356.3355"/>
</g>
<!-- gepetto&#45;viewer&#45;git&#45;&gt;urdfdom -->
<g id="edge52" class="edge">
<title>gepetto&#45;viewer&#45;git&#45;&gt;urdfdom</title>
<path fill="none" stroke="#000000" d="M568.6848,-614.1667C556.156,-619.4897 542.4888,-625.846 530.4625,-632.6821 496.3808,-652.0551 460.3424,-679.0086 436.3896,-697.9664"/>
<polygon fill="#000000" stroke="#000000" points="434.0732,-695.3371 428.4443,-704.313 438.442,-700.8065 434.0732,-695.3371"/>
</g>
<!-- gepetto&#45;viewer&#45;git&#45;&gt;doxygen -->
<g id="edge48" class="edge">
<title>gepetto&#45;viewer&#45;git&#45;&gt;doxygen</title>
<path fill="none" stroke="#000000" d="M553.0804,-585.8514C544.8616,-582.2305 536.9832,-577.5999 530.4625,-571.6821 501.89,-545.7514 523.4767,-518.1177 494.4625,-492.6821 429.8157,-436.0088 328.5779,-416.6823 266.7021,-410.092"/>
<polygon fill="#000000" stroke="#000000" points="267.0437,-406.6088 256.7473,-409.1055 266.3534,-413.5747 267.0437,-406.6088"/>
</g>
<!-- gepetto&#45;viewer&#45;git&#45;&gt;cmake -->
<g id="edge49" class="edge">
<title>gepetto&#45;viewer&#45;git&#45;&gt;cmake</title>
<path fill="none" stroke="#000000" d="M533.5098,-593.6115C418.0459,-587.209 204.2376,-581.0371 138.6909,-617.6821 98.6435,-640.0713 73.4414,-689.425 60.9134,-720.4696"/>
<polygon fill="#000000" stroke="#000000" points="57.6291,-719.259 57.2885,-729.8483 64.1584,-721.7826 57.6291,-719.259"/>
</g>
<!-- openscenegraph&#45;qt4 -->
<g id="node34" class="node">
<title>openscenegraph&#45;qt4</title>
<ellipse fill="none" stroke="#000000" cx="408.6701" cy="-346.6821" rx="85.5853" ry="18"/>
<text text-anchor="middle" x="408.6701" y="-342.9821" font-family="Times,serif" font-size="14.00" fill="#000000">openscenegraph&#45;qt4</text>
</g>
<!-- gepetto&#45;viewer&#45;git&#45;&gt;openscenegraph&#45;qt4 -->
<g id="edge53" class="edge">
<title>gepetto&#45;viewer&#45;git&#45;&gt;openscenegraph&#45;qt4</title>
<path fill="none" stroke="#000000" d="M550.5635,-586.5847C542.9635,-582.8709 535.9343,-578.0193 530.4625,-571.6821 473.4368,-505.6374 550.6149,-445.4708 494.4625,-378.6821 489.68,-372.9936 483.7831,-368.3156 477.3383,-364.4687"/>
<polygon fill="#000000" stroke="#000000" points="478.7468,-361.2556 468.2636,-359.7213 475.5019,-367.4581 478.7468,-361.2556"/>
</g>
<!-- gepetto&#45;viewer&#45;git&#45;&gt;boost&#45;libs -->
<g id="edge51" class="edge">
<title>gepetto&#45;viewer&#45;git&#45;&gt;boost&#45;libs</title>
<path fill="none" stroke="#000000" d="M542.7887,-608.4075C480.9429,-620.1473 388.6087,-644.7575 322.8777,-693.6821 276.2543,-728.3847 242.0195,-788.774 224.96,-823.6747"/>
<polygon fill="#000000" stroke="#000000" points="221.7535,-822.2673 220.6077,-832.8 228.0717,-825.2807 221.7535,-822.2673"/>
</g>
<!-- hpp&#45;constraints -->
<g id="node25" class="node">
<title>hpp&#45;constraints</title>
<ellipse fill="none" stroke="#000000" cx="804.9913" cy="-75.6821" rx="67.6881" ry="18"/>
<text text-anchor="middle" x="804.9913" y="-71.9821" font-family="Times,serif" font-size="14.00" fill="#000000">hpp&#45;constraints</text>
</g>
<!-- hpp&#45;constraints&#45;&gt;hpp&#45;model -->
<g id="edge47" class="edge">
<title>hpp&#45;constraints&#45;&gt;hpp&#45;model</title>
<path fill="none" stroke="#000000" d="M804.3379,-93.8242C800.9625,-173.1915 781.8075,-496.7617 687.7486,-740.6821 673.3905,-777.9165 647.4202,-816.082 629.2659,-840.2821"/>
<polygon fill="#000000" stroke="#000000" points="626.4821,-838.1607 623.2023,-848.2351 632.0487,-842.4049 626.4821,-838.1607"/>
</g>
<!-- hpp&#45;constraints&#45;&gt;cmake -->
<g id="edge46" class="edge">
<title>hpp&#45;constraints&#45;&gt;cmake</title>
<path fill="none" stroke="#000000" d="M737.9145,-72.9121C584.8742,-68.1862 217.0943,-66.3797 138.6909,-153.6821 75.212,-224.366 120.6761,-486.3959 102.6909,-579.6821 92.9485,-630.2141 73.7418,-687.1203 61.7799,-720.0437"/>
<polygon fill="#000000" stroke="#000000" points="58.3395,-719.2585 58.1719,-729.852 64.9091,-721.6751 58.3395,-719.2585"/>
</g>
<!-- hpp&#45;model&#45;urdf&#45;&gt;resource&#45;retriever -->
<g id="edge82" class="edge">
<title>hpp&#45;model&#45;urdf&#45;&gt;resource&#45;retriever</title>
<path fill="none" stroke="#000000" d="M796.619,-822.7205C780.2225,-856.2428 740.7983,-928.5535 687.7486,-970.6821 681.1112,-975.9531 673.488,-980.4706 665.6566,-984.3072"/>
<polygon fill="#000000" stroke="#000000" points="664.0733,-981.1821 656.4143,-988.5026 666.9668,-987.5562 664.0733,-981.1821"/>
</g>
<!-- hpp&#45;model&#45;urdf&#45;&gt;hpp&#45;model -->
<g id="edge80" class="edge">
<title>hpp&#45;model&#45;urdf&#45;&gt;hpp&#45;model</title>
<path fill="none" stroke="#000000" d="M760.0512,-818.6767C729.4743,-828.1986 689.0349,-840.7916 657.7094,-850.5466"/>
<polygon fill="#000000" stroke="#000000" points="656.3902,-847.2915 647.8831,-853.6066 658.4715,-853.975 656.3902,-847.2915"/>
</g>
<!-- hpp&#45;model&#45;urdf&#45;&gt;srdfdom -->
<g id="edge84" class="edge">
<title>hpp&#45;model&#45;urdf&#45;&gt;srdfdom</title>
<path fill="none" stroke="#000000" d="M800.9012,-786.6301C790.1456,-743.2236 757.001,-632.1348 687.7486,-571.6821 679.2559,-564.2686 668.6263,-558.8655 657.9539,-554.9362"/>
<polygon fill="#000000" stroke="#000000" points="658.7936,-551.528 648.2007,-551.7266 656.6055,-558.1772 658.7936,-551.528"/>
</g>
<!-- hpp&#45;model&#45;urdf&#45;&gt;urdfdom -->
<g id="edge83" class="edge">
<title>hpp&#45;model&#45;urdf&#45;&gt;urdfdom</title>
<path fill="none" stroke="#000000" d="M750.7156,-793.1784C673.2694,-776.7637 532.2062,-746.8655 457.7364,-731.0817"/>
<polygon fill="#000000" stroke="#000000" points="458.1923,-727.6006 447.6839,-728.951 456.7408,-734.4485 458.1923,-727.6006"/>
</g>
<!-- hpp&#45;model&#45;urdf&#45;&gt;hpp&#45;util&#45;git -->
<g id="edge79" class="edge">
<title>hpp&#45;model&#45;urdf&#45;&gt;hpp&#45;util&#45;git</title>
<path fill="none" stroke="#000000" d="M800.1869,-786.3802C787.2339,-739.1075 748.4184,-610.1656 687.7486,-517.6821 618.2793,-411.785 497.948,-318.0437 440.7072,-276.8687"/>
<polygon fill="#000000" stroke="#000000" points="442.5799,-273.9054 432.406,-270.9487 438.5155,-279.6046 442.5799,-273.9054"/>
</g>
<!-- hpp&#45;model&#45;urdf&#45;&gt;assimp -->
<g id="edge78" class="edge">
<title>hpp&#45;model&#45;urdf&#45;&gt;assimp</title>
<path fill="none" stroke="#000000" d="M786.7395,-822.4278C764.9758,-842.5641 726.6358,-874.9082 687.7486,-892.6821 648.3939,-910.6697 367.1431,-965.9648 256.9279,-987.2289"/>
<polygon fill="#000000" stroke="#000000" points="255.9671,-983.8495 246.8097,-989.1781 257.2913,-990.7232 255.9671,-983.8495"/>
</g>
<!-- hpp&#45;model&#45;urdf&#45;&gt;cmake -->
<g id="edge77" class="edge">
<title>hpp&#45;model&#45;urdf&#45;&gt;cmake</title>
<path fill="none" stroke="#000000" d="M735.2849,-801.9582C613.8407,-796.7932 355.6829,-783.9553 138.6909,-760.6821 124.2165,-759.1297 108.463,-756.9404 94.3705,-754.8003"/>
<polygon fill="#000000" stroke="#000000" points="94.863,-751.3349 84.4447,-753.2604 93.7899,-758.2522 94.863,-751.3349"/>
</g>
<!-- urdf -->
<g id="node40" class="node">
<title>urdf</title>
<ellipse fill="none" stroke="#000000" cx="609.1055" cy="-659.6821" rx="27" ry="18"/>
<text text-anchor="middle" x="609.1055" y="-655.9821" font-family="Times,serif" font-size="14.00" fill="#000000">urdf</text>
</g>
<!-- hpp&#45;model&#45;urdf&#45;&gt;urdf -->
<g id="edge81" class="edge">
<title>hpp&#45;model&#45;urdf&#45;&gt;urdf</title>
<path fill="none" stroke="#000000" d="M791.7745,-786.9542C771.8671,-761.4055 731.7999,-714.2795 687.7486,-686.6821 674.6562,-678.48 658.7659,-672.4169 644.7052,-668.1379"/>
<polygon fill="#000000" stroke="#000000" points="645.4327,-664.7059 634.8564,-665.3324 643.5149,-671.4381 645.4327,-664.7059"/>
</g>
<!-- urdfdom&#45;headers&#45;&gt;cmake -->
<g id="edge55" class="edge">
<title>urdfdom&#45;headers&#45;&gt;cmake</title>
<path fill="none" stroke="#000000" d="M172.1745,-659.8427C161.0106,-664.6408 149.1145,-670.3612 138.6909,-676.6821 115.8585,-690.5277 92.5158,-709.8203 75.7123,-724.8008"/>
<polygon fill="#000000" stroke="#000000" points="73.0836,-722.4594 68.0195,-731.7657 77.7817,-727.6486 73.0836,-722.4594"/>
</g>
<!-- hpp&#45;statistics&#45;git -->
<g id="node31" class="node">
<title>hpp&#45;statistics&#45;git</title>
<ellipse fill="none" stroke="#000000" cx="609.1055" cy="-193.6821" rx="71.4873" ry="18"/>
<text text-anchor="middle" x="609.1055" y="-189.9821" font-family="Times,serif" font-size="14.00" fill="#000000">hpp&#45;statistics&#45;git</text>
</g>
<!-- hpp&#45;statistics&#45;git&#45;&gt;git -->
<g id="edge87" class="edge">
<title>hpp&#45;statistics&#45;git&#45;&gt;git</title>
<path fill="none" stroke="#000000" d="M559.2335,-180.6651C499.3674,-167.8875 397.697,-155.4581 322.8777,-194.6821 270.2346,-222.2803 237.6127,-287.7484 222.593,-325.1767"/>
<polygon fill="#000000" stroke="#000000" points="219.1619,-324.3457 218.8214,-334.9351 225.6912,-326.8693 219.1619,-324.3457"/>
</g>
<!-- hpp&#45;statistics&#45;git&#45;&gt;hpp&#45;util&#45;git -->
<g id="edge88" class="edge">
<title>hpp&#45;statistics&#45;git&#45;&gt;hpp&#45;util&#45;git</title>
<path fill="none" stroke="#000000" d="M563.3728,-207.6003C531.9604,-217.1603 490.2872,-229.843 458.1076,-239.6364"/>
<polygon fill="#000000" stroke="#000000" points="456.9952,-236.3164 448.4475,-242.5764 459.0334,-243.0131 456.9952,-236.3164"/>
</g>
<!-- hpp&#45;statistics&#45;git&#45;&gt;doxygen -->
<g id="edge85" class="edge">
<title>hpp&#45;statistics&#45;git&#45;&gt;doxygen</title>
<path fill="none" stroke="#000000" d="M539.2766,-197.8229C459.763,-203.1786 338.7509,-213.5273 322.8777,-227.6821 271.0628,-273.8878 333.0169,-327.8079 286.8777,-379.6821 280.4623,-386.895 271.9603,-392.1828 263.0077,-396.0589"/>
<polygon fill="#000000" stroke="#000000" points="261.708,-392.8083 253.5836,-399.6086 264.1755,-399.359 261.708,-392.8083"/>
</g>
<!-- hpp&#45;statistics&#45;git&#45;&gt;cmake -->
<g id="edge86" class="edge">
<title>hpp&#45;statistics&#45;git&#45;&gt;cmake</title>
<path fill="none" stroke="#000000" d="M563.8756,-179.7239C466.4296,-152.7883 237.5096,-107.0596 138.6909,-236.6821 92.2257,-297.6314 117.9616,-504.578 102.6909,-579.6821 92.437,-630.1128 73.393,-687.0512 61.6016,-720.0084"/>
<polygon fill="#000000" stroke="#000000" points="58.16,-719.2333 58.0484,-729.8275 64.7423,-721.6152 58.16,-719.2333"/>
</g>
<!-- pinocchio&#45;&gt;hpp&#45;fcl -->
<g id="edge28" class="edge">
<title>pinocchio&#45;&gt;hpp&#45;fcl</title>
<path fill="none" stroke="#000000" d="M586.3934,-1346.6242C570.5,-1335.2202 548.8992,-1319.3845 530.4625,-1304.6821 513.9543,-1291.5176 510.8854,-1286.953 494.4625,-1273.6821 475.897,-1258.6799 454.4993,-1242.4661 437.7179,-1229.9849"/>
<polygon fill="#000000" stroke="#000000" points="439.5212,-1226.965 429.4025,-1223.8244 435.3541,-1232.5896 439.5212,-1226.965"/>
</g>
<!-- pinocchio&#45;&gt;eigen32 -->
<g id="edge27" class="edge">
<title>pinocchio&#45;&gt;eigen32</title>
<path fill="none" stroke="#000000" d="M601.3195,-1380.6921C586.1985,-1413.0644 549.4419,-1480.1776 494.4625,-1506.6821 425.7683,-1539.7982 392.5617,-1537.6613 322.8777,-1506.6821 279.1237,-1487.2305 245.4201,-1440.8458 227.395,-1411.2038"/>
<polygon fill="#000000" stroke="#000000" points="230.1944,-1409.0605 222.1008,-1402.2235 224.1643,-1412.6155 230.1944,-1409.0605"/>
</g>
<!-- pinocchio&#45;&gt;metapod&#45;git -->
<g id="edge24" class="edge">
<title>pinocchio&#45;&gt;metapod&#45;git</title>
<path fill="none" stroke="#000000" d="M581.8629,-1377.7423C558.9772,-1390.0227 525.1803,-1407.3007 494.4625,-1419.6821 483.7093,-1424.0164 471.9766,-1428.1078 460.7374,-1431.7326"/>
<polygon fill="#000000" stroke="#000000" points="459.5108,-1428.4493 451.0244,-1434.7922 461.614,-1435.1259 459.5108,-1428.4493"/>
</g>
<!-- pinocchio&#45;&gt;urdfdom -->
<g id="edge30" class="edge">
<title>pinocchio&#45;&gt;urdfdom</title>
<path fill="none" stroke="#000000" d="M579.0943,-1348.479C561.8802,-1338.6807 541.5468,-1323.9446 530.4625,-1304.6821 457.098,-1177.1886 526.0987,-1119.3348 494.4625,-975.6821 475.6974,-890.4739 438.6401,-793.848 419.9756,-747.8322"/>
<polygon fill="#000000" stroke="#000000" points="423.2027,-746.4767 416.1786,-738.5449 416.7233,-749.1257 423.2027,-746.4767"/>
</g>
<!-- pinocchio&#45;&gt;lua51 -->
<g id="edge25" class="edge">
<title>pinocchio&#45;&gt;lua51</title>
<path fill="none" stroke="#000000" d="M564.3734,-1369.3774C530.1214,-1374.504 483.2426,-1381.5205 449.8952,-1386.5118"/>
<polygon fill="#000000" stroke="#000000" points="448.9484,-1383.1144 439.5767,-1388.0562 449.9847,-1390.0373 448.9484,-1383.1144"/>
</g>
<!-- pinocchio&#45;&gt;eigenpy -->
<g id="edge29" class="edge">
<title>pinocchio&#45;&gt;eigenpy</title>
<path fill="none" stroke="#000000" d="M571.8749,-1351.1657C537.8291,-1340.6344 487.4737,-1325.0582 451.7132,-1313.9965"/>
<polygon fill="#000000" stroke="#000000" points="452.6273,-1310.6157 442.0396,-1311.0042 450.5587,-1317.3031 452.6273,-1310.6157"/>
</g>
<!-- pinocchio&#45;&gt;cmake -->
<g id="edge26" class="edge">
<title>pinocchio&#45;&gt;cmake</title>
<path fill="none" stroke="#000000" d="M597.6215,-1380.4022C579.4268,-1406.6418 541.1998,-1454.7634 494.4625,-1473.6821 423.7743,-1502.2959 384.2752,-1518.914 322.8777,-1473.6821 279.417,-1441.6643 321.6086,-1399.007 286.8777,-1357.6821 239.2558,-1301.0187 182.2692,-1341.5112 138.6909,-1281.6821 108.4765,-1240.2006 66.203,-880.4617 54.4715,-776.0061"/>
<polygon fill="#000000" stroke="#000000" points="57.9313,-775.4504 53.3426,-765.9008 50.9745,-776.2276 57.9313,-775.4504"/>
</g>
<!-- pinocchio&#45;git -->
<g id="node36" class="node">
<title>pinocchio&#45;git</title>
<ellipse fill="none" stroke="#000000" cx="609.1055" cy="-1277.6821" rx="60.3893" ry="18"/>
<text text-anchor="middle" x="609.1055" y="-1273.9821" font-family="Times,serif" font-size="14.00" fill="#000000">pinocchio&#45;git</text>
</g>
<!-- pinocchio&#45;git&#45;&gt;hpp&#45;fcl -->
<g id="edge7" class="edge">
<title>pinocchio&#45;git&#45;&gt;hpp&#45;fcl</title>
<path fill="none" stroke="#000000" d="M569.5059,-1264.0499C534.571,-1252.0235 483.8943,-1234.5781 448.801,-1222.4972"/>
<polygon fill="#000000" stroke="#000000" points="449.9368,-1219.1866 439.3421,-1219.2409 447.6582,-1225.8054 449.9368,-1219.1866"/>
</g>
<!-- pinocchio&#45;git&#45;&gt;eigen32 -->
<g id="edge5" class="edge">
<title>pinocchio&#45;git&#45;&gt;eigen32</title>
<path fill="none" stroke="#000000" d="M578.1636,-1293.3125C555.4744,-1304.2417 523.6618,-1318.4746 494.4625,-1327.6821 451.5216,-1341.2228 329.1203,-1364.0026 260.6447,-1376.2635"/>
<polygon fill="#000000" stroke="#000000" points="259.7732,-1372.8637 250.5436,-1378.0659 261.0029,-1379.7548 259.7732,-1372.8637"/>
</g>
<!-- pinocchio&#45;git&#45;&gt;metapod&#45;git -->
<g id="edge1" class="edge">
<title>pinocchio&#45;git&#45;&gt;metapod&#45;git</title>
<path fill="none" stroke="#000000" d="M580.2802,-1293.6784C563.9175,-1303.9365 544.0545,-1318.53 530.4625,-1335.6821 505.236,-1367.5161 524.5828,-1392.4324 494.4625,-1419.6821 487.0807,-1426.3604 478.0552,-1431.3869 468.6624,-1435.1701"/>
<polygon fill="#000000" stroke="#000000" points="467.433,-1431.8926 459.1944,-1438.5541 469.789,-1438.4843 467.433,-1431.8926"/>
</g>
<!-- pinocchio&#45;git&#45;&gt;git -->
<g id="edge4" class="edge">
<title>pinocchio&#45;git&#45;&gt;git</title>
<path fill="none" stroke="#000000" d="M588.8335,-1260.4841C524.1622,-1205.573 326.751,-1037.5773 322.8777,-1029.6821 259.1622,-899.8032 373.0785,-495.8614 286.8777,-379.6821 278.0813,-367.8264 263.5499,-361.1679 249.6754,-357.4318"/>
<polygon fill="#000000" stroke="#000000" points="250.3056,-353.986 239.78,-355.1953 248.7624,-360.8138 250.3056,-353.986"/>
</g>
<!-- pinocchio&#45;git&#45;&gt;urdfdom -->
<g id="edge8" class="edge">
<title>pinocchio&#45;git&#45;&gt;urdfdom</title>
<path fill="none" stroke="#000000" d="M602.6637,-1259.7806C573.5089,-1178.7607 453.8088,-846.1203 418.5107,-748.0285"/>
<polygon fill="#000000" stroke="#000000" points="421.7673,-746.7413 415.088,-738.5171 415.1807,-749.1115 421.7673,-746.7413"/>
</g>
<!-- pinocchio&#45;git&#45;&gt;lua51 -->
<g id="edge2" class="edge">
<title>pinocchio&#45;git&#45;&gt;lua51</title>
<path fill="none" stroke="#000000" d="M586.3478,-1294.3985C554.3381,-1317.8756 499.3494,-1358.064 494.4625,-1360.6821 479.4044,-1368.7493 461.871,-1375.6824 446.5937,-1381.012"/>
<polygon fill="#000000" stroke="#000000" points="445.2817,-1377.7608 436.9289,-1384.2785 447.5231,-1384.3923 445.2817,-1377.7608"/>
</g>
<!-- pinocchio&#45;git&#45;&gt;eigenpy -->
<g id="edge6" class="edge">
<title>pinocchio&#45;git&#45;&gt;eigenpy</title>
<path fill="none" stroke="#000000" d="M552.4725,-1284.1808C522.676,-1287.5999 486.4956,-1291.7516 457.8802,-1295.0352"/>
<polygon fill="#000000" stroke="#000000" points="457.2416,-1291.5855 447.7058,-1296.2028 458.0396,-1298.5398 457.2416,-1291.5855"/>
</g>
<!-- pinocchio&#45;git&#45;&gt;cmake -->
<g id="edge3" class="edge">
<title>pinocchio&#45;git&#45;&gt;cmake</title>
<path fill="none" stroke="#000000" d="M548.8062,-1275.7502C475.3991,-1272.241 356.9869,-1262.4871 322.8777,-1235.6821 289.3287,-1209.3173 318.9924,-1174.7764 286.8777,-1146.6821 235.7039,-1101.9147 186.4395,-1157.0861 138.6909,-1108.6821 91.6452,-1060.9907 63.4279,-852.9009 54.4673,-776.2036"/>
<polygon fill="#000000" stroke="#000000" points="57.8997,-775.4127 53.285,-765.8757 50.9451,-776.2089 57.8997,-775.4127"/>
</g>
</g>
</svg>
