<?xml version="1.0" encoding="UTF-8" standalone="no"?>
<!DOCTYPE svg PUBLIC "-//W3C//DTD SVG 1.1//EN"
 "http://www.w3.org/Graphics/SVG/1.1/DTD/svg11.dtd">
<!-- Generated by graphviz version 2.40.1 (20161225.0304)
 -->
<!-- Title: dependencies Pages: 1 -->
<svg width="1098pt" height="1362pt"
 viewBox="0.00 0.00 1097.92 1362.00" xmlns="http://www.w3.org/2000/svg" xmlns:xlink="http://www.w3.org/1999/xlink">
<g id="graph0" class="graph" transform="scale(1 1) rotate(0) translate(4 1358)">
<title>dependencies</title>
<polygon fill="#ffffff" stroke="transparent" points="-4,4 -4,-1358 1093.9193,-1358 1093.9193,4 -4,4"/>
<!-- hpp_environments -->
<g id="node1" class="node">
<title>hpp_environments</title>
<ellipse fill="none" stroke="#000000" cx="816.6903" cy="-1282" rx="81.4863" ry="18"/>
<text text-anchor="middle" x="816.6903" y="-1278.3" font-family="Times,serif" font-size="14.00" fill="#000000">hpp_environments</text>
</g>
<!-- hpp&#45;pinocchio&#45;git -->
<g id="node2" class="node">
<title>hpp&#45;pinocchio&#45;git</title>
<ellipse fill="none" stroke="#000000" cx="1011.9262" cy="-510" rx="77.9862" ry="18"/>
<text text-anchor="middle" x="1011.9262" y="-506.3" font-family="Times,serif" font-size="14.00" fill="#000000">hpp&#45;pinocchio&#45;git</text>
</g>
<!-- hpp&#45;pinocchio&#45;git&#45;&gt;hpp_environments -->
<g id="edge41" class="edge">
<title>hpp&#45;pinocchio&#45;git&#45;&gt;hpp_environments</title>
<path fill="none" stroke="#000000" d="M1011.5167,-528.0665C1008.8645,-630.0546 991.1526,-1133.3486 897.9331,-1250 893.5458,-1255.4901 888.0832,-1260.0412 882.0787,-1263.8133"/>
<polygon fill="#000000" stroke="#000000" points="880.0509,-1260.933 872.9557,-1268.8012 883.409,-1267.0749 880.0509,-1260.933"/>
</g>
<!-- pinocchio -->
<g id="node3" class="node">
<title>pinocchio</title>
<ellipse fill="none" stroke="#000000" cx="583.1078" cy="-661" rx="48.1917" ry="18"/>
<text text-anchor="middle" x="583.1078" y="-657.3" font-family="Times,serif" font-size="14.00" fill="#000000">pinocchio</text>
</g>
<!-- hpp&#45;pinocchio&#45;git&#45;&gt;pinocchio -->
<g id="edge48" class="edge">
<title>hpp&#45;pinocchio&#45;git&#45;&gt;pinocchio</title>
<path fill="none" stroke="#000000" d="M996.9872,-527.7891C976.9351,-550.3762 939.0493,-588.7215 897.9331,-608 814.5712,-647.0865 706.8374,-657.7635 641.4597,-660.4425"/>
<polygon fill="#000000" stroke="#000000" points="641.2083,-656.9492 631.3408,-660.807 641.4603,-663.9447 641.2083,-656.9492"/>
</g>
<!-- hpp&#45;util&#45;git -->
<g id="node4" class="node">
<title>hpp&#45;util&#45;git</title>
<ellipse fill="none" stroke="#000000" cx="374.8731" cy="-962" rx="53.0913" ry="18"/>
<text text-anchor="middle" x="374.8731" y="-958.3" font-family="Times,serif" font-size="14.00" fill="#000000">hpp&#45;util&#45;git</text>
</g>
<!-- hpp&#45;pinocchio&#45;git&#45;&gt;hpp&#45;util&#45;git -->
<g id="edge50" class="edge">
<title>hpp&#45;pinocchio&#45;git&#45;&gt;hpp&#45;util&#45;git</title>
<path fill="none" stroke="#000000" d="M1002.693,-528.2284C970.4107,-589.9763 855.9993,-792.7442 699.4475,-889 618.4855,-938.7795 507.5008,-954.7255 438.5408,-959.7659"/>
<polygon fill="#000000" stroke="#000000" points="438.0045,-956.294 428.2627,-960.459 438.4756,-963.2782 438.0045,-956.294"/>
</g>
<!-- doxygen -->
<g id="node10" class="node">
<title>doxygen</title>
<ellipse fill="none" stroke="#000000" cx="210.8345" cy="-1130" rx="44.393" ry="18"/>
<text text-anchor="middle" x="210.8345" y="-1126.3" font-family="Times,serif" font-size="14.00" fill="#000000">doxygen</text>
</g>
<!-- hpp&#45;pinocchio&#45;git&#45;&gt;doxygen -->
<g id="edge44" class="edge">
<title>hpp&#45;pinocchio&#45;git&#45;&gt;doxygen</title>
<path fill="none" stroke="#000000" d="M1010.2466,-528.1288C1000.8261,-617.6425 945.7588,-1013.0121 699.4475,-1134 551.5321,-1206.6559 346.7427,-1166.74 256.5713,-1143.2622"/>
<polygon fill="#000000" stroke="#000000" points="257.23,-1139.8158 246.6664,-1140.6284 255.4311,-1146.5807 257.23,-1139.8158"/>
</g>
<!-- boost -->
<g id="node13" class="node">
<title>boost</title>
<ellipse fill="none" stroke="#000000" cx="51.3454" cy="-984" rx="31.3957" ry="18"/>
<text text-anchor="middle" x="51.3454" y="-980.3" font-family="Times,serif" font-size="14.00" fill="#000000">boost</text>
</g>
<!-- hpp&#45;pinocchio&#45;git&#45;&gt;boost -->
<g id="edge47" class="edge">
<title>hpp&#45;pinocchio&#45;git&#45;&gt;boost</title>
<path fill="none" stroke="#000000" d="M1009.7853,-528.1495C999.834,-610.241 956.1075,-946.5535 897.9331,-1033 804.9818,-1171.1245 749.596,-1236 583.1078,-1236 583.1078,-1236 583.1078,-1236 374.8731,-1236 268.3333,-1236 221.8607,-1261.5846 138.6909,-1195 81.0986,-1148.8925 61.0823,-1058.3308 54.4447,-1012.3022"/>
<polygon fill="#000000" stroke="#000000" points="57.8807,-1011.5883 53.0938,-1002.1365 50.9417,-1012.5105 57.8807,-1011.5883"/>
</g>
<!-- hpp&#45;model -->
<g id="node14" class="node">
<title>hpp&#45;model</title>
<ellipse fill="none" stroke="#000000" cx="583.1078" cy="-510" rx="51.9908" ry="18"/>
<text text-anchor="middle" x="583.1078" y="-506.3" font-family="Times,serif" font-size="14.00" fill="#000000">hpp&#45;model</text>
</g>
<!-- hpp&#45;pinocchio&#45;git&#45;&gt;hpp&#45;model -->
<g id="edge38" class="edge">
<title>hpp&#45;pinocchio&#45;git&#45;&gt;hpp&#45;model</title>
<path fill="none" stroke="#000000" d="M933.7729,-510C851.059,-510 722.1509,-510 645.8234,-510"/>
<polygon fill="#000000" stroke="#000000" points="645.4125,-506.5001 635.4125,-510 645.4125,-513.5001 645.4125,-506.5001"/>
</g>
<!-- hpp&#45;model&#45;urdf -->
<g id="node16" class="node">
<title>hpp&#45;model&#45;urdf</title>
<ellipse fill="none" stroke="#000000" cx="816.6903" cy="-402" rx="70.3881" ry="18"/>
<text text-anchor="middle" x="816.6903" y="-398.3" font-family="Times,serif" font-size="14.00" fill="#000000">hpp&#45;model&#45;urdf</text>
</g>
<!-- hpp&#45;pinocchio&#45;git&#45;&gt;hpp&#45;model&#45;urdf -->
<g id="edge39" class="edge">
<title>hpp&#45;pinocchio&#45;git&#45;&gt;hpp&#45;model&#45;urdf</title>
<path fill="none" stroke="#000000" d="M981.8484,-493.3617C947.9277,-474.5975 892.6661,-444.0281 855.5133,-423.476"/>
<polygon fill="#000000" stroke="#000000" points="856.9264,-420.2579 846.4818,-418.48 853.5381,-426.3832 856.9264,-420.2579"/>
</g>
<!-- hpp&#45;fcl -->
<g id="node17" class="node">
<title>hpp&#45;fcl</title>
<ellipse fill="none" stroke="#000000" cx="374.8731" cy="-426" rx="37.8943" ry="18"/>
<text text-anchor="middle" x="374.8731" y="-422.3" font-family="Times,serif" font-size="14.00" fill="#000000">hpp&#45;fcl</text>
</g>
<!-- hpp&#45;pinocchio&#45;git&#45;&gt;hpp&#45;fcl -->
<g id="edge51" class="edge">
<title>hpp&#45;pinocchio&#45;git&#45;&gt;hpp&#45;fcl</title>
<path fill="none" stroke="#000000" d="M1008.7354,-491.618C996.7586,-424.7984 952.375,-196.2864 897.9331,-150 830.011,-92.2528 788.3655,-127.4614 699.4475,-121 596.3064,-113.505 549.7724,-59.3189 466.7682,-121 421.4737,-154.6587 389.9951,-328.486 379.0901,-397.6076"/>
<polygon fill="#000000" stroke="#000000" points="375.5888,-397.3469 377.5176,-407.7647 382.5064,-398.418 375.5888,-397.3469"/>
</g>
<!-- ros&#45;build&#45;tools -->
<g id="node18" class="node">
<title>ros&#45;build&#45;tools</title>
<ellipse fill="none" stroke="#000000" cx="583.1078" cy="-256" rx="65.7887" ry="18"/>
<text text-anchor="middle" x="583.1078" y="-252.3" font-family="Times,serif" font-size="14.00" fill="#000000">ros&#45;build&#45;tools</text>
</g>
<!-- hpp&#45;pinocchio&#45;git&#45;&gt;ros&#45;build&#45;tools -->
<g id="edge45" class="edge">
<title>hpp&#45;pinocchio&#45;git&#45;&gt;ros&#45;build&#45;tools</title>
<path fill="none" stroke="#000000" d="M1000.6799,-491.9839C982.2626,-463.7355 943.1606,-408.7676 897.9331,-375 821.3331,-317.8092 714.061,-285.1155 646.6041,-268.9654"/>
<polygon fill="#000000" stroke="#000000" points="647.0745,-265.4809 636.5398,-266.6079 645.478,-272.2964 647.0745,-265.4809"/>
</g>
<!-- ros&#45;indigo&#45;catkin -->
<g id="node22" class="node">
<title>ros&#45;indigo&#45;catkin</title>
<ellipse fill="none" stroke="#000000" cx="583.1078" cy="-202" rx="74.9875" ry="18"/>
<text text-anchor="middle" x="583.1078" y="-198.3" font-family="Times,serif" font-size="14.00" fill="#000000">ros&#45;indigo&#45;catkin</text>
</g>
<!-- hpp&#45;pinocchio&#45;git&#45;&gt;ros&#45;indigo&#45;catkin -->
<g id="edge46" class="edge">
<title>hpp&#45;pinocchio&#45;git&#45;&gt;ros&#45;indigo&#45;catkin</title>
<path fill="none" stroke="#000000" d="M1007.4222,-491.9842C996.1962,-450.7731 963.0728,-348.9596 897.9331,-294 832.2883,-238.6142 734.7086,-216.5566 665.6134,-207.7808"/>
<polygon fill="#000000" stroke="#000000" points="665.9794,-204.2997 655.6329,-206.58 665.1432,-211.2496 665.9794,-204.2997"/>
</g>
<!-- assimp -->
<g id="node24" class="node">
<title>assimp</title>
<ellipse fill="none" stroke="#000000" cx="210.8345" cy="-322" rx="36.2938" ry="18"/>
<text text-anchor="middle" x="210.8345" y="-318.3" font-family="Times,serif" font-size="14.00" fill="#000000">assimp</text>
</g>
<!-- hpp&#45;pinocchio&#45;git&#45;&gt;assimp -->
<g id="edge49" class="edge">
<title>hpp&#45;pinocchio&#45;git&#45;&gt;assimp</title>
<path fill="none" stroke="#000000" d="M1009.3516,-491.6996C998.9695,-420.6258 957.8428,-164.3108 897.9331,-113 825.0389,-50.5683 556.2372,-53.2643 466.7682,-88 356.6799,-130.7409 265.0384,-245.3638 228.2072,-296.6209"/>
<polygon fill="#000000" stroke="#000000" points="225.2987,-294.6717 222.3723,-304.8543 231.01,-298.7191 225.2987,-294.6717"/>
</g>
<!-- romeo_description -->
<g id="node26" class="node">
<title>romeo_description</title>
<ellipse fill="none" stroke="#000000" cx="816.6903" cy="-18" rx="80.6858" ry="18"/>
<text text-anchor="middle" x="816.6903" y="-14.3" font-family="Times,serif" font-size="14.00" fill="#000000">romeo_description</text>
</g>
<!-- hpp&#45;pinocchio&#45;git&#45;&gt;romeo_description -->
<g id="edge40" class="edge">
<title>hpp&#45;pinocchio&#45;git&#45;&gt;romeo_description</title>
<path fill="none" stroke="#000000" d="M1009.6789,-491.9678C999.8267,-415.5085 958.2366,-118.8604 897.9331,-50 893.0581,-44.4332 887.0884,-39.8259 880.6188,-36.0146"/>
<polygon fill="#000000" stroke="#000000" points="882.0296,-32.8033 871.5426,-31.2953 878.8003,-39.0139 882.0296,-32.8033"/>
</g>
<!-- git -->
<g id="node31" class="node">
<title>git</title>
<ellipse fill="none" stroke="#000000" cx="210.8345" cy="-1076" rx="27" ry="18"/>
<text text-anchor="middle" x="210.8345" y="-1072.3" font-family="Times,serif" font-size="14.00" fill="#000000">git</text>
</g>
<!-- hpp&#45;pinocchio&#45;git&#45;&gt;git -->
<g id="edge43" class="edge">
<title>hpp&#45;pinocchio&#45;git&#45;&gt;git</title>
<path fill="none" stroke="#000000" d="M1008.3901,-528.1215C998.3136,-576.0312 965.7052,-708.3011 897.9331,-795 728.7953,-1011.373 365.145,-1062.2307 248.0084,-1073.1999"/>
<polygon fill="#000000" stroke="#000000" points="247.4209,-1069.7384 237.7721,-1074.1145 248.0439,-1076.7106 247.4209,-1069.7384"/>
</g>
<!-- ros&#45;indigo&#45;resource&#45;retriever -->
<g id="node32" class="node">
<title>ros&#45;indigo&#45;resource&#45;retriever</title>
<ellipse fill="none" stroke="#000000" cx="583.1078" cy="-148" rx="116.1796" ry="18"/>
<text text-anchor="middle" x="583.1078" y="-144.3" font-family="Times,serif" font-size="14.00" fill="#000000">ros&#45;indigo&#45;resource&#45;retriever</text>
</g>
<!-- hpp&#45;pinocchio&#45;git&#45;&gt;ros&#45;indigo&#45;resource&#45;retriever -->
<g id="edge52" class="edge">
<title>hpp&#45;pinocchio&#45;git&#45;&gt;ros&#45;indigo&#45;resource&#45;retriever</title>
<path fill="none" stroke="#000000" d="M1010.577,-491.9424C1005.7207,-440.5126 984.4915,-292.2033 897.9331,-218 846.2838,-173.723 772.7453,-155.7067 709.7295,-148.9977"/>
<polygon fill="#000000" stroke="#000000" points="710.0049,-145.508 699.7111,-148.0157 709.322,-152.4746 710.0049,-145.508"/>
</g>
<!-- cmake -->
<g id="node33" class="node">
<title>cmake</title>
<ellipse fill="none" stroke="#000000" cx="51.3454" cy="-615" rx="34.394" ry="18"/>
<text text-anchor="middle" x="51.3454" y="-611.3" font-family="Times,serif" font-size="14.00" fill="#000000">cmake</text>
</g>
<!-- hpp&#45;pinocchio&#45;git&#45;&gt;cmake -->
<g id="edge42" class="edge">
<title>hpp&#45;pinocchio&#45;git&#45;&gt;cmake</title>
<path fill="none" stroke="#000000" d="M953.7281,-521.9909C891.1651,-534.4706 788.6632,-553.7342 699.4475,-565 473.7558,-593.4996 201.6548,-608.1182 96.1633,-613.0457"/>
<polygon fill="#000000" stroke="#000000" points="95.7207,-609.5623 85.8926,-613.5193 96.0432,-616.5549 95.7207,-609.5623"/>
</g>
<!-- eigenpy -->
<g id="node6" class="node">
<title>eigenpy</title>
<ellipse fill="none" stroke="#000000" cx="374.8731" cy="-908" rx="40.0939" ry="18"/>
<text text-anchor="middle" x="374.8731" y="-904.3" font-family="Times,serif" font-size="14.00" fill="#000000">eigenpy</text>
</g>
<!-- pinocchio&#45;&gt;eigenpy -->
<g id="edge27" class="edge">
<title>pinocchio&#45;&gt;eigenpy</title>
<path fill="none" stroke="#000000" d="M563.8343,-677.5558C539.7736,-698.6926 497.9878,-736.9754 466.7682,-774 437.1974,-809.0692 408.1143,-853.655 390.8313,-881.5164"/>
<polygon fill="#000000" stroke="#000000" points="387.6955,-879.9342 385.4389,-890.2859 393.6584,-883.6008 387.6955,-879.9342"/>
</g>
<!-- lua51 -->
<g id="node7" class="node">
<title>lua51</title>
<ellipse fill="none" stroke="#000000" cx="374.8731" cy="-724" rx="31.6951" ry="18"/>
<text text-anchor="middle" x="374.8731" y="-720.3" font-family="Times,serif" font-size="14.00" fill="#000000">lua51</text>
</g>
<!-- pinocchio&#45;&gt;lua51 -->
<g id="edge23" class="edge">
<title>pinocchio&#45;&gt;lua51</title>
<path fill="none" stroke="#000000" d="M545.3981,-672.4088C507.7423,-683.8013 450.1968,-701.2113 412.5519,-712.6005"/>
<polygon fill="#000000" stroke="#000000" points="411.523,-709.2551 402.965,-715.501 413.5501,-715.9551 411.523,-709.2551"/>
</g>
<!-- urdfdom -->
<g id="node8" class="node">
<title>urdfdom</title>
<ellipse fill="none" stroke="#000000" cx="374.8731" cy="-670" rx="43.5923" ry="18"/>
<text text-anchor="middle" x="374.8731" y="-666.3" font-family="Times,serif" font-size="14.00" fill="#000000">urdfdom</text>
</g>
<!-- pinocchio&#45;&gt;urdfdom -->
<g id="edge28" class="edge">
<title>pinocchio&#45;&gt;urdfdom</title>
<path fill="none" stroke="#000000" d="M535.0731,-663.0761C503.3174,-664.4486 461.6406,-666.2499 428.7565,-667.6711"/>
<polygon fill="#000000" stroke="#000000" points="428.252,-664.1896 418.4125,-668.1182 428.5544,-671.183 428.252,-664.1896"/>
</g>
<!-- pinocchio&#45;&gt;hpp&#45;fcl -->
<g id="edge26" class="edge">
<title>pinocchio&#45;&gt;hpp&#45;fcl</title>
<path fill="none" stroke="#000000" d="M563.7486,-644.1152C538.8365,-621.6168 495.3688,-579.6644 466.7682,-537 445.2832,-504.9503 456.763,-486.5142 430.7682,-458 425.5891,-452.319 419.1605,-447.3814 412.527,-443.1976"/>
<polygon fill="#000000" stroke="#000000" points="413.8632,-439.9278 403.4526,-437.9608 410.3643,-445.9906 413.8632,-439.9278"/>
</g>
<!-- eigen32 -->
<g id="node19" class="node">
<title>eigen32</title>
<ellipse fill="none" stroke="#000000" cx="210.8345" cy="-426" rx="40.0939" ry="18"/>
<text text-anchor="middle" x="210.8345" y="-422.3" font-family="Times,serif" font-size="14.00" fill="#000000">eigen32</text>
</g>
<!-- pinocchio&#45;&gt;eigen32 -->
<g id="edge25" class="edge">
<title>pinocchio&#45;&gt;eigen32</title>
<path fill="none" stroke="#000000" d="M558.3936,-645.399C493.1414,-604.2081 316.2461,-492.5418 243.1303,-446.3869"/>
<polygon fill="#000000" stroke="#000000" points="244.6596,-443.2133 234.3352,-440.835 240.923,-449.1326 244.6596,-443.2133"/>
</g>
<!-- metapod&#45;git -->
<g id="node21" class="node">
<title>metapod&#45;git</title>
<ellipse fill="none" stroke="#000000" cx="374.8731" cy="-778" rx="55.7903" ry="18"/>
<text text-anchor="middle" x="374.8731" y="-774.3" font-family="Times,serif" font-size="14.00" fill="#000000">metapod&#45;git</text>
</g>
<!-- pinocchio&#45;&gt;metapod&#45;git -->
<g id="edge22" class="edge">
<title>pinocchio&#45;&gt;metapod&#45;git</title>
<path fill="none" stroke="#000000" d="M558.4037,-676.4606C528.5685,-694.9293 476.6651,-726.4126 430.7682,-751 425.959,-753.5763 420.866,-756.1896 415.7896,-758.7244"/>
<polygon fill="#000000" stroke="#000000" points="414.1637,-755.6236 406.7347,-763.1774 417.2528,-761.9051 414.1637,-755.6236"/>
</g>
<!-- pinocchio&#45;&gt;cmake -->
<g id="edge24" class="edge">
<title>pinocchio&#45;&gt;cmake</title>
<path fill="none" stroke="#000000" d="M537.5012,-655.0806C507.2634,-651.2868 466.6894,-646.4459 430.7682,-643 309.9118,-631.4063 166.9966,-622.0261 96.0085,-617.6579"/>
<polygon fill="#000000" stroke="#000000" points="95.8523,-614.1419 85.6574,-617.0252 95.4252,-621.1289 95.8523,-614.1419"/>
</g>
<!-- hpp&#45;util&#45;git&#45;&gt;doxygen -->
<g id="edge32" class="edge">
<title>hpp&#45;util&#45;git&#45;&gt;doxygen</title>
<path fill="none" stroke="#000000" d="M367.5303,-980.2376C354.6803,-1009.979 325.3853,-1069.0104 282.9781,-1103 275.7746,-1108.7737 267.2102,-1113.3968 258.5426,-1117.0701"/>
<polygon fill="#000000" stroke="#000000" points="257.2255,-1113.8267 249.1565,-1120.6927 259.746,-1120.3572 257.2255,-1113.8267"/>
</g>
<!-- hpp&#45;util&#45;git&#45;&gt;boost -->
<g id="edge33" class="edge">
<title>hpp&#45;util&#45;git&#45;&gt;boost</title>
<path fill="none" stroke="#000000" d="M347.3623,-977.5442C322.866,-991.2395 289.8628,-1009.2792 282.9781,-1011 220.7644,-1026.5504 202.0994,-1020.5768 138.6909,-1011 121.3109,-1008.375 102.6225,-1002.9686 87.0101,-997.6783"/>
<polygon fill="#000000" stroke="#000000" points="87.8342,-994.2583 77.2394,-994.249 85.516,-1000.8633 87.8342,-994.2583"/>
</g>
<!-- tinyxml -->
<g id="node20" class="node">
<title>tinyxml</title>
<ellipse fill="none" stroke="#000000" cx="210.8345" cy="-984" rx="40.0939" ry="18"/>
<text text-anchor="middle" x="210.8345" y="-980.3" font-family="Times,serif" font-size="14.00" fill="#000000">tinyxml</text>
</g>
<!-- hpp&#45;util&#45;git&#45;&gt;tinyxml -->
<g id="edge34" class="edge">
<title>hpp&#45;util&#45;git&#45;&gt;tinyxml</title>
<path fill="none" stroke="#000000" d="M325.211,-968.6604C304.4789,-971.4409 280.462,-974.6619 259.8041,-977.4325"/>
<polygon fill="#000000" stroke="#000000" points="259.0993,-973.9955 249.6533,-978.7938 260.0299,-980.9334 259.0993,-973.9955"/>
</g>
<!-- hpp&#45;util&#45;git&#45;&gt;git -->
<g id="edge31" class="edge">
<title>hpp&#45;util&#45;git&#45;&gt;git</title>
<path fill="none" stroke="#000000" d="M343.6966,-976.746C335.1777,-981.5738 326.2884,-987.4134 318.9781,-994 298.6345,-1012.3294 304.2336,-1026.7365 282.9781,-1044 271.8754,-1053.0175 257.8314,-1060.0018 245.091,-1065.1116"/>
<polygon fill="#000000" stroke="#000000" points="243.799,-1061.8581 235.6728,-1068.6563 246.2648,-1068.4094 243.799,-1061.8581"/>
</g>
<!-- hpp&#45;util&#45;git&#45;&gt;cmake -->
<g id="edge30" class="edge">
<title>hpp&#45;util&#45;git&#45;&gt;cmake</title>
<path fill="none" stroke="#000000" d="M323.1717,-957.5408C270,-950.259 188.1725,-931.1347 138.6909,-881 104.6288,-846.4883 70.605,-704.1959 57.2501,-643.0898"/>
<polygon fill="#000000" stroke="#000000" points="60.6038,-642.0383 55.0726,-633.002 53.7614,-643.5154 60.6038,-642.0383"/>
</g>
<!-- pinocchio&#45;git -->
<g id="node5" class="node">
<title>pinocchio&#45;git</title>
<ellipse fill="none" stroke="#000000" cx="583.1078" cy="-801" rx="60.3893" ry="18"/>
<text text-anchor="middle" x="583.1078" y="-797.3" font-family="Times,serif" font-size="14.00" fill="#000000">pinocchio&#45;git</text>
</g>
<!-- pinocchio&#45;git&#45;&gt;eigenpy -->
<g id="edge6" class="edge">
<title>pinocchio&#45;git&#45;&gt;eigenpy</title>
<path fill="none" stroke="#000000" d="M552.3821,-816.7882C514.5723,-836.2165 450.49,-869.1448 410.5439,-889.6708"/>
<polygon fill="#000000" stroke="#000000" points="408.7228,-886.6715 401.4279,-894.355 411.9221,-892.8976 408.7228,-886.6715"/>
</g>
<!-- pinocchio&#45;git&#45;&gt;lua51 -->
<g id="edge2" class="edge">
<title>pinocchio&#45;git&#45;&gt;lua51</title>
<path fill="none" stroke="#000000" d="M544.9144,-786.877C506.7597,-772.7683 448.5399,-751.2401 411.0951,-737.394"/>
<polygon fill="#000000" stroke="#000000" points="412.1768,-734.0624 401.5836,-733.8769 409.749,-740.6279 412.1768,-734.0624"/>
</g>
<!-- pinocchio&#45;git&#45;&gt;urdfdom -->
<g id="edge8" class="edge">
<title>pinocchio&#45;git&#45;&gt;urdfdom</title>
<path fill="none" stroke="#000000" d="M560.8251,-784.2276C531.738,-762.7029 478.8598,-724.8237 430.7682,-697 425.3199,-693.8479 419.4483,-690.7287 413.63,-687.7914"/>
<polygon fill="#000000" stroke="#000000" points="415.1172,-684.6225 404.5994,-683.347 412.0261,-690.9031 415.1172,-684.6225"/>
</g>
<!-- pinocchio&#45;git&#45;&gt;hpp&#45;fcl -->
<g id="edge7" class="edge">
<title>pinocchio&#45;git&#45;&gt;hpp&#45;fcl</title>
<path fill="none" stroke="#000000" d="M560.3474,-784.2522C534.3841,-764.0686 492.241,-727.8597 466.7682,-688 417.5567,-610.9944 390.8346,-504.3499 380.282,-454.2011"/>
<polygon fill="#000000" stroke="#000000" points="383.6507,-453.2044 378.2178,-444.1086 376.7927,-454.6071 383.6507,-453.2044"/>
</g>
<!-- pinocchio&#45;git&#45;&gt;eigen32 -->
<g id="edge5" class="edge">
<title>pinocchio&#45;git&#45;&gt;eigen32</title>
<path fill="none" stroke="#000000" d="M545.0976,-815.1469C489.0566,-833.3066 383.9028,-856.7225 318.9781,-805 262.9854,-760.3933 302.0595,-716.9988 282.9781,-648 263.3693,-577.0942 235.2936,-495.1186 220.619,-453.4266"/>
<polygon fill="#000000" stroke="#000000" points="223.907,-452.2264 217.2747,-443.9642 217.3071,-454.559 223.907,-452.2264"/>
</g>
<!-- pinocchio&#45;git&#45;&gt;metapod&#45;git -->
<g id="edge1" class="edge">
<title>pinocchio&#45;git&#45;&gt;metapod&#45;git</title>
<path fill="none" stroke="#000000" d="M526.2068,-794.7151C498.8585,-791.6945 465.9962,-788.0648 437.8926,-784.9606"/>
<polygon fill="#000000" stroke="#000000" points="438.0968,-781.462 427.7729,-783.8429 437.3282,-788.4197 438.0968,-781.462"/>
</g>
<!-- pinocchio&#45;git&#45;&gt;git -->
<g id="edge4" class="edge">
<title>pinocchio&#45;git&#45;&gt;git</title>
<path fill="none" stroke="#000000" d="M573.0665,-818.8812C551.5627,-855.6747 497.5424,-940.4672 430.7682,-989 387.7072,-1020.2975 368.4767,-1012.4126 318.9781,-1032 293.481,-1042.0896 264.7322,-1053.8027 243.2884,-1062.6059"/>
<polygon fill="#000000" stroke="#000000" points="241.9058,-1059.39 233.9878,-1066.4296 244.5676,-1065.8642 241.9058,-1059.39"/>
</g>
<!-- pinocchio&#45;git&#45;&gt;cmake -->
<g id="edge3" class="edge">
<title>pinocchio&#45;git&#45;&gt;cmake</title>
<path fill="none" stroke="#000000" d="M530.7345,-810.1846C510.6313,-814.0153 487.5366,-818.7884 466.7682,-824 402.8827,-840.0314 370.4386,-876.1116 318.9781,-835 262.3695,-789.7756 333.649,-727.7903 282.9781,-676 236.7562,-628.7571 202.5351,-657.096 138.6909,-640 123.2166,-635.8563 106.2728,-631.0657 91.4612,-626.7935"/>
<polygon fill="#000000" stroke="#000000" points="92.1709,-623.3552 81.5919,-623.9331 90.2222,-630.0785 92.1709,-623.3552"/>
</g>
<!-- eigenpy&#45;&gt;doxygen -->
<g id="edge67" class="edge">
<title>eigenpy&#45;&gt;doxygen</title>
<path fill="none" stroke="#000000" d="M341.5301,-918.1255C333.0814,-922.1476 324.7705,-927.6275 318.9781,-935 271.8015,-995.0456 332.8624,-1045.1842 282.9781,-1103 277.0749,-1109.8417 269.2619,-1114.9528 260.9585,-1118.7702"/>
<polygon fill="#000000" stroke="#000000" points="259.4482,-1115.6042 251.451,-1122.5537 262.0365,-1122.1081 259.4482,-1115.6042"/>
</g>
<!-- boost&#45;libs -->
<g id="node11" class="node">
<title>boost&#45;libs</title>
<ellipse fill="none" stroke="#000000" cx="210.8345" cy="-800" rx="47.3916" ry="18"/>
<text text-anchor="middle" x="210.8345" y="-796.3" font-family="Times,serif" font-size="14.00" fill="#000000">boost&#45;libs</text>
</g>
<!-- eigenpy&#45;&gt;boost&#45;libs -->
<g id="edge72" class="edge">
<title>eigenpy&#45;&gt;boost&#45;libs</title>
<path fill="none" stroke="#000000" d="M346.9101,-894.9718C337.4683,-889.8258 327.2378,-883.3703 318.9781,-876 298.8149,-858.0079 304.5296,-843.3035 282.9781,-827 276.0789,-821.7809 268.06,-817.4754 259.9278,-813.9551"/>
<polygon fill="#000000" stroke="#000000" points="260.9756,-810.6055 250.3895,-810.1755 258.3969,-817.1133 260.9756,-810.6055"/>
</g>
<!-- eigenpy&#45;&gt;boost -->
<g id="edge70" class="edge">
<title>eigenpy&#45;&gt;boost</title>
<path fill="none" stroke="#000000" d="M337.3952,-914.6343C290.6006,-923.1789 208.2383,-939.0798 138.6909,-957 121.9219,-961.3208 103.5817,-966.8627 88.0552,-971.8001"/>
<polygon fill="#000000" stroke="#000000" points="86.7502,-968.5432 78.3033,-974.9385 88.8947,-975.2067 86.7502,-968.5432"/>
</g>
<!-- python2&#45;numpy -->
<g id="node15" class="node">
<title>python2&#45;numpy</title>
<ellipse fill="none" stroke="#000000" cx="210.8345" cy="-854" rx="72.2875" ry="18"/>
<text text-anchor="middle" x="210.8345" y="-850.3" font-family="Times,serif" font-size="14.00" fill="#000000">python2&#45;numpy</text>
</g>
<!-- eigenpy&#45;&gt;python2&#45;numpy -->
<g id="edge71" class="edge">
<title>eigenpy&#45;&gt;python2&#45;numpy</title>
<path fill="none" stroke="#000000" d="M342.0717,-897.2021C319.77,-889.8606 289.7644,-879.983 264.0732,-871.5257"/>
<polygon fill="#000000" stroke="#000000" points="265.0561,-868.1646 254.4632,-868.3622 262.8673,-874.8136 265.0561,-868.1646"/>
</g>
<!-- eigen -->
<g id="node30" class="node">
<title>eigen</title>
<ellipse fill="none" stroke="#000000" cx="210.8345" cy="-746" rx="30.5947" ry="18"/>
<text text-anchor="middle" x="210.8345" y="-742.3" font-family="Times,serif" font-size="14.00" fill="#000000">eigen</text>
</g>
<!-- eigenpy&#45;&gt;eigen -->
<g id="edge69" class="edge">
<title>eigenpy&#45;&gt;eigen</title>
<path fill="none" stroke="#000000" d="M344.7052,-895.7985C335.4161,-890.8184 325.8403,-884.2547 318.9781,-876 287.978,-838.7093 316.891,-807.6629 282.9781,-773 274.1371,-763.9635 261.9883,-757.9191 250.1801,-753.8893"/>
<polygon fill="#000000" stroke="#000000" points="251.0056,-750.4828 240.4214,-750.9565 248.9909,-757.1866 251.0056,-750.4828"/>
</g>
<!-- eigenpy&#45;&gt;cmake -->
<g id="edge68" class="edge">
<title>eigenpy&#45;&gt;cmake</title>
<path fill="none" stroke="#000000" d="M344.1571,-896.229C334.8313,-891.2776 325.3725,-884.6221 318.9781,-876 276.3336,-818.4989 331.9473,-771.2202 282.9781,-719 237.206,-670.1891 198.9547,-705.0837 138.6909,-676 116.8459,-665.4575 94.4608,-649.7086 77.8215,-636.8541"/>
<polygon fill="#000000" stroke="#000000" points="79.6986,-633.8772 69.6773,-630.4387 75.367,-639.3761 79.6986,-633.8772"/>
</g>
<!-- java&#45;runtime -->
<g id="node9" class="node">
<title>java&#45;runtime</title>
<ellipse fill="none" stroke="#000000" cx="816.6903" cy="-1336" rx="57.6901" ry="18"/>
<text text-anchor="middle" x="816.6903" y="-1332.3" font-family="Times,serif" font-size="14.00" fill="#000000">java&#45;runtime</text>
</g>
<!-- hpp&#45;statistics&#45;git -->
<g id="node12" class="node">
<title>hpp&#45;statistics&#45;git</title>
<ellipse fill="none" stroke="#000000" cx="583.1078" cy="-1107" rx="71.4873" ry="18"/>
<text text-anchor="middle" x="583.1078" y="-1103.3" font-family="Times,serif" font-size="14.00" fill="#000000">hpp&#45;statistics&#45;git</text>
</g>
<!-- hpp&#45;statistics&#45;git&#45;&gt;hpp&#45;util&#45;git -->
<g id="edge66" class="edge">
<title>hpp&#45;statistics&#45;git&#45;&gt;hpp&#45;util&#45;git</title>
<path fill="none" stroke="#000000" d="M558.4029,-1089.7972C520.5853,-1063.4637 448.3541,-1013.167 406.6743,-984.1441"/>
<polygon fill="#000000" stroke="#000000" points="408.4739,-981.1323 398.2673,-978.2901 404.4737,-986.8768 408.4739,-981.1323"/>
</g>
<!-- hpp&#45;statistics&#45;git&#45;&gt;doxygen -->
<g id="edge65" class="edge">
<title>hpp&#45;statistics&#45;git&#45;&gt;doxygen</title>
<path fill="none" stroke="#000000" d="M513.5228,-1111.2991C441.5088,-1115.7483 330.5485,-1122.6038 264.8688,-1126.6616"/>
<polygon fill="#000000" stroke="#000000" points="264.4945,-1123.178 254.7293,-1127.2881 264.9262,-1130.1647 264.4945,-1123.178"/>
</g>
<!-- hpp&#45;statistics&#45;git&#45;&gt;git -->
<g id="edge64" class="edge">
<title>hpp&#45;statistics&#45;git&#45;&gt;git</title>
<path fill="none" stroke="#000000" d="M514.8272,-1101.3141C436.25,-1094.7708 310.0705,-1084.2636 247.9014,-1079.0866"/>
<polygon fill="#000000" stroke="#000000" points="248.032,-1075.5855 237.776,-1078.2435 247.451,-1082.5613 248.032,-1075.5855"/>
</g>
<!-- hpp&#45;statistics&#45;git&#45;&gt;cmake -->
<g id="edge63" class="edge">
<title>hpp&#45;statistics&#45;git&#45;&gt;cmake</title>
<path fill="none" stroke="#000000" d="M553.3765,-1123.546C475.0613,-1164.6708 260.7486,-1260.9624 138.6909,-1157 133.6932,-1152.7432 72.5536,-754.0409 55.6507,-643.2664"/>
<polygon fill="#000000" stroke="#000000" points="59.0806,-642.5412 54.113,-633.1832 52.1607,-643.5966 59.0806,-642.5412"/>
</g>
<!-- hpp&#45;model&#45;&gt;hpp&#45;util&#45;git -->
<g id="edge20" class="edge">
<title>hpp&#45;model&#45;&gt;hpp&#45;util&#45;git</title>
<path fill="none" stroke="#000000" d="M560.6806,-526.4269C533.366,-547.8255 488.2238,-587.9826 466.7682,-634 409.834,-756.1106 509.0428,-825.3388 430.7682,-935 428.4056,-938.3099 425.5251,-941.2306 422.3307,-943.8051"/>
<polygon fill="#000000" stroke="#000000" points="420.1953,-941.0235 413.8598,-949.5154 424.1082,-946.8278 420.1953,-941.0235"/>
</g>
<!-- hpp&#45;model&#45;&gt;hpp&#45;fcl -->
<g id="edge21" class="edge">
<title>hpp&#45;model&#45;&gt;hpp&#45;fcl</title>
<path fill="none" stroke="#000000" d="M535.0926,-503.0863C513.586,-498.9311 488.2804,-492.5427 466.7682,-483 448.9618,-475.1012 447.2364,-468.4045 430.7682,-458 423.7891,-453.5907 416.1867,-449.0631 408.9009,-444.8523"/>
<polygon fill="#000000" stroke="#000000" points="410.332,-441.6391 399.9123,-439.7207 406.8614,-447.7182 410.332,-441.6391"/>
</g>
<!-- hpp&#45;model&#45;&gt;eigen32 -->
<g id="edge19" class="edge">
<title>hpp&#45;model&#45;&gt;eigen32</title>
<path fill="none" stroke="#000000" d="M531.2841,-508.1742C509.288,-505.0007 484.6547,-497.9733 466.7682,-483 435.6232,-456.9277 464.6773,-421.3595 430.7682,-399 374.8493,-362.1273 293.257,-387.9015 246.7815,-408.1624"/>
<polygon fill="#000000" stroke="#000000" points="245.1006,-405.0807 237.4191,-412.3776 247.9744,-411.4637 245.1006,-405.0807"/>
</g>
<!-- hpp&#45;model&#45;&gt;assimp -->
<g id="edge17" class="edge">
<title>hpp&#45;model&#45;&gt;assimp</title>
<path fill="none" stroke="#000000" d="M531.0193,-508.8572C508.8412,-505.8278 484.1381,-498.7245 466.7682,-483 429.8831,-449.6091 467.3679,-410.7034 430.7682,-377 383.3301,-333.3161 306.5238,-323.0199 257.3738,-321.2679"/>
<polygon fill="#000000" stroke="#000000" points="257.4111,-317.7679 247.3261,-321.0148 257.2347,-324.7656 257.4111,-317.7679"/>
</g>
<!-- hpp&#45;model&#45;&gt;cmake -->
<g id="edge18" class="edge">
<title>hpp&#45;model&#45;&gt;cmake</title>
<path fill="none" stroke="#000000" d="M536.4551,-502.035C452.6242,-489.9354 272.7605,-474.1805 138.6909,-534 118.027,-543.2198 119.2083,-554.5347 102.6909,-570 94.5603,-577.6127 85.4805,-585.6999 77.2438,-592.8875"/>
<polygon fill="#000000" stroke="#000000" points="74.9274,-590.2634 69.6636,-599.4582 79.5124,-595.5528 74.9274,-590.2634"/>
</g>
<!-- hpp&#45;model&#45;urdf&#45;&gt;hpp&#45;util&#45;git -->
<g id="edge57" class="edge">
<title>hpp&#45;model&#45;urdf&#45;&gt;hpp&#45;util&#45;git</title>
<path fill="none" stroke="#000000" d="M813.8832,-420.1678C802.2719,-493.2437 755.9454,-764.8124 699.4475,-828 625.2163,-911.0207 569.3466,-877.6367 466.7682,-921 450.1113,-928.0414 431.8998,-936.092 416.1143,-943.1844"/>
<polygon fill="#000000" stroke="#000000" points="414.3121,-940.1576 406.6348,-947.459 417.1896,-946.5389 414.3121,-940.1576"/>
</g>
<!-- hpp&#45;model&#45;urdf&#45;&gt;hpp&#45;model -->
<g id="edge58" class="edge">
<title>hpp&#45;model&#45;urdf&#45;&gt;hpp&#45;model</title>
<path fill="none" stroke="#000000" d="M796.5253,-419.5075C774.2354,-437.9647 736.5556,-466.5926 699.4475,-483 681.1187,-491.1041 660.0465,-496.9375 640.9151,-501.0596"/>
<polygon fill="#000000" stroke="#000000" points="640.2095,-497.6314 631.1124,-503.0622 641.6106,-504.4897 640.2095,-497.6314"/>
</g>
<!-- hpp&#45;model&#45;urdf&#45;&gt;ros&#45;build&#45;tools -->
<g id="edge54" class="edge">
<title>hpp&#45;model&#45;urdf&#45;&gt;ros&#45;build&#45;tools</title>
<path fill="none" stroke="#000000" d="M781.0026,-386.2623C765.648,-378.225 748.3112,-367.3126 735.4475,-354 712.2294,-329.9716 725.6389,-308.7474 699.4475,-288 686.2574,-277.5515 669.8902,-270.5094 653.6385,-265.7647"/>
<polygon fill="#000000" stroke="#000000" points="654.1266,-262.2734 643.5638,-263.0974 652.335,-269.0403 654.1266,-262.2734"/>
</g>
<!-- hpp&#45;model&#45;urdf&#45;&gt;ros&#45;indigo&#45;catkin -->
<g id="edge55" class="edge">
<title>hpp&#45;model&#45;urdf&#45;&gt;ros&#45;indigo&#45;catkin</title>
<path fill="none" stroke="#000000" d="M804.2405,-383.8977C788.244,-360.6078 759.6511,-318.8753 735.4475,-283 719.3154,-259.0886 723.1653,-245.4155 699.4475,-229 688.1976,-221.2137 675.0179,-215.6475 661.6507,-211.6742"/>
<polygon fill="#000000" stroke="#000000" points="662.475,-208.2716 651.909,-209.0536 660.6565,-215.0313 662.475,-208.2716"/>
</g>
<!-- ros&#45;indigo&#45;srdfdom -->
<g id="node23" class="node">
<title>ros&#45;indigo&#45;srdfdom</title>
<ellipse fill="none" stroke="#000000" cx="583.1078" cy="-456" rx="83.3857" ry="18"/>
<text text-anchor="middle" x="583.1078" y="-452.3" font-family="Times,serif" font-size="14.00" fill="#000000">ros&#45;indigo&#45;srdfdom</text>
</g>
<!-- hpp&#45;model&#45;urdf&#45;&gt;ros&#45;indigo&#45;srdfdom -->
<g id="edge62" class="edge">
<title>hpp&#45;model&#45;urdf&#45;&gt;ros&#45;indigo&#45;srdfdom</title>
<path fill="none" stroke="#000000" d="M764.2698,-414.1187C730.582,-421.9067 686.503,-432.0969 650.2597,-440.4757"/>
<polygon fill="#000000" stroke="#000000" points="649.2149,-437.1249 640.2602,-442.7874 650.7916,-443.945 649.2149,-437.1249"/>
</g>
<!-- hpp&#45;model&#45;urdf&#45;&gt;assimp -->
<g id="edge56" class="edge">
<title>hpp&#45;model&#45;urdf&#45;&gt;assimp</title>
<path fill="none" stroke="#000000" d="M788.2561,-385.4353C772.3779,-375.8697 752.4316,-363.3224 735.4475,-351 718.5897,-338.7692 719.0309,-328.0902 699.4475,-321 543.6637,-264.5985 341.1802,-294.84 253.9307,-312.3485"/>
<polygon fill="#000000" stroke="#000000" points="252.9642,-308.9739 243.8726,-314.4139 254.3723,-315.8308 252.9642,-308.9739"/>
</g>
<!-- ros&#45;indigo&#45;urdf -->
<g id="node28" class="node">
<title>ros&#45;indigo&#45;urdf</title>
<ellipse fill="none" stroke="#000000" cx="583.1078" cy="-402" rx="67.6881" ry="18"/>
<text text-anchor="middle" x="583.1078" y="-398.3" font-family="Times,serif" font-size="14.00" fill="#000000">ros&#45;indigo&#45;urdf</text>
</g>
<!-- hpp&#45;model&#45;urdf&#45;&gt;ros&#45;indigo&#45;urdf -->
<g id="edge60" class="edge">
<title>hpp&#45;model&#45;urdf&#45;&gt;ros&#45;indigo&#45;urdf</title>
<path fill="none" stroke="#000000" d="M746.2911,-402C719.4908,-402 688.7988,-402 661.3174,-402"/>
<polygon fill="#000000" stroke="#000000" points="660.957,-398.5001 650.957,-402 660.9569,-405.5001 660.957,-398.5001"/>
</g>
<!-- ros&#45;indigo&#45;urdfdom -->
<g id="node29" class="node">
<title>ros&#45;indigo&#45;urdfdom</title>
<ellipse fill="none" stroke="#000000" cx="583.1078" cy="-348" rx="85.2851" ry="18"/>
<text text-anchor="middle" x="583.1078" y="-344.3" font-family="Times,serif" font-size="14.00" fill="#000000">ros&#45;indigo&#45;urdfdom</text>
</g>
<!-- hpp&#45;model&#45;urdf&#45;&gt;ros&#45;indigo&#45;urdfdom -->
<g id="edge61" class="edge">
<title>hpp&#45;model&#45;urdf&#45;&gt;ros&#45;indigo&#45;urdfdom</title>
<path fill="none" stroke="#000000" d="M764.2698,-389.8813C730.705,-382.1218 686.8246,-371.9774 650.6569,-363.6161"/>
<polygon fill="#000000" stroke="#000000" points="651.2066,-360.151 640.6752,-361.3085 649.6299,-366.9711 651.2066,-360.151"/>
</g>
<!-- hpp&#45;model&#45;urdf&#45;&gt;ros&#45;indigo&#45;resource&#45;retriever -->
<g id="edge59" class="edge">
<title>hpp&#45;model&#45;urdf&#45;&gt;ros&#45;indigo&#45;resource&#45;retriever</title>
<path fill="none" stroke="#000000" d="M812.8346,-383.948C802.5992,-340.6271 770.5226,-230.2807 699.4475,-175 693.8943,-170.6808 687.7694,-167.0322 681.322,-163.9524"/>
<polygon fill="#000000" stroke="#000000" points="682.2453,-160.5411 671.674,-159.8351 679.4977,-166.9793 682.2453,-160.5411"/>
</g>
<!-- hpp&#45;model&#45;urdf&#45;&gt;cmake -->
<g id="edge53" class="edge">
<title>hpp&#45;model&#45;urdf&#45;&gt;cmake</title>
<path fill="none" stroke="#000000" d="M807.3425,-420.0421C790.4718,-450.4572 751.7665,-511.1433 699.4475,-537 587.5158,-592.3181 259.3528,-539.9141 138.6909,-572 119.0283,-577.2286 98.5447,-587.0474 82.3597,-595.9837"/>
<polygon fill="#000000" stroke="#000000" points="80.3259,-593.114 73.3656,-601.1019 83.788,-599.1979 80.3259,-593.114"/>
</g>
<!-- hpp&#45;fcl&#45;&gt;eigen32 -->
<g id="edge36" class="edge">
<title>hpp&#45;fcl&#45;&gt;eigen32</title>
<path fill="none" stroke="#000000" d="M336.8271,-426C314.3842,-426 285.7048,-426 261.3795,-426"/>
<polygon fill="#000000" stroke="#000000" points="261.2519,-422.5001 251.2518,-426 261.2518,-429.5001 261.2519,-422.5001"/>
</g>
<!-- hpp&#45;fcl&#45;&gt;assimp -->
<g id="edge37" class="edge">
<title>hpp&#45;fcl&#45;&gt;assimp</title>
<path fill="none" stroke="#000000" d="M352.0643,-411.5392C323.4175,-393.3773 274.1365,-362.1333 242.0212,-341.7723"/>
<polygon fill="#000000" stroke="#000000" points="243.7694,-338.7365 233.4496,-336.3379 240.0212,-344.6485 243.7694,-338.7365"/>
</g>
<!-- hpp&#45;fcl&#45;&gt;cmake -->
<g id="edge35" class="edge">
<title>hpp&#45;fcl&#45;&gt;cmake</title>
<path fill="none" stroke="#000000" d="M342.6905,-435.4488C278.3095,-454.363 139.6926,-495.151 138.6909,-496 110.7899,-519.6477 124.8825,-540.9275 102.6909,-570 96.1103,-578.6211 87.6743,-586.8282 79.5501,-593.8159"/>
<polygon fill="#000000" stroke="#000000" points="77.0958,-591.3033 71.6099,-600.3674 81.5508,-596.7027 77.0958,-591.3033"/>
</g>
<!-- eigen32&#45;&gt;boost -->
<g id="edge16" class="edge">
<title>eigen32&#45;&gt;boost</title>
<path fill="none" stroke="#000000" d="M205.7086,-443.9337C182.5332,-525.0169 87.4554,-857.663 59.2611,-956.3057"/>
<polygon fill="#000000" stroke="#000000" points="55.8352,-955.5562 56.4522,-966.133 62.5657,-957.4799 55.8352,-955.5562"/>
</g>
<!-- gcc&#45;fortran -->
<g id="node27" class="node">
<title>gcc&#45;fortran</title>
<ellipse fill="none" stroke="#000000" cx="51.3454" cy="-435" rx="51.1914" ry="18"/>
<text text-anchor="middle" x="51.3454" y="-431.3" font-family="Times,serif" font-size="14.00" fill="#000000">gcc&#45;fortran</text>
</g>
<!-- eigen32&#45;&gt;gcc&#45;fortran -->
<g id="edge12" class="edge">
<title>eigen32&#45;&gt;gcc&#45;fortran</title>
<path fill="none" stroke="#000000" d="M170.5887,-428.2711C152.9077,-429.2688 131.7609,-430.4621 112.2183,-431.5649"/>
<polygon fill="#000000" stroke="#000000" points="111.9587,-428.0739 102.1718,-432.1319 112.3532,-435.0628 111.9587,-428.0739"/>
</g>
<!-- eigen32&#45;&gt;cmake -->
<g id="edge10" class="edge">
<title>eigen32&#45;&gt;cmake</title>
<path fill="none" stroke="#000000" d="M175.5543,-434.9588C162.4373,-439.8552 148.3997,-447.1981 138.6909,-458 103.7391,-496.887 131.3922,-526.2957 102.6909,-570 96.7862,-578.9912 88.6156,-587.2627 80.5275,-594.1949"/>
<polygon fill="#000000" stroke="#000000" points="78.1187,-591.6419 72.5539,-600.6577 82.5264,-597.08 78.1187,-591.6419"/>
</g>
<!-- qt4 -->
<g id="node34" class="node">
<title>qt4</title>
<ellipse fill="none" stroke="#000000" cx="51.3454" cy="-381" rx="27" ry="18"/>
<text text-anchor="middle" x="51.3454" y="-377.3" font-family="Times,serif" font-size="14.00" fill="#000000">qt4</text>
</g>
<!-- eigen32&#45;&gt;qt4 -->
<g id="edge9" class="edge">
<title>eigen32&#45;&gt;qt4</title>
<path fill="none" stroke="#000000" d="M183.0536,-412.8948C156.8232,-403.7154 117.3071,-392.3868 88.4016,-385.6514"/>
<polygon fill="#000000" stroke="#000000" points="88.799,-382.154 78.2765,-383.3903 87.2733,-388.9858 88.799,-382.154"/>
</g>
<!-- eigen32&#45;&gt;qt4 -->
<g id="edge14" class="edge">
<title>eigen32&#45;&gt;qt4</title>
<path fill="none" stroke="#000000" d="M171.8191,-420.8888C144.4644,-414.4268 108.3694,-404.1112 82.8428,-395.39"/>
<polygon fill="#000000" stroke="#000000" points="83.876,-392.0431 73.2812,-392.014 81.5453,-398.6437 83.876,-392.0431"/>
</g>
<!-- freeglut -->
<g id="node35" class="node">
<title>freeglut</title>
<ellipse fill="none" stroke="#000000" cx="51.3454" cy="-327" rx="38.9931" ry="18"/>
<text text-anchor="middle" x="51.3454" y="-323.3" font-family="Times,serif" font-size="14.00" fill="#000000">freeglut</text>
</g>
<!-- eigen32&#45;&gt;freeglut -->
<g id="edge11" class="edge">
<title>eigen32&#45;&gt;freeglut</title>
<path fill="none" stroke="#000000" d="M189.3042,-410.7077C167.7777,-395.6483 133.5291,-372.3077 102.6909,-354 97.6422,-351.0027 92.2303,-347.9704 86.8823,-345.0744"/>
<polygon fill="#000000" stroke="#000000" points="88.4905,-341.9655 78.018,-340.3597 85.2033,-348.1457 88.4905,-341.9655"/>
</g>
<!-- suitesparse -->
<g id="node36" class="node">
<title>suitesparse</title>
<ellipse fill="none" stroke="#000000" cx="51.3454" cy="-543" rx="50.0912" ry="18"/>
<text text-anchor="middle" x="51.3454" y="-539.3" font-family="Times,serif" font-size="14.00" fill="#000000">suitesparse</text>
</g>
<!-- eigen32&#45;&gt;suitesparse -->
<g id="edge15" class="edge">
<title>eigen32&#45;&gt;suitesparse</title>
<path fill="none" stroke="#000000" d="M177.2022,-436.1181C164.1652,-441.2028 149.7478,-448.3727 138.6909,-458 115.8094,-477.9231 124.8961,-495.3258 102.6909,-516 99.6226,-518.8567 96.1947,-521.4982 92.6051,-523.9191"/>
<polygon fill="#000000" stroke="#000000" points="90.7339,-520.9608 84.0295,-529.1645 94.3865,-526.9323 90.7339,-520.9608"/>
</g>
<!-- fftw -->
<g id="node37" class="node">
<title>fftw</title>
<ellipse fill="none" stroke="#000000" cx="51.3454" cy="-489" rx="27" ry="18"/>
<text text-anchor="middle" x="51.3454" y="-485.3" font-family="Times,serif" font-size="14.00" fill="#000000">fftw</text>
</g>
<!-- eigen32&#45;&gt;fftw -->
<g id="edge13" class="edge">
<title>eigen32&#45;&gt;fftw</title>
<path fill="none" stroke="#000000" d="M180.4604,-437.9981C152.9723,-448.8562 112.5813,-464.8111 84.3162,-475.9762"/>
<polygon fill="#000000" stroke="#000000" points="82.88,-472.7802 74.8652,-479.7094 85.4518,-479.2907 82.88,-472.7802"/>
</g>
<!-- tabula -->
<g id="node25" class="node">
<title>tabula</title>
<ellipse fill="none" stroke="#000000" cx="1011.9262" cy="-1336" rx="33.2948" ry="18"/>
<text text-anchor="middle" x="1011.9262" y="-1332.3" font-family="Times,serif" font-size="14.00" fill="#000000">tabula</text>
</g>
<!-- tabula&#45;&gt;java&#45;runtime -->
<g id="edge29" class="edge">
<title>tabula&#45;&gt;java&#45;runtime</title>
<path fill="none" stroke="#000000" d="M978.3639,-1336C952.6873,-1336 916.4246,-1336 884.7474,-1336"/>
<polygon fill="#000000" stroke="#000000" points="884.6431,-1332.5001 874.643,-1336 884.643,-1339.5001 884.6431,-1332.5001"/>
</g>
</g>
</svg>
