<?xml version="1.0" encoding="UTF-8" standalone="no"?>
<!DOCTYPE svg PUBLIC "-//W3C//DTD SVG 1.1//EN"
 "http://www.w3.org/Graphics/SVG/1.1/DTD/svg11.dtd">
<!-- Generated by graphviz version 2.40.1 (20161225.0304)
 -->
<!-- Title: dependencies Pages: 1 -->
<svg width="1098pt" height="1230pt"
 viewBox="0.00 0.00 1097.92 1230.00" xmlns="http://www.w3.org/2000/svg" xmlns:xlink="http://www.w3.org/1999/xlink">
<g id="graph0" class="graph" transform="scale(1 1) rotate(0) translate(4 1226)">
<title>dependencies</title>
<polygon fill="#ffffff" stroke="transparent" points="-4,4 -4,-1226 1093.9193,-1226 1093.9193,4 -4,4"/>
<!-- eigen32 -->
<g id="node1" class="node">
<title>eigen32</title>
<ellipse fill="none" stroke="#000000" cx="210.8345" cy="-284" rx="40.0939" ry="18"/>
<text text-anchor="middle" x="210.8345" y="-280.3" font-family="Times,serif" font-size="14.00" fill="#000000">eigen32</text>
</g>
<!-- gcc&#45;fortran -->
<g id="node5" class="node">
<title>gcc&#45;fortran</title>
<ellipse fill="none" stroke="#000000" cx="51.3454" cy="-365" rx="51.1914" ry="18"/>
<text text-anchor="middle" x="51.3454" y="-361.3" font-family="Times,serif" font-size="14.00" fill="#000000">gcc&#45;fortran</text>
</g>
<!-- eigen32&#45;&gt;gcc&#45;fortran -->
<g id="edge12" class="edge">
<title>eigen32&#45;&gt;gcc&#45;fortran</title>
<path fill="none" stroke="#000000" d="M180.9347,-296.2188C167.7888,-301.8566 152.2812,-308.8725 138.6909,-316 122.0849,-324.709 118.9976,-328.7427 102.6909,-338 98.4786,-340.3913 94.0368,-342.8371 89.6005,-345.2324"/>
<polygon fill="#000000" stroke="#000000" points="87.7536,-342.2507 80.5771,-350.0448 91.0477,-348.4272 87.7536,-342.2507"/>
</g>
<!-- cmake -->
<g id="node14" class="node">
<title>cmake</title>
<ellipse fill="none" stroke="#000000" cx="51.3454" cy="-523" rx="34.394" ry="18"/>
<text text-anchor="middle" x="51.3454" y="-519.3" font-family="Times,serif" font-size="14.00" fill="#000000">cmake</text>
</g>
<!-- eigen32&#45;&gt;cmake -->
<g id="edge10" class="edge">
<title>eigen32&#45;&gt;cmake</title>
<path fill="none" stroke="#000000" d="M175.325,-292.7569C162.1764,-297.6255 148.1771,-305.0021 138.6909,-316 99.5333,-361.3977 127.6359,-391.4838 102.6909,-446 94.2756,-464.3912 81.7222,-483.3127 71.1347,-497.7965"/>
<polygon fill="#000000" stroke="#000000" points="68.0382,-496.0928 64.851,-506.1969 73.6436,-500.2857 68.0382,-496.0928"/>
</g>
<!-- freeglut -->
<g id="node15" class="node">
<title>freeglut</title>
<ellipse fill="none" stroke="#000000" cx="51.3454" cy="-311" rx="38.9931" ry="18"/>
<text text-anchor="middle" x="51.3454" y="-307.3" font-family="Times,serif" font-size="14.00" fill="#000000">freeglut</text>
</g>
<!-- eigen32&#45;&gt;freeglut -->
<g id="edge11" class="edge">
<title>eigen32&#45;&gt;freeglut</title>
<path fill="none" stroke="#000000" d="M173.0378,-290.3986C150.5501,-294.2056 121.8409,-299.0658 97.9555,-303.1093"/>
<polygon fill="#000000" stroke="#000000" points="97.322,-299.6667 88.0465,-304.7869 98.4904,-306.5685 97.322,-299.6667"/>
</g>
<!-- qt4 -->
<g id="node21" class="node">
<title>qt4</title>
<ellipse fill="none" stroke="#000000" cx="51.3454" cy="-257" rx="27" ry="18"/>
<text text-anchor="middle" x="51.3454" y="-253.3" font-family="Times,serif" font-size="14.00" fill="#000000">qt4</text>
</g>
<!-- eigen32&#45;&gt;qt4 -->
<g id="edge9" class="edge">
<title>eigen32&#45;&gt;qt4</title>
<path fill="none" stroke="#000000" d="M178.5595,-272.9875C152.4899,-267.0642 115.7786,-260.7627 88.4891,-257.4798"/>
<polygon fill="#000000" stroke="#000000" points="88.858,-253.9993 78.5333,-256.3764 88.0869,-260.9567 88.858,-253.9993"/>
</g>
<!-- eigen32&#45;&gt;qt4 -->
<g id="edge14" class="edge">
<title>eigen32&#45;&gt;qt4</title>
<path fill="none" stroke="#000000" d="M170.176,-283.0873C143.8502,-279.7722 109.974,-273.9251 85.1318,-268.3537"/>
<polygon fill="#000000" stroke="#000000" points="85.6224,-264.8736 75.0866,-265.991 84.0196,-271.6877 85.6224,-264.8736"/>
</g>
<!-- suitesparse -->
<g id="node29" class="node">
<title>suitesparse</title>
<ellipse fill="none" stroke="#000000" cx="51.3454" cy="-203" rx="50.0912" ry="18"/>
<text text-anchor="middle" x="51.3454" y="-199.3" font-family="Times,serif" font-size="14.00" fill="#000000">suitesparse</text>
</g>
<!-- eigen32&#45;&gt;suitesparse -->
<g id="edge15" class="edge">
<title>eigen32&#45;&gt;suitesparse</title>
<path fill="none" stroke="#000000" d="M184.1396,-270.4424C158.2141,-257.2756 118.5977,-237.1555 89.3791,-222.3162"/>
<polygon fill="#000000" stroke="#000000" points="90.7893,-219.1069 80.2884,-217.6993 87.6195,-225.3482 90.7893,-219.1069"/>
</g>
<!-- boost -->
<g id="node31" class="node">
<title>boost</title>
<ellipse fill="none" stroke="#000000" cx="51.3454" cy="-107" rx="31.3957" ry="18"/>
<text text-anchor="middle" x="51.3454" y="-103.3" font-family="Times,serif" font-size="14.00" fill="#000000">boost</text>
</g>
<!-- eigen32&#45;&gt;boost -->
<g id="edge16" class="edge">
<title>eigen32&#45;&gt;boost</title>
<path fill="none" stroke="#000000" d="M195.542,-267.0285C166.9831,-235.334 105.4834,-167.082 72.7934,-130.8029"/>
<polygon fill="#000000" stroke="#000000" points="75.1917,-128.2359 65.8975,-123.1498 69.9914,-132.9217 75.1917,-128.2359"/>
</g>
<!-- fftw -->
<g id="node36" class="node">
<title>fftw</title>
<ellipse fill="none" stroke="#000000" cx="51.3454" cy="-419" rx="27" ry="18"/>
<text text-anchor="middle" x="51.3454" y="-415.3" font-family="Times,serif" font-size="14.00" fill="#000000">fftw</text>
</g>
<!-- eigen32&#45;&gt;fftw -->
<g id="edge13" class="edge">
<title>eigen32&#45;&gt;fftw</title>
<path fill="none" stroke="#000000" d="M176.263,-293.6391C163.2436,-298.6293 149.0878,-305.8587 138.6909,-316 111.9355,-342.0976 128.5622,-365.0257 102.6909,-392 97.4667,-397.447 90.9013,-402.0186 84.2276,-405.7606"/>
<polygon fill="#000000" stroke="#000000" points="82.5098,-402.7073 75.1757,-410.3534 85.6772,-408.9498 82.5098,-402.7073"/>
</g>
<!-- git -->
<g id="node2" class="node">
<title>git</title>
<ellipse fill="none" stroke="#000000" cx="210.8345" cy="-844" rx="27" ry="18"/>
<text text-anchor="middle" x="210.8345" y="-840.3" font-family="Times,serif" font-size="14.00" fill="#000000">git</text>
</g>
<!-- ros&#45;indigo&#45;resource&#45;retriever -->
<g id="node3" class="node">
<title>ros&#45;indigo&#45;resource&#45;retriever</title>
<ellipse fill="none" stroke="#000000" cx="583.1078" cy="-982" rx="116.1796" ry="18"/>
<text text-anchor="middle" x="583.1078" y="-978.3" font-family="Times,serif" font-size="14.00" fill="#000000">ros&#45;indigo&#45;resource&#45;retriever</text>
</g>
<!-- hpp&#45;pinocchio&#45;git -->
<g id="node4" class="node">
<title>hpp&#45;pinocchio&#45;git</title>
<ellipse fill="none" stroke="#000000" cx="1011.9262" cy="-806" rx="77.9862" ry="18"/>
<text text-anchor="middle" x="1011.9262" y="-802.3" font-family="Times,serif" font-size="14.00" fill="#000000">hpp&#45;pinocchio&#45;git</text>
</g>
<!-- hpp&#45;pinocchio&#45;git&#45;&gt;git -->
<g id="edge44" class="edge">
<title>hpp&#45;pinocchio&#45;git&#45;&gt;git</title>
<path fill="none" stroke="#000000" d="M943.4218,-797.311C885.2661,-792.9809 801.0535,-794.0726 735.4475,-825 714.4041,-834.9201 720.8188,-853.8075 699.4475,-863 604.4497,-903.8616 570.1102,-866.8307 466.7682,-863 388.784,-860.1093 297.7083,-852.2803 247.9588,-847.6234"/>
<polygon fill="#000000" stroke="#000000" points="247.9818,-844.1101 237.6966,-846.6528 247.3226,-851.079 247.9818,-844.1101"/>
</g>
<!-- hpp&#45;pinocchio&#45;git&#45;&gt;ros&#45;indigo&#45;resource&#45;retriever -->
<g id="edge52" class="edge">
<title>hpp&#45;pinocchio&#45;git&#45;&gt;ros&#45;indigo&#45;resource&#45;retriever</title>
<path fill="none" stroke="#000000" d="M1005.7395,-824.0903C992.4595,-859.736 957.4968,-938.4157 897.9331,-971 825.5976,-1010.5712 729.2744,-1007.3497 662.3036,-998.0136"/>
<polygon fill="#000000" stroke="#000000" points="662.6318,-994.5243 652.2291,-996.5324 661.6136,-1001.4499 662.6318,-994.5243"/>
</g>
<!-- doxygen -->
<g id="node6" class="node">
<title>doxygen</title>
<ellipse fill="none" stroke="#000000" cx="210.8345" cy="-1028" rx="44.393" ry="18"/>
<text text-anchor="middle" x="210.8345" y="-1024.3" font-family="Times,serif" font-size="14.00" fill="#000000">doxygen</text>
</g>
<!-- hpp&#45;pinocchio&#45;git&#45;&gt;doxygen -->
<g id="edge42" class="edge">
<title>hpp&#45;pinocchio&#45;git&#45;&gt;doxygen</title>
<path fill="none" stroke="#000000" d="M1006.9613,-824.2452C994.9768,-865.0338 960.7168,-964.45 897.9331,-1021 827.2622,-1084.6541 792.8193,-1082.891 699.4475,-1101 532.6174,-1133.356 482.1885,-1110.3452 318.9781,-1063 297.5767,-1056.7917 274.0141,-1049.2505 254.361,-1042.7601"/>
<polygon fill="#000000" stroke="#000000" points="255.3574,-1039.4031 244.764,-1039.572 253.1506,-1046.0461 255.3574,-1039.4031"/>
</g>
<!-- ros&#45;indigo&#45;catkin -->
<g id="node9" class="node">
<title>ros&#45;indigo&#45;catkin</title>
<ellipse fill="none" stroke="#000000" cx="583.1078" cy="-928" rx="74.9875" ry="18"/>
<text text-anchor="middle" x="583.1078" y="-924.3" font-family="Times,serif" font-size="14.00" fill="#000000">ros&#45;indigo&#45;catkin</text>
</g>
<!-- hpp&#45;pinocchio&#45;git&#45;&gt;ros&#45;indigo&#45;catkin -->
<g id="edge46" class="edge">
<title>hpp&#45;pinocchio&#45;git&#45;&gt;ros&#45;indigo&#45;catkin</title>
<path fill="none" stroke="#000000" d="M990.693,-823.4799C968.8348,-840.4973 933.0974,-865.6839 897.9331,-879 855.9755,-894.8887 740.7816,-910.316 662.0121,-919.487"/>
<polygon fill="#000000" stroke="#000000" points="661.1657,-916.0613 651.6325,-920.6839 661.9677,-923.0152 661.1657,-916.0613"/>
</g>
<!-- romeo_description -->
<g id="node10" class="node">
<title>romeo_description</title>
<ellipse fill="none" stroke="#000000" cx="816.6903" cy="-944" rx="80.6858" ry="18"/>
<text text-anchor="middle" x="816.6903" y="-940.3" font-family="Times,serif" font-size="14.00" fill="#000000">romeo_description</text>
</g>
<!-- hpp&#45;pinocchio&#45;git&#45;&gt;romeo_description -->
<g id="edge40" class="edge">
<title>hpp&#45;pinocchio&#45;git&#45;&gt;romeo_description</title>
<path fill="none" stroke="#000000" d="M996.5779,-823.9451C976.0832,-846.9744 937.7195,-886.9366 897.9331,-912 890.115,-916.925 881.4141,-921.3189 872.694,-925.1553"/>
<polygon fill="#000000" stroke="#000000" points="871.1407,-922.0111 863.2652,-929.0982 873.8413,-928.4692 871.1407,-922.0111"/>
</g>
<!-- hpp&#45;pinocchio&#45;git&#45;&gt;cmake -->
<g id="edge43" class="edge">
<title>hpp&#45;pinocchio&#45;git&#45;&gt;cmake</title>
<path fill="none" stroke="#000000" d="M1009.6176,-823.9998C1002.4934,-871.9417 976.3759,-1003.713 897.9331,-1072 788.5308,-1167.2383 728.1568,-1158 583.1078,-1158 583.1078,-1158 583.1078,-1158 374.8731,-1158 266.6776,-1158 211.5057,-1179.0268 138.6909,-1099 64.3202,-1017.2632 53.2724,-655.3901 51.6316,-551.1725"/>
<polygon fill="#000000" stroke="#000000" points="55.1303,-551.0498 51.4903,-541.0999 48.131,-551.148 55.1303,-551.0498"/>
</g>
<!-- hpp_environments -->
<g id="node16" class="node">
<title>hpp_environments</title>
<ellipse fill="none" stroke="#000000" cx="816.6903" cy="-852" rx="81.4863" ry="18"/>
<text text-anchor="middle" x="816.6903" y="-848.3" font-family="Times,serif" font-size="14.00" fill="#000000">hpp_environments</text>
</g>
<!-- hpp&#45;pinocchio&#45;git&#45;&gt;hpp_environments -->
<g id="edge41" class="edge">
<title>hpp&#45;pinocchio&#45;git&#45;&gt;hpp_environments</title>
<path fill="none" stroke="#000000" d="M957.2825,-818.8747C934.082,-824.3411 906.8352,-830.7607 882.5363,-836.4859"/>
<polygon fill="#000000" stroke="#000000" points="881.6097,-833.1083 872.679,-838.8084 883.2151,-839.9217 881.6097,-833.1083"/>
</g>
<!-- ros&#45;build&#45;tools -->
<g id="node20" class="node">
<title>ros&#45;build&#45;tools</title>
<ellipse fill="none" stroke="#000000" cx="583.1078" cy="-836" rx="65.7887" ry="18"/>
<text text-anchor="middle" x="583.1078" y="-832.3" font-family="Times,serif" font-size="14.00" fill="#000000">ros&#45;build&#45;tools</text>
</g>
<!-- hpp&#45;pinocchio&#45;git&#45;&gt;ros&#45;build&#45;tools -->
<g id="edge45" class="edge">
<title>hpp&#45;pinocchio&#45;git&#45;&gt;ros&#45;build&#45;tools</title>
<path fill="none" stroke="#000000" d="M945.4459,-796.4486C929.8896,-794.599 913.3571,-792.9436 897.9331,-792 825.8521,-787.5903 805.9134,-776.1988 735.4475,-792 718.182,-795.8716 716.1604,-803.1892 699.4475,-809 682.9122,-814.7491 664.6294,-819.6428 647.5503,-823.6201"/>
<polygon fill="#000000" stroke="#000000" points="646.6387,-820.2377 637.6558,-825.8555 648.1813,-827.0657 646.6387,-820.2377"/>
</g>
<!-- hpp&#45;model -->
<g id="node22" class="node">
<title>hpp&#45;model</title>
<ellipse fill="none" stroke="#000000" cx="583.1078" cy="-506" rx="51.9908" ry="18"/>
<text text-anchor="middle" x="583.1078" y="-502.3" font-family="Times,serif" font-size="14.00" fill="#000000">hpp&#45;model</text>
</g>
<!-- hpp&#45;pinocchio&#45;git&#45;&gt;hpp&#45;model -->
<g id="edge38" class="edge">
<title>hpp&#45;pinocchio&#45;git&#45;&gt;hpp&#45;model</title>
<path fill="none" stroke="#000000" d="M996.7744,-788.0023C954.8701,-739.4615 831.7453,-605.0066 699.4475,-538 680.743,-528.5265 658.8806,-521.5692 639.1888,-516.6087"/>
<polygon fill="#000000" stroke="#000000" points="639.9604,-513.1946 629.4196,-514.263 638.326,-520.0011 639.9604,-513.1946"/>
</g>
<!-- hpp&#45;util&#45;git -->
<g id="node23" class="node">
<title>hpp&#45;util&#45;git</title>
<ellipse fill="none" stroke="#000000" cx="374.8731" cy="-966" rx="53.0913" ry="18"/>
<text text-anchor="middle" x="374.8731" y="-962.3" font-family="Times,serif" font-size="14.00" fill="#000000">hpp&#45;util&#45;git</text>
</g>
<!-- hpp&#45;pinocchio&#45;git&#45;&gt;hpp&#45;util&#45;git -->
<g id="edge50" class="edge">
<title>hpp&#45;pinocchio&#45;git&#45;&gt;hpp&#45;util&#45;git</title>
<path fill="none" stroke="#000000" d="M1007.6442,-824.2263C997.0582,-864.6731 965.4742,-961.5474 897.9331,-1002 874.5937,-1015.9788 472.0394,-1010.1723 466.7682,-1009 446.8928,-1004.5799 426.2302,-995.3844 409.5437,-986.6272"/>
<polygon fill="#000000" stroke="#000000" points="411.1721,-983.5288 400.7127,-981.8403 407.8363,-989.6828 411.1721,-983.5288"/>
</g>
<!-- pinocchio -->
<g id="node27" class="node">
<title>pinocchio</title>
<ellipse fill="none" stroke="#000000" cx="583.1078" cy="-203" rx="48.1917" ry="18"/>
<text text-anchor="middle" x="583.1078" y="-199.3" font-family="Times,serif" font-size="14.00" fill="#000000">pinocchio</text>
</g>
<!-- hpp&#45;pinocchio&#45;git&#45;&gt;pinocchio -->
<g id="edge48" class="edge">
<title>hpp&#45;pinocchio&#45;git&#45;&gt;pinocchio</title>
<path fill="none" stroke="#000000" d="M1011.2531,-787.9994C1008.1496,-727.6337 991.0075,-529.1529 897.9331,-404 826.9322,-308.5283 695.9895,-246.6598 627.4971,-219.2679"/>
<polygon fill="#000000" stroke="#000000" points="628.4465,-215.8804 617.8593,-215.4767 625.884,-222.3945 628.4465,-215.8804"/>
</g>
<!-- hpp&#45;model&#45;urdf -->
<g id="node28" class="node">
<title>hpp&#45;model&#45;urdf</title>
<ellipse fill="none" stroke="#000000" cx="816.6903" cy="-722" rx="70.3881" ry="18"/>
<text text-anchor="middle" x="816.6903" y="-718.3" font-family="Times,serif" font-size="14.00" fill="#000000">hpp&#45;model&#45;urdf</text>
</g>
<!-- hpp&#45;pinocchio&#45;git&#45;&gt;hpp&#45;model&#45;urdf -->
<g id="edge39" class="edge">
<title>hpp&#45;pinocchio&#45;git&#45;&gt;hpp&#45;model&#45;urdf</title>
<path fill="none" stroke="#000000" d="M977.7158,-789.8238C955.1847,-779.3117 924.9624,-765.4787 897.9331,-754 887.5706,-749.5993 876.3833,-745.0589 865.7216,-740.8301"/>
<polygon fill="#000000" stroke="#000000" points="866.7039,-737.4553 856.1169,-737.0471 864.1386,-743.9683 866.7039,-737.4553"/>
</g>
<!-- hpp&#45;pinocchio&#45;git&#45;&gt;boost -->
<g id="edge47" class="edge">
<title>hpp&#45;pinocchio&#45;git&#45;&gt;boost</title>
<path fill="none" stroke="#000000" d="M1011.1071,-787.6512C1004.6948,-667.6778 952.4184,0 583.1078,0 583.1078,0 583.1078,0 374.8731,0 262.5121,0 138.7973,-58.8947 82.421,-89.296"/>
<polygon fill="#000000" stroke="#000000" points="80.7409,-86.2255 73.6452,-94.0933 84.0986,-92.3677 80.7409,-86.2255"/>
</g>
<!-- assimp -->
<g id="node32" class="node">
<title>assimp</title>
<ellipse fill="none" stroke="#000000" cx="210.8345" cy="-511" rx="36.2938" ry="18"/>
<text text-anchor="middle" x="210.8345" y="-507.3" font-family="Times,serif" font-size="14.00" fill="#000000">assimp</text>
</g>
<!-- hpp&#45;pinocchio&#45;git&#45;&gt;assimp -->
<g id="edge49" class="edge">
<title>hpp&#45;pinocchio&#45;git&#45;&gt;assimp</title>
<path fill="none" stroke="#000000" d="M1008.5553,-787.8476C999.2177,-742.4719 968.8741,-622.9584 897.9331,-556 829.1221,-491.052 792.4537,-496.4083 699.4475,-479 536.8497,-448.566 339.129,-482.8877 253.6257,-501.1053"/>
<polygon fill="#000000" stroke="#000000" points="252.7968,-497.7036 243.7647,-503.2417 254.279,-504.5449 252.7968,-497.7036"/>
</g>
<!-- hpp&#45;fcl -->
<g id="node35" class="node">
<title>hpp&#45;fcl</title>
<ellipse fill="none" stroke="#000000" cx="374.8731" cy="-414" rx="37.8943" ry="18"/>
<text text-anchor="middle" x="374.8731" y="-410.3" font-family="Times,serif" font-size="14.00" fill="#000000">hpp&#45;fcl</text>
</g>
<!-- hpp&#45;pinocchio&#45;git&#45;&gt;hpp&#45;fcl -->
<g id="edge51" class="edge">
<title>hpp&#45;pinocchio&#45;git&#45;&gt;hpp&#45;fcl</title>
<path fill="none" stroke="#000000" d="M1008.9396,-787.9252C997.5186,-721.1645 954.3992,-490.0611 897.9331,-446 753.842,-333.564 513.7957,-377.886 417.1231,-402.1789"/>
<polygon fill="#000000" stroke="#000000" points="416.2232,-398.7964 407.4089,-404.675 417.9653,-405.5762 416.2232,-398.7964"/>
</g>
<!-- ros&#45;indigo&#45;urdfdom -->
<g id="node7" class="node">
<title>ros&#45;indigo&#45;urdfdom</title>
<ellipse fill="none" stroke="#000000" cx="583.1078" cy="-782" rx="85.2851" ry="18"/>
<text text-anchor="middle" x="583.1078" y="-778.3" font-family="Times,serif" font-size="14.00" fill="#000000">ros&#45;indigo&#45;urdfdom</text>
</g>
<!-- boost&#45;libs -->
<g id="node8" class="node">
<title>boost&#45;libs</title>
<ellipse fill="none" stroke="#000000" cx="210.8345" cy="-122" rx="47.3916" ry="18"/>
<text text-anchor="middle" x="210.8345" y="-118.3" font-family="Times,serif" font-size="14.00" fill="#000000">boost&#45;libs</text>
</g>
<!-- tabula -->
<g id="node11" class="node">
<title>tabula</title>
<ellipse fill="none" stroke="#000000" cx="1011.9262" cy="-1204" rx="33.2948" ry="18"/>
<text text-anchor="middle" x="1011.9262" y="-1200.3" font-family="Times,serif" font-size="14.00" fill="#000000">tabula</text>
</g>
<!-- java&#45;runtime -->
<g id="node24" class="node">
<title>java&#45;runtime</title>
<ellipse fill="none" stroke="#000000" cx="816.6903" cy="-1204" rx="57.6901" ry="18"/>
<text text-anchor="middle" x="816.6903" y="-1200.3" font-family="Times,serif" font-size="14.00" fill="#000000">java&#45;runtime</text>
</g>
<!-- tabula&#45;&gt;java&#45;runtime -->
<g id="edge29" class="edge">
<title>tabula&#45;&gt;java&#45;runtime</title>
<path fill="none" stroke="#000000" d="M978.3639,-1204C952.6873,-1204 916.4246,-1204 884.7474,-1204"/>
<polygon fill="#000000" stroke="#000000" points="884.6431,-1200.5001 874.643,-1204 884.643,-1207.5001 884.6431,-1200.5001"/>
</g>
<!-- pinocchio&#45;git -->
<g id="node12" class="node">
<title>pinocchio&#45;git</title>
<ellipse fill="none" stroke="#000000" cx="583.1078" cy="-307" rx="60.3893" ry="18"/>
<text text-anchor="middle" x="583.1078" y="-303.3" font-family="Times,serif" font-size="14.00" fill="#000000">pinocchio&#45;git</text>
</g>
<!-- pinocchio&#45;git&#45;&gt;eigen32 -->
<g id="edge5" class="edge">
<title>pinocchio&#45;git&#45;&gt;eigen32</title>
<path fill="none" stroke="#000000" d="M525.4149,-312.4081C471.7415,-316.3676 389.6454,-319.6883 318.9781,-311 297.2251,-308.3255 273.5528,-302.7328 253.9172,-297.3274"/>
<polygon fill="#000000" stroke="#000000" points="254.6238,-293.89 244.0486,-294.5343 252.7174,-300.6254 254.6238,-293.89"/>
</g>
<!-- pinocchio&#45;git&#45;&gt;git -->
<g id="edge4" class="edge">
<title>pinocchio&#45;git&#45;&gt;git</title>
<path fill="none" stroke="#000000" d="M570.7216,-324.867C515.595,-404.3864 292.447,-726.2749 228.2122,-818.9328"/>
<polygon fill="#000000" stroke="#000000" points="225.1569,-817.1969 222.3359,-827.4093 230.9097,-821.1851 225.1569,-817.1969"/>
</g>
<!-- pinocchio&#45;git&#45;&gt;cmake -->
<g id="edge3" class="edge">
<title>pinocchio&#45;git&#45;&gt;cmake</title>
<path fill="none" stroke="#000000" d="M527.2762,-314.1023C439.4246,-327.2018 265.8417,-360.9936 138.6909,-436 111.4308,-452.0807 86.5196,-478.6126 70.3393,-498.1561"/>
<polygon fill="#000000" stroke="#000000" points="67.5208,-496.0754 63.958,-506.0532 72.9654,-500.4749 67.5208,-496.0754"/>
</g>
<!-- metapod&#45;git -->
<g id="node17" class="node">
<title>metapod&#45;git</title>
<ellipse fill="none" stroke="#000000" cx="374.8731" cy="-284" rx="55.7903" ry="18"/>
<text text-anchor="middle" x="374.8731" y="-280.3" font-family="Times,serif" font-size="14.00" fill="#000000">metapod&#45;git</text>
</g>
<!-- pinocchio&#45;git&#45;&gt;metapod&#45;git -->
<g id="edge1" class="edge">
<title>pinocchio&#45;git&#45;&gt;metapod&#45;git</title>
<path fill="none" stroke="#000000" d="M526.2068,-300.7151C498.8585,-297.6945 465.9962,-294.0648 437.8926,-290.9606"/>
<polygon fill="#000000" stroke="#000000" points="438.0968,-287.462 427.7729,-289.8429 437.3282,-294.4197 438.0968,-287.462"/>
</g>
<!-- urdfdom -->
<g id="node26" class="node">
<title>urdfdom</title>
<ellipse fill="none" stroke="#000000" cx="374.8731" cy="-176" rx="43.5923" ry="18"/>
<text text-anchor="middle" x="374.8731" y="-172.3" font-family="Times,serif" font-size="14.00" fill="#000000">urdfdom</text>
</g>
<!-- pinocchio&#45;git&#45;&gt;urdfdom -->
<g id="edge8" class="edge">
<title>pinocchio&#45;git&#45;&gt;urdfdom</title>
<path fill="none" stroke="#000000" d="M557.3985,-290.6025C533.6287,-275.2969 497.4518,-251.6324 466.7682,-230 450.4221,-218.4758 447.8526,-213.3982 430.7682,-203 425.3914,-199.7275 419.5586,-196.5428 413.7577,-193.5762"/>
<polygon fill="#000000" stroke="#000000" points="415.2534,-190.4113 404.7384,-189.1127 412.1485,-196.6851 415.2534,-190.4113"/>
</g>
<!-- eigenpy -->
<g id="node30" class="node">
<title>eigenpy</title>
<ellipse fill="none" stroke="#000000" cx="374.8731" cy="-122" rx="40.0939" ry="18"/>
<text text-anchor="middle" x="374.8731" y="-118.3" font-family="Times,serif" font-size="14.00" fill="#000000">eigenpy</text>
</g>
<!-- pinocchio&#45;git&#45;&gt;eigenpy -->
<g id="edge6" class="edge">
<title>pinocchio&#45;git&#45;&gt;eigenpy</title>
<path fill="none" stroke="#000000" d="M550.3019,-291.7928C524.7115,-278.5363 489.7648,-257.1821 466.7682,-230 441.3234,-199.9241 458.1789,-177.2958 430.7682,-149 426.589,-144.6859 421.5802,-140.9705 416.3011,-137.7976"/>
<polygon fill="#000000" stroke="#000000" points="417.7287,-134.592 407.2603,-132.9601 414.4262,-140.764 417.7287,-134.592"/>
</g>
<!-- lua51 -->
<g id="node34" class="node">
<title>lua51</title>
<ellipse fill="none" stroke="#000000" cx="374.8731" cy="-230" rx="31.6951" ry="18"/>
<text text-anchor="middle" x="374.8731" y="-226.3" font-family="Times,serif" font-size="14.00" fill="#000000">lua51</text>
</g>
<!-- pinocchio&#45;git&#45;&gt;lua51 -->
<g id="edge2" class="edge">
<title>pinocchio&#45;git&#45;&gt;lua51</title>
<path fill="none" stroke="#000000" d="M544.9144,-292.877C506.7597,-278.7683 448.5399,-257.2401 411.0951,-243.394"/>
<polygon fill="#000000" stroke="#000000" points="412.1768,-240.0624 401.5836,-239.8769 409.749,-246.6279 412.1768,-240.0624"/>
</g>
<!-- pinocchio&#45;git&#45;&gt;hpp&#45;fcl -->
<g id="edge7" class="edge">
<title>pinocchio&#45;git&#45;&gt;hpp&#45;fcl</title>
<path fill="none" stroke="#000000" d="M552.3821,-322.7882C514.3629,-342.3241 449.7792,-375.51 409.8822,-396.0108"/>
<polygon fill="#000000" stroke="#000000" points="408.0839,-392.9998 400.7891,-400.6833 411.2832,-399.2259 408.0839,-392.9998"/>
</g>
<!-- hpp&#45;statistics&#45;git -->
<g id="node13" class="node">
<title>hpp&#45;statistics&#45;git</title>
<ellipse fill="none" stroke="#000000" cx="583.1078" cy="-1074" rx="71.4873" ry="18"/>
<text text-anchor="middle" x="583.1078" y="-1070.3" font-family="Times,serif" font-size="14.00" fill="#000000">hpp&#45;statistics&#45;git</text>
</g>
<!-- hpp&#45;statistics&#45;git&#45;&gt;git -->
<g id="edge65" class="edge">
<title>hpp&#45;statistics&#45;git&#45;&gt;git</title>
<path fill="none" stroke="#000000" d="M543.7018,-1058.9754C519.175,-1048.0612 488.3092,-1031.2972 466.7682,-1009 442.4608,-983.8394 456.8027,-962.3689 430.7682,-939 391.1532,-903.4411 367.2054,-918.5368 318.9781,-896 302.396,-888.2511 299.3602,-884.1633 282.9781,-876 270.0784,-869.572 255.5994,-863.0238 243.0168,-857.5395"/>
<polygon fill="#000000" stroke="#000000" points="244.3905,-854.3203 233.822,-853.5726 241.6175,-860.7477 244.3905,-854.3203"/>
</g>
<!-- hpp&#45;statistics&#45;git&#45;&gt;doxygen -->
<g id="edge63" class="edge">
<title>hpp&#45;statistics&#45;git&#45;&gt;doxygen</title>
<path fill="none" stroke="#000000" d="M518.6878,-1066.0399C446.4881,-1057.1186 330.7807,-1042.8212 263.6802,-1034.5299"/>
<polygon fill="#000000" stroke="#000000" points="263.6961,-1031.0053 253.3424,-1033.2525 262.8377,-1037.9525 263.6961,-1031.0053"/>
</g>
<!-- hpp&#45;statistics&#45;git&#45;&gt;cmake -->
<g id="edge64" class="edge">
<title>hpp&#45;statistics&#45;git&#45;&gt;cmake</title>
<path fill="none" stroke="#000000" d="M538.966,-1088.1979C450.7566,-1113.5299 251.5132,-1155.035 138.6909,-1055 100.39,-1021.0401 63.7665,-656.6464 53.9214,-551.3445"/>
<polygon fill="#000000" stroke="#000000" points="57.3859,-550.7987 52.9779,-541.1644 50.4158,-551.4447 57.3859,-550.7987"/>
</g>
<!-- hpp&#45;statistics&#45;git&#45;&gt;hpp&#45;util&#45;git -->
<g id="edge66" class="edge">
<title>hpp&#45;statistics&#45;git&#45;&gt;hpp&#45;util&#45;git</title>
<path fill="none" stroke="#000000" d="M525.3772,-1063.2298C506.08,-1058.3141 484.8871,-1051.4263 466.7682,-1042 452.8642,-1034.7665 423.2627,-1009.5052 401.3952,-990.0707"/>
<polygon fill="#000000" stroke="#000000" points="403.5195,-987.275 393.732,-983.2184 398.8535,-992.4931 403.5195,-987.275"/>
</g>
<!-- ros&#45;indigo&#45;urdf -->
<g id="node18" class="node">
<title>ros&#45;indigo&#45;urdf</title>
<ellipse fill="none" stroke="#000000" cx="583.1078" cy="-690" rx="67.6881" ry="18"/>
<text text-anchor="middle" x="583.1078" y="-686.3" font-family="Times,serif" font-size="14.00" fill="#000000">ros&#45;indigo&#45;urdf</text>
</g>
<!-- python2&#45;numpy -->
<g id="node19" class="node">
<title>python2&#45;numpy</title>
<ellipse fill="none" stroke="#000000" cx="210.8345" cy="-176" rx="72.2875" ry="18"/>
<text text-anchor="middle" x="210.8345" y="-172.3" font-family="Times,serif" font-size="14.00" fill="#000000">python2&#45;numpy</text>
</g>
<!-- hpp&#45;model&#45;&gt;eigen32 -->
<g id="edge19" class="edge">
<title>hpp&#45;model&#45;&gt;eigen32</title>
<path fill="none" stroke="#000000" d="M531.2718,-504.0062C474.5598,-499.5277 383.1883,-485.35 318.9781,-441 271.1843,-407.9888 238.0956,-346.4531 222.0117,-311.017"/>
<polygon fill="#000000" stroke="#000000" points="225.1664,-309.4965 217.9281,-301.7597 218.7619,-312.3217 225.1664,-309.4965"/>
</g>
<!-- hpp&#45;model&#45;&gt;cmake -->
<g id="edge18" class="edge">
<title>hpp&#45;model&#45;&gt;cmake</title>
<path fill="none" stroke="#000000" d="M536.6906,-514.1362C455.8044,-527.2427 283.7864,-550.3682 138.6909,-538 123.8873,-536.7381 107.8242,-534.294 93.5579,-531.7391"/>
<polygon fill="#000000" stroke="#000000" points="94.0025,-528.2619 83.5311,-529.8745 92.7226,-535.1439 94.0025,-528.2619"/>
</g>
<!-- hpp&#45;model&#45;&gt;hpp&#45;util&#45;git -->
<g id="edge20" class="edge">
<title>hpp&#45;model&#45;&gt;hpp&#45;util&#45;git</title>
<path fill="none" stroke="#000000" d="M544.5325,-518.2163C518.7382,-528.3455 486.1009,-545.2999 466.7682,-571 422.4028,-629.9774 389.0742,-857.2501 378.4578,-937.6319"/>
<polygon fill="#000000" stroke="#000000" points="374.9328,-937.5981 377.1118,-947.9664 381.8741,-938.5022 374.9328,-937.5981"/>
</g>
<!-- hpp&#45;model&#45;&gt;assimp -->
<g id="edge17" class="edge">
<title>hpp&#45;model&#45;&gt;assimp</title>
<path fill="none" stroke="#000000" d="M531.298,-508.5468C501.834,-509.8682 464.2442,-511.341 430.7682,-512 381.0933,-512.9779 368.662,-512.2297 318.9781,-512 298.8589,-511.907 276.635,-511.7166 257.5934,-511.5267"/>
<polygon fill="#000000" stroke="#000000" points="257.4111,-508.0248 247.3757,-511.4219 257.3392,-515.0244 257.4111,-508.0248"/>
</g>
<!-- hpp&#45;model&#45;&gt;hpp&#45;fcl -->
<g id="edge21" class="edge">
<title>hpp&#45;model&#45;&gt;hpp&#45;fcl</title>
<path fill="none" stroke="#000000" d="M551.0275,-491.8266C513.5863,-475.2847 451.7675,-447.9726 412.2063,-430.4941"/>
<polygon fill="#000000" stroke="#000000" points="413.2178,-427.1147 402.6563,-426.2749 410.3889,-433.5176 413.2178,-427.1147"/>
</g>
<!-- hpp&#45;util&#45;git&#45;&gt;git -->
<g id="edge32" class="edge">
<title>hpp&#45;util&#45;git&#45;&gt;git</title>
<path fill="none" stroke="#000000" d="M343.1088,-951.4077C334.6758,-946.6152 325.9781,-940.7555 318.9781,-934 297.1469,-912.9312 305.8596,-895.9231 282.9781,-876 272.1908,-866.6074 258.205,-859.554 245.4229,-854.4938"/>
<polygon fill="#000000" stroke="#000000" points="246.5494,-851.1789 235.956,-851.0071 244.1301,-857.7476 246.5494,-851.1789"/>
</g>
<!-- hpp&#45;util&#45;git&#45;&gt;doxygen -->
<g id="edge30" class="edge">
<title>hpp&#45;util&#45;git&#45;&gt;doxygen</title>
<path fill="none" stroke="#000000" d="M339.5446,-979.5103C322.4655,-986.0277 301.6648,-993.9447 282.9781,-1001 273.3131,-1004.6491 262.9118,-1008.5545 253.0988,-1012.2292"/>
<polygon fill="#000000" stroke="#000000" points="251.6702,-1009.0266 243.5308,-1015.8089 254.1232,-1015.5828 251.6702,-1009.0266"/>
</g>
<!-- hpp&#45;util&#45;git&#45;&gt;cmake -->
<g id="edge31" class="edge">
<title>hpp&#45;util&#45;git&#45;&gt;cmake</title>
<path fill="none" stroke="#000000" d="M329.1048,-956.644C264.2684,-942.995 152.0225,-917.7563 138.6909,-904 89.3001,-853.0356 62.31,-631.0132 54.0871,-551.4765"/>
<polygon fill="#000000" stroke="#000000" points="57.5395,-550.8288 53.051,-541.2318 50.5751,-551.5333 57.5395,-550.8288"/>
</g>
<!-- tinyxml -->
<g id="node25" class="node">
<title>tinyxml</title>
<ellipse fill="none" stroke="#000000" cx="210.8345" cy="-974" rx="40.0939" ry="18"/>
<text text-anchor="middle" x="210.8345" y="-970.3" font-family="Times,serif" font-size="14.00" fill="#000000">tinyxml</text>
</g>
<!-- hpp&#45;util&#45;git&#45;&gt;tinyxml -->
<g id="edge34" class="edge">
<title>hpp&#45;util&#45;git&#45;&gt;tinyxml</title>
<path fill="none" stroke="#000000" d="M322.0673,-968.5753C302.5371,-969.5278 280.4648,-970.6042 261.1606,-971.5456"/>
<polygon fill="#000000" stroke="#000000" points="260.8691,-968.0556 251.0514,-972.0387 261.2101,-975.0473 260.8691,-968.0556"/>
</g>
<!-- hpp&#45;util&#45;git&#45;&gt;boost -->
<g id="edge33" class="edge">
<title>hpp&#45;util&#45;git&#45;&gt;boost</title>
<path fill="none" stroke="#000000" d="M347.7515,-950.3547C338.48,-944.7834 328.1413,-938.3196 318.9781,-932 302.2919,-920.4919 301.2917,-912.6876 282.9781,-904 223.5431,-875.8052 181.012,-921.3626 138.6909,-871 88.9442,-811.8009 128.8964,-248.7499 102.6909,-176 96.5888,-159.0597 84.8429,-142.769 74.1241,-130.2745"/>
<polygon fill="#000000" stroke="#000000" points="76.5738,-127.7633 67.2982,-122.6433 71.3564,-132.4302 76.5738,-127.7633"/>
</g>
<!-- pinocchio&#45;&gt;eigen32 -->
<g id="edge25" class="edge">
<title>pinocchio&#45;&gt;eigen32</title>
<path fill="none" stroke="#000000" d="M566.6097,-185.7385C522.9337,-142.1398 401.9701,-35.1827 318.9781,-95 277.9321,-124.5843 308.3242,-159.2099 282.9781,-203 270.4933,-224.5698 251.6362,-245.4855 236.332,-260.6588"/>
<polygon fill="#000000" stroke="#000000" points="233.8913,-258.1502 229.1479,-267.6239 238.7638,-263.176 233.8913,-258.1502"/>
</g>
<!-- pinocchio&#45;&gt;cmake -->
<g id="edge24" class="edge">
<title>pinocchio&#45;&gt;cmake</title>
<path fill="none" stroke="#000000" d="M569.5211,-185.2759C545.4249,-155.482 491.9426,-96.4216 430.7682,-74 308.5702,-29.2122 230.0839,-2.3414 138.6909,-95 83.6297,-150.8236 129.2204,-372.2153 102.6909,-446 95.7833,-465.2118 83.0836,-484.3215 72.0433,-498.6977"/>
<polygon fill="#000000" stroke="#000000" points="69.2633,-496.5705 65.791,-506.5802 74.7476,-500.9205 69.2633,-496.5705"/>
</g>
<!-- pinocchio&#45;&gt;metapod&#45;git -->
<g id="edge22" class="edge">
<title>pinocchio&#45;&gt;metapod&#45;git</title>
<path fill="none" stroke="#000000" d="M549.6513,-216.0141C514.5702,-229.66 459.2248,-251.1885 420.2298,-266.357"/>
<polygon fill="#000000" stroke="#000000" points="418.7412,-263.1805 410.6903,-270.0677 421.2789,-269.7043 418.7412,-263.1805"/>
</g>
<!-- pinocchio&#45;&gt;urdfdom -->
<g id="edge28" class="edge">
<title>pinocchio&#45;&gt;urdfdom</title>
<path fill="none" stroke="#000000" d="M537.4099,-197.0747C504.7521,-192.8403 460.7568,-187.1358 426.7746,-182.7296"/>
<polygon fill="#000000" stroke="#000000" points="426.9406,-179.2219 416.5735,-181.4069 426.0404,-186.1638 426.9406,-179.2219"/>
</g>
<!-- pinocchio&#45;&gt;eigenpy -->
<g id="edge27" class="edge">
<title>pinocchio&#45;&gt;eigenpy</title>
<path fill="none" stroke="#000000" d="M549.6513,-189.9859C512.9804,-175.7216 454.167,-152.8441 415.0324,-137.6213"/>
<polygon fill="#000000" stroke="#000000" points="416.121,-134.2894 405.5324,-133.926 413.5833,-140.8132 416.121,-134.2894"/>
</g>
<!-- pinocchio&#45;&gt;lua51 -->
<g id="edge23" class="edge">
<title>pinocchio&#45;&gt;lua51</title>
<path fill="none" stroke="#000000" d="M537.4099,-208.9253C501.2802,-213.6099 451.2742,-220.0937 416.3016,-224.6283"/>
<polygon fill="#000000" stroke="#000000" points="415.4296,-221.212 405.9627,-225.9689 416.3298,-228.1539 415.4296,-221.212"/>
</g>
<!-- pinocchio&#45;&gt;hpp&#45;fcl -->
<g id="edge26" class="edge">
<title>pinocchio&#45;&gt;hpp&#45;fcl</title>
<path fill="none" stroke="#000000" d="M554.5933,-217.7435C529.5828,-231.5843 493.187,-254.0124 466.7682,-280 433.7043,-312.5242 405.206,-358.5432 389.047,-387.3078"/>
<polygon fill="#000000" stroke="#000000" points="385.8203,-385.9107 384.0512,-396.3568 391.9484,-389.294 385.8203,-385.9107"/>
</g>
<!-- hpp&#45;model&#45;urdf&#45;&gt;ros&#45;indigo&#45;resource&#45;retriever -->
<g id="edge59" class="edge">
<title>hpp&#45;model&#45;urdf&#45;&gt;ros&#45;indigo&#45;resource&#45;retriever</title>
<path fill="none" stroke="#000000" d="M798.9582,-739.7926C780.5757,-759.1827 752.2272,-791.8852 735.4475,-825 708.3493,-878.4786 742.7233,-913.5093 699.4475,-955 694.8311,-959.426 689.6383,-963.1774 684.075,-966.3525"/>
<polygon fill="#000000" stroke="#000000" points="682.4225,-963.2658 675.0572,-970.8818 685.5643,-969.5211 682.4225,-963.2658"/>
</g>
<!-- hpp&#45;model&#45;urdf&#45;&gt;ros&#45;indigo&#45;urdfdom -->
<g id="edge61" class="edge">
<title>hpp&#45;model&#45;urdf&#45;&gt;ros&#45;indigo&#45;urdfdom</title>
<path fill="none" stroke="#000000" d="M766.8675,-734.7979C731.9371,-743.7704 684.9354,-755.8437 647.2119,-765.5337"/>
<polygon fill="#000000" stroke="#000000" points="646.1511,-762.1925 637.3363,-768.0704 647.8927,-768.9724 646.1511,-762.1925"/>
</g>
<!-- hpp&#45;model&#45;urdf&#45;&gt;ros&#45;indigo&#45;catkin -->
<g id="edge55" class="edge">
<title>hpp&#45;model&#45;urdf&#45;&gt;ros&#45;indigo&#45;catkin</title>
<path fill="none" stroke="#000000" d="M803.1767,-739.8476C777.7153,-773.1955 723.0766,-843.3658 699.4475,-863 677.9424,-880.8693 650.8149,-896.3527 628.1657,-907.7207"/>
<polygon fill="#000000" stroke="#000000" points="626.5183,-904.6304 619.0855,-912.1806 629.6043,-910.9135 626.5183,-904.6304"/>
</g>
<!-- hpp&#45;model&#45;urdf&#45;&gt;cmake -->
<g id="edge53" class="edge">
<title>hpp&#45;model&#45;urdf&#45;&gt;cmake</title>
<path fill="none" stroke="#000000" d="M789.2896,-705.1916C766.1584,-691.7546 731.739,-673.4885 699.4475,-663 599.7896,-630.6305 569.7146,-644.5325 466.7682,-625 320.1955,-597.1901 282.188,-594.8107 138.6909,-554 122.059,-549.2699 103.9994,-543.0485 88.6414,-537.4213"/>
<polygon fill="#000000" stroke="#000000" points="89.5741,-534.0341 78.9812,-533.8308 87.1354,-540.5955 89.5741,-534.0341"/>
</g>
<!-- hpp&#45;model&#45;urdf&#45;&gt;ros&#45;indigo&#45;urdf -->
<g id="edge60" class="edge">
<title>hpp&#45;model&#45;urdf&#45;&gt;ros&#45;indigo&#45;urdf</title>
<path fill="none" stroke="#000000" d="M754.7077,-713.5086C723.6086,-709.2481 685.8041,-704.069 653.6023,-699.6575"/>
<polygon fill="#000000" stroke="#000000" points="653.7421,-696.144 643.3596,-698.2543 652.792,-703.0793 653.7421,-696.144"/>
</g>
<!-- hpp&#45;model&#45;urdf&#45;&gt;ros&#45;build&#45;tools -->
<g id="edge54" class="edge">
<title>hpp&#45;model&#45;urdf&#45;&gt;ros&#45;build&#45;tools</title>
<path fill="none" stroke="#000000" d="M768.8989,-735.2074C757.1762,-739.9006 745.2056,-746.0568 735.4475,-754 712.7899,-772.4435 723.3998,-792.2722 699.4475,-809 686.5485,-818.0084 671.0752,-824.0486 655.6868,-828.0888"/>
<polygon fill="#000000" stroke="#000000" points="654.5432,-824.7625 645.6146,-830.4661 656.1513,-831.5753 654.5432,-824.7625"/>
</g>
<!-- hpp&#45;model&#45;urdf&#45;&gt;hpp&#45;model -->
<g id="edge58" class="edge">
<title>hpp&#45;model&#45;urdf&#45;&gt;hpp&#45;model</title>
<path fill="none" stroke="#000000" d="M803.3703,-704.1884C786.7117,-681.6124 757.6797,-641.2617 735.4475,-605 717.7786,-576.1812 725.8791,-559.0734 699.4475,-538 683.4038,-525.2086 662.6054,-517.521 643.0395,-512.9041"/>
<polygon fill="#000000" stroke="#000000" points="643.7672,-509.4807 633.257,-510.8172 642.3067,-516.3266 643.7672,-509.4807"/>
</g>
<!-- hpp&#45;model&#45;urdf&#45;&gt;hpp&#45;util&#45;git -->
<g id="edge57" class="edge">
<title>hpp&#45;model&#45;urdf&#45;&gt;hpp&#45;util&#45;git</title>
<path fill="none" stroke="#000000" d="M746.749,-720.4115C657.6469,-719.7544 510.0037,-723.672 466.7682,-755 406.285,-798.8254 385.1334,-891.158 378.1229,-937.7859"/>
<polygon fill="#000000" stroke="#000000" points="374.6403,-937.419 376.7302,-947.8056 381.5737,-938.3828 374.6403,-937.419"/>
</g>
<!-- hpp&#45;model&#45;urdf&#45;&gt;assimp -->
<g id="edge56" class="edge">
<title>hpp&#45;model&#45;urdf&#45;&gt;assimp</title>
<path fill="none" stroke="#000000" d="M797.901,-704.4548C780.491,-687.6312 754.4874,-661.0157 735.4475,-635 716.1732,-608.664 726.6243,-589.0696 699.4475,-571 628.5717,-523.8755 403.361,-538.1187 318.9781,-527 298.243,-524.2678 275.3211,-520.9232 255.937,-517.9996"/>
<polygon fill="#000000" stroke="#000000" points="256.2737,-514.5107 245.8617,-516.4701 255.2231,-521.4314 256.2737,-514.5107"/>
</g>
<!-- ros&#45;indigo&#45;srdfdom -->
<g id="node33" class="node">
<title>ros&#45;indigo&#45;srdfdom</title>
<ellipse fill="none" stroke="#000000" cx="583.1078" cy="-598" rx="83.3857" ry="18"/>
<text text-anchor="middle" x="583.1078" y="-594.3" font-family="Times,serif" font-size="14.00" fill="#000000">ros&#45;indigo&#45;srdfdom</text>
</g>
<!-- hpp&#45;model&#45;urdf&#45;&gt;ros&#45;indigo&#45;srdfdom -->
<g id="edge62" class="edge">
<title>hpp&#45;model&#45;urdf&#45;&gt;ros&#45;indigo&#45;srdfdom</title>
<path fill="none" stroke="#000000" d="M799.1839,-704.5308C777.5385,-683.8715 738.7247,-649.7975 699.4475,-630 685.5605,-623.0003 669.944,-617.3692 654.769,-612.9017"/>
<polygon fill="#000000" stroke="#000000" points="655.4568,-609.4596 644.8832,-610.1312 653.5677,-616.2 655.4568,-609.4596"/>
</g>
<!-- eigenpy&#45;&gt;eigen32 -->
<g id="edge69" class="edge">
<title>eigenpy&#45;&gt;eigen32</title>
<path fill="none" stroke="#000000" d="M343.4924,-133.5761C334.9703,-137.6358 326.1304,-142.7724 318.9781,-149 297.2243,-167.9412 300.6133,-180.1746 282.9781,-203 267.6832,-222.7963 248.8352,-243.8588 234.2403,-259.5426"/>
<polygon fill="#000000" stroke="#000000" points="231.3277,-257.5316 227.0371,-267.2188 236.4323,-262.3216 231.3277,-257.5316"/>
</g>
<!-- eigenpy&#45;&gt;doxygen -->
<g id="edge67" class="edge">
<title>eigenpy&#45;&gt;doxygen</title>
<path fill="none" stroke="#000000" d="M340.3988,-131.6603C332.0474,-135.667 324.069,-141.2553 318.9781,-149 266.9322,-228.177 338.6051,-924.2966 282.9781,-1001 277.5582,-1008.4734 269.8156,-1013.8795 261.3969,-1017.79"/>
<polygon fill="#000000" stroke="#000000" points="260.0887,-1014.5435 252.0743,-1021.4732 262.6609,-1021.0538 260.0887,-1014.5435"/>
</g>
<!-- eigenpy&#45;&gt;boost&#45;libs -->
<g id="edge72" class="edge">
<title>eigenpy&#45;&gt;boost&#45;libs</title>
<path fill="none" stroke="#000000" d="M334.3242,-122C314.5033,-122 290.2975,-122 268.5852,-122"/>
<polygon fill="#000000" stroke="#000000" points="268.4844,-118.5001 258.4844,-122 268.4843,-125.5001 268.4844,-118.5001"/>
</g>
<!-- eigenpy&#45;&gt;cmake -->
<g id="edge68" class="edge">
<title>eigenpy&#45;&gt;cmake</title>
<path fill="none" stroke="#000000" d="M341.5665,-132.1543C333.1183,-136.1767 324.7984,-141.6495 318.9781,-149 273.1917,-206.8239 333.2487,-257.029 282.9781,-311 237.3706,-359.9647 187.9371,-308.6965 138.6909,-354 106.3767,-383.727 122.988,-407.0651 102.6909,-446 93.28,-464.0524 80.6071,-483.0972 70.2064,-497.7299"/>
<polygon fill="#000000" stroke="#000000" points="67.0907,-496.0662 64.0736,-506.2224 72.7656,-500.1644 67.0907,-496.0662"/>
</g>
<!-- eigenpy&#45;&gt;python2&#45;numpy -->
<g id="edge71" class="edge">
<title>eigenpy&#45;&gt;python2&#45;numpy</title>
<path fill="none" stroke="#000000" d="M342.0717,-132.7979C319.77,-140.1394 289.7644,-150.017 264.0732,-158.4743"/>
<polygon fill="#000000" stroke="#000000" points="262.8673,-155.1864 254.4632,-161.6378 265.0561,-161.8354 262.8673,-155.1864"/>
</g>
<!-- eigenpy&#45;&gt;boost -->
<g id="edge70" class="edge">
<title>eigenpy&#45;&gt;boost</title>
<path fill="none" stroke="#000000" d="M343.4726,-110.3506C325.9434,-104.4665 303.5517,-97.9599 282.9781,-95 216.2789,-85.4043 137.8024,-93.4814 91.4469,-100.2267"/>
<polygon fill="#000000" stroke="#000000" points="90.8661,-96.7746 81.4994,-101.7261 91.9094,-103.6964 90.8661,-96.7746"/>
</g>
<!-- hpp&#45;fcl&#45;&gt;eigen32 -->
<g id="edge36" class="edge">
<title>hpp&#45;fcl&#45;&gt;eigen32</title>
<path fill="none" stroke="#000000" d="M355.4116,-398.5768C326.4638,-375.6358 271.9197,-332.4098 238.7313,-306.1081"/>
<polygon fill="#000000" stroke="#000000" points="240.7935,-303.2766 230.7823,-299.8086 236.4457,-308.7627 240.7935,-303.2766"/>
</g>
<!-- hpp&#45;fcl&#45;&gt;cmake -->
<g id="edge35" class="edge">
<title>hpp&#45;fcl&#45;&gt;cmake</title>
<path fill="none" stroke="#000000" d="M341.1725,-422.4882C294.9338,-434.4723 209.493,-457.8308 138.6909,-484 121.0182,-490.532 101.8546,-498.9342 85.9926,-506.266"/>
<polygon fill="#000000" stroke="#000000" points="84.1607,-503.2588 76.5858,-510.6664 87.1268,-509.5994 84.1607,-503.2588"/>
</g>
<!-- hpp&#45;fcl&#45;&gt;assimp -->
<g id="edge37" class="edge">
<title>hpp&#45;fcl&#45;&gt;assimp</title>
<path fill="none" stroke="#000000" d="M350.3208,-427.9069C340.5414,-433.485 329.2012,-440.0022 318.9781,-446 293.1882,-461.1306 264.155,-478.6057 242.6693,-491.6234"/>
<polygon fill="#000000" stroke="#000000" points="240.6895,-488.7308 233.9548,-496.9097 244.32,-494.7157 240.6895,-488.7308"/>
</g>
</g>
</svg>
