<?xml version="1.0" encoding="UTF-8" standalone="no"?>
<!DOCTYPE svg PUBLIC "-//W3C//DTD SVG 1.1//EN"
 "http://www.w3.org/Graphics/SVG/1.1/DTD/svg11.dtd">
<!-- Generated by graphviz version 2.40.1 (20161225.0304)
 -->
<!-- Title: dependencies Pages: 1 -->
<svg width="1301pt" height="1988pt"
 viewBox="0.00 0.00 1300.70 1988.31" xmlns="http://www.w3.org/2000/svg" xmlns:xlink="http://www.w3.org/1999/xlink">
<g id="graph0" class="graph" transform="scale(1 1) rotate(0) translate(4 1984.3134)">
<title>dependencies</title>
<polygon fill="#ffffff" stroke="transparent" points="-4,4 -4,-1984.3134 1296.7013,-1984.3134 1296.7013,4 -4,4"/>
<!-- boost&#45;libs -->
<g id="node1" class="node">
<title>boost&#45;libs</title>
<ellipse fill="none" stroke="#000000" cx="219.9337" cy="-1578.8031" rx="55.7903" ry="18"/>
<text text-anchor="middle" x="219.9337" y="-1575.1031" font-family="Times,serif" font-size="14.00" fill="#000000">boost&#45;libs</text>
</g>
<!-- openscenegraph&#45;qt4 -->
<g id="node2" class="node">
<title>openscenegraph&#45;qt4</title>
<ellipse fill="none" stroke="#000000" cx="452.2163" cy="-260.8031" rx="105.8812" ry="18"/>
<text text-anchor="middle" x="452.2163" y="-257.1031" font-family="Times,serif" font-size="14.00" fill="#000000">openscenegraph&#45;qt4</text>
</g>
<!-- hpp&#45;model -->
<g id="node3" class="node">
<title>hpp&#45;model</title>
<ellipse fill="none" stroke="#000000" cx="690.3483" cy="-1474.8031" rx="59.5901" ry="18"/>
<text text-anchor="middle" x="690.3483" y="-1471.1031" font-family="Times,serif" font-size="14.00" fill="#000000">hpp&#45;model</text>
</g>
<!-- cmake -->
<g id="node6" class="node">
<title>cmake</title>
<ellipse fill="none" stroke="#000000" cx="46.7958" cy="-1053.8031" rx="41.6928" ry="18"/>
<text text-anchor="middle" x="46.7958" y="-1050.1031" font-family="Times,serif" font-size="14.00" fill="#000000">cmake</text>
</g>
<!-- hpp&#45;model&#45;&gt;cmake -->
<g id="edge117" class="edge">
<title>hpp&#45;model&#45;&gt;cmake</title>
<path fill="none" stroke="#000000" d="M632.4789,-1479.6184C618.0241,-1483.597 603.8872,-1490.3824 594.1569,-1501.8031 503.0582,-1608.7273 651.5751,-1710.8994 558.1569,-1815.8031 494.2431,-1887.5748 200.8799,-1938.2557 129.5917,-1873.8031 69.5263,-1819.4971 50.9485,-1220.0663 47.4526,-1082.0332"/>
<polygon fill="#000000" stroke="#000000" points="50.9471,-1081.7645 47.2013,-1071.854 43.9493,-1081.9374 50.9471,-1081.7645"/>
</g>
<!-- hpp&#45;util&#45;git -->
<g id="node8" class="node">
<title>hpp&#45;util&#45;git</title>
<ellipse fill="none" stroke="#000000" cx="452.2163" cy="-732.8031" rx="62.2891" ry="18"/>
<text text-anchor="middle" x="452.2163" y="-729.1031" font-family="Times,serif" font-size="14.00" fill="#000000">hpp&#45;util&#45;git</text>
</g>
<!-- hpp&#45;model&#45;&gt;hpp&#45;util&#45;git -->
<g id="edge119" class="edge">
<title>hpp&#45;model&#45;&gt;hpp&#45;util&#45;git</title>
<path fill="none" stroke="#000000" d="M673.8359,-1457.3821C651.2419,-1432.3221 611.5195,-1383.6103 594.1569,-1333.8031 521.1104,-1124.2591 651.8369,-1036.9709 558.1569,-835.8031 542.5607,-802.3119 510.9832,-773.9047 486.3419,-755.461"/>
<polygon fill="#000000" stroke="#000000" points="488.099,-752.4112 477.9528,-749.3607 483.9822,-758.0726 488.099,-752.4112"/>
</g>
<!-- eigen32 -->
<g id="node9" class="node">
<title>eigen32</title>
<ellipse fill="none" stroke="#000000" cx="452.2163" cy="-1290.8031" rx="48.1917" ry="18"/>
<text text-anchor="middle" x="452.2163" y="-1287.1031" font-family="Times,serif" font-size="14.00" fill="#000000">eigen32</text>
</g>
<!-- hpp&#45;model&#45;&gt;eigen32 -->
<g id="edge118" class="edge">
<title>hpp&#45;model&#45;&gt;eigen32</title>
<path fill="none" stroke="#000000" d="M672.8613,-1457.1455C648.3743,-1432.8794 601.9431,-1388.5147 558.1569,-1355.8031 536.0208,-1339.2657 509.5234,-1323.0094 488.5662,-1310.8905"/>
<polygon fill="#000000" stroke="#000000" points="490.0763,-1307.7223 479.6583,-1305.7948 486.6005,-1313.7983 490.0763,-1307.7223"/>
</g>
<!-- hpp&#45;fcl -->
<g id="node19" class="node">
<title>hpp&#45;fcl</title>
<ellipse fill="none" stroke="#000000" cx="452.2163" cy="-1788.8031" rx="42.7926" ry="18"/>
<text text-anchor="middle" x="452.2163" y="-1785.1031" font-family="Times,serif" font-size="14.00" fill="#000000">hpp&#45;fcl</text>
</g>
<!-- hpp&#45;model&#45;&gt;hpp&#45;fcl -->
<g id="edge120" class="edge">
<title>hpp&#45;model&#45;&gt;hpp&#45;fcl</title>
<path fill="none" stroke="#000000" d="M632.6738,-1479.7866C618.2204,-1483.7664 604.0354,-1490.5103 594.1569,-1501.8031 518.7976,-1587.9508 632.6642,-1669.9175 558.1569,-1756.8031 544.8969,-1772.2659 524.4499,-1780.4096 505.043,-1784.6443"/>
<polygon fill="#000000" stroke="#000000" points="504.2168,-1781.2382 495.0328,-1786.5206 505.5064,-1788.1184 504.2168,-1781.2382"/>
</g>
<!-- assimp -->
<g id="node32" class="node">
<title>assimp</title>
<ellipse fill="none" stroke="#000000" cx="219.9337" cy="-1816.8031" rx="43.5923" ry="18"/>
<text text-anchor="middle" x="219.9337" y="-1813.1031" font-family="Times,serif" font-size="14.00" fill="#000000">assimp</text>
</g>
<!-- hpp&#45;model&#45;&gt;assimp -->
<g id="edge116" class="edge">
<title>hpp&#45;model&#45;&gt;assimp</title>
<path fill="none" stroke="#000000" d="M633.1005,-1480.1711C618.6501,-1484.1535 604.3599,-1490.8026 594.1569,-1501.8031 538.9731,-1561.2996 610.5619,-1618.845 558.1569,-1680.8031 493.0507,-1757.7775 434.1096,-1712.3149 346.2757,-1761.8031 328.616,-1771.753 328.2947,-1780.5198 310.2757,-1789.8031 297.3948,-1796.4392 282.6207,-1801.7142 268.8026,-1805.776"/>
<polygon fill="#000000" stroke="#000000" points="267.6441,-1802.4654 258.9506,-1808.5212 269.5232,-1809.2085 267.6441,-1802.4654"/>
</g>
<!-- suitesparse -->
<g id="node4" class="node">
<title>suitesparse</title>
<ellipse fill="none" stroke="#000000" cx="219.9337" cy="-1486.8031" rx="64.189" ry="18"/>
<text text-anchor="middle" x="219.9337" y="-1483.1031" font-family="Times,serif" font-size="14.00" fill="#000000">suitesparse</text>
</g>
<!-- omniorbpy -->
<g id="node5" class="node">
<title>omniorbpy</title>
<ellipse fill="none" stroke="#000000" cx="690.3483" cy="-188.8031" rx="60.3893" ry="18"/>
<text text-anchor="middle" x="690.3483" y="-185.1031" font-family="Times,serif" font-size="14.00" fill="#000000">omniorbpy</text>
</g>
<!-- lua51 -->
<g id="node7" class="node">
<title>lua51</title>
<ellipse fill="none" stroke="#000000" cx="452.2163" cy="-1582.8031" rx="36.2938" ry="18"/>
<text text-anchor="middle" x="452.2163" y="-1579.1031" font-family="Times,serif" font-size="14.00" fill="#000000">lua51</text>
</g>
<!-- hpp&#45;util&#45;git&#45;&gt;cmake -->
<g id="edge44" class="edge">
<title>hpp&#45;util&#45;git&#45;&gt;cmake</title>
<path fill="none" stroke="#000000" d="M404.7026,-721.1161C334.866,-707.0385 204.679,-693.0797 129.5917,-761.8031 62.9667,-822.7813 122.3725,-876.1941 93.5917,-961.8031 85.8114,-984.9458 73.0572,-1009.5146 62.8275,-1027.4359"/>
<polygon fill="#000000" stroke="#000000" points="59.7556,-1025.756 57.7479,-1036.1589 65.8047,-1029.2786 59.7556,-1025.756"/>
</g>
<!-- git -->
<g id="node24" class="node">
<title>git</title>
<ellipse fill="none" stroke="#000000" cx="219.9337" cy="-401.8031" rx="27" ry="18"/>
<text text-anchor="middle" x="219.9337" y="-398.1031" font-family="Times,serif" font-size="14.00" fill="#000000">git</text>
</g>
<!-- hpp&#45;util&#45;git&#45;&gt;git -->
<g id="edge45" class="edge">
<title>hpp&#45;util&#45;git&#45;&gt;git</title>
<path fill="none" stroke="#000000" d="M439.7277,-715.0071C400.9376,-659.7316 282.4487,-490.8862 237.4871,-426.8165"/>
<polygon fill="#000000" stroke="#000000" points="240.256,-424.6691 231.6467,-418.494 234.5261,-428.6901 240.256,-424.6691"/>
</g>
<!-- boost -->
<g id="node25" class="node">
<title>boost</title>
<ellipse fill="none" stroke="#000000" cx="219.9337" cy="-788.8031" rx="36.2938" ry="18"/>
<text text-anchor="middle" x="219.9337" y="-785.1031" font-family="Times,serif" font-size="14.00" fill="#000000">boost</text>
</g>
<!-- hpp&#45;util&#45;git&#45;&gt;boost -->
<g id="edge46" class="edge">
<title>hpp&#45;util&#45;git&#45;&gt;boost</title>
<path fill="none" stroke="#000000" d="M404.0872,-744.4063C362.3136,-754.4773 302.4152,-768.9179 262.3963,-778.5659"/>
<polygon fill="#000000" stroke="#000000" points="261.5746,-775.1637 252.6735,-780.91 263.2153,-781.9687 261.5746,-775.1637"/>
</g>
<!-- doxygen -->
<g id="node37" class="node">
<title>doxygen</title>
<ellipse fill="none" stroke="#000000" cx="219.9337" cy="-674.8031" rx="50.0912" ry="18"/>
<text text-anchor="middle" x="219.9337" y="-671.1031" font-family="Times,serif" font-size="14.00" fill="#000000">doxygen</text>
</g>
<!-- hpp&#45;util&#45;git&#45;&gt;doxygen -->
<g id="edge43" class="edge">
<title>hpp&#45;util&#45;git&#45;&gt;doxygen</title>
<path fill="none" stroke="#000000" d="M404.9304,-720.996C366.0437,-711.2861 311.039,-697.5517 271.1221,-687.5846"/>
<polygon fill="#000000" stroke="#000000" points="271.8679,-684.1634 261.3178,-685.1365 270.172,-690.9549 271.8679,-684.1634"/>
</g>
<!-- tinyxml -->
<g id="node40" class="node">
<title>tinyxml</title>
<ellipse fill="none" stroke="#000000" cx="219.9337" cy="-880.8031" rx="46.2923" ry="18"/>
<text text-anchor="middle" x="219.9337" y="-877.1031" font-family="Times,serif" font-size="14.00" fill="#000000">tinyxml</text>
</g>
<!-- hpp&#45;util&#45;git&#45;&gt;tinyxml -->
<g id="edge47" class="edge">
<title>hpp&#45;util&#45;git&#45;&gt;tinyxml</title>
<path fill="none" stroke="#000000" d="M426.4705,-749.2071C383.9695,-776.2868 299.2029,-830.2963 252.5651,-860.0118"/>
<polygon fill="#000000" stroke="#000000" points="250.5973,-857.1154 244.0445,-865.4407 254.3588,-863.019 250.5973,-857.1154"/>
</g>
<!-- eigen32&#45;&gt;suitesparse -->
<g id="edge72" class="edge">
<title>eigen32&#45;&gt;suitesparse</title>
<path fill="none" stroke="#000000" d="M405.1618,-1294.7571C384.5488,-1298.8249 361.6126,-1306.8978 346.2757,-1322.8031 302.5761,-1368.122 354.0415,-1414.5482 310.2757,-1459.8031 303.9242,-1466.3706 296.0481,-1471.3579 287.614,-1475.1417"/>
<polygon fill="#000000" stroke="#000000" points="286.3244,-1471.8878 278.2889,-1478.793 288.8767,-1478.406 286.3244,-1471.8878"/>
</g>
<!-- eigen32&#45;&gt;cmake -->
<g id="edge67" class="edge">
<title>eigen32&#45;&gt;cmake</title>
<path fill="none" stroke="#000000" d="M404.0368,-1292.124C324.8584,-1293.3369 171.778,-1291.358 129.5917,-1259.8031 72.1569,-1216.8424 54.4729,-1127.4945 49.0976,-1081.8943"/>
<polygon fill="#000000" stroke="#000000" points="52.564,-1081.3918 48.028,-1071.8171 45.6031,-1082.1307 52.564,-1081.3918"/>
</g>
<!-- gcc&#45;fortran -->
<g id="node11" class="node">
<title>gcc&#45;fortran</title>
<ellipse fill="none" stroke="#000000" cx="219.9337" cy="-1432.8031" rx="63.0888" ry="18"/>
<text text-anchor="middle" x="219.9337" y="-1429.1031" font-family="Times,serif" font-size="14.00" fill="#000000">gcc&#45;fortran</text>
</g>
<!-- eigen32&#45;&gt;gcc&#45;fortran -->
<g id="edge69" class="edge">
<title>eigen32&#45;&gt;gcc&#45;fortran</title>
<path fill="none" stroke="#000000" d="M405.9564,-1295.9171C385.6322,-1300.2301 362.7062,-1308.1744 346.2757,-1322.8031 316.2443,-1349.5408 340.3461,-1379.1093 310.2757,-1405.8031 303.0977,-1412.175 294.4688,-1417.0444 285.4299,-1420.7654"/>
<polygon fill="#000000" stroke="#000000" points="284.0992,-1417.5252 275.9058,-1424.2422 286.4997,-1424.1008 284.0992,-1417.5252"/>
</g>
<!-- eigen32&#45;&gt;boost -->
<g id="edge73" class="edge">
<title>eigen32&#45;&gt;boost</title>
<path fill="none" stroke="#000000" d="M438.5079,-1273.1877C415.3194,-1242.3821 368.6931,-1175.8843 346.2757,-1111.8031 308.0453,-1002.5196 370.0863,-952.9349 310.2757,-853.8031 297.6085,-832.8082 275.3001,-816.6556 256.0217,-805.7037"/>
<polygon fill="#000000" stroke="#000000" points="257.6005,-802.5785 247.1406,-800.8931 254.2665,-808.7335 257.6005,-802.5785"/>
</g>
<!-- fftw -->
<g id="node31" class="node">
<title>fftw</title>
<ellipse fill="none" stroke="#000000" cx="219.9337" cy="-1378.8031" rx="29.4969" ry="18"/>
<text text-anchor="middle" x="219.9337" y="-1375.1031" font-family="Times,serif" font-size="14.00" fill="#000000">fftw</text>
</g>
<!-- eigen32&#45;&gt;fftw -->
<g id="edge70" class="edge">
<title>eigen32&#45;&gt;fftw</title>
<path fill="none" stroke="#000000" d="M410.0168,-1299.5786C389.992,-1304.7225 366.155,-1312.3084 346.2757,-1322.8031 328.1065,-1332.3949 328.4589,-1342.2378 310.2757,-1351.8031 293.959,-1360.3864 274.5136,-1366.6432 257.8503,-1370.9593"/>
<polygon fill="#000000" stroke="#000000" points="256.7678,-1367.6208 247.8875,-1373.3993 258.4331,-1374.4199 256.7678,-1367.6208"/>
</g>
<!-- qt4 -->
<g id="node44" class="node">
<title>qt4</title>
<ellipse fill="none" stroke="#000000" cx="219.9337" cy="-1232.8031" rx="27" ry="18"/>
<text text-anchor="middle" x="219.9337" y="-1229.1031" font-family="Times,serif" font-size="14.00" fill="#000000">qt4</text>
</g>
<!-- eigen32&#45;&gt;qt4 -->
<g id="edge66" class="edge">
<title>eigen32&#45;&gt;qt4</title>
<path fill="none" stroke="#000000" d="M418.9358,-1277.5925C375.9915,-1264.4702 301.5094,-1245.8075 256.8616,-1236.9288"/>
<polygon fill="#000000" stroke="#000000" points="257.4802,-1233.4838 247.0002,-1235.0394 256.1629,-1240.3587 257.4802,-1233.4838"/>
</g>
<!-- eigen32&#45;&gt;qt4 -->
<g id="edge71" class="edge">
<title>eigen32&#45;&gt;qt4</title>
<path fill="none" stroke="#000000" d="M406.6018,-1284.9057C361.0484,-1275.4038 292.1982,-1257.9936 252.0845,-1245.6675"/>
<polygon fill="#000000" stroke="#000000" points="253.1267,-1242.3263 242.5369,-1242.6512 251.018,-1249.0011 253.1267,-1242.3263"/>
</g>
<!-- freeglut -->
<g id="node45" class="node">
<title>freeglut</title>
<ellipse fill="none" stroke="#000000" cx="219.9337" cy="-1324.8031" rx="48.1917" ry="18"/>
<text text-anchor="middle" x="219.9337" y="-1321.1031" font-family="Times,serif" font-size="14.00" fill="#000000">freeglut</text>
</g>
<!-- eigen32&#45;&gt;freeglut -->
<g id="edge68" class="edge">
<title>eigen32&#45;&gt;freeglut</title>
<path fill="none" stroke="#000000" d="M407.1544,-1297.3989C369.3292,-1302.9355 315.1602,-1310.8644 274.812,-1316.7703"/>
<polygon fill="#000000" stroke="#000000" points="274.2577,-1313.3141 264.8701,-1318.2256 275.2716,-1320.2403 274.2577,-1313.3141"/>
</g>
<!-- hpp&#45;fcl&#45;git -->
<g id="node10" class="node">
<title>hpp&#45;fcl&#45;git</title>
<ellipse fill="none" stroke="#000000" cx="452.2163" cy="-1436.8031" rx="58.4896" ry="18"/>
<text text-anchor="middle" x="452.2163" y="-1433.1031" font-family="Times,serif" font-size="14.00" fill="#000000">hpp&#45;fcl&#45;git</text>
</g>
<!-- hpp&#45;fcl&#45;git&#45;&gt;cmake -->
<g id="edge57" class="edge">
<title>hpp&#45;fcl&#45;git&#45;&gt;cmake</title>
<path fill="none" stroke="#000000" d="M395.9486,-1441.9172C377.6577,-1446.3665 358.8532,-1454.4062 346.2757,-1468.8031 279.6467,-1545.0696 387.3352,-1628.0929 310.2757,-1693.8031 249.171,-1745.9082 189.9079,-1746.8189 129.5917,-1693.8031 82.8228,-1652.6948 54.8443,-1200.3498 48.2903,-1082.0025"/>
<polygon fill="#000000" stroke="#000000" points="51.7797,-1081.7119 47.7392,-1071.9179 44.7902,-1082.094 51.7797,-1081.7119"/>
</g>
<!-- hpp&#45;fcl&#45;git&#45;&gt;assimp -->
<g id="edge59" class="edge">
<title>hpp&#45;fcl&#45;git&#45;&gt;assimp</title>
<path fill="none" stroke="#000000" d="M395.5657,-1441.5905C377.2401,-1446.0102 358.5117,-1454.1148 346.2757,-1468.8031 254.3888,-1579.1053 402.3238,-1679.6354 310.2757,-1789.8031 300.9851,-1800.9225 287.3185,-1807.5804 273.4129,-1811.5328"/>
<polygon fill="#000000" stroke="#000000" points="272.212,-1808.2215 263.3043,-1813.9576 273.8449,-1815.0284 272.212,-1808.2215"/>
</g>
<!-- eigen -->
<g id="node39" class="node">
<title>eigen</title>
<ellipse fill="none" stroke="#000000" cx="219.9337" cy="-1762.8031" rx="36.2938" ry="18"/>
<text text-anchor="middle" x="219.9337" y="-1759.1031" font-family="Times,serif" font-size="14.00" fill="#000000">eigen</text>
</g>
<!-- hpp&#45;fcl&#45;git&#45;&gt;eigen -->
<g id="edge58" class="edge">
<title>hpp&#45;fcl&#45;git&#45;&gt;eigen</title>
<path fill="none" stroke="#000000" d="M395.7693,-1441.7623C377.4622,-1446.1976 358.6933,-1454.2681 346.2757,-1468.8031 269.9277,-1558.1691 384.4991,-1639.6648 310.2757,-1730.8031 299.3119,-1744.2654 282.2769,-1752.0696 265.9414,-1756.5917"/>
<polygon fill="#000000" stroke="#000000" points="264.8239,-1753.2606 255.9211,-1759.0044 266.4626,-1760.0661 264.8239,-1753.2606"/>
</g>
<!-- urdfdom&#45;headers -->
<g id="node12" class="node">
<title>urdfdom&#45;headers</title>
<ellipse fill="none" stroke="#000000" cx="219.9337" cy="-988.8031" rx="90.1842" ry="18"/>
<text text-anchor="middle" x="219.9337" y="-985.1031" font-family="Times,serif" font-size="14.00" fill="#000000">urdfdom&#45;headers</text>
</g>
<!-- urdfdom&#45;headers&#45;&gt;cmake -->
<g id="edge42" class="edge">
<title>urdfdom&#45;headers&#45;&gt;cmake</title>
<path fill="none" stroke="#000000" d="M174.7749,-1004.4115C160.2998,-1009.518 144.2308,-1015.2954 129.5917,-1020.8031 115.6067,-1026.0646 100.3919,-1032.052 86.8648,-1037.4692"/>
<polygon fill="#000000" stroke="#000000" points="85.3264,-1034.3153 77.355,-1041.2943 87.9387,-1040.8097 85.3264,-1034.3153"/>
</g>
<!-- curl -->
<g id="node13" class="node">
<title>curl</title>
<ellipse fill="none" stroke="#000000" cx="452.2163" cy="-862.8031" rx="29.4969" ry="18"/>
<text text-anchor="middle" x="452.2163" y="-859.1031" font-family="Times,serif" font-size="14.00" fill="#000000">curl</text>
</g>
<!-- pinocchio&#45;git -->
<g id="node14" class="node">
<title>pinocchio&#45;git</title>
<ellipse fill="none" stroke="#000000" cx="690.3483" cy="-1306.8031" rx="71.4873" ry="18"/>
<text text-anchor="middle" x="690.3483" y="-1303.1031" font-family="Times,serif" font-size="14.00" fill="#000000">pinocchio&#45;git</text>
</g>
<!-- pinocchio&#45;git&#45;&gt;cmake -->
<g id="edge99" class="edge">
<title>pinocchio&#45;git&#45;&gt;cmake</title>
<path fill="none" stroke="#000000" d="M639.4922,-1294.0067C624.7307,-1289.8957 608.6797,-1285.0375 594.1569,-1279.8031 577.685,-1273.8661 574.6752,-1269.6093 558.1569,-1263.8031 511.6976,-1247.4725 171.2888,-1177.0043 129.5917,-1150.8031 101.0869,-1132.8915 77.2346,-1102.0379 62.5638,-1079.9348"/>
<polygon fill="#000000" stroke="#000000" points="65.3933,-1077.8641 57.0347,-1071.3539 59.5091,-1081.6557 65.3933,-1077.8641"/>
</g>
<!-- pinocchio&#45;git&#45;&gt;lua51 -->
<g id="edge97" class="edge">
<title>pinocchio&#45;git&#45;&gt;lua51</title>
<path fill="none" stroke="#000000" d="M628.9366,-1316.3815C615.8061,-1321.1379 603.1884,-1328.232 594.1569,-1338.8031 530.6529,-1413.1319 624.2807,-1483.795 558.1569,-1555.8031 543.1527,-1572.1424 519.7673,-1579.1902 498.7807,-1582.0248"/>
<polygon fill="#000000" stroke="#000000" points="498.2896,-1578.5572 488.7182,-1583.1001 499.0335,-1585.5176 498.2896,-1578.5572"/>
</g>
<!-- pinocchio&#45;git&#45;&gt;eigen32 -->
<g id="edge101" class="edge">
<title>pinocchio&#45;git&#45;&gt;eigen32</title>
<path fill="none" stroke="#000000" d="M621.1508,-1302.1537C585.8074,-1299.779 543.3087,-1296.9235 509.7795,-1294.6707"/>
<polygon fill="#000000" stroke="#000000" points="509.8918,-1291.1705 499.6796,-1293.9921 509.4225,-1298.1547 509.8918,-1291.1705"/>
</g>
<!-- pinocchio&#45;git&#45;&gt;hpp&#45;fcl&#45;git -->
<g id="edge98" class="edge">
<title>pinocchio&#45;git&#45;&gt;hpp&#45;fcl&#45;git</title>
<path fill="none" stroke="#000000" d="M633.345,-1317.7421C619.3924,-1322.469 605.2887,-1329.2089 594.1569,-1338.8031 567.3569,-1361.901 585.7664,-1387.6792 558.1569,-1409.8031 546.7241,-1418.9643 532.5544,-1425.0556 518.3377,-1429.0954"/>
<polygon fill="#000000" stroke="#000000" points="517.3582,-1425.7329 508.5209,-1431.577 519.0738,-1432.5194 517.3582,-1425.7329"/>
</g>
<!-- eigenpy -->
<g id="node22" class="node">
<title>eigenpy</title>
<ellipse fill="none" stroke="#000000" cx="452.2163" cy="-1382.8031" rx="47.3916" ry="18"/>
<text text-anchor="middle" x="452.2163" y="-1379.1031" font-family="Times,serif" font-size="14.00" fill="#000000">eigenpy</text>
</g>
<!-- pinocchio&#45;git&#45;&gt;eigenpy -->
<g id="edge102" class="edge">
<title>pinocchio&#45;git&#45;&gt;eigenpy</title>
<path fill="none" stroke="#000000" d="M645.8369,-1321.0089C603.7492,-1334.4412 540.8653,-1354.5107 498.2766,-1368.1029"/>
<polygon fill="#000000" stroke="#000000" points="497.1755,-1364.7803 488.7131,-1371.1551 499.3039,-1371.4489 497.1755,-1364.7803"/>
</g>
<!-- pinocchio&#45;git&#45;&gt;git -->
<g id="edge100" class="edge">
<title>pinocchio&#45;git&#45;&gt;git</title>
<path fill="none" stroke="#000000" d="M624.7625,-1299.5681C613.0992,-1295.4285 602.1436,-1289.1772 594.1569,-1279.8031 503.0582,-1172.8788 645.4169,-1075.8823 558.1569,-965.8031 496.0093,-887.4034 409.7287,-967.1499 346.2757,-889.8031 277.3078,-805.7338 337.1587,-753.1667 310.2757,-647.8031 289.3613,-565.8326 251.169,-473.161 231.8305,-428.5757"/>
<polygon fill="#000000" stroke="#000000" points="234.9932,-427.0723 227.782,-419.3103 228.5788,-429.8751 234.9932,-427.0723"/>
</g>
<!-- metapod&#45;git -->
<g id="node30" class="node">
<title>metapod&#45;git</title>
<ellipse fill="none" stroke="#000000" cx="452.2163" cy="-1528.8031" rx="66.8882" ry="18"/>
<text text-anchor="middle" x="452.2163" y="-1525.1031" font-family="Times,serif" font-size="14.00" fill="#000000">metapod&#45;git</text>
</g>
<!-- pinocchio&#45;git&#45;&gt;metapod&#45;git -->
<g id="edge96" class="edge">
<title>pinocchio&#45;git&#45;&gt;metapod&#45;git</title>
<path fill="none" stroke="#000000" d="M630.132,-1316.5066C616.7212,-1321.2524 603.6769,-1328.3104 594.1569,-1338.8031 545.762,-1392.1425 607.2887,-1444.1417 558.1569,-1496.8031 548.7701,-1506.8641 536.3441,-1513.8003 523.3141,-1518.5727"/>
<polygon fill="#000000" stroke="#000000" points="522.1831,-1515.26 513.7542,-1521.679 524.3463,-1521.9173 522.1831,-1515.26"/>
</g>
<!-- urdfdom -->
<g id="node34" class="node">
<title>urdfdom</title>
<ellipse fill="none" stroke="#000000" cx="452.2163" cy="-1084.8031" rx="50.0912" ry="18"/>
<text text-anchor="middle" x="452.2163" y="-1081.1031" font-family="Times,serif" font-size="14.00" fill="#000000">urdfdom</text>
</g>
<!-- pinocchio&#45;git&#45;&gt;urdfdom -->
<g id="edge103" class="edge">
<title>pinocchio&#45;git&#45;&gt;urdfdom</title>
<path fill="none" stroke="#000000" d="M627.6768,-1298.0248C615.5159,-1294.0174 603.6256,-1288.2097 594.1569,-1279.8031 562.8642,-1252.0204 581.2314,-1227.7126 558.1569,-1192.8031 536.3919,-1159.8749 503.6723,-1128.3887 480.36,-1107.999"/>
<polygon fill="#000000" stroke="#000000" points="482.4015,-1105.1382 472.5398,-1101.2655 477.834,-1110.4427 482.4015,-1105.1382"/>
</g>
<!-- console&#45;bridge -->
<g id="node15" class="node">
<title>console&#45;bridge</title>
<ellipse fill="none" stroke="#000000" cx="219.9337" cy="-934.8031" rx="79.0865" ry="18"/>
<text text-anchor="middle" x="219.9337" y="-931.1031" font-family="Times,serif" font-size="14.00" fill="#000000">console&#45;bridge</text>
</g>
<!-- console&#45;bridge&#45;&gt;cmake -->
<g id="edge121" class="edge">
<title>console&#45;bridge&#45;&gt;cmake</title>
<path fill="none" stroke="#000000" d="M161.4964,-947.1466C150.4169,-950.8801 139.2746,-955.6754 129.5917,-961.8031 102.5823,-978.8954 79.0069,-1007.186 63.9938,-1027.8905"/>
<polygon fill="#000000" stroke="#000000" points="61.0046,-1026.0561 58.0988,-1036.2446 66.7241,-1030.092 61.0046,-1026.0561"/>
</g>
<!-- gcc&#45;libs -->
<g id="node38" class="node">
<title>gcc&#45;libs</title>
<ellipse fill="none" stroke="#000000" cx="46.7958" cy="-934.8031" rx="46.5926" ry="18"/>
<text text-anchor="middle" x="46.7958" y="-931.1031" font-family="Times,serif" font-size="14.00" fill="#000000">gcc&#45;libs</text>
</g>
<!-- console&#45;bridge&#45;&gt;gcc&#45;libs -->
<g id="edge122" class="edge">
<title>console&#45;bridge&#45;&gt;gcc&#45;libs</title>
<path fill="none" stroke="#000000" d="M140.459,-934.8031C128.083,-934.8031 115.5122,-934.8031 103.7677,-934.8031"/>
<polygon fill="#000000" stroke="#000000" points="103.6851,-931.3032 93.6851,-934.8031 103.6851,-938.3032 103.6851,-931.3032"/>
</g>
<!-- pinocchio -->
<g id="node16" class="node">
<title>pinocchio</title>
<ellipse fill="none" stroke="#000000" cx="690.3483" cy="-1528.8031" rx="55.7903" ry="18"/>
<text text-anchor="middle" x="690.3483" y="-1525.1031" font-family="Times,serif" font-size="14.00" fill="#000000">pinocchio</text>
</g>
<!-- pinocchio&#45;&gt;cmake -->
<g id="edge7" class="edge">
<title>pinocchio&#45;&gt;cmake</title>
<path fill="none" stroke="#000000" d="M689.4504,-1546.9641C685.5281,-1604.8648 664.8581,-1786.1888 558.1569,-1869.8031 407.8151,-1987.6154 271.0617,-2030.1332 129.5917,-1901.8031 67.4595,-1845.4418 50.429,-1223.144 47.3554,-1082.1096"/>
<polygon fill="#000000" stroke="#000000" points="50.8542,-1082.0089 47.1431,-1072.0853 43.8557,-1082.1572 50.8542,-1082.0089"/>
</g>
<!-- pinocchio&#45;&gt;lua51 -->
<g id="edge6" class="edge">
<title>pinocchio&#45;&gt;lua51</title>
<path fill="none" stroke="#000000" d="M644.4341,-1539.2148C601.358,-1548.9829 537.4258,-1563.4805 495.2958,-1573.0341"/>
<polygon fill="#000000" stroke="#000000" points="494.3215,-1569.6661 485.3432,-1575.291 495.8696,-1576.4928 494.3215,-1569.6661"/>
</g>
<!-- pinocchio&#45;&gt;hpp&#45;fcl -->
<g id="edge9" class="edge">
<title>pinocchio&#45;&gt;hpp&#45;fcl</title>
<path fill="none" stroke="#000000" d="M638.3349,-1535.5211C622.0511,-1540.1257 605.4155,-1547.8531 594.1569,-1560.8031 536.0467,-1627.6429 617.1908,-1690.7777 558.1569,-1756.8031 544.5797,-1771.9882 524.0782,-1780.0841 504.7163,-1784.3583"/>
<polygon fill="#000000" stroke="#000000" points="503.9046,-1780.95 494.7379,-1786.2624 505.2167,-1787.8259 503.9046,-1780.95"/>
</g>
<!-- pinocchio&#45;&gt;eigenpy -->
<g id="edge10" class="edge">
<title>pinocchio&#45;&gt;eigenpy</title>
<path fill="none" stroke="#000000" d="M637.0624,-1522.9436C621.7373,-1519.0118 605.987,-1512.5127 594.1569,-1501.8031 561.6061,-1472.3353 591.0603,-1438.8764 558.1569,-1409.8031 544.7213,-1397.9314 526.7768,-1391.1446 509.4801,-1387.3066"/>
<polygon fill="#000000" stroke="#000000" points="509.8908,-1383.8216 499.41,-1385.3714 508.5697,-1390.6958 509.8908,-1383.8216"/>
</g>
<!-- pinocchio&#45;&gt;metapod&#45;git -->
<g id="edge5" class="edge">
<title>pinocchio&#45;&gt;metapod&#45;git</title>
<path fill="none" stroke="#000000" d="M634.2159,-1528.8031C603.0626,-1528.8031 563.8428,-1528.8031 529.7956,-1528.8031"/>
<polygon fill="#000000" stroke="#000000" points="529.41,-1525.3032 519.4099,-1528.8031 529.4099,-1532.3032 529.41,-1525.3032"/>
</g>
<!-- pinocchio&#45;&gt;urdfdom -->
<g id="edge11" class="edge">
<title>pinocchio&#45;&gt;urdfdom</title>
<path fill="none" stroke="#000000" d="M635.7567,-1524.5444C620.2849,-1520.6866 604.7801,-1513.8268 594.1569,-1501.8031 523.3233,-1421.6311 594.0618,-1364.5789 558.1569,-1263.8031 537.241,-1205.0976 496.38,-1144.1952 471.9705,-1110.7369"/>
<polygon fill="#000000" stroke="#000000" points="474.6033,-1108.4103 465.8468,-1102.4459 468.9726,-1112.5691 474.6033,-1108.4103"/>
</g>
<!-- pinocchio&#45;&gt;eigen -->
<g id="edge8" class="edge">
<title>pinocchio&#45;&gt;eigen</title>
<path fill="none" stroke="#000000" d="M642.5751,-1538.4317C626.1771,-1543.2979 608.3867,-1550.4462 594.1569,-1560.8031 572.3077,-1576.7054 578.9013,-1592.4843 558.1569,-1609.8031 464.048,-1688.3707 423.3225,-1683.3715 310.2757,-1730.8031 294.1387,-1737.5737 276.0129,-1744.1821 260.256,-1749.6189"/>
<polygon fill="#000000" stroke="#000000" points="259.1273,-1746.3058 250.7902,-1752.8436 261.3847,-1752.9319 259.1273,-1746.3058"/>
</g>
<!-- java&#45;runtime -->
<g id="node17" class="node">
<title>java&#45;runtime</title>
<ellipse fill="none" stroke="#000000" cx="947.9787" cy="-1880.8031" rx="69.5877" ry="18"/>
<text text-anchor="middle" x="947.9787" y="-1877.1031" font-family="Times,serif" font-size="14.00" fill="#000000">java&#45;runtime</text>
</g>
<!-- hpp&#45;model&#45;git -->
<g id="node18" class="node">
<title>hpp&#45;model&#45;git</title>
<ellipse fill="none" stroke="#000000" cx="690.3483" cy="-1252.8031" rx="75.2868" ry="18"/>
<text text-anchor="middle" x="690.3483" y="-1249.1031" font-family="Times,serif" font-size="14.00" fill="#000000">hpp&#45;model&#45;git</text>
</g>
<!-- hpp&#45;model&#45;git&#45;&gt;cmake -->
<g id="edge92" class="edge">
<title>hpp&#45;model&#45;git&#45;&gt;cmake</title>
<path fill="none" stroke="#000000" d="M654.1824,-1236.849C636.112,-1228.8235 613.9363,-1218.893 594.1569,-1209.8031 578.0791,-1202.4143 574.9983,-1198.2301 558.1569,-1192.8031 373.8093,-1133.3987 307.6292,-1190.0628 129.5917,-1113.8031 108.664,-1104.839 87.925,-1089.7978 72.438,-1077.0184"/>
<polygon fill="#000000" stroke="#000000" points="74.2962,-1074.005 64.4066,-1070.2043 69.7675,-1079.3427 74.2962,-1074.005"/>
</g>
<!-- hpp&#45;model&#45;git&#45;&gt;hpp&#45;util&#45;git -->
<g id="edge94" class="edge">
<title>hpp&#45;model&#45;git&#45;&gt;hpp&#45;util&#45;git</title>
<path fill="none" stroke="#000000" d="M673.8585,-1234.8097C651.6712,-1209.4556 612.8395,-1160.8134 594.1569,-1111.8031 550.0933,-996.211 613.5836,-946.3968 558.1569,-835.8031 541.6038,-802.7744 510.1461,-774.3094 485.7926,-755.7264"/>
<polygon fill="#000000" stroke="#000000" points="487.6255,-752.728 477.5109,-749.5743 483.4512,-758.3472 487.6255,-752.728"/>
</g>
<!-- hpp&#45;model&#45;git&#45;&gt;eigen32 -->
<g id="edge93" class="edge">
<title>hpp&#45;model&#45;git&#45;&gt;eigen32</title>
<path fill="none" stroke="#000000" d="M627.4704,-1262.8368C589.9711,-1268.8208 542.8237,-1276.3443 506.8784,-1282.0803"/>
<polygon fill="#000000" stroke="#000000" points="505.9047,-1278.6913 496.5812,-1283.7235 507.0078,-1285.6039 505.9047,-1278.6913"/>
</g>
<!-- hpp&#45;model&#45;git&#45;&gt;hpp&#45;fcl&#45;git -->
<g id="edge95" class="edge">
<title>hpp&#45;model&#45;git&#45;&gt;hpp&#45;fcl&#45;git</title>
<path fill="none" stroke="#000000" d="M624.3823,-1261.5827C613.172,-1265.627 602.4825,-1271.4483 594.1569,-1279.8031 551.8384,-1322.2697 600.984,-1367.8494 558.1569,-1409.8031 547.6361,-1420.1092 533.7603,-1426.6482 519.5298,-1430.757"/>
<polygon fill="#000000" stroke="#000000" points="518.508,-1427.4047 509.6582,-1433.2296 520.2089,-1434.1949 518.508,-1427.4047"/>
</g>
<!-- hpp&#45;model&#45;git&#45;&gt;assimp -->
<g id="edge91" class="edge">
<title>hpp&#45;model&#45;git&#45;&gt;assimp</title>
<path fill="none" stroke="#000000" d="M623.3604,-1261.2563C612.3817,-1265.3419 602.0373,-1271.2618 594.1569,-1279.8031 537.6516,-1341.0465 617.5411,-1405.347 558.1569,-1463.8031 489.9759,-1530.9184 412.106,-1432.3806 346.2757,-1501.8031 257.5154,-1595.4066 393.6107,-1691.3385 310.2757,-1789.8031 300.9148,-1800.8634 287.2266,-1807.5031 273.3227,-1811.4569"/>
<polygon fill="#000000" stroke="#000000" points="272.1239,-1808.1453 263.2191,-1813.886 273.7602,-1814.9514 272.1239,-1808.1453"/>
</g>
<!-- hpp&#45;fcl&#45;&gt;cmake -->
<g id="edge12" class="edge">
<title>hpp&#45;fcl&#45;&gt;cmake</title>
<path fill="none" stroke="#000000" d="M428.782,-1804.0263C370.2047,-1839.9934 215.9302,-1921.5658 129.5917,-1843.8031 71.7848,-1791.738 51.5565,-1217.6393 47.5733,-1082.2746"/>
<polygon fill="#000000" stroke="#000000" points="51.0617,-1081.815 47.2754,-1071.9199 44.0645,-1082.0164 51.0617,-1081.815"/>
</g>
<!-- hpp&#45;fcl&#45;&gt;assimp -->
<g id="edge14" class="edge">
<title>hpp&#45;fcl&#45;&gt;assimp</title>
<path fill="none" stroke="#000000" d="M410.9565,-1793.7766C372.1753,-1798.4514 313.9759,-1805.4669 272.0133,-1810.5252"/>
<polygon fill="#000000" stroke="#000000" points="271.4939,-1807.0624 261.9846,-1811.7341 272.3317,-1814.0121 271.4939,-1807.0624"/>
</g>
<!-- hpp&#45;fcl&#45;&gt;eigen -->
<g id="edge13" class="edge">
<title>hpp&#45;fcl&#45;&gt;eigen</title>
<path fill="none" stroke="#000000" d="M410.6888,-1784.1548C369.9417,-1779.5938 307.9456,-1772.6545 265.7744,-1767.9341"/>
<polygon fill="#000000" stroke="#000000" points="266.0977,-1764.4485 255.7704,-1766.8143 265.3189,-1771.4051 266.0977,-1764.4485"/>
</g>
<!-- hpp&#45;model&#45;urdf&#45;git -->
<g id="node20" class="node">
<title>hpp&#45;model&#45;urdf&#45;git</title>
<ellipse fill="none" stroke="#000000" cx="947.9787" cy="-1019.8031" rx="96.6831" ry="18"/>
<text text-anchor="middle" x="947.9787" y="-1016.1031" font-family="Times,serif" font-size="14.00" fill="#000000">hpp&#45;model&#45;urdf&#45;git</text>
</g>
<!-- hpp&#45;model&#45;urdf&#45;git&#45;&gt;cmake -->
<g id="edge83" class="edge">
<title>hpp&#45;model&#45;urdf&#45;git&#45;&gt;cmake</title>
<path fill="none" stroke="#000000" d="M906.0933,-1003.4699C878.1472,-990.4079 842.9171,-969.363 822.5398,-939.8031 777.7185,-874.7839 840.8847,-823.1012 786.5398,-765.8031 582.3971,-550.5667 350.9789,-450.3476 129.5917,-647.8031 77.176,-694.5527 113.8335,-894.5482 93.5917,-961.8031 86.5551,-985.1827 73.753,-1009.7362 63.3157,-1027.5914"/>
<polygon fill="#000000" stroke="#000000" points="60.25,-1025.8985 58.1163,-1036.2763 66.2559,-1029.4941 60.25,-1025.8985"/>
</g>
<!-- hpp&#45;model&#45;urdf&#45;git&#45;&gt;hpp&#45;util&#45;git -->
<g id="edge85" class="edge">
<title>hpp&#45;model&#45;urdf&#45;git&#45;&gt;hpp&#45;util&#45;git</title>
<path fill="none" stroke="#000000" d="M911.3441,-1003.0498C884.1512,-989.1702 847.5933,-967.294 822.5398,-939.8031 798.9751,-913.9457 811.4258,-894.3914 786.5398,-869.8031 705.8399,-790.0685 665.1701,-793.4627 558.1569,-755.8031 544.8707,-751.1275 530.2992,-747.22 516.3292,-744.0311"/>
<polygon fill="#000000" stroke="#000000" points="516.807,-740.553 506.2901,-741.8354 515.3113,-747.3913 516.807,-740.553"/>
</g>
<!-- hpp&#45;model&#45;urdf&#45;git&#45;&gt;hpp&#45;model&#45;git -->
<g id="edge86" class="edge">
<title>hpp&#45;model&#45;urdf&#45;git&#45;&gt;hpp&#45;model&#45;git</title>
<path fill="none" stroke="#000000" d="M928.1906,-1037.6993C882.4646,-1079.0537 769.413,-1181.2972 717.3668,-1228.3676"/>
<polygon fill="#000000" stroke="#000000" points="714.9202,-1225.8613 709.8511,-1235.1648 719.6156,-1231.053 714.9202,-1225.8613"/>
</g>
<!-- resource&#45;retriever -->
<g id="node21" class="node">
<title>resource&#45;retriever</title>
<ellipse fill="none" stroke="#000000" cx="690.3483" cy="-1084.8031" rx="96.3833" ry="18"/>
<text text-anchor="middle" x="690.3483" y="-1081.1031" font-family="Times,serif" font-size="14.00" fill="#000000">resource&#45;retriever</text>
</g>
<!-- hpp&#45;model&#45;urdf&#45;git&#45;&gt;resource&#45;retriever -->
<g id="edge88" class="edge">
<title>hpp&#45;model&#45;urdf&#45;git&#45;&gt;resource&#45;retriever</title>
<path fill="none" stroke="#000000" d="M890.4821,-1034.3094C851.0789,-1044.2508 798.6752,-1057.4722 757.3755,-1067.8921"/>
<polygon fill="#000000" stroke="#000000" points="756.5091,-1064.501 747.6692,-1070.341 758.2216,-1071.2883 756.5091,-1064.501"/>
</g>
<!-- srdfdom&#45;git -->
<g id="node23" class="node">
<title>srdfdom&#45;git</title>
<ellipse fill="none" stroke="#000000" cx="452.2163" cy="-992.8031" rx="64.9885" ry="18"/>
<text text-anchor="middle" x="452.2163" y="-989.1031" font-family="Times,serif" font-size="14.00" fill="#000000">srdfdom&#45;git</text>
</g>
<!-- hpp&#45;model&#45;urdf&#45;git&#45;&gt;srdfdom&#45;git -->
<g id="edge90" class="edge">
<title>hpp&#45;model&#45;urdf&#45;git&#45;&gt;srdfdom&#45;git</title>
<path fill="none" stroke="#000000" d="M855.0205,-1014.7404C759.8181,-1009.5555 613.7269,-1001.5992 526.1179,-996.8279"/>
<polygon fill="#000000" stroke="#000000" points="526.1689,-993.3255 515.9933,-996.2765 525.7882,-1000.3152 526.1689,-993.3255"/>
</g>
<!-- hpp&#45;model&#45;urdf&#45;git&#45;&gt;assimp -->
<g id="edge84" class="edge">
<title>hpp&#45;model&#45;urdf&#45;git&#45;&gt;assimp</title>
<path fill="none" stroke="#000000" d="M926.4776,-1037.4139C898.0265,-1061.9626 848.4554,-1109.2896 822.5398,-1160.8031 787.2444,-1230.961 838.3498,-1274.7808 786.5398,-1333.8031 726.8105,-1401.847 652.7005,-1331.7364 594.1569,-1400.8031 533.2102,-1472.7047 625.3398,-1543.6911 558.1569,-1609.8031 490.227,-1676.6501 416.4901,-1578.3599 346.2757,-1642.8031 296.7199,-1688.2857 356.6287,-1741.0605 310.2757,-1789.8031 300.3811,-1800.2076 286.6616,-1806.6521 272.8996,-1810.6286"/>
<polygon fill="#000000" stroke="#000000" points="271.7849,-1807.2992 262.9253,-1813.1093 273.4745,-1814.0922 271.7849,-1807.2992"/>
</g>
<!-- hpp&#45;model&#45;urdf&#45;git&#45;&gt;urdfdom -->
<g id="edge89" class="edge">
<title>hpp&#45;model&#45;urdf&#45;git&#45;&gt;urdfdom</title>
<path fill="none" stroke="#000000" d="M859.756,-1027.2787C788.0219,-1033.8372 684.2941,-1044.4122 594.1569,-1057.8031 564.6751,-1062.1829 531.9829,-1068.3135 505.4116,-1073.6262"/>
<polygon fill="#000000" stroke="#000000" points="504.657,-1070.2078 495.547,-1075.6169 506.0418,-1077.0695 504.657,-1070.2078"/>
</g>
<!-- urdf&#45;git -->
<g id="node46" class="node">
<title>urdf&#45;git</title>
<ellipse fill="none" stroke="#000000" cx="690.3483" cy="-954.8031" rx="45.4919" ry="18"/>
<text text-anchor="middle" x="690.3483" y="-951.1031" font-family="Times,serif" font-size="14.00" fill="#000000">urdf&#45;git</text>
</g>
<!-- hpp&#45;model&#45;urdf&#45;git&#45;&gt;urdf&#45;git -->
<g id="edge87" class="edge">
<title>hpp&#45;model&#45;urdf&#45;git&#45;&gt;urdf&#45;git</title>
<path fill="none" stroke="#000000" d="M890.4821,-1005.2967C844.9007,-993.7965 781.9224,-977.9072 738.8607,-967.0427"/>
<polygon fill="#000000" stroke="#000000" points="739.4597,-963.5842 728.9073,-964.5315 737.7472,-970.3715 739.4597,-963.5842"/>
</g>
<!-- resource&#45;retriever&#45;&gt;cmake -->
<g id="edge105" class="edge">
<title>resource&#45;retriever&#45;&gt;cmake</title>
<path fill="none" stroke="#000000" d="M632.4972,-1099.2491C609.5161,-1104.2954 582.7436,-1109.3178 558.1569,-1111.8031 368.1854,-1131.0056 315.4226,-1125.6753 129.5917,-1081.8031 115.7051,-1078.5246 100.8494,-1073.8769 87.61,-1069.3082"/>
<polygon fill="#000000" stroke="#000000" points="88.4384,-1065.8888 77.8436,-1065.8538 86.1041,-1072.4881 88.4384,-1065.8888"/>
</g>
<!-- resource&#45;retriever&#45;&gt;curl -->
<g id="edge107" class="edge">
<title>resource&#45;retriever&#45;&gt;curl</title>
<path fill="none" stroke="#000000" d="M670.0322,-1067.178C648.8341,-1047.9278 615.7383,-1015.3411 594.1569,-981.8031 571.5124,-946.613 589.1745,-922.8925 558.1569,-894.8031 539.9613,-878.3252 513.5397,-870.3243 491.6354,-866.4433"/>
<polygon fill="#000000" stroke="#000000" points="492.0367,-862.9638 481.6188,-864.8921 490.9653,-869.8814 492.0367,-862.9638"/>
</g>
<!-- resource&#45;retriever&#45;&gt;boost -->
<g id="edge108" class="edge">
<title>resource&#45;retriever&#45;&gt;boost</title>
<path fill="none" stroke="#000000" d="M674.5422,-1066.6776C651.3283,-1041.0402 605.6035,-994.1579 558.1569,-965.8031 472.2795,-914.4815 420.5694,-956.8049 346.2757,-889.8031 318.818,-865.0404 338.5136,-838.6721 310.2757,-814.8031 297.8014,-804.2587 281.2736,-797.9851 265.768,-794.2545"/>
<polygon fill="#000000" stroke="#000000" points="266.2857,-790.7869 255.7791,-792.1509 264.8431,-797.6366 266.2857,-790.7869"/>
</g>
<!-- resource&#45;retriever&#45;&gt;urdfdom -->
<g id="edge106" class="edge">
<title>resource&#45;retriever&#45;&gt;urdfdom</title>
<path fill="none" stroke="#000000" d="M593.8342,-1084.8031C566.4215,-1084.8031 537.3534,-1084.8031 512.7325,-1084.8031"/>
<polygon fill="#000000" stroke="#000000" points="512.4707,-1081.3032 502.4707,-1084.8031 512.4707,-1088.3032 512.4707,-1081.3032"/>
</g>
<!-- eigenpy&#45;&gt;boost&#45;libs -->
<g id="edge65" class="edge">
<title>eigenpy&#45;&gt;boost&#45;libs</title>
<path fill="none" stroke="#000000" d="M404.765,-1384.439C384.3204,-1387.5383 361.6324,-1394.5598 346.2757,-1409.8031 301.5943,-1454.1543 352.8965,-1500.4682 310.2757,-1546.8031 302.0032,-1555.7964 291.0425,-1562.2633 279.6166,-1566.9133"/>
<polygon fill="#000000" stroke="#000000" points="278.1712,-1563.7141 269.9583,-1570.4074 280.5526,-1570.2966 278.1712,-1563.7141"/>
</g>
<!-- eigenpy&#45;&gt;cmake -->
<g id="edge61" class="edge">
<title>eigenpy&#45;&gt;cmake</title>
<path fill="none" stroke="#000000" d="M404.7534,-1383.5407C383.9258,-1386.41 360.9298,-1393.4983 346.2757,-1409.8031 271.2365,-1493.2944 395.122,-1586.2994 310.2757,-1659.8031 249.5802,-1712.3844 190.0966,-1712.6035 129.5917,-1659.8031 85.3168,-1621.166 55.7048,-1196.2525 48.5015,-1081.9656"/>
<polygon fill="#000000" stroke="#000000" points="51.9895,-1081.6618 47.8747,-1071.8987 45.003,-1082.0969 51.9895,-1081.6618"/>
</g>
<!-- eigenpy&#45;&gt;boost -->
<g id="edge63" class="edge">
<title>eigenpy&#45;&gt;boost</title>
<path fill="none" stroke="#000000" d="M416.6411,-1370.8425C392.4609,-1360.7193 362.0952,-1343.6662 346.2757,-1317.8031 292.3113,-1229.5775 360.9683,-943.9483 310.2757,-853.8031 298.2569,-832.4304 275.954,-816.2746 256.5164,-805.4155"/>
<polygon fill="#000000" stroke="#000000" points="258.0228,-802.2526 247.5491,-800.6551 254.7405,-808.4354 258.0228,-802.2526"/>
</g>
<!-- python2&#45;numpy -->
<g id="node28" class="node">
<title>python2&#45;numpy</title>
<ellipse fill="none" stroke="#000000" cx="219.9337" cy="-1632.8031" rx="83.3857" ry="18"/>
<text text-anchor="middle" x="219.9337" y="-1629.1031" font-family="Times,serif" font-size="14.00" fill="#000000">python2&#45;numpy</text>
</g>
<!-- eigenpy&#45;&gt;python2&#45;numpy -->
<g id="edge64" class="edge">
<title>eigenpy&#45;&gt;python2&#45;numpy</title>
<path fill="none" stroke="#000000" d="M404.7656,-1383.8375C384.0692,-1386.7853 361.1772,-1393.8537 346.2757,-1409.8031 285.8102,-1474.52 369.4062,-1539.8642 310.2757,-1605.8031 306.2149,-1610.3314 301.4297,-1614.114 296.216,-1617.272"/>
<polygon fill="#000000" stroke="#000000" points="294.3465,-1614.2992 287.0893,-1622.0183 297.5762,-1620.5096 294.3465,-1614.2992"/>
</g>
<!-- eigenpy&#45;&gt;doxygen -->
<g id="edge60" class="edge">
<title>eigenpy&#45;&gt;doxygen</title>
<path fill="none" stroke="#000000" d="M416.54,-1370.9038C392.3116,-1360.81 361.9297,-1343.7667 346.2757,-1317.8031 282.3461,-1211.7701 362.3905,-874.1152 310.2757,-761.8031 297.8704,-735.0686 273.3286,-712.284 252.9515,-696.7459"/>
<polygon fill="#000000" stroke="#000000" points="254.9353,-693.8601 244.8088,-690.7447 250.7823,-699.4951 254.9353,-693.8601"/>
</g>
<!-- eigenpy&#45;&gt;eigen -->
<g id="edge62" class="edge">
<title>eigenpy&#45;&gt;eigen</title>
<path fill="none" stroke="#000000" d="M404.6314,-1383.4321C383.7777,-1386.278 360.7949,-1393.378 346.2757,-1409.8031 262.3013,-1504.7997 373.1723,-1582.7119 310.2757,-1692.8031 297.4725,-1715.2132 274.3555,-1732.9222 254.7116,-1744.9216"/>
<polygon fill="#000000" stroke="#000000" points="252.8442,-1741.959 245.9799,-1750.0294 256.3788,-1748.0012 252.8442,-1741.959"/>
</g>
<!-- srdfdom&#45;git&#45;&gt;cmake -->
<g id="edge49" class="edge">
<title>srdfdom&#45;git&#45;&gt;cmake</title>
<path fill="none" stroke="#000000" d="M392.8398,-985.3012C376.0327,-980.6156 358.8991,-973.0386 346.2757,-960.8031 310.2473,-925.8819 351.0208,-883.0839 310.2757,-853.8031 245.064,-806.9398 194.7377,-806.8485 129.5917,-853.8031 88.5457,-883.3873 113.1152,-915.1251 93.5917,-961.8031 84.1116,-984.4686 71.3639,-1009.2441 61.5675,-1027.3687"/>
<polygon fill="#000000" stroke="#000000" points="58.469,-1025.7401 56.7466,-1036.1941 64.6122,-1029.0959 58.469,-1025.7401"/>
</g>
<!-- srdfdom&#45;git&#45;&gt;urdfdom&#45;headers -->
<g id="edge53" class="edge">
<title>srdfdom&#45;git&#45;&gt;urdfdom&#45;headers</title>
<path fill="none" stroke="#000000" d="M387.2037,-991.6835C366.3933,-991.3251 342.8466,-990.9197 320.1294,-990.5285"/>
<polygon fill="#000000" stroke="#000000" points="320.1691,-987.0287 310.1103,-990.3559 320.0485,-994.0277 320.1691,-987.0287"/>
</g>
<!-- srdfdom&#45;git&#45;&gt;console&#45;bridge -->
<g id="edge54" class="edge">
<title>srdfdom&#45;git&#45;&gt;console&#45;bridge</title>
<path fill="none" stroke="#000000" d="M403.805,-980.715C368.8979,-971.9988 321.4434,-960.1496 283.4876,-950.6722"/>
<polygon fill="#000000" stroke="#000000" points="284.1056,-947.2191 273.5556,-948.1922 282.4098,-954.0106 284.1056,-947.2191"/>
</g>
<!-- srdfdom&#45;git&#45;&gt;git -->
<g id="edge50" class="edge">
<title>srdfdom&#45;git&#45;&gt;git</title>
<path fill="none" stroke="#000000" d="M414.9388,-977.9655C391.2829,-966.5281 362.2223,-948.3213 346.2757,-922.8031 280.952,-818.2704 339.7031,-767.5039 310.2757,-647.8031 290.0797,-565.6527 251.5623,-473.0625 231.992,-428.5353"/>
<polygon fill="#000000" stroke="#000000" points="235.1434,-427.0078 227.8929,-419.2825 228.7433,-429.8432 235.1434,-427.0078"/>
</g>
<!-- srdfdom&#45;git&#45;&gt;boost -->
<g id="edge51" class="edge">
<title>srdfdom&#45;git&#45;&gt;boost</title>
<path fill="none" stroke="#000000" d="M392.0015,-985.7839C375.2635,-981.1117 358.3786,-973.4209 346.2757,-960.8031 301.8025,-914.4378 353.6453,-868.2022 310.2757,-820.8031 298.6485,-808.0955 281.653,-800.4326 265.5317,-795.8124"/>
<polygon fill="#000000" stroke="#000000" points="266.2162,-792.3753 255.6627,-793.311 264.4963,-799.1607 266.2162,-792.3753"/>
</g>
<!-- srdfdom&#45;git&#45;&gt;doxygen -->
<g id="edge48" class="edge">
<title>srdfdom&#45;git&#45;&gt;doxygen</title>
<path fill="none" stroke="#000000" d="M416.1892,-977.7356C392.7627,-966.1029 363.4769,-947.7612 346.2757,-922.8031 304.6665,-862.4303 346.2052,-825.7192 310.2757,-761.8031 295.7399,-735.9449 271.0911,-712.9706 251.209,-697.1334"/>
<polygon fill="#000000" stroke="#000000" points="253.3495,-694.3643 243.3014,-691.005 249.0615,-699.8972 253.3495,-694.3643"/>
</g>
<!-- srdfdom&#45;git&#45;&gt;tinyxml -->
<g id="edge52" class="edge">
<title>srdfdom&#45;git&#45;&gt;tinyxml</title>
<path fill="none" stroke="#000000" d="M396.3943,-983.5021C379.1716,-978.729 360.9065,-971.5546 346.2757,-960.8031 323.3294,-943.9408 333.2466,-924.6317 310.2757,-907.8031 299.3318,-899.7855 286.0056,-894.1293 272.9866,-890.1459"/>
<polygon fill="#000000" stroke="#000000" points="273.7069,-886.7137 263.1353,-887.4145 271.8366,-893.4592 273.7069,-886.7137"/>
</g>
<!-- hpp&#45;statistics&#45;git -->
<g id="node26" class="node">
<title>hpp&#45;statistics&#45;git</title>
<ellipse fill="none" stroke="#000000" cx="690.3483" cy="-418.8031" rx="89.8845" ry="18"/>
<text text-anchor="middle" x="690.3483" y="-415.1031" font-family="Times,serif" font-size="14.00" fill="#000000">hpp&#45;statistics&#45;git</text>
</g>
<!-- hpp&#45;statistics&#45;git&#45;&gt;cmake -->
<g id="edge75" class="edge">
<title>hpp&#45;statistics&#45;git&#45;&gt;cmake</title>
<path fill="none" stroke="#000000" d="M658.0335,-401.9489C562.6285,-354.7772 279.5045,-233.8025 129.5917,-374.8031 81.9928,-419.5722 110.7627,-898.7547 93.5917,-961.8031 87.1759,-985.3606 74.3338,-1009.9026 63.7232,-1027.7082"/>
<polygon fill="#000000" stroke="#000000" points="60.6601,-1026.0082 58.4239,-1036.3644 66.6302,-1029.6632 60.6601,-1026.0082"/>
</g>
<!-- hpp&#45;statistics&#45;git&#45;&gt;hpp&#45;util&#45;git -->
<g id="edge77" class="edge">
<title>hpp&#45;statistics&#45;git&#45;&gt;hpp&#45;util&#45;git</title>
<path fill="none" stroke="#000000" d="M676.516,-437.0422C636.2239,-490.1713 518.8423,-644.9502 471.9269,-706.8127"/>
<polygon fill="#000000" stroke="#000000" points="469.0439,-704.822 465.79,-714.9048 474.6214,-709.0519 469.0439,-704.822"/>
</g>
<!-- hpp&#45;statistics&#45;git&#45;&gt;git -->
<g id="edge76" class="edge">
<title>hpp&#45;statistics&#45;git&#45;&gt;git</title>
<path fill="none" stroke="#000000" d="M610.3779,-410.5617C593.1694,-409.0632 575.0709,-407.6945 558.1569,-406.8031 448.9456,-401.0471 319.6443,-401.0196 257.2743,-401.4321"/>
<polygon fill="#000000" stroke="#000000" points="257.1124,-397.9331 247.1387,-401.5071 257.1643,-404.9329 257.1124,-397.9331"/>
</g>
<!-- hpp&#45;statistics&#45;git&#45;&gt;doxygen -->
<g id="edge74" class="edge">
<title>hpp&#45;statistics&#45;git&#45;&gt;doxygen</title>
<path fill="none" stroke="#000000" d="M668.4102,-436.3606C642.9539,-456.1781 599.2069,-488.5481 558.1569,-510.8031 468.8115,-559.241 436.9171,-550.8363 346.2757,-596.8031 312.9593,-613.6987 276.8773,-636.4601 251.8364,-653.0324"/>
<polygon fill="#000000" stroke="#000000" points="249.8405,-650.1565 243.4623,-658.6164 253.724,-655.9805 249.8405,-650.1565"/>
</g>
<!-- gepetto&#45;viewer&#45;git -->
<g id="node27" class="node">
<title>gepetto&#45;viewer&#45;git</title>
<ellipse fill="none" stroke="#000000" cx="690.3483" cy="-318.8031" rx="96.3833" ry="18"/>
<text text-anchor="middle" x="690.3483" y="-315.1031" font-family="Times,serif" font-size="14.00" fill="#000000">gepetto&#45;viewer&#45;git</text>
</g>
<!-- gepetto&#45;viewer&#45;git&#45;&gt;openscenegraph&#45;qt4 -->
<g id="edge41" class="edge">
<title>gepetto&#45;viewer&#45;git&#45;&gt;openscenegraph&#45;qt4</title>
<path fill="none" stroke="#000000" d="M631.4842,-304.466C598.641,-296.4666 557.5045,-286.4473 522.9241,-278.0248"/>
<polygon fill="#000000" stroke="#000000" points="523.4337,-274.5467 512.8894,-275.5808 521.7771,-281.3479 523.4337,-274.5467"/>
</g>
<!-- gepetto&#45;viewer&#45;git&#45;&gt;cmake -->
<g id="edge37" class="edge">
<title>gepetto&#45;viewer&#45;git&#45;&gt;cmake</title>
<path fill="none" stroke="#000000" d="M666.705,-301.2658C635.3425,-278.4226 581.2596,-240.5897 558.1569,-233.8031 372.9146,-179.3864 247.1172,-151.6246 129.5917,-304.8031 85.0884,-362.807 112.5733,-891.2007 93.5917,-961.8031 87.2526,-985.3814 74.4055,-1009.9221 63.7736,-1027.7218"/>
<polygon fill="#000000" stroke="#000000" points="60.7107,-1026.0212 58.4619,-1036.3747 66.6763,-1029.6834 60.7107,-1026.0212"/>
</g>
<!-- gepetto&#45;viewer&#45;git&#45;&gt;git -->
<g id="edge38" class="edge">
<title>gepetto&#45;viewer&#45;git&#45;&gt;git</title>
<path fill="none" stroke="#000000" d="M620.1767,-331.1842C518.659,-349.0959 334.4582,-381.5963 256.4283,-395.3639"/>
<polygon fill="#000000" stroke="#000000" points="255.382,-391.9944 246.1423,-397.1788 256.5983,-398.8879 255.382,-391.9944"/>
</g>
<!-- gepetto&#45;viewer&#45;git&#45;&gt;boost -->
<g id="edge39" class="edge">
<title>gepetto&#45;viewer&#45;git&#45;&gt;boost</title>
<path fill="none" stroke="#000000" d="M661.1412,-336.1238C640.5328,-349.4184 613.296,-369.2758 594.1569,-391.8031 572.0158,-417.8637 578.6377,-432.4184 558.1569,-459.8031 465.9437,-583.1004 420.8122,-594.6248 310.2757,-701.8031 287.8428,-723.5544 262.1727,-748.2569 243.9433,-765.7676"/>
<polygon fill="#000000" stroke="#000000" points="241.4062,-763.3514 236.6173,-772.8022 246.2546,-768.4005 241.4062,-763.3514"/>
</g>
<!-- gepetto&#45;viewer&#45;git&#45;&gt;urdfdom -->
<g id="edge40" class="edge">
<title>gepetto&#45;viewer&#45;git&#45;&gt;urdfdom</title>
<path fill="none" stroke="#000000" d="M655.1117,-335.5705C633.4849,-347.8892 607.4626,-366.8239 594.1569,-391.8031 528.4394,-515.1764 629.8893,-899.8272 558.1569,-1019.8031 544.7375,-1042.2476 520.2823,-1058.0085 498.247,-1068.3839"/>
<polygon fill="#000000" stroke="#000000" points="496.7029,-1065.24 488.9907,-1072.5045 499.5498,-1071.635 496.7029,-1065.24"/>
</g>
<!-- gepetto&#45;viewer&#45;git&#45;&gt;doxygen -->
<g id="edge36" class="edge">
<title>gepetto&#45;viewer&#45;git&#45;&gt;doxygen</title>
<path fill="none" stroke="#000000" d="M649.4008,-335.1495C581.3431,-363.661 442.8852,-427.4816 346.2757,-510.8031 298.5552,-551.9598 256.9375,-613.6691 235.4475,-648.4729"/>
<polygon fill="#000000" stroke="#000000" points="232.3906,-646.7635 230.1786,-657.1249 238.3692,-650.4044 232.3906,-646.7635"/>
</g>
<!-- hpp&#45;model&#45;urdf -->
<g id="node29" class="node">
<title>hpp&#45;model&#45;urdf</title>
<ellipse fill="none" stroke="#000000" cx="947.9787" cy="-1187.8031" rx="81.7856" ry="18"/>
<text text-anchor="middle" x="947.9787" y="-1184.1031" font-family="Times,serif" font-size="14.00" fill="#000000">hpp&#45;model&#45;urdf</text>
</g>
<!-- hpp&#45;model&#45;urdf&#45;&gt;hpp&#45;model -->
<g id="edge18" class="edge">
<title>hpp&#45;model&#45;urdf&#45;&gt;hpp&#45;model</title>
<path fill="none" stroke="#000000" d="M929.8447,-1205.557C903.1251,-1232.5805 853.0537,-1286.6353 822.5398,-1340.8031 798.9448,-1382.6885 820.8402,-1409.1193 786.5398,-1442.8031 777.3249,-1451.8523 765.489,-1458.343 753.2919,-1462.9984"/>
<polygon fill="#000000" stroke="#000000" points="751.807,-1459.807 743.4757,-1466.3522 754.0703,-1466.431 751.807,-1459.807"/>
</g>
<!-- hpp&#45;model&#45;urdf&#45;&gt;cmake -->
<g id="edge15" class="edge">
<title>hpp&#45;model&#45;urdf&#45;&gt;cmake</title>
<path fill="none" stroke="#000000" d="M918.1731,-1204.7127C891.1058,-1221.046 851.1574,-1247.6867 822.5398,-1277.8031 802.1584,-1299.2519 812.1476,-1318.9809 786.5398,-1333.8031 701.7589,-1382.8752 421.3025,-1292.8201 346.2757,-1355.8031 291.1138,-1402.1099 366.5762,-1468.8875 310.2757,-1513.8031 278.8883,-1538.8433 160.3957,-1539.5576 129.5917,-1513.8031 62.8913,-1458.0363 49.8428,-1173.3175 47.3615,-1082.0175"/>
<polygon fill="#000000" stroke="#000000" points="50.8567,-1081.7802 47.1083,-1071.8706 43.8589,-1081.9548 50.8567,-1081.7802"/>
</g>
<!-- hpp&#45;model&#45;urdf&#45;&gt;hpp&#45;util&#45;git -->
<g id="edge17" class="edge">
<title>hpp&#45;model&#45;urdf&#45;&gt;hpp&#45;util&#45;git</title>
<path fill="none" stroke="#000000" d="M927.6087,-1170.2642C899.9909,-1145.4374 850.8714,-1097.4041 822.5398,-1046.8031 795.5451,-998.5898 822.3491,-969.8855 786.5398,-927.8031 724.8676,-855.3271 660.701,-901.8333 594.1569,-833.8031 567.4587,-806.5086 587.939,-779.6946 558.1569,-755.8031 548.1945,-747.8112 536.0698,-742.4401 523.6291,-738.862"/>
<polygon fill="#000000" stroke="#000000" points="524.1697,-735.3895 513.6195,-736.361 522.4727,-742.1807 524.1697,-735.3895"/>
</g>
<!-- hpp&#45;model&#45;urdf&#45;&gt;resource&#45;retriever -->
<g id="edge20" class="edge">
<title>hpp&#45;model&#45;urdf&#45;&gt;resource&#45;retriever</title>
<path fill="none" stroke="#000000" d="M908.2885,-1171.935C863.2979,-1153.9479 789.8568,-1124.5863 740.8268,-1104.9842"/>
<polygon fill="#000000" stroke="#000000" points="741.9467,-1101.6627 731.3619,-1101.2002 739.348,-1108.1624 741.9467,-1101.6627"/>
</g>
<!-- hpp&#45;model&#45;urdf&#45;&gt;srdfdom&#45;git -->
<g id="edge22" class="edge">
<title>hpp&#45;model&#45;urdf&#45;&gt;srdfdom&#45;git</title>
<path fill="none" stroke="#000000" d="M866.0255,-1187.3425C789.5923,-1183.186 675.4651,-1167.094 594.1569,-1111.8031 570.3048,-1095.5833 578.9335,-1077.8113 558.1569,-1057.8031 539.4725,-1039.8098 514.9757,-1024.3824 494.245,-1013.0786"/>
<polygon fill="#000000" stroke="#000000" points="495.7933,-1009.9379 485.3202,-1008.3363 492.5086,-1016.1194 495.7933,-1009.9379"/>
</g>
<!-- hpp&#45;model&#45;urdf&#45;&gt;assimp -->
<g id="edge16" class="edge">
<title>hpp&#45;model&#45;urdf&#45;&gt;assimp</title>
<path fill="none" stroke="#000000" d="M913.4393,-1204.2416C885.0033,-1219.4905 845.7253,-1244.7935 822.5398,-1277.8031 788.8188,-1325.8121 829.1762,-1364.5028 786.5398,-1404.8031 722.8681,-1464.9861 654.9415,-1384.7054 594.1569,-1447.8031 533.0129,-1511.2737 620.6338,-1580.644 558.1569,-1642.8031 490.3343,-1710.2806 418.5401,-1618.1056 346.2757,-1680.8031 307.7397,-1714.2373 346.8629,-1754.2469 310.2757,-1789.8031 299.9789,-1799.8097 286.1327,-1806.1289 272.3781,-1810.1127"/>
<polygon fill="#000000" stroke="#000000" points="271.272,-1806.782 262.4308,-1812.6202 272.983,-1813.5696 271.272,-1806.782"/>
</g>
<!-- hpp&#45;model&#45;urdf&#45;&gt;urdfdom -->
<g id="edge21" class="edge">
<title>hpp&#45;model&#45;urdf&#45;&gt;urdfdom</title>
<path fill="none" stroke="#000000" d="M883.2126,-1198.9077C810.5859,-1208.6547 690.3805,-1216.5798 594.1569,-1182.8031 575.0312,-1176.0895 574.6249,-1166.6212 558.1569,-1154.8031 534.4931,-1137.821 507.036,-1119.7221 486.0045,-1106.1829"/>
<polygon fill="#000000" stroke="#000000" points="487.7219,-1103.1264 477.4143,-1100.676 483.944,-1109.0194 487.7219,-1103.1264"/>
</g>
<!-- hpp&#45;model&#45;urdf&#45;&gt;urdf&#45;git -->
<g id="edge19" class="edge">
<title>hpp&#45;model&#45;urdf&#45;&gt;urdf&#45;git</title>
<path fill="none" stroke="#000000" d="M928.6145,-1170.2902C882.8672,-1128.9165 768.0725,-1025.0966 716.3414,-978.3111"/>
<polygon fill="#000000" stroke="#000000" points="718.6554,-975.6848 708.891,-971.573 713.9601,-980.8765 718.6554,-975.6848"/>
</g>
<!-- omniorb -->
<g id="node33" class="node">
<title>omniorb</title>
<ellipse fill="none" stroke="#000000" cx="690.3483" cy="-134.8031" rx="49.2915" ry="18"/>
<text text-anchor="middle" x="690.3483" y="-131.1031" font-family="Times,serif" font-size="14.00" fill="#000000">omniorb</text>
</g>
<!-- urdfdom&#45;&gt;cmake -->
<g id="edge1" class="edge">
<title>urdfdom&#45;&gt;cmake</title>
<path fill="none" stroke="#000000" d="M402.9091,-1081.0328C325.559,-1075.1184 176.4447,-1063.7165 97.9621,-1057.7154"/>
<polygon fill="#000000" stroke="#000000" points="98.0688,-1054.2135 87.831,-1056.9408 97.5351,-1061.1931 98.0688,-1054.2135"/>
</g>
<!-- urdfdom&#45;&gt;urdfdom&#45;headers -->
<g id="edge4" class="edge">
<title>urdfdom&#45;&gt;urdfdom&#45;headers</title>
<path fill="none" stroke="#000000" d="M418.9358,-1071.0486C379.5851,-1054.7853 313.7539,-1027.578 268.6608,-1008.9415"/>
<polygon fill="#000000" stroke="#000000" points="269.9488,-1005.6867 259.3701,-1005.1017 267.2751,-1012.156 269.9488,-1005.6867"/>
</g>
<!-- urdfdom&#45;&gt;console&#45;bridge -->
<g id="edge3" class="edge">
<title>urdfdom&#45;&gt;console&#45;bridge</title>
<path fill="none" stroke="#000000" d="M420.8248,-1070.4702C398.218,-1059.0491 367.9983,-1041.4137 346.2757,-1019.8031 324.7669,-998.4052 334.376,-980.2332 310.2757,-961.8031 304.3754,-957.291 297.7285,-953.5301 290.785,-950.396"/>
<polygon fill="#000000" stroke="#000000" points="291.7575,-947.0135 281.1751,-946.4989 289.1268,-953.5004 291.7575,-947.0135"/>
</g>
<!-- urdfdom&#45;&gt;tinyxml -->
<g id="edge2" class="edge">
<title>urdfdom&#45;&gt;tinyxml</title>
<path fill="none" stroke="#000000" d="M418.1662,-1071.4946C394.869,-1060.7742 364.9344,-1043.5619 346.2757,-1019.8031 313.9819,-978.682 347.626,-944.3924 310.2757,-907.8031 300.5845,-898.3093 287.7,-892.1328 274.7054,-888.1206"/>
<polygon fill="#000000" stroke="#000000" points="275.3639,-884.6734 264.7979,-885.4553 273.5453,-891.433 275.3639,-884.6734"/>
</g>
<!-- tabula -->
<g id="node35" class="node">
<title>tabula</title>
<ellipse fill="none" stroke="#000000" cx="1201.0594" cy="-1880.8031" rx="40.0939" ry="18"/>
<text text-anchor="middle" x="1201.0594" y="-1877.1031" font-family="Times,serif" font-size="14.00" fill="#000000">tabula</text>
</g>
<!-- tabula&#45;&gt;java&#45;runtime -->
<g id="edge104" class="edge">
<title>tabula&#45;&gt;java&#45;runtime</title>
<path fill="none" stroke="#000000" d="M1160.6782,-1880.8031C1125.0095,-1880.8031 1071.9474,-1880.8031 1027.7463,-1880.8031"/>
<polygon fill="#000000" stroke="#000000" points="1027.5909,-1877.3032 1017.5909,-1880.8031 1027.5908,-1884.3032 1027.5909,-1877.3032"/>
</g>
<!-- gepetto&#45;viewer&#45;corba&#45;git -->
<g id="node36" class="node">
<title>gepetto&#45;viewer&#45;corba&#45;git</title>
<ellipse fill="none" stroke="#000000" cx="947.9787" cy="-272.8031" rx="125.3778" ry="18"/>
<text text-anchor="middle" x="947.9787" y="-269.1031" font-family="Times,serif" font-size="14.00" fill="#000000">gepetto&#45;viewer&#45;corba&#45;git</text>
</g>
<!-- gepetto&#45;viewer&#45;corba&#45;git&#45;&gt;omniorbpy -->
<g id="edge115" class="edge">
<title>gepetto&#45;viewer&#45;corba&#45;git&#45;&gt;omniorbpy</title>
<path fill="none" stroke="#000000" d="M897.3866,-256.3076C852.1974,-241.5737 786.3382,-220.1004 741.1004,-205.3507"/>
<polygon fill="#000000" stroke="#000000" points="742.0841,-201.9901 731.4917,-202.2178 739.9141,-208.6453 742.0841,-201.9901"/>
</g>
<!-- gepetto&#45;viewer&#45;corba&#45;git&#45;&gt;cmake -->
<g id="edge110" class="edge">
<title>gepetto&#45;viewer&#45;corba&#45;git&#45;&gt;cmake</title>
<path fill="none" stroke="#000000" d="M937.2917,-254.6024C914.8258,-218.3883 858.7608,-138.1805 786.5398,-107.8031 642.3362,-47.1484 201.3789,-78.86 129.5917,-154.8031 67.9345,-220.0296 116.4546,-875.0079 93.5917,-961.8031 87.3725,-985.4133 74.5177,-1009.9519 63.8523,-1027.7428"/>
<polygon fill="#000000" stroke="#000000" points="60.7896,-1026.0413 58.5213,-1036.3905 66.7483,-1029.7147 60.7896,-1026.0413"/>
</g>
<!-- gepetto&#45;viewer&#45;corba&#45;git&#45;&gt;git -->
<g id="edge111" class="edge">
<title>gepetto&#45;viewer&#45;corba&#45;git&#45;&gt;git</title>
<path fill="none" stroke="#000000" d="M871.9209,-258.4885C731.2206,-233.5304 436.4238,-188.8023 346.2757,-233.8031 286.9769,-263.4042 248.2291,-335.5551 230.7171,-374.9879"/>
<polygon fill="#000000" stroke="#000000" points="227.4638,-373.6935 226.7228,-384.2624 233.8929,-376.4624 227.4638,-373.6935"/>
</g>
<!-- gepetto&#45;viewer&#45;corba&#45;git&#45;&gt;gepetto&#45;viewer&#45;git -->
<g id="edge112" class="edge">
<title>gepetto&#45;viewer&#45;corba&#45;git&#45;&gt;gepetto&#45;viewer&#45;git</title>
<path fill="none" stroke="#000000" d="M869.2812,-286.8545C837.9025,-292.4572 801.8232,-298.8992 770.3192,-304.5242"/>
<polygon fill="#000000" stroke="#000000" points="769.4923,-301.1164 760.2632,-306.3197 770.7228,-308.0074 769.4923,-301.1164"/>
</g>
<!-- gepetto&#45;viewer&#45;corba&#45;git&#45;&gt;omniorb -->
<g id="edge113" class="edge">
<title>gepetto&#45;viewer&#45;corba&#45;git&#45;&gt;omniorb</title>
<path fill="none" stroke="#000000" d="M926.9217,-254.9101C897.364,-230.6248 841.0606,-187.3367 786.5398,-161.8031 773.0113,-155.4673 757.6983,-150.3386 743.3327,-146.3219"/>
<polygon fill="#000000" stroke="#000000" points="744.1365,-142.914 733.5722,-143.7177 742.3318,-149.6774 744.1365,-142.914"/>
</g>
<!-- gepetto&#45;viewer&#45;corba&#45;git&#45;&gt;doxygen -->
<g id="edge109" class="edge">
<title>gepetto&#45;viewer&#45;corba&#45;git&#45;&gt;doxygen</title>
<path fill="none" stroke="#000000" d="M934.4797,-290.822C908.6181,-324.4578 849.0776,-397.7375 786.5398,-445.8031 617.7048,-575.5668 549.2965,-570.5656 346.2757,-634.8031 320.1723,-643.0624 291.037,-652.2863 267.3289,-659.7934"/>
<polygon fill="#000000" stroke="#000000" points="266.002,-656.5422 257.5252,-662.8977 268.1153,-663.2156 266.002,-656.5422"/>
</g>
<!-- gepetto&#45;viewer&#45;corba&#45;git&#45;&gt;qt4 -->
<g id="edge114" class="edge">
<title>gepetto&#45;viewer&#45;corba&#45;git&#45;&gt;qt4</title>
<path fill="none" stroke="#000000" d="M943.9945,-290.7997C927.7698,-364.3773 865.4969,-649.6076 822.5398,-885.8031 813.4399,-935.8377 821.5451,-1074.9127 786.5398,-1111.8031 642.2663,-1263.8458 357.4596,-1248.5405 256.4861,-1237.5841"/>
<polygon fill="#000000" stroke="#000000" points="256.8026,-1234.0976 246.471,-1236.4448 256.0113,-1241.0527 256.8026,-1234.0976"/>
</g>
<!-- hpp_environments -->
<g id="node41" class="node">
<title>hpp_environments</title>
<ellipse fill="none" stroke="#000000" cx="947.9787" cy="-1674.8031" rx="96.6831" ry="18"/>
<text text-anchor="middle" x="947.9787" y="-1671.1031" font-family="Times,serif" font-size="14.00" fill="#000000">hpp_environments</text>
</g>
<!-- romeo_description -->
<g id="node42" class="node">
<title>romeo_description</title>
<ellipse fill="none" stroke="#000000" cx="947.9787" cy="-1620.8031" rx="97.4827" ry="18"/>
<text text-anchor="middle" x="947.9787" y="-1617.1031" font-family="Times,serif" font-size="14.00" fill="#000000">romeo_description</text>
</g>
<!-- hpp&#45;pinocchio&#45;git -->
<g id="node43" class="node">
<title>hpp&#45;pinocchio&#45;git</title>
<ellipse fill="none" stroke="#000000" cx="1201.0594" cy="-1187.8031" rx="91.784" ry="18"/>
<text text-anchor="middle" x="1201.0594" y="-1184.1031" font-family="Times,serif" font-size="14.00" fill="#000000">hpp&#45;pinocchio&#45;git</text>
</g>
<!-- hpp&#45;pinocchio&#45;git&#45;&gt;hpp&#45;model -->
<g id="edge23" class="edge">
<title>hpp&#45;pinocchio&#45;git&#45;&gt;hpp&#45;model</title>
<path fill="none" stroke="#000000" d="M1176.9506,-1205.4166C1114.8978,-1250.1185 943.5205,-1369.6029 786.5398,-1442.8031 773.0613,-1449.0881 758.0006,-1454.7104 743.8705,-1459.4228"/>
<polygon fill="#000000" stroke="#000000" points="742.7005,-1456.1228 734.2678,-1462.5369 744.8598,-1462.7814 742.7005,-1456.1228"/>
</g>
<!-- hpp&#45;pinocchio&#45;git&#45;&gt;cmake -->
<g id="edge28" class="edge">
<title>hpp&#45;pinocchio&#45;git&#45;&gt;cmake</title>
<path fill="none" stroke="#000000" d="M1200.25,-1169.7143C1193.9718,-1033.0466 1151.2105,-165.8857 1073.4175,-82.8031 955.1249,43.5331 863.4205,-12.8031 690.3483,-12.8031 690.3483,-12.8031 690.3483,-12.8031 452.2163,-12.8031 304.6964,-12.8031 223.2025,23.2106 129.5917,-90.8031 68.1275,-165.6636 118.1111,-868.0975 93.5917,-961.8031 87.4111,-985.4234 74.5538,-1009.9614 63.8776,-1027.7494"/>
<polygon fill="#000000" stroke="#000000" points="60.815,-1026.0477 58.5404,-1036.3955 66.7715,-1029.7247 60.815,-1026.0477"/>
</g>
<!-- hpp&#45;pinocchio&#45;git&#45;&gt;hpp&#45;util&#45;git -->
<g id="edge33" class="edge">
<title>hpp&#45;pinocchio&#45;git&#45;&gt;hpp&#45;util&#45;git</title>
<path fill="none" stroke="#000000" d="M1198.2541,-1169.4931C1189.4387,-1117.9229 1157.6944,-969.7684 1073.4175,-885.8031 923.2633,-736.204 651.7829,-724.6198 523.2958,-728.4164"/>
<polygon fill="#000000" stroke="#000000" points="523.0537,-724.9225 513.1769,-728.7562 523.2888,-731.9185 523.0537,-724.9225"/>
</g>
<!-- hpp&#45;pinocchio&#45;git&#45;&gt;pinocchio -->
<g id="edge31" class="edge">
<title>hpp&#45;pinocchio&#45;git&#45;&gt;pinocchio</title>
<path fill="none" stroke="#000000" d="M1192.0118,-1205.8993C1173.8175,-1240.7345 1129.6866,-1317.813 1073.4175,-1364.8031 973.8396,-1447.9601 825.7955,-1495.0895 746.0511,-1515.8604"/>
<polygon fill="#000000" stroke="#000000" points="745.0226,-1512.5108 736.2031,-1518.3816 746.7587,-1519.2921 745.0226,-1512.5108"/>
</g>
<!-- hpp&#45;pinocchio&#45;git&#45;&gt;hpp&#45;fcl -->
<g id="edge34" class="edge">
<title>hpp&#45;pinocchio&#45;git&#45;&gt;hpp&#45;fcl</title>
<path fill="none" stroke="#000000" d="M1196.002,-1206.022C1182.7052,-1251.1057 1142.9162,-1369.5233 1073.4175,-1442.8031 1050.757,-1466.6964 587.2051,-1720.292 558.1569,-1735.8031 535.7615,-1747.7617 510.3299,-1760.5114 489.9982,-1770.5085"/>
<polygon fill="#000000" stroke="#000000" points="488.1948,-1767.4944 480.7543,-1775.037 491.2744,-1773.7806 488.1948,-1767.4944"/>
</g>
<!-- hpp&#45;pinocchio&#45;git&#45;&gt;resource&#45;retriever -->
<g id="edge35" class="edge">
<title>hpp&#45;pinocchio&#45;git&#45;&gt;resource&#45;retriever</title>
<path fill="none" stroke="#000000" d="M1139.0914,-1174.5311C1118.2366,-1170.1082 1094.8301,-1165.1917 1073.4175,-1160.8031 967.4202,-1139.0784 844.7148,-1114.9054 767.3228,-1099.7788"/>
<polygon fill="#000000" stroke="#000000" points="767.6638,-1096.2794 757.1782,-1097.7971 766.3217,-1103.1495 767.6638,-1096.2794"/>
</g>
<!-- hpp&#45;pinocchio&#45;git&#45;&gt;git -->
<g id="edge29" class="edge">
<title>hpp&#45;pinocchio&#45;git&#45;&gt;git</title>
<path fill="none" stroke="#000000" d="M1200.8865,-1169.7488C1199.4395,-1052.6861 1186.3449,-401.1568 1073.4175,-245.8031 943.087,-66.5079 811.5328,-64.4382 594.1569,-107.8031 477.1605,-131.143 438.2787,-134.8534 346.2757,-210.8031 290.3339,-256.9837 249.9559,-334.3587 231.3732,-375.0041"/>
<polygon fill="#000000" stroke="#000000" points="228.1162,-373.7136 227.2246,-384.2708 234.5052,-376.5738 228.1162,-373.7136"/>
</g>
<!-- hpp&#45;pinocchio&#45;git&#45;&gt;boost -->
<g id="edge30" class="edge">
<title>hpp&#45;pinocchio&#45;git&#45;&gt;boost</title>
<path fill="none" stroke="#000000" d="M1198.4029,-1169.6106C1187.0605,-1094.567 1140.2039,-810.3933 1073.4175,-754.8031 948.9418,-651.1945 501.4378,-659.3956 346.2757,-705.8031 307.14,-717.5082 268.8891,-745.6621 244.9142,-765.9361"/>
<polygon fill="#000000" stroke="#000000" points="242.3239,-763.549 237.0513,-772.7387 246.9038,-768.8428 242.3239,-763.549"/>
</g>
<!-- hpp&#45;pinocchio&#45;git&#45;&gt;hpp&#45;model&#45;urdf -->
<g id="edge24" class="edge">
<title>hpp&#45;pinocchio&#45;git&#45;&gt;hpp&#45;model&#45;urdf</title>
<path fill="none" stroke="#000000" d="M1109.3336,-1187.8031C1086.8846,-1187.8031 1062.8505,-1187.8031 1040.3704,-1187.8031"/>
<polygon fill="#000000" stroke="#000000" points="1040.1625,-1184.3032 1030.1624,-1187.8031 1040.1624,-1191.3032 1040.1625,-1184.3032"/>
</g>
<!-- hpp&#45;pinocchio&#45;git&#45;&gt;assimp -->
<g id="edge32" class="edge">
<title>hpp&#45;pinocchio&#45;git&#45;&gt;assimp</title>
<path fill="none" stroke="#000000" d="M1199.0945,-1205.9625C1189.7691,-1288.7849 1147.3285,-1629.7652 1073.4175,-1701.8031 847.0441,-1922.4394 412.441,-1857.0759 267.9595,-1827.6249"/>
<polygon fill="#000000" stroke="#000000" points="268.5677,-1824.1766 258.0651,-1825.571 267.1449,-1831.0305 268.5677,-1824.1766"/>
</g>
<!-- hpp&#45;pinocchio&#45;git&#45;&gt;doxygen -->
<g id="edge27" class="edge">
<title>hpp&#45;pinocchio&#45;git&#45;&gt;doxygen</title>
<path fill="none" stroke="#000000" d="M1199.3924,-1169.731C1191.3216,-1086.5725 1153.3826,-742.0347 1073.4175,-677.8031 951.0098,-579.4794 446.3899,-641.8876 276.2436,-666.2941"/>
<polygon fill="#000000" stroke="#000000" points="275.6371,-662.8453 266.241,-667.7406 276.639,-669.7733 275.6371,-662.8453"/>
</g>
<!-- hpp&#45;pinocchio&#45;git&#45;&gt;hpp_environments -->
<g id="edge26" class="edge">
<title>hpp&#45;pinocchio&#45;git&#45;&gt;hpp_environments</title>
<path fill="none" stroke="#000000" d="M1198.5577,-1205.8623C1187.5006,-1283.0848 1140.5739,-1584.4751 1073.4175,-1647.8031 1065.8642,-1654.9258 1056.9037,-1660.3499 1047.2986,-1664.4579"/>
<polygon fill="#000000" stroke="#000000" points="1046.0325,-1661.1948 1037.917,-1668.0057 1048.5086,-1667.7422 1046.0325,-1661.1948"/>
</g>
<!-- hpp&#45;pinocchio&#45;git&#45;&gt;romeo_description -->
<g id="edge25" class="edge">
<title>hpp&#45;pinocchio&#45;git&#45;&gt;romeo_description</title>
<path fill="none" stroke="#000000" d="M1197.6651,-1206.0911C1184.1267,-1277.1451 1131.8794,-1533.6589 1073.4175,-1588.8031 1064.5403,-1597.1765 1053.7859,-1603.4375 1042.3499,-1608.1054"/>
<polygon fill="#000000" stroke="#000000" points="1040.8017,-1604.9447 1032.6095,-1611.6632 1043.2034,-1611.5198 1040.8017,-1604.9447"/>
</g>
<!-- urdf&#45;git&#45;&gt;cmake -->
<g id="edge79" class="edge">
<title>urdf&#45;git&#45;&gt;cmake</title>
<path fill="none" stroke="#000000" d="M666.1554,-970.3229C640.4827,-985.9022 598.1766,-1009.0844 558.1569,-1019.8031 472.6262,-1042.7112 210.9836,-1050.5503 98.7801,-1052.9047"/>
<polygon fill="#000000" stroke="#000000" points="98.6451,-1049.4066 88.7185,-1053.1094 98.7876,-1056.4051 98.6451,-1049.4066"/>
</g>
<!-- urdf&#45;git&#45;&gt;git -->
<g id="edge80" class="edge">
<title>urdf&#45;git&#45;&gt;git</title>
<path fill="none" stroke="#000000" d="M683.4373,-936.9556C666.3775,-894.2441 619.1847,-783.8959 558.1569,-705.8031 460.8504,-581.2871 308.9463,-465.6424 247.3041,-421.1141"/>
<polygon fill="#000000" stroke="#000000" points="249.0461,-418.0562 238.8815,-415.0678 244.9639,-423.7427 249.0461,-418.0562"/>
</g>
<!-- urdf&#45;git&#45;&gt;boost -->
<g id="edge81" class="edge">
<title>urdf&#45;git&#45;&gt;boost</title>
<path fill="none" stroke="#000000" d="M659.4527,-941.5479C639.1102,-931.6874 612.8781,-916.6911 594.1569,-897.8031 571.7258,-875.1722 584.609,-853.568 558.1569,-835.8031 511.4689,-804.4479 348.2041,-793.7533 266.8067,-790.3176"/>
<polygon fill="#000000" stroke="#000000" points="266.4885,-786.802 256.356,-789.8975 266.2073,-793.7964 266.4885,-786.802"/>
</g>
<!-- urdf&#45;git&#45;&gt;urdfdom -->
<g id="edge82" class="edge">
<title>urdf&#45;git&#45;&gt;urdfdom</title>
<path fill="none" stroke="#000000" d="M668.0412,-970.7291C648.4501,-984.789 619.2423,-1005.9276 594.1569,-1024.8031 577.9601,-1036.9903 576.1623,-1043.4934 558.1569,-1052.8031 541.75,-1061.2862 522.7262,-1067.9106 505.3644,-1072.8761"/>
<polygon fill="#000000" stroke="#000000" points="504.0895,-1069.5961 495.3665,-1075.6095 505.9355,-1076.3483 504.0895,-1069.5961"/>
</g>
<!-- urdf&#45;git&#45;&gt;doxygen -->
<g id="edge78" class="edge">
<title>urdf&#45;git&#45;&gt;doxygen</title>
<path fill="none" stroke="#000000" d="M657.2798,-942.2614C636.543,-932.8688 610.6975,-918.1292 594.1569,-897.8031 563.0185,-859.5385 595.9683,-824.4901 558.1569,-792.8031 485.1107,-731.5883 435.0144,-794.5654 346.2757,-759.8031 308.8434,-745.1394 271.3008,-717.9034 246.9875,-698.2058"/>
<polygon fill="#000000" stroke="#000000" points="248.9028,-695.2486 238.9612,-691.5859 244.4488,-700.6489 248.9028,-695.2486"/>
</g>
<!-- hpp&#45;constraints -->
<g id="node47" class="node">
<title>hpp&#45;constraints</title>
<ellipse fill="none" stroke="#000000" cx="947.9787" cy="-912.8031" rx="83.6854" ry="18"/>
<text text-anchor="middle" x="947.9787" y="-909.1031" font-family="Times,serif" font-size="14.00" fill="#000000">hpp&#45;constraints</text>
</g>
<!-- hpp&#45;constraints&#45;&gt;hpp&#45;model -->
<g id="edge56" class="edge">
<title>hpp&#45;constraints&#45;&gt;hpp&#45;model</title>
<path fill="none" stroke="#000000" d="M905.4687,-928.3905C877.0443,-941.1604 841.5,-962.1627 822.5398,-992.8031 742.3478,-1122.396 839.0734,-1190.7461 786.5398,-1333.8031 770.0619,-1378.675 736.1565,-1422.9823 713.3295,-1449.6198"/>
<polygon fill="#000000" stroke="#000000" points="710.5664,-1447.463 706.6324,-1457.3004 715.8425,-1452.0634 710.5664,-1447.463"/>
</g>
<!-- hpp&#45;constraints&#45;&gt;cmake -->
<g id="edge55" class="edge">
<title>hpp&#45;constraints&#45;&gt;cmake</title>
<path fill="none" stroke="#000000" d="M945.5015,-894.6519C932.5952,-802.4428 870.4234,-386.5894 786.5398,-291.8031 725.613,-222.9574 673.6089,-262.0542 594.1569,-215.8031 576.4007,-205.4667 577.5328,-193.6365 558.1569,-186.8031 469.3487,-155.4823 440.4441,-186.3685 346.2757,-186.8031 249.9686,-187.2475 198.9502,-121.9851 129.5917,-188.8031 67.6698,-248.4568 115.5747,-878.6788 93.5917,-961.8031 87.3493,-985.4072 74.4961,-1009.9462 63.8371,-1027.7388"/>
<polygon fill="#000000" stroke="#000000" points="60.7744,-1026.0375 58.5098,-1036.3875 66.7344,-1029.7087 60.7744,-1026.0375"/>
</g>
</g>
</svg>
