<?xml version="1.0" encoding="UTF-8" standalone="no"?>
<!DOCTYPE svg PUBLIC "-//W3C//DTD SVG 1.1//EN"
 "http://www.w3.org/Graphics/SVG/1.1/DTD/svg11.dtd">
<!-- Generated by graphviz version 2.40.1 (20161225.0304)
 -->
<!-- Title: dependencies Pages: 1 -->
<svg width="1336pt" height="1990pt"
 viewBox="0.00 0.00 1335.80 1990.07" xmlns="http://www.w3.org/2000/svg" xmlns:xlink="http://www.w3.org/1999/xlink">
<g id="graph0" class="graph" transform="scale(1 1) rotate(0) translate(4 1986.0704)">
<title>dependencies</title>
<polygon fill="#ffffff" stroke="transparent" points="-4,4 -4,-1986.0704 1331.7982,-1986.0704 1331.7982,4 -4,4"/>
<!-- pinocchio -->
<g id="node1" class="node">
<title>pinocchio</title>
<ellipse fill="none" stroke="#000000" cx="725.4452" cy="-1750.0704" rx="55.7903" ry="18"/>
<text text-anchor="middle" x="725.4452" y="-1746.3704" font-family="Times,serif" font-size="14.00" fill="#000000">pinocchio</text>
</g>
<!-- hpp&#45;fcl -->
<g id="node4" class="node">
<title>hpp&#45;fcl</title>
<ellipse fill="none" stroke="#000000" cx="487.3131" cy="-1834.0704" rx="42.7926" ry="18"/>
<text text-anchor="middle" x="487.3131" y="-1830.3704" font-family="Times,serif" font-size="14.00" fill="#000000">hpp&#45;fcl</text>
</g>
<!-- pinocchio&#45;&gt;hpp&#45;fcl -->
<g id="edge9" class="edge">
<title>pinocchio&#45;&gt;hpp&#45;fcl</title>
<path fill="none" stroke="#000000" d="M683.6165,-1762.1208C666.4936,-1767.5315 646.6547,-1774.4219 629.2537,-1782.0704 612.4976,-1789.4355 610.1107,-1794.939 593.2537,-1802.0704 574.5048,-1810.0022 553.1275,-1816.85 534.5094,-1822.1524"/>
<polygon fill="#000000" stroke="#000000" points="533.4675,-1818.8092 524.7697,-1824.8588 535.3417,-1825.5536 533.4675,-1818.8092"/>
</g>
<!-- cmake -->
<g id="node11" class="node">
<title>cmake</title>
<ellipse fill="none" stroke="#000000" cx="64.3443" cy="-1097.0704" rx="41.6928" ry="18"/>
<text text-anchor="middle" x="64.3443" y="-1093.3704" font-family="Times,serif" font-size="14.00" fill="#000000">cmake</text>
</g>
<!-- pinocchio&#45;&gt;cmake -->
<g id="edge7" class="edge">
<title>pinocchio&#45;&gt;cmake</title>
<path fill="none" stroke="#000000" d="M714.7298,-1767.905C695.1319,-1798.5593 650.2347,-1860.241 593.2537,-1884.0704 417.275,-1957.6645 301.2324,-1994.2634 164.6886,-1861.0704 137.6495,-1834.6949 80.2035,-1260.0524 67.0612,-1125.2095"/>
<polygon fill="#000000" stroke="#000000" points="70.5435,-1124.8561 66.0925,-1115.2416 63.5763,-1125.5333 70.5435,-1124.8561"/>
</g>
<!-- metapod&#45;git -->
<g id="node14" class="node">
<title>metapod&#45;git</title>
<ellipse fill="none" stroke="#000000" cx="487.3131" cy="-1666.0704" rx="66.8882" ry="18"/>
<text text-anchor="middle" x="487.3131" y="-1662.3704" font-family="Times,serif" font-size="14.00" fill="#000000">metapod&#45;git</text>
</g>
<!-- pinocchio&#45;&gt;metapod&#45;git -->
<g id="edge5" class="edge">
<title>pinocchio&#45;&gt;metapod&#45;git</title>
<path fill="none" stroke="#000000" d="M681.5635,-1738.8286C665.0435,-1734.3158 646.1684,-1728.8217 629.2537,-1723.0704 596.1935,-1711.8293 559.6465,-1697.0972 531.9174,-1685.4265"/>
<polygon fill="#000000" stroke="#000000" points="533.0703,-1682.1139 522.4971,-1681.4368 530.3404,-1688.5596 533.0703,-1682.1139"/>
</g>
<!-- eigenpy -->
<g id="node23" class="node">
<title>eigenpy</title>
<ellipse fill="none" stroke="#000000" cx="487.3131" cy="-1238.0704" rx="47.3916" ry="18"/>
<text text-anchor="middle" x="487.3131" y="-1234.3704" font-family="Times,serif" font-size="14.00" fill="#000000">eigenpy</text>
</g>
<!-- pinocchio&#45;&gt;eigenpy -->
<g id="edge10" class="edge">
<title>pinocchio&#45;&gt;eigenpy</title>
<path fill="none" stroke="#000000" d="M670.6866,-1746.2329C655.112,-1742.4037 639.5908,-1735.4542 629.2537,-1723.0704 574.6149,-1657.6126 630.0889,-1417.9684 593.2537,-1341.0704 576.9961,-1307.1304 544.5811,-1278.2648 519.8659,-1259.8035"/>
<polygon fill="#000000" stroke="#000000" points="521.6321,-1256.7606 511.4841,-1253.7162 517.5187,-1262.4245 521.6321,-1256.7606"/>
</g>
<!-- urdfdom -->
<g id="node30" class="node">
<title>urdfdom</title>
<ellipse fill="none" stroke="#000000" cx="487.3131" cy="-1070.0704" rx="50.0912" ry="18"/>
<text text-anchor="middle" x="487.3131" y="-1066.3704" font-family="Times,serif" font-size="14.00" fill="#000000">urdfdom</text>
</g>
<!-- pinocchio&#45;&gt;urdfdom -->
<g id="edge11" class="edge">
<title>pinocchio&#45;&gt;urdfdom</title>
<path fill="none" stroke="#000000" d="M670.5067,-1746.3812C654.9237,-1742.559 639.4429,-1735.5762 629.2537,-1723.0704 557.2092,-1634.6455 633.1433,-1317.9264 593.2537,-1211.0704 575.9055,-1164.598 538.0865,-1120.4759 512.6541,-1094.3412"/>
<polygon fill="#000000" stroke="#000000" points="515.0427,-1091.7792 505.5163,-1087.1425 510.072,-1096.7079 515.0427,-1091.7792"/>
</g>
<!-- lua51 -->
<g id="node31" class="node">
<title>lua51</title>
<ellipse fill="none" stroke="#000000" cx="487.3131" cy="-1574.0704" rx="36.2938" ry="18"/>
<text text-anchor="middle" x="487.3131" y="-1570.3704" font-family="Times,serif" font-size="14.00" fill="#000000">lua51</text>
</g>
<!-- pinocchio&#45;&gt;lua51 -->
<g id="edge6" class="edge">
<title>pinocchio&#45;&gt;lua51</title>
<path fill="none" stroke="#000000" d="M672.3678,-1743.977C657.0512,-1740.0357 641.2532,-1733.59 629.2537,-1723.0704 598.7113,-1696.2947 619.8121,-1669.802 593.2537,-1639.0704 574.7352,-1617.6419 547.3582,-1601.1003 525.0739,-1590.0673"/>
<polygon fill="#000000" stroke="#000000" points="526.4084,-1586.826 515.8759,-1585.6779 523.3935,-1593.1436 526.4084,-1586.826"/>
</g>
<!-- eigen32 -->
<g id="node46" class="node">
<title>eigen32</title>
<ellipse fill="none" stroke="#000000" cx="255.0306" cy="-1834.0704" rx="48.1917" ry="18"/>
<text text-anchor="middle" x="255.0306" y="-1830.3704" font-family="Times,serif" font-size="14.00" fill="#000000">eigen32</text>
</g>
<!-- pinocchio&#45;&gt;eigen32 -->
<g id="edge8" class="edge">
<title>pinocchio&#45;&gt;eigen32</title>
<path fill="none" stroke="#000000" d="M711.5409,-1767.8546C689.6957,-1794.1778 644.5025,-1842.4073 593.2537,-1861.0704 493.4868,-1897.4022 366.5379,-1869.1872 300.143,-1849.3077"/>
<polygon fill="#000000" stroke="#000000" points="300.9952,-1845.9083 290.4085,-1846.322 298.9425,-1852.6005 300.9952,-1845.9083"/>
</g>
<!-- boost -->
<g id="node2" class="node">
<title>boost</title>
<ellipse fill="none" stroke="#000000" cx="64.3443" cy="-707.0704" rx="36.2938" ry="18"/>
<text text-anchor="middle" x="64.3443" y="-703.3704" font-family="Times,serif" font-size="14.00" fill="#000000">boost</text>
</g>
<!-- openscenegraph&#45;qt4 -->
<g id="node3" class="node">
<title>openscenegraph&#45;qt4</title>
<ellipse fill="none" stroke="#000000" cx="487.3131" cy="-246.0704" rx="105.8812" ry="18"/>
<text text-anchor="middle" x="487.3131" y="-242.3704" font-family="Times,serif" font-size="14.00" fill="#000000">openscenegraph&#45;qt4</text>
</g>
<!-- assimp -->
<g id="node10" class="node">
<title>assimp</title>
<ellipse fill="none" stroke="#000000" cx="255.0306" cy="-1514.0704" rx="43.5923" ry="18"/>
<text text-anchor="middle" x="255.0306" y="-1510.3704" font-family="Times,serif" font-size="14.00" fill="#000000">assimp</text>
</g>
<!-- hpp&#45;fcl&#45;&gt;assimp -->
<g id="edge14" class="edge">
<title>hpp&#45;fcl&#45;&gt;assimp</title>
<path fill="none" stroke="#000000" d="M474.0985,-1816.8284C453.8855,-1790.3779 414.1806,-1738.1154 381.3725,-1693.0704 342.1085,-1639.1615 297.3637,-1575.1315 273.0634,-1540.1315"/>
<polygon fill="#000000" stroke="#000000" points="275.6324,-1537.6941 267.0571,-1531.4719 269.8805,-1541.6836 275.6324,-1537.6941"/>
</g>
<!-- hpp&#45;fcl&#45;&gt;cmake -->
<g id="edge12" class="edge">
<title>hpp&#45;fcl&#45;&gt;cmake</title>
<path fill="none" stroke="#000000" d="M447.9029,-1826.7516C363.9813,-1811.0002 174.4403,-1774.4706 164.6886,-1764.0704 120.0754,-1716.4905 77.1137,-1246.5365 66.7192,-1125.4231"/>
<polygon fill="#000000" stroke="#000000" points="70.1781,-1124.7904 65.8419,-1115.1236 63.2034,-1125.3846 70.1781,-1124.7904"/>
</g>
<!-- hpp&#45;fcl&#45;&gt;eigen32 -->
<g id="edge13" class="edge">
<title>hpp&#45;fcl&#45;&gt;eigen32</title>
<path fill="none" stroke="#000000" d="M444.167,-1834.0704C407.2772,-1834.0704 353.8646,-1834.0704 313.2018,-1834.0704"/>
<polygon fill="#000000" stroke="#000000" points="313.1564,-1830.5705 303.1564,-1834.0704 313.1563,-1837.5705 313.1564,-1830.5705"/>
</g>
<!-- urdfdom&#45;headers -->
<g id="node5" class="node">
<title>urdfdom&#45;headers</title>
<ellipse fill="none" stroke="#000000" cx="255.0306" cy="-1032.0704" rx="90.1842" ry="18"/>
<text text-anchor="middle" x="255.0306" y="-1028.3704" font-family="Times,serif" font-size="14.00" fill="#000000">urdfdom&#45;headers</text>
</g>
<!-- urdfdom&#45;headers&#45;&gt;cmake -->
<g id="edge42" class="edge">
<title>urdfdom&#45;headers&#45;&gt;cmake</title>
<path fill="none" stroke="#000000" d="M209.3565,-1047.6395C178.1381,-1058.281 137.063,-1072.2825 106.6007,-1082.6663"/>
<polygon fill="#000000" stroke="#000000" points="105.4451,-1079.3624 97.1092,-1085.9017 107.7037,-1085.988 105.4451,-1079.3624"/>
</g>
<!-- hpp&#45;model&#45;urdf -->
<g id="node6" class="node">
<title>hpp&#45;model&#45;urdf</title>
<ellipse fill="none" stroke="#000000" cx="983.0755" cy="-982.0704" rx="81.7856" ry="18"/>
<text text-anchor="middle" x="983.0755" y="-978.3704" font-family="Times,serif" font-size="14.00" fill="#000000">hpp&#45;model&#45;urdf</text>
</g>
<!-- hpp&#45;model&#45;urdf&#45;&gt;assimp -->
<g id="edge16" class="edge">
<title>hpp&#45;model&#45;urdf&#45;&gt;assimp</title>
<path fill="none" stroke="#000000" d="M965.0712,-999.7843C912.708,-1050.1972 753.9719,-1195.3044 593.2537,-1265.0704 505.2695,-1303.2634 451.3321,-1240.4534 381.3725,-1306.0704 335.14,-1349.4331 380.2889,-1391.1684 345.3725,-1444.0704 331.5967,-1464.9423 309.4869,-1482.2299 290.5886,-1494.4034"/>
<polygon fill="#000000" stroke="#000000" points="288.5491,-1491.5498 281.8973,-1499.7963 292.2399,-1497.4978 288.5491,-1491.5498"/>
</g>
<!-- hpp&#45;model&#45;urdf&#45;&gt;cmake -->
<g id="edge15" class="edge">
<title>hpp&#45;model&#45;urdf&#45;&gt;cmake</title>
<path fill="none" stroke="#000000" d="M943.4002,-966.2456C796.6552,-908.8985 286.8203,-720.5184 164.6886,-821.0704 100.358,-874.0343 161.2736,-928.3774 128.6886,-1005.0704 118.2085,-1029.7365 100.4239,-1054.4466 86.2047,-1072.0376"/>
<polygon fill="#000000" stroke="#000000" points="83.237,-1070.1341 79.5585,-1080.0699 88.6301,-1074.5966 83.237,-1070.1341"/>
</g>
<!-- hpp&#45;util&#45;git -->
<g id="node12" class="node">
<title>hpp&#45;util&#45;git</title>
<ellipse fill="none" stroke="#000000" cx="487.3131" cy="-642.0704" rx="62.2891" ry="18"/>
<text text-anchor="middle" x="487.3131" y="-638.3704" font-family="Times,serif" font-size="14.00" fill="#000000">hpp&#45;util&#45;git</text>
</g>
<!-- hpp&#45;model&#45;urdf&#45;&gt;hpp&#45;util&#45;git -->
<g id="edge17" class="edge">
<title>hpp&#45;model&#45;urdf&#45;&gt;hpp&#45;util&#45;git</title>
<path fill="none" stroke="#000000" d="M977.556,-963.8041C961.8795,-915.2126 912.2562,-782.0602 821.6367,-717.0704 779.4829,-686.8388 639.5888,-662.9885 554.6993,-650.8566"/>
<polygon fill="#000000" stroke="#000000" points="555.0209,-647.3674 544.6299,-649.4356 554.0426,-654.2987 555.0209,-647.3674"/>
</g>
<!-- srdfdom&#45;git -->
<g id="node26" class="node">
<title>srdfdom&#45;git</title>
<ellipse fill="none" stroke="#000000" cx="487.3131" cy="-978.0704" rx="64.9885" ry="18"/>
<text text-anchor="middle" x="487.3131" y="-974.3704" font-family="Times,serif" font-size="14.00" fill="#000000">srdfdom&#45;git</text>
</g>
<!-- hpp&#45;model&#45;urdf&#45;&gt;srdfdom&#45;git -->
<g id="edge22" class="edge">
<title>hpp&#45;model&#45;urdf&#45;&gt;srdfdom&#45;git</title>
<path fill="none" stroke="#000000" d="M913.2892,-972.5771C884.9116,-969.1641 851.7655,-965.7449 821.6367,-964.0704 736.2649,-959.3257 714.654,-959.869 629.2537,-964.0704 605.6631,-965.231 579.9466,-967.4703 556.9636,-969.8234"/>
<polygon fill="#000000" stroke="#000000" points="556.5363,-966.3489 546.9557,-970.8724 557.2661,-973.3108 556.5363,-966.3489"/>
</g>
<!-- resource&#45;retriever -->
<g id="node29" class="node">
<title>resource&#45;retriever</title>
<ellipse fill="none" stroke="#000000" cx="725.4452" cy="-779.0704" rx="96.3833" ry="18"/>
<text text-anchor="middle" x="725.4452" y="-775.3704" font-family="Times,serif" font-size="14.00" fill="#000000">resource&#45;retriever</text>
</g>
<!-- hpp&#45;model&#45;urdf&#45;&gt;resource&#45;retriever -->
<g id="edge20" class="edge">
<title>hpp&#45;model&#45;urdf&#45;&gt;resource&#45;retriever</title>
<path fill="none" stroke="#000000" d="M965.8571,-964.4373C941.5192,-939.4347 895.7707,-892.1471 857.6367,-851.0704 841.3639,-833.5419 841.6485,-824.1691 821.6367,-811.0704 813.0998,-805.4826 803.4965,-800.7845 793.7475,-796.8598"/>
<polygon fill="#000000" stroke="#000000" points="794.9777,-793.5832 784.3859,-793.3301 792.5081,-800.1331 794.9777,-793.5832"/>
</g>
<!-- hpp&#45;model&#45;urdf&#45;&gt;urdfdom -->
<g id="edge21" class="edge">
<title>hpp&#45;model&#45;urdf&#45;&gt;urdfdom</title>
<path fill="none" stroke="#000000" d="M952.6185,-998.8956C920.9491,-1015.464 869.4138,-1039.8666 821.6367,-1051.0704 727.5568,-1073.1322 614.7048,-1074.555 547.1192,-1072.8394"/>
<polygon fill="#000000" stroke="#000000" points="547.1731,-1069.3396 537.0772,-1072.5528 546.9733,-1076.3368 547.1731,-1069.3396"/>
</g>
<!-- urdf&#45;git -->
<g id="node40" class="node">
<title>urdf&#45;git</title>
<ellipse fill="none" stroke="#000000" cx="725.4452" cy="-1024.0704" rx="45.4919" ry="18"/>
<text text-anchor="middle" x="725.4452" y="-1020.3704" font-family="Times,serif" font-size="14.00" fill="#000000">urdf&#45;git</text>
</g>
<!-- hpp&#45;model&#45;urdf&#45;&gt;urdf&#45;git -->
<g id="edge19" class="edge">
<title>hpp&#45;model&#45;urdf&#45;&gt;urdf&#45;git</title>
<path fill="none" stroke="#000000" d="M917.0639,-992.8319C873.7706,-999.8898 817.9465,-1008.9904 777.7324,-1015.5463"/>
<polygon fill="#000000" stroke="#000000" points="777.1684,-1012.092 767.8619,-1017.1555 778.2948,-1019.0008 777.1684,-1012.092"/>
</g>
<!-- hpp&#45;model -->
<g id="node42" class="node">
<title>hpp&#45;model</title>
<ellipse fill="none" stroke="#000000" cx="725.4452" cy="-1696.0704" rx="59.5901" ry="18"/>
<text text-anchor="middle" x="725.4452" y="-1692.3704" font-family="Times,serif" font-size="14.00" fill="#000000">hpp&#45;model</text>
</g>
<!-- hpp&#45;model&#45;urdf&#45;&gt;hpp&#45;model -->
<g id="edge18" class="edge">
<title>hpp&#45;model&#45;urdf&#45;&gt;hpp&#45;model</title>
<path fill="none" stroke="#000000" d="M961.0235,-999.7328C931.9479,-1024.405 881.6714,-1072.1496 857.6367,-1125.0704 807.5757,-1235.297 848.1663,-1276.951 821.6367,-1395.0704 798.5316,-1497.9427 755.9045,-1615.9992 736.0891,-1668.4626"/>
<polygon fill="#000000" stroke="#000000" points="732.7238,-1667.4657 732.4427,-1678.0568 739.2671,-1669.9526 732.7238,-1667.4657"/>
</g>
<!-- python2&#45;numpy -->
<g id="node7" class="node">
<title>python2&#45;numpy</title>
<ellipse fill="none" stroke="#000000" cx="255.0306" cy="-1330.0704" rx="83.3857" ry="18"/>
<text text-anchor="middle" x="255.0306" y="-1326.3704" font-family="Times,serif" font-size="14.00" fill="#000000">python2&#45;numpy</text>
</g>
<!-- romeo_description -->
<g id="node8" class="node">
<title>romeo_description</title>
<ellipse fill="none" stroke="#000000" cx="983.0755" cy="-1872.0704" rx="97.4827" ry="18"/>
<text text-anchor="middle" x="983.0755" y="-1868.3704" font-family="Times,serif" font-size="14.00" fill="#000000">romeo_description</text>
</g>
<!-- curl -->
<g id="node9" class="node">
<title>curl</title>
<ellipse fill="none" stroke="#000000" cx="487.3131" cy="-734.0704" rx="29.4969" ry="18"/>
<text text-anchor="middle" x="487.3131" y="-730.3704" font-family="Times,serif" font-size="14.00" fill="#000000">curl</text>
</g>
<!-- hpp&#45;util&#45;git&#45;&gt;boost -->
<g id="edge46" class="edge">
<title>hpp&#45;util&#45;git&#45;&gt;boost</title>
<path fill="none" stroke="#000000" d="M436.9693,-631.3753C372.2457,-619.8034 257.1807,-606.6575 164.6886,-636.0704 135.1488,-645.4642 106.8266,-667.0548 87.8498,-683.9776"/>
<polygon fill="#000000" stroke="#000000" points="85.3135,-681.5548 80.3128,-690.8953 90.0468,-686.7119 85.3135,-681.5548"/>
</g>
<!-- hpp&#45;util&#45;git&#45;&gt;cmake -->
<g id="edge44" class="edge">
<title>hpp&#45;util&#45;git&#45;&gt;cmake</title>
<path fill="none" stroke="#000000" d="M425.271,-644.2318C351.1817,-650.3897 229.1982,-672.5439 164.6886,-750.0704 91.4791,-838.0523 170.6414,-898.5791 128.6886,-1005.0704 118.8653,-1030.0054 101.0319,-1054.6955 86.6269,-1072.2104"/>
<polygon fill="#000000" stroke="#000000" points="83.657,-1070.3027 79.8809,-1080.2018 89.0059,-1074.8181 83.657,-1070.3027"/>
</g>
<!-- tinyxml -->
<g id="node33" class="node">
<title>tinyxml</title>
<ellipse fill="none" stroke="#000000" cx="255.0306" cy="-848.0704" rx="46.2923" ry="18"/>
<text text-anchor="middle" x="255.0306" y="-844.3704" font-family="Times,serif" font-size="14.00" fill="#000000">tinyxml</text>
</g>
<!-- hpp&#45;util&#45;git&#45;&gt;tinyxml -->
<g id="edge47" class="edge">
<title>hpp&#45;util&#45;git&#45;&gt;tinyxml</title>
<path fill="none" stroke="#000000" d="M456.529,-657.8372C434.5014,-669.8416 404.7362,-687.5805 381.3725,-707.0704 338.8743,-742.5223 297.6242,-792.3365 274.3654,-822.2831"/>
<polygon fill="#000000" stroke="#000000" points="271.3396,-820.4765 268.0196,-830.5378 276.8892,-824.7428 271.3396,-820.4765"/>
</g>
<!-- git -->
<g id="node34" class="node">
<title>git</title>
<ellipse fill="none" stroke="#000000" cx="255.0306" cy="-566.0704" rx="27" ry="18"/>
<text text-anchor="middle" x="255.0306" y="-562.3704" font-family="Times,serif" font-size="14.00" fill="#000000">git</text>
</g>
<!-- hpp&#45;util&#45;git&#45;&gt;git -->
<g id="edge45" class="edge">
<title>hpp&#45;util&#45;git&#45;&gt;git</title>
<path fill="none" stroke="#000000" d="M443.3729,-629.2459C424.2659,-623.5538 401.6549,-616.6622 381.3725,-610.0704 349.7816,-599.8033 314.0568,-587.2755 288.6763,-578.2173"/>
<polygon fill="#000000" stroke="#000000" points="289.7443,-574.8822 279.1497,-574.8068 287.3849,-581.4726 289.7443,-574.8822"/>
</g>
<!-- doxygen -->
<g id="node45" class="node">
<title>doxygen</title>
<ellipse fill="none" stroke="#000000" cx="255.0306" cy="-501.0704" rx="50.0912" ry="18"/>
<text text-anchor="middle" x="255.0306" y="-497.3704" font-family="Times,serif" font-size="14.00" fill="#000000">doxygen</text>
</g>
<!-- hpp&#45;util&#45;git&#45;&gt;doxygen -->
<g id="edge43" class="edge">
<title>hpp&#45;util&#45;git&#45;&gt;doxygen</title>
<path fill="none" stroke="#000000" d="M466.6996,-624.7614C439.9536,-602.8701 391.2668,-564.9197 345.3725,-539.0704 331.1435,-531.0561 314.8855,-523.7099 300.1199,-517.6574"/>
<polygon fill="#000000" stroke="#000000" points="301.2531,-514.341 290.6686,-513.8727 298.6509,-520.8394 301.2531,-514.341"/>
</g>
<!-- eigen -->
<g id="node13" class="node">
<title>eigen</title>
<ellipse fill="none" stroke="#000000" cx="255.0306" cy="-1276.0704" rx="36.2938" ry="18"/>
<text text-anchor="middle" x="255.0306" y="-1272.3704" font-family="Times,serif" font-size="14.00" fill="#000000">eigen</text>
</g>
<!-- qt4 -->
<g id="node15" class="node">
<title>qt4</title>
<ellipse fill="none" stroke="#000000" cx="64.3443" cy="-1726.0704" rx="27" ry="18"/>
<text text-anchor="middle" x="64.3443" y="-1722.3704" font-family="Times,serif" font-size="14.00" fill="#000000">qt4</text>
</g>
<!-- gcc&#45;libs -->
<g id="node16" class="node">
<title>gcc&#45;libs</title>
<ellipse fill="none" stroke="#000000" cx="64.3443" cy="-978.0704" rx="46.5926" ry="18"/>
<text text-anchor="middle" x="64.3443" y="-974.3704" font-family="Times,serif" font-size="14.00" fill="#000000">gcc&#45;libs</text>
</g>
<!-- java&#45;runtime -->
<g id="node17" class="node">
<title>java&#45;runtime</title>
<ellipse fill="none" stroke="#000000" cx="983.0755" cy="-1964.0704" rx="69.5877" ry="18"/>
<text text-anchor="middle" x="983.0755" y="-1960.3704" font-family="Times,serif" font-size="14.00" fill="#000000">java&#45;runtime</text>
</g>
<!-- hpp&#45;constraints -->
<g id="node18" class="node">
<title>hpp&#45;constraints</title>
<ellipse fill="none" stroke="#000000" cx="983.0755" cy="-1650.0704" rx="83.6854" ry="18"/>
<text text-anchor="middle" x="983.0755" y="-1646.3704" font-family="Times,serif" font-size="14.00" fill="#000000">hpp&#45;constraints</text>
</g>
<!-- hpp&#45;constraints&#45;&gt;cmake -->
<g id="edge55" class="edge">
<title>hpp&#45;constraints&#45;&gt;cmake</title>
<path fill="none" stroke="#000000" d="M906.3781,-1642.7327C833.2182,-1638.3681 720.9058,-1638.6139 629.2537,-1669.0704 611.0053,-1675.1345 611.6583,-1687.498 593.2537,-1693.0704 503.1249,-1720.3592 472.9965,-1714.8173 381.3725,-1693.0704 276.4843,-1668.1752 230.2685,-1669.6308 164.6886,-1584.0704 108.3019,-1510.5042 75.9056,-1217.6686 66.9289,-1125.2019"/>
<polygon fill="#000000" stroke="#000000" points="70.4074,-1124.809 65.9727,-1115.1869 63.4391,-1125.4743 70.4074,-1124.809"/>
</g>
<!-- hpp&#45;constraints&#45;&gt;hpp&#45;model -->
<g id="edge56" class="edge">
<title>hpp&#45;constraints&#45;&gt;hpp&#45;model</title>
<path fill="none" stroke="#000000" d="M918.3971,-1661.6188C878.2218,-1668.7921 826.8718,-1677.9606 787.2468,-1685.0357"/>
<polygon fill="#000000" stroke="#000000" points="786.4097,-1681.6297 777.1806,-1686.833 787.6401,-1688.5208 786.4097,-1681.6297"/>
</g>
<!-- gcc&#45;fortran -->
<g id="node19" class="node">
<title>gcc&#45;fortran</title>
<ellipse fill="none" stroke="#000000" cx="64.3443" cy="-1942.0704" rx="63.0888" ry="18"/>
<text text-anchor="middle" x="64.3443" y="-1938.3704" font-family="Times,serif" font-size="14.00" fill="#000000">gcc&#45;fortran</text>
</g>
<!-- console&#45;bridge -->
<g id="node20" class="node">
<title>console&#45;bridge</title>
<ellipse fill="none" stroke="#000000" cx="255.0306" cy="-978.0704" rx="79.0865" ry="18"/>
<text text-anchor="middle" x="255.0306" y="-974.3704" font-family="Times,serif" font-size="14.00" fill="#000000">console&#45;bridge</text>
</g>
<!-- console&#45;bridge&#45;&gt;cmake -->
<g id="edge121" class="edge">
<title>console&#45;bridge&#45;&gt;cmake</title>
<path fill="none" stroke="#000000" d="M198.4694,-990.6935C186.893,-994.4418 175.0813,-999.1718 164.6886,-1005.0704 133.5216,-1022.7597 104.0723,-1051.7697 85.2399,-1072.4841"/>
<polygon fill="#000000" stroke="#000000" points="82.6028,-1070.1825 78.5606,-1079.976 87.8278,-1074.8408 82.6028,-1070.1825"/>
</g>
<!-- console&#45;bridge&#45;&gt;gcc&#45;libs -->
<g id="edge122" class="edge">
<title>console&#45;bridge&#45;&gt;gcc&#45;libs</title>
<path fill="none" stroke="#000000" d="M175.5432,-978.0704C157.4329,-978.0704 138.5374,-978.0704 121.5699,-978.0704"/>
<polygon fill="#000000" stroke="#000000" points="121.2786,-974.5705 111.2786,-978.0704 121.2786,-981.5705 121.2786,-974.5705"/>
</g>
<!-- pinocchio&#45;git -->
<g id="node21" class="node">
<title>pinocchio&#45;git</title>
<ellipse fill="none" stroke="#000000" cx="725.4452" cy="-1368.0704" rx="71.4873" ry="18"/>
<text text-anchor="middle" x="725.4452" y="-1364.3704" font-family="Times,serif" font-size="14.00" fill="#000000">pinocchio&#45;git</text>
</g>
<!-- pinocchio&#45;git&#45;&gt;cmake -->
<g id="edge99" class="edge">
<title>pinocchio&#45;git&#45;&gt;cmake</title>
<path fill="none" stroke="#000000" d="M661.4625,-1359.9862C649.5347,-1355.9226 638.0691,-1349.9166 629.2537,-1341.0704 586.9353,-1298.6037 638.4217,-1250.4928 593.2537,-1211.0704 557.0511,-1179.4728 210.2748,-1168.2669 164.6886,-1153.0704 139.8538,-1144.7916 114.1147,-1130.2868 94.9232,-1118.1137"/>
<polygon fill="#000000" stroke="#000000" points="96.622,-1115.0438 86.3274,-1112.5395 92.8134,-1120.917 96.622,-1115.0438"/>
</g>
<!-- pinocchio&#45;git&#45;&gt;metapod&#45;git -->
<g id="edge96" class="edge">
<title>pinocchio&#45;git&#45;&gt;metapod&#45;git</title>
<path fill="none" stroke="#000000" d="M718.8768,-1386.0915C702.8791,-1428.0234 658.3747,-1533.6792 593.2537,-1601.0704 575.4898,-1619.4536 551.4794,-1634.7426 530.808,-1645.8642"/>
<polygon fill="#000000" stroke="#000000" points="529.1264,-1642.7938 521.8815,-1650.5244 532.366,-1648.9991 529.1264,-1642.7938"/>
</g>
<!-- pinocchio&#45;git&#45;&gt;eigenpy -->
<g id="edge102" class="edge">
<title>pinocchio&#45;git&#45;&gt;eigenpy</title>
<path fill="none" stroke="#000000" d="M670.7858,-1356.3361C656.8801,-1352.3842 642.2128,-1347.3414 629.2537,-1341.0704 585.2918,-1319.7967 540.6943,-1284.7437 513.5177,-1261.5316"/>
<polygon fill="#000000" stroke="#000000" points="515.5156,-1258.6319 505.6629,-1254.7363 510.9357,-1263.9258 515.5156,-1258.6319"/>
</g>
<!-- pinocchio&#45;git&#45;&gt;urdfdom -->
<g id="edge103" class="edge">
<title>pinocchio&#45;git&#45;&gt;urdfdom</title>
<path fill="none" stroke="#000000" d="M660.6004,-1360.1704C648.8796,-1356.0823 637.7134,-1350.0201 629.2537,-1341.0704 578.2901,-1287.1547 628.599,-1243.3001 593.2537,-1178.0704 574.5919,-1143.6299 541.7178,-1112.6629 517.5249,-1092.8113"/>
<polygon fill="#000000" stroke="#000000" points="519.6748,-1090.0489 509.6863,-1086.5162 515.2917,-1095.5068 519.6748,-1090.0489"/>
</g>
<!-- pinocchio&#45;git&#45;&gt;lua51 -->
<g id="edge97" class="edge">
<title>pinocchio&#45;git&#45;&gt;lua51</title>
<path fill="none" stroke="#000000" d="M716.7151,-1386.0819C698.6756,-1421.401 653.8512,-1499.9677 593.2537,-1542.0704 575.3013,-1554.5436 552.3802,-1562.2505 532.453,-1566.964"/>
<polygon fill="#000000" stroke="#000000" points="531.6708,-1563.5522 522.6478,-1569.1052 533.1643,-1570.3911 531.6708,-1563.5522"/>
</g>
<!-- pinocchio&#45;git&#45;&gt;git -->
<g id="edge100" class="edge">
<title>pinocchio&#45;git&#45;&gt;git</title>
<path fill="none" stroke="#000000" d="M659.6963,-1360.9728C648.0456,-1356.8226 637.1364,-1350.5323 629.2537,-1341.0704 573.5447,-1274.2003 651.3797,-1015.8507 593.2537,-951.0704 529.0812,-879.5512 449.0444,-976.288 381.3725,-908.0704 322.3804,-848.6026 374.6589,-801.5484 345.3725,-723.0704 326.8393,-673.4073 293.5444,-621.0775 272.9625,-591.1243"/>
<polygon fill="#000000" stroke="#000000" points="275.598,-588.784 267.0135,-582.5746 269.8521,-592.7821 275.598,-588.784"/>
</g>
<!-- hpp&#45;fcl&#45;git -->
<g id="node37" class="node">
<title>hpp&#45;fcl&#45;git</title>
<ellipse fill="none" stroke="#000000" cx="487.3131" cy="-1368.0704" rx="58.4896" ry="18"/>
<text text-anchor="middle" x="487.3131" y="-1364.3704" font-family="Times,serif" font-size="14.00" fill="#000000">hpp&#45;fcl&#45;git</text>
</g>
<!-- pinocchio&#45;git&#45;&gt;hpp&#45;fcl&#45;git -->
<g id="edge98" class="edge">
<title>pinocchio&#45;git&#45;&gt;hpp&#45;fcl&#45;git</title>
<path fill="none" stroke="#000000" d="M653.6748,-1368.0704C622.7925,-1368.0704 586.8413,-1368.0704 556.2772,-1368.0704"/>
<polygon fill="#000000" stroke="#000000" points="556.1337,-1364.5705 546.1337,-1368.0704 556.1337,-1371.5705 556.1337,-1364.5705"/>
</g>
<!-- pinocchio&#45;git&#45;&gt;eigen32 -->
<g id="edge101" class="edge">
<title>pinocchio&#45;git&#45;&gt;eigen32</title>
<path fill="none" stroke="#000000" d="M713.5892,-1385.9519C692.9191,-1415.5924 647.2921,-1474.5553 593.2537,-1504.0704 508.9235,-1550.1305 456.1995,-1486.7873 381.3725,-1547.0704 297.9602,-1614.2702 268.1341,-1747.7053 258.7964,-1805.8679"/>
<polygon fill="#000000" stroke="#000000" points="255.3264,-1805.4067 257.2829,-1815.8192 262.2468,-1806.4592 255.3264,-1805.4067"/>
</g>
<!-- freeglut -->
<g id="node22" class="node">
<title>freeglut</title>
<ellipse fill="none" stroke="#000000" cx="64.3443" cy="-1888.0704" rx="48.1917" ry="18"/>
<text text-anchor="middle" x="64.3443" y="-1884.3704" font-family="Times,serif" font-size="14.00" fill="#000000">freeglut</text>
</g>
<!-- eigenpy&#45;&gt;boost -->
<g id="edge63" class="edge">
<title>eigenpy&#45;&gt;boost</title>
<path fill="none" stroke="#000000" d="M448.8593,-1227.4373C381.05,-1206.6825 240.2588,-1154.265 164.6886,-1059.0704 154.2903,-1045.9718 93.121,-816.3185 71.7275,-735.181"/>
<polygon fill="#000000" stroke="#000000" points="75.026,-733.9624 69.0946,-725.1835 68.2568,-735.7451 75.026,-733.9624"/>
</g>
<!-- eigenpy&#45;&gt;python2&#45;numpy -->
<g id="edge64" class="edge">
<title>eigenpy&#45;&gt;python2&#45;numpy</title>
<path fill="none" stroke="#000000" d="M444.8085,-1246.2896C424.7142,-1251.3068 400.9069,-1258.9468 381.3725,-1270.0704 362.5111,-1280.8108 364.2497,-1292.3576 345.3725,-1303.0704 338.2874,-1307.0912 330.5429,-1310.5691 322.6631,-1313.5632"/>
<polygon fill="#000000" stroke="#000000" points="321.2769,-1310.3411 313.0196,-1316.9794 323.6144,-1316.9393 321.2769,-1310.3411"/>
</g>
<!-- eigenpy&#45;&gt;cmake -->
<g id="edge61" class="edge">
<title>eigenpy&#45;&gt;cmake</title>
<path fill="none" stroke="#000000" d="M440.7455,-1241.8709C419.9837,-1245.8935 396.7867,-1253.9729 381.3725,-1270.0704 336.6413,-1316.7847 396.4506,-1371.395 345.3725,-1411.0704 281.9532,-1460.3321 229.5413,-1458.4293 164.6886,-1411.0704 117.3201,-1376.4794 81.4752,-1195.9734 69.0685,-1125.3954"/>
<polygon fill="#000000" stroke="#000000" points="72.498,-1124.6869 67.3447,-1115.4298 65.6004,-1125.8801 72.498,-1124.6869"/>
</g>
<!-- eigenpy&#45;&gt;eigen -->
<g id="edge62" class="edge">
<title>eigenpy&#45;&gt;eigen</title>
<path fill="none" stroke="#000000" d="M443.6226,-1245.2179C402.552,-1251.9368 341.3559,-1261.9481 299.9043,-1268.7293"/>
<polygon fill="#000000" stroke="#000000" points="299.1191,-1265.3112 289.8154,-1270.3798 300.2493,-1272.2193 299.1191,-1265.3112"/>
</g>
<!-- boost&#45;libs -->
<g id="node27" class="node">
<title>boost&#45;libs</title>
<ellipse fill="none" stroke="#000000" cx="255.0306" cy="-1384.0704" rx="55.7903" ry="18"/>
<text text-anchor="middle" x="255.0306" y="-1380.3704" font-family="Times,serif" font-size="14.00" fill="#000000">boost&#45;libs</text>
</g>
<!-- eigenpy&#45;&gt;boost&#45;libs -->
<g id="edge65" class="edge">
<title>eigenpy&#45;&gt;boost&#45;libs</title>
<path fill="none" stroke="#000000" d="M441.4719,-1242.9462C420.9925,-1247.206 397.8213,-1255.1744 381.3725,-1270.0704 350.3549,-1298.1599 376.4312,-1329.0264 345.3725,-1357.0704 337.1866,-1364.4618 327.0518,-1369.8328 316.5611,-1373.7349"/>
<polygon fill="#000000" stroke="#000000" points="315.2784,-1370.4722 306.8724,-1376.9213 317.4653,-1377.1219 315.2784,-1370.4722"/>
</g>
<!-- eigenpy&#45;&gt;doxygen -->
<g id="edge60" class="edge">
<title>eigenpy&#45;&gt;doxygen</title>
<path fill="none" stroke="#000000" d="M469.0689,-1221.0135C444.1159,-1196.3861 400.2859,-1148.185 381.3725,-1097.0704 338.2521,-980.5345 417.4222,-640.307 345.3725,-539.0704 336.6348,-526.793 323.1306,-518.4625 309.2035,-512.8173"/>
<polygon fill="#000000" stroke="#000000" points="310.1417,-509.4348 299.5475,-509.3227 307.7595,-516.017 310.1417,-509.4348"/>
</g>
<!-- suitesparse -->
<g id="node24" class="node">
<title>suitesparse</title>
<ellipse fill="none" stroke="#000000" cx="64.3443" cy="-1834.0704" rx="64.189" ry="18"/>
<text text-anchor="middle" x="64.3443" y="-1830.3704" font-family="Times,serif" font-size="14.00" fill="#000000">suitesparse</text>
</g>
<!-- fftw -->
<g id="node25" class="node">
<title>fftw</title>
<ellipse fill="none" stroke="#000000" cx="64.3443" cy="-1780.0704" rx="29.4969" ry="18"/>
<text text-anchor="middle" x="64.3443" y="-1776.3704" font-family="Times,serif" font-size="14.00" fill="#000000">fftw</text>
</g>
<!-- srdfdom&#45;git&#45;&gt;boost -->
<g id="edge51" class="edge">
<title>srdfdom&#45;git&#45;&gt;boost</title>
<path fill="none" stroke="#000000" d="M427.5984,-970.9099C410.7786,-966.2371 393.7229,-958.5815 381.3725,-946.0704 340.7573,-904.9265 384.0523,-864.0389 345.3725,-821.0704 282.8072,-751.5679 171.7827,-723.6322 109.657,-713.0409"/>
<polygon fill="#000000" stroke="#000000" points="110.1852,-709.5808 99.7528,-711.4291 109.0607,-716.49 110.1852,-709.5808"/>
</g>
<!-- srdfdom&#45;git&#45;&gt;urdfdom&#45;headers -->
<g id="edge53" class="edge">
<title>srdfdom&#45;git&#45;&gt;urdfdom&#45;headers</title>
<path fill="none" stroke="#000000" d="M437.4827,-989.6548C404.4615,-997.3314 360.6853,-1007.5083 324.2902,-1015.9692"/>
<polygon fill="#000000" stroke="#000000" points="323.1834,-1012.6331 314.2357,-1018.3067 324.7685,-1019.4513 323.1834,-1012.6331"/>
</g>
<!-- srdfdom&#45;git&#45;&gt;cmake -->
<g id="edge49" class="edge">
<title>srdfdom&#45;git&#45;&gt;cmake</title>
<path fill="none" stroke="#000000" d="M437.7169,-966.2661C410.6095,-960.4155 376.3398,-953.9895 345.3725,-951.0704 265.423,-943.5339 235.4906,-913.1783 164.6886,-951.0704 139.2572,-964.6809 144.9554,-981.2504 128.6886,-1005.0704 113.2912,-1027.6172 95.4791,-1053.035 82.5048,-1071.4313"/>
<polygon fill="#000000" stroke="#000000" points="79.4657,-1069.6674 76.556,-1079.8548 85.1837,-1073.7054 79.4657,-1069.6674"/>
</g>
<!-- srdfdom&#45;git&#45;&gt;console&#45;bridge -->
<g id="edge54" class="edge">
<title>srdfdom&#45;git&#45;&gt;console&#45;bridge</title>
<path fill="none" stroke="#000000" d="M422.3006,-978.0704C398.2481,-978.0704 370.5403,-978.0704 344.6828,-978.0704"/>
<polygon fill="#000000" stroke="#000000" points="344.4963,-974.5705 334.4963,-978.0704 344.4962,-981.5705 344.4963,-974.5705"/>
</g>
<!-- srdfdom&#45;git&#45;&gt;tinyxml -->
<g id="edge52" class="edge">
<title>srdfdom&#45;git&#45;&gt;tinyxml</title>
<path fill="none" stroke="#000000" d="M430.0236,-969.3768C413.0125,-964.6435 395.2395,-957.3391 381.3725,-946.0704 355.4417,-924.9982 370.8002,-901.7471 345.3725,-880.0704 334.2661,-870.6023 320.1651,-863.8657 306.4253,-859.1003"/>
<polygon fill="#000000" stroke="#000000" points="307.1225,-855.6499 296.5324,-855.9679 305.0094,-862.3233 307.1225,-855.6499"/>
</g>
<!-- srdfdom&#45;git&#45;&gt;git -->
<g id="edge50" class="edge">
<title>srdfdom&#45;git&#45;&gt;git</title>
<path fill="none" stroke="#000000" d="M426.3015,-971.7786C409.5362,-967.1314 392.8361,-959.2719 381.3725,-946.0704 312.382,-866.6204 381.7876,-810.792 345.3725,-712.0704 328.2455,-665.6389 295.3338,-618.0227 274.3161,-590.2889"/>
<polygon fill="#000000" stroke="#000000" points="276.8176,-587.8005 267.9452,-582.0098 271.27,-592.0694 276.8176,-587.8005"/>
</g>
<!-- srdfdom&#45;git&#45;&gt;doxygen -->
<g id="edge48" class="edge">
<title>srdfdom&#45;git&#45;&gt;doxygen</title>
<path fill="none" stroke="#000000" d="M463.2401,-961.336C438.0951,-942.3774 399.7997,-909.0043 381.3725,-870.0704 318.0677,-736.3162 433.8025,-657.7204 345.3725,-539.0704 336.3674,-526.9878 322.7808,-518.7173 308.8603,-513.0673"/>
<polygon fill="#000000" stroke="#000000" points="309.816,-509.6906 299.2219,-509.5598 307.4221,-516.2685 309.816,-509.6906"/>
</g>
<!-- hpp&#45;statistics&#45;git -->
<g id="node28" class="node">
<title>hpp&#45;statistics&#45;git</title>
<ellipse fill="none" stroke="#000000" cx="725.4452" cy="-501.0704" rx="89.8845" ry="18"/>
<text text-anchor="middle" x="725.4452" y="-497.3704" font-family="Times,serif" font-size="14.00" fill="#000000">hpp&#45;statistics&#45;git</text>
</g>
<!-- hpp&#45;statistics&#45;git&#45;&gt;cmake -->
<g id="edge75" class="edge">
<title>hpp&#45;statistics&#45;git&#45;&gt;cmake</title>
<path fill="none" stroke="#000000" d="M690.3806,-484.4534C592.4245,-440.7432 313.3434,-335.1526 164.6886,-474.0704 121.4824,-514.4465 148.3541,-949.3006 128.6886,-1005.0704 119.7762,-1030.3453 101.8752,-1055.0101 87.2124,-1072.4288"/>
<polygon fill="#000000" stroke="#000000" points="84.2347,-1070.5204 80.328,-1080.3687 89.5235,-1075.1061 84.2347,-1070.5204"/>
</g>
<!-- hpp&#45;statistics&#45;git&#45;&gt;hpp&#45;util&#45;git -->
<g id="edge77" class="edge">
<title>hpp&#45;statistics&#45;git&#45;&gt;hpp&#45;util&#45;git</title>
<path fill="none" stroke="#000000" d="M696.2455,-518.3598C652.7254,-544.1284 570.9098,-592.5721 523.6033,-620.5827"/>
<polygon fill="#000000" stroke="#000000" points="521.7278,-617.6256 514.9063,-625.7323 525.2943,-623.649 521.7278,-617.6256"/>
</g>
<!-- hpp&#45;statistics&#45;git&#45;&gt;git -->
<g id="edge76" class="edge">
<title>hpp&#45;statistics&#45;git&#45;&gt;git</title>
<path fill="none" stroke="#000000" d="M673.7164,-515.8997C649.4654,-522.3567 620.0663,-529.4821 593.2537,-534.0704 484.9883,-552.5975 355.2568,-561.1033 292.582,-564.3637"/>
<polygon fill="#000000" stroke="#000000" points="292.2058,-560.8781 282.395,-564.8778 292.5587,-567.8692 292.2058,-560.8781"/>
</g>
<!-- hpp&#45;statistics&#45;git&#45;&gt;doxygen -->
<g id="edge74" class="edge">
<title>hpp&#45;statistics&#45;git&#45;&gt;doxygen</title>
<path fill="none" stroke="#000000" d="M635.579,-501.0704C541.4661,-501.0704 396.2957,-501.0704 315.1649,-501.0704"/>
<polygon fill="#000000" stroke="#000000" points="315.1155,-497.5705 305.1155,-501.0704 315.1155,-504.5705 315.1155,-497.5705"/>
</g>
<!-- resource&#45;retriever&#45;&gt;boost -->
<g id="edge108" class="edge">
<title>resource&#45;retriever&#45;&gt;boost</title>
<path fill="none" stroke="#000000" d="M674.1684,-763.7099C659.0874,-758.0589 642.9684,-750.8467 629.2537,-742.0704 610.4575,-730.0422 613.9301,-715.4647 593.2537,-707.0704 506.5209,-671.8579 222.4565,-692.7337 110.3945,-702.6925"/>
<polygon fill="#000000" stroke="#000000" points="110.0592,-699.2085 100.4134,-703.5913 110.6871,-706.1803 110.0592,-699.2085"/>
</g>
<!-- resource&#45;retriever&#45;&gt;curl -->
<g id="edge107" class="edge">
<title>resource&#45;retriever&#45;&gt;curl</title>
<path fill="none" stroke="#000000" d="M657.5248,-766.2354C614.6085,-758.1255 560.7468,-747.9472 525.2424,-741.2379"/>
<polygon fill="#000000" stroke="#000000" points="525.7691,-737.7756 515.2931,-739.3578 524.4692,-744.6538 525.7691,-737.7756"/>
</g>
<!-- resource&#45;retriever&#45;&gt;cmake -->
<g id="edge105" class="edge">
<title>resource&#45;retriever&#45;&gt;cmake</title>
<path fill="none" stroke="#000000" d="M632.7085,-774.2038C482.4884,-767.2511 199.1719,-758.3576 164.6886,-788.0704 90.627,-851.8859 165.618,-914.5511 128.6886,-1005.0704 118.5649,-1029.8849 100.7538,-1054.584 86.4338,-1072.133"/>
<polygon fill="#000000" stroke="#000000" points="83.4652,-1070.2268 79.7334,-1080.1427 88.8343,-1074.7183 83.4652,-1070.2268"/>
</g>
<!-- resource&#45;retriever&#45;&gt;urdfdom -->
<g id="edge106" class="edge">
<title>resource&#45;retriever&#45;&gt;urdfdom</title>
<path fill="none" stroke="#000000" d="M718.4904,-797.1493C701.9876,-838.2051 657.0153,-939.9511 593.2537,-1005.0704 574.5799,-1024.1419 549.2182,-1039.9587 527.9913,-1051.2134"/>
<polygon fill="#000000" stroke="#000000" points="526.164,-1048.2175 518.8744,-1055.906 529.3676,-1054.4414 526.164,-1048.2175"/>
</g>
<!-- urdfdom&#45;&gt;urdfdom&#45;headers -->
<g id="edge4" class="edge">
<title>urdfdom&#45;&gt;urdfdom&#45;headers</title>
<path fill="none" stroke="#000000" d="M441.6987,-1062.6082C411.3858,-1057.6492 370.7571,-1051.0025 335.1444,-1045.1765"/>
<polygon fill="#000000" stroke="#000000" points="335.6794,-1041.7176 325.2455,-1043.5571 334.5492,-1048.6258 335.6794,-1041.7176"/>
</g>
<!-- urdfdom&#45;&gt;cmake -->
<g id="edge1" class="edge">
<title>urdfdom&#45;&gt;cmake</title>
<path fill="none" stroke="#000000" d="M437.9654,-1073.2205C357.1943,-1078.3765 197.5666,-1088.5662 115.5831,-1093.7996"/>
<polygon fill="#000000" stroke="#000000" points="115.2589,-1090.3131 105.5022,-1094.4431 115.7049,-1097.2989 115.2589,-1090.3131"/>
</g>
<!-- urdfdom&#45;&gt;console&#45;bridge -->
<g id="edge3" class="edge">
<title>urdfdom&#45;&gt;console&#45;bridge</title>
<path fill="none" stroke="#000000" d="M443.2556,-1061.4601C423.4962,-1056.4399 400.406,-1048.9088 381.3725,-1038.0704 362.5111,-1027.33 364.2497,-1015.7832 345.3725,-1005.0704 337.8214,-1000.7851 329.5212,-997.1165 321.1065,-993.993"/>
<polygon fill="#000000" stroke="#000000" points="322.1861,-990.663 311.5913,-990.6943 319.8932,-997.2768 322.1861,-990.663"/>
</g>
<!-- urdfdom&#45;&gt;tinyxml -->
<g id="edge2" class="edge">
<title>urdfdom&#45;&gt;tinyxml</title>
<path fill="none" stroke="#000000" d="M456.6032,-1055.7684C434.0507,-1044.2482 403.599,-1026.4748 381.3725,-1005.0704 360.5959,-985.0622 362.9208,-973.9627 345.3725,-951.0704 323.9107,-923.0726 296.994,-892.9445 278.1464,-872.5518"/>
<polygon fill="#000000" stroke="#000000" points="280.4718,-869.9127 271.0989,-864.9731 275.3457,-874.6796 280.4718,-869.9127"/>
</g>
<!-- tabula -->
<g id="node32" class="node">
<title>tabula</title>
<ellipse fill="none" stroke="#000000" cx="1236.1563" cy="-1964.0704" rx="40.0939" ry="18"/>
<text text-anchor="middle" x="1236.1563" y="-1960.3704" font-family="Times,serif" font-size="14.00" fill="#000000">tabula</text>
</g>
<!-- tabula&#45;&gt;java&#45;runtime -->
<g id="edge104" class="edge">
<title>tabula&#45;&gt;java&#45;runtime</title>
<path fill="none" stroke="#000000" d="M1195.775,-1964.0704C1160.1064,-1964.0704 1107.0443,-1964.0704 1062.8432,-1964.0704"/>
<polygon fill="#000000" stroke="#000000" points="1062.6878,-1960.5705 1052.6878,-1964.0704 1062.6877,-1967.5705 1062.6878,-1960.5705"/>
</g>
<!-- hpp_environments -->
<g id="node35" class="node">
<title>hpp_environments</title>
<ellipse fill="none" stroke="#000000" cx="983.0755" cy="-1818.0704" rx="96.6831" ry="18"/>
<text text-anchor="middle" x="983.0755" y="-1814.3704" font-family="Times,serif" font-size="14.00" fill="#000000">hpp_environments</text>
</g>
<!-- gepetto&#45;viewer&#45;corba&#45;git -->
<g id="node36" class="node">
<title>gepetto&#45;viewer&#45;corba&#45;git</title>
<ellipse fill="none" stroke="#000000" cx="983.0755" cy="-230.0704" rx="125.3778" ry="18"/>
<text text-anchor="middle" x="983.0755" y="-226.3704" font-family="Times,serif" font-size="14.00" fill="#000000">gepetto&#45;viewer&#45;corba&#45;git</text>
</g>
<!-- gepetto&#45;viewer&#45;corba&#45;git&#45;&gt;cmake -->
<g id="edge110" class="edge">
<title>gepetto&#45;viewer&#45;corba&#45;git&#45;&gt;cmake</title>
<path fill="none" stroke="#000000" d="M967.9263,-212.1321C941.6957,-182.6018 884.5565,-124.7626 821.6367,-102.0704 637.557,-35.6814 561.4495,-20.4864 381.3725,-97.0704 253.6138,-151.4043 219.9796,-194.723 164.6886,-322.0704 104.1581,-461.4854 178.1535,-861.3564 128.6886,-1005.0704 119.9664,-1030.4115 102.0513,-1055.0715 87.3347,-1072.4715"/>
<polygon fill="#000000" stroke="#000000" points="84.3547,-1070.5635 80.4214,-1080.4012 89.6311,-1075.1635 84.3547,-1070.5635"/>
</g>
<!-- gepetto&#45;viewer&#45;corba&#45;git&#45;&gt;qt4 -->
<g id="edge114" class="edge">
<title>gepetto&#45;viewer&#45;corba&#45;git&#45;&gt;qt4</title>
<path fill="none" stroke="#000000" d="M964.4977,-248.2347C936.1818,-274.8088 879.3953,-323.8556 821.6367,-349.0704 685.4415,-408.5271 262.5719,-362.2532 164.6886,-474.0704 117.0451,-528.496 134.5342,-1051.9741 128.6886,-1124.0704 110.7265,-1345.6031 78.5372,-1611.8941 67.8792,-1697.8561"/>
<polygon fill="#000000" stroke="#000000" points="64.3937,-1697.5231 66.6326,-1707.8786 71.3402,-1698.3871 64.3937,-1697.5231"/>
</g>
<!-- gepetto&#45;viewer&#45;corba&#45;git&#45;&gt;git -->
<g id="edge111" class="edge">
<title>gepetto&#45;viewer&#45;corba&#45;git&#45;&gt;git</title>
<path fill="none" stroke="#000000" d="M902.0684,-243.8734C799.209,-261.5543 634.3481,-290.4757 629.2537,-295.0704 586.9561,-333.2195 630.7668,-375.2076 593.2537,-418.0704 550.8357,-466.5378 366.5635,-530.1214 289.3099,-555.2151"/>
<polygon fill="#000000" stroke="#000000" points="288.0156,-551.955 279.5741,-558.3575 290.1657,-558.6166 288.0156,-551.955"/>
</g>
<!-- omniorbpy -->
<g id="node39" class="node">
<title>omniorbpy</title>
<ellipse fill="none" stroke="#000000" cx="725.4452" cy="-230.0704" rx="60.3893" ry="18"/>
<text text-anchor="middle" x="725.4452" y="-226.3704" font-family="Times,serif" font-size="14.00" fill="#000000">omniorbpy</text>
</g>
<!-- gepetto&#45;viewer&#45;corba&#45;git&#45;&gt;omniorbpy -->
<g id="edge115" class="edge">
<title>gepetto&#45;viewer&#45;corba&#45;git&#45;&gt;omniorbpy</title>
<path fill="none" stroke="#000000" d="M857.2792,-230.0704C836.2746,-230.0704 815.1628,-230.0704 796.1796,-230.0704"/>
<polygon fill="#000000" stroke="#000000" points="796.1636,-226.5705 786.1636,-230.0704 796.1636,-233.5705 796.1636,-226.5705"/>
</g>
<!-- gepetto&#45;viewer&#45;git -->
<g id="node41" class="node">
<title>gepetto&#45;viewer&#45;git</title>
<ellipse fill="none" stroke="#000000" cx="725.4452" cy="-176.0704" rx="96.3833" ry="18"/>
<text text-anchor="middle" x="725.4452" y="-172.3704" font-family="Times,serif" font-size="14.00" fill="#000000">gepetto&#45;viewer&#45;git</text>
</g>
<!-- gepetto&#45;viewer&#45;corba&#45;git&#45;&gt;gepetto&#45;viewer&#45;git -->
<g id="edge112" class="edge">
<title>gepetto&#45;viewer&#45;corba&#45;git&#45;&gt;gepetto&#45;viewer&#45;git</title>
<path fill="none" stroke="#000000" d="M911.9949,-215.1717C877.1565,-207.8695 835.2142,-199.0783 799.9303,-191.6827"/>
<polygon fill="#000000" stroke="#000000" points="800.1946,-188.1621 789.6893,-189.5361 798.7586,-195.0132 800.1946,-188.1621"/>
</g>
<!-- omniorb -->
<g id="node43" class="node">
<title>omniorb</title>
<ellipse fill="none" stroke="#000000" cx="725.4452" cy="-322.0704" rx="49.2915" ry="18"/>
<text text-anchor="middle" x="725.4452" y="-318.3704" font-family="Times,serif" font-size="14.00" fill="#000000">omniorb</text>
</g>
<!-- gepetto&#45;viewer&#45;corba&#45;git&#45;&gt;omniorb -->
<g id="edge113" class="edge">
<title>gepetto&#45;viewer&#45;corba&#45;git&#45;&gt;omniorb</title>
<path fill="none" stroke="#000000" d="M938.686,-247.0403C906.3395,-259.2907 861.4043,-276.0704 821.6367,-290.0704 805.5518,-295.733 787.8634,-301.6931 772.0894,-306.9144"/>
<polygon fill="#000000" stroke="#000000" points="770.9479,-303.6054 762.5467,-310.0607 773.1398,-310.2534 770.9479,-303.6054"/>
</g>
<!-- gepetto&#45;viewer&#45;corba&#45;git&#45;&gt;doxygen -->
<g id="edge109" class="edge">
<title>gepetto&#45;viewer&#45;corba&#45;git&#45;&gt;doxygen</title>
<path fill="none" stroke="#000000" d="M957.4078,-212.4178C926.7245,-192.4851 873.0523,-161.2457 821.6367,-149.0704 630.8717,-103.897 536.9301,-56.7651 381.3725,-176.0704 284.8784,-250.0769 262.0267,-408.0516 256.6595,-472.6498"/>
<polygon fill="#000000" stroke="#000000" points="253.1494,-472.6557 255.8927,-482.8892 260.1298,-473.1785 253.1494,-472.6557"/>
</g>
<!-- hpp&#45;fcl&#45;git&#45;&gt;assimp -->
<g id="edge59" class="edge">
<title>hpp&#45;fcl&#45;git&#45;&gt;assimp</title>
<path fill="none" stroke="#000000" d="M433.2567,-1375.0395C415.0612,-1379.6556 395.7508,-1387.3262 381.3725,-1400.0704 351.5867,-1426.4712 374.5287,-1454.9759 345.3725,-1482.0704 334.2808,-1492.3779 319.6591,-1499.4008 305.4187,-1504.1719"/>
<polygon fill="#000000" stroke="#000000" points="304.2232,-1500.877 295.6688,-1507.1279 306.2542,-1507.5759 304.2232,-1500.877"/>
</g>
<!-- hpp&#45;fcl&#45;git&#45;&gt;cmake -->
<g id="edge57" class="edge">
<title>hpp&#45;fcl&#45;git&#45;&gt;cmake</title>
<path fill="none" stroke="#000000" d="M436.3829,-1376.9846C417.9908,-1381.8165 397.7454,-1389.1267 381.3725,-1400.0704 360.366,-1414.1112 368.2055,-1433.2503 345.3725,-1444.0704 272.8043,-1478.459 228.8764,-1492.3265 164.6886,-1444.0704 112.732,-1405.0096 79.1218,-1201.6652 68.2154,-1125.7197"/>
<polygon fill="#000000" stroke="#000000" points="71.6328,-1124.8875 66.7715,-1115.4738 64.7013,-1125.8644 71.6328,-1124.8875"/>
</g>
<!-- hpp&#45;fcl&#45;git&#45;&gt;eigen32 -->
<g id="edge58" class="edge">
<title>hpp&#45;fcl&#45;git&#45;&gt;eigen32</title>
<path fill="none" stroke="#000000" d="M465.7915,-1385.0117C442.1371,-1404.6457 404.4404,-1439.0729 381.3725,-1476.0704 311.6524,-1587.8912 273.772,-1743.4108 260.5238,-1806.1678"/>
<polygon fill="#000000" stroke="#000000" points="257.0672,-1805.6002 258.4704,-1816.1017 263.9223,-1807.0173 257.0672,-1805.6002"/>
</g>
<!-- hpp&#45;model&#45;urdf&#45;git -->
<g id="node38" class="node">
<title>hpp&#45;model&#45;urdf&#45;git</title>
<ellipse fill="none" stroke="#000000" cx="983.0755" cy="-1152.0704" rx="96.6831" ry="18"/>
<text text-anchor="middle" x="983.0755" y="-1148.3704" font-family="Times,serif" font-size="14.00" fill="#000000">hpp&#45;model&#45;urdf&#45;git</text>
</g>
<!-- hpp&#45;model&#45;urdf&#45;git&#45;&gt;assimp -->
<g id="edge84" class="edge">
<title>hpp&#45;model&#45;urdf&#45;git&#45;&gt;assimp</title>
<path fill="none" stroke="#000000" d="M976.6399,-1170.2239C959.4036,-1216.0341 907.5829,-1336.8119 821.6367,-1395.0704 737.2705,-1452.2579 430.9954,-1493.5184 307.3406,-1508.1978"/>
<polygon fill="#000000" stroke="#000000" points="306.8765,-1504.7282 297.3539,-1509.3726 307.6943,-1511.6803 306.8765,-1504.7282"/>
</g>
<!-- hpp&#45;model&#45;urdf&#45;git&#45;&gt;cmake -->
<g id="edge83" class="edge">
<title>hpp&#45;model&#45;urdf&#45;git&#45;&gt;cmake</title>
<path fill="none" stroke="#000000" d="M976.36,-1170.0773C957.7138,-1218.3177 901.3742,-1352.7829 821.6367,-1441.0704 738.5686,-1533.0456 711.4475,-1563.7879 593.2537,-1601.0704 503.4463,-1629.3988 474.6843,-1613.7509 381.3725,-1601.0704 282.3548,-1587.6145 233.637,-1613.4007 164.6886,-1541.0704 106.5864,-1480.1184 75.6818,-1212.9554 66.9575,-1125.1485"/>
<polygon fill="#000000" stroke="#000000" points="70.4343,-1124.7391 65.9812,-1115.1255 63.4672,-1125.4177 70.4343,-1124.7391"/>
</g>
<!-- hpp&#45;model&#45;urdf&#45;git&#45;&gt;hpp&#45;util&#45;git -->
<g id="edge85" class="edge">
<title>hpp&#45;model&#45;urdf&#45;git&#45;&gt;hpp&#45;util&#45;git</title>
<path fill="none" stroke="#000000" d="M961.0748,-1134.3846C932.0573,-1109.6858 881.8465,-1061.9114 857.6367,-1009.0704 809.5955,-904.2145 898.786,-837.8066 821.6367,-752.0704 762.69,-686.5628 707.8379,-743.9513 629.2537,-704.0704 610.6812,-694.645 611.5906,-683.9464 593.2537,-674.0704 579.1,-666.4474 562.8811,-660.3889 547.459,-655.6867"/>
<polygon fill="#000000" stroke="#000000" points="548.0484,-652.2135 537.4693,-652.7897 546.0987,-658.9365 548.0484,-652.2135"/>
</g>
<!-- hpp&#45;model&#45;urdf&#45;git&#45;&gt;srdfdom&#45;git -->
<g id="edge90" class="edge">
<title>hpp&#45;model&#45;urdf&#45;git&#45;&gt;srdfdom&#45;git</title>
<path fill="none" stroke="#000000" d="M971.0469,-1133.9715C947.2309,-1099.9115 890.3837,-1027.0245 821.6367,-997.0704 735.5336,-959.554 624.9598,-961.8219 555.0917,-968.6016"/>
<polygon fill="#000000" stroke="#000000" points="554.6759,-965.1258 545.0864,-969.6305 555.392,-972.0891 554.6759,-965.1258"/>
</g>
<!-- hpp&#45;model&#45;urdf&#45;git&#45;&gt;resource&#45;retriever -->
<g id="edge88" class="edge">
<title>hpp&#45;model&#45;urdf&#45;git&#45;&gt;resource&#45;retriever</title>
<path fill="none" stroke="#000000" d="M965.1905,-1134.0913C939.6514,-1107.9084 892.0251,-1057.1523 857.6367,-1009.0704 808.0689,-939.7647 761.1047,-850.5081 738.8689,-806.3338"/>
<polygon fill="#000000" stroke="#000000" points="741.8608,-804.4914 734.2577,-797.1128 735.6,-807.6223 741.8608,-804.4914"/>
</g>
<!-- hpp&#45;model&#45;urdf&#45;git&#45;&gt;urdfdom -->
<g id="edge89" class="edge">
<title>hpp&#45;model&#45;urdf&#45;git&#45;&gt;urdfdom</title>
<path fill="none" stroke="#000000" d="M910.7222,-1140.103C810.963,-1123.6027 633.3048,-1094.2177 543.1338,-1079.3032"/>
<polygon fill="#000000" stroke="#000000" points="543.5448,-1075.8237 533.1077,-1077.6449 542.4024,-1082.7299 543.5448,-1075.8237"/>
</g>
<!-- hpp&#45;model&#45;urdf&#45;git&#45;&gt;urdf&#45;git -->
<g id="edge87" class="edge">
<title>hpp&#45;model&#45;urdf&#45;git&#45;&gt;urdf&#45;git</title>
<path fill="none" stroke="#000000" d="M949.13,-1135.205C900.9937,-1111.2892 813.197,-1067.6686 763.1087,-1042.783"/>
<polygon fill="#000000" stroke="#000000" points="764.4278,-1039.5302 753.9149,-1038.2152 761.3132,-1045.7991 764.4278,-1039.5302"/>
</g>
<!-- hpp&#45;model&#45;git -->
<g id="node47" class="node">
<title>hpp&#45;model&#45;git</title>
<ellipse fill="none" stroke="#000000" cx="725.4452" cy="-1314.0704" rx="75.2868" ry="18"/>
<text text-anchor="middle" x="725.4452" y="-1310.3704" font-family="Times,serif" font-size="14.00" fill="#000000">hpp&#45;model&#45;git</text>
</g>
<!-- hpp&#45;model&#45;urdf&#45;git&#45;&gt;hpp&#45;model&#45;git -->
<g id="edge86" class="edge">
<title>hpp&#45;model&#45;urdf&#45;git&#45;&gt;hpp&#45;model&#45;git</title>
<path fill="none" stroke="#000000" d="M965.2816,-1170.059C937.0994,-1197.6496 879.4422,-1250.5252 821.6367,-1282.0704 810.6654,-1288.0576 798.3789,-1293.1855 786.351,-1297.4702"/>
<polygon fill="#000000" stroke="#000000" points="785.1284,-1294.1891 776.7905,-1300.7259 787.3849,-1300.8154 785.1284,-1294.1891"/>
</g>
<!-- urdf&#45;git&#45;&gt;boost -->
<g id="edge81" class="edge">
<title>urdf&#45;git&#45;&gt;boost</title>
<path fill="none" stroke="#000000" d="M680.0792,-1026.4845C598.5332,-1030.0284 431.0481,-1033.4455 381.3725,-1005.0704 356.3262,-990.7637 367.6099,-969.4415 345.3725,-951.0704 278.209,-895.5841 230.4561,-932.2044 164.6886,-875.0704 119.5608,-835.8667 89.0634,-771.1874 74.404,-734.5738"/>
<polygon fill="#000000" stroke="#000000" points="77.58,-733.0843 70.6903,-725.0356 71.057,-735.6241 77.58,-733.0843"/>
</g>
<!-- urdf&#45;git&#45;&gt;cmake -->
<g id="edge79" class="edge">
<title>urdf&#45;git&#45;&gt;cmake</title>
<path fill="none" stroke="#000000" d="M704.4266,-1040.0598C679.475,-1057.9554 635.8591,-1085.9046 593.2537,-1097.0704 421.8091,-1142.0018 208.2265,-1119.18 113.5062,-1105.2301"/>
<polygon fill="#000000" stroke="#000000" points="113.7731,-1101.7309 103.3634,-1103.7027 112.7307,-1108.6528 113.7731,-1101.7309"/>
</g>
<!-- urdf&#45;git&#45;&gt;urdfdom -->
<g id="edge82" class="edge">
<title>urdf&#45;git&#45;&gt;urdfdom</title>
<path fill="none" stroke="#000000" d="M684.5089,-1031.9781C645.0306,-1039.6041 585.0353,-1051.1934 541.5889,-1059.5859"/>
<polygon fill="#000000" stroke="#000000" points="540.9095,-1056.1524 531.7549,-1061.4856 542.2372,-1063.0253 540.9095,-1056.1524"/>
</g>
<!-- urdf&#45;git&#45;&gt;git -->
<g id="edge80" class="edge">
<title>urdf&#45;git&#45;&gt;git</title>
<path fill="none" stroke="#000000" d="M709.2432,-1006.8799C685.904,-983.1768 640.4185,-940.8146 593.2537,-918.0704 506.2824,-876.1303 450.2387,-937.7493 381.3725,-870.0704 333.398,-822.9229 370.3948,-785.507 345.3725,-723.0704 325.6534,-673.8661 292.7342,-621.3909 272.5474,-591.2849"/>
<polygon fill="#000000" stroke="#000000" points="275.2282,-589.0018 266.72,-582.6882 269.4339,-592.9295 275.2282,-589.0018"/>
</g>
<!-- urdf&#45;git&#45;&gt;doxygen -->
<g id="edge78" class="edge">
<title>urdf&#45;git&#45;&gt;doxygen</title>
<path fill="none" stroke="#000000" d="M713.7614,-1006.426C692.6653,-975.6092 645.5225,-911.3355 593.2537,-870.0704 510.1351,-804.45 443.6098,-846.7516 381.3725,-761.0704 322.6287,-680.1985 407.1847,-617.6221 345.3725,-539.0704 336.0538,-527.228 322.3705,-519.0315 308.4578,-513.3755"/>
<polygon fill="#000000" stroke="#000000" points="309.4339,-510.0057 298.8401,-509.8522 307.0259,-516.5785 309.4339,-510.0057"/>
</g>
<!-- gepetto&#45;viewer&#45;git&#45;&gt;boost -->
<g id="edge39" class="edge">
<title>gepetto&#45;viewer&#45;git&#45;&gt;boost</title>
<path fill="none" stroke="#000000" d="M655.4645,-163.6343C533.2325,-146.4485 282.6393,-132.3019 164.6886,-278.0704 113.7031,-341.0804 78.3633,-593.7873 67.708,-678.9157"/>
<polygon fill="#000000" stroke="#000000" points="64.2282,-678.5375 66.477,-688.8909 71.1755,-679.3949 64.2282,-678.5375"/>
</g>
<!-- gepetto&#45;viewer&#45;git&#45;&gt;openscenegraph&#45;qt4 -->
<g id="edge41" class="edge">
<title>gepetto&#45;viewer&#45;git&#45;&gt;openscenegraph&#45;qt4</title>
<path fill="none" stroke="#000000" d="M671.4555,-190.9904C657.6771,-194.8623 642.9028,-199.0701 629.2537,-203.0704 613.1988,-207.7758 609.2616,-209.2071 593.2537,-214.0704 579.064,-218.3813 563.7999,-223.0018 549.3993,-227.3532"/>
<polygon fill="#000000" stroke="#000000" points="548.1523,-224.0736 539.5915,-230.3156 550.1764,-230.7746 548.1523,-224.0736"/>
</g>
<!-- gepetto&#45;viewer&#45;git&#45;&gt;cmake -->
<g id="edge37" class="edge">
<title>gepetto&#45;viewer&#45;git&#45;&gt;cmake</title>
<path fill="none" stroke="#000000" d="M654.8255,-188.511C645.6128,-192.1796 636.7777,-196.9271 629.2537,-203.0704 602.155,-225.1964 620.1441,-250.6916 593.2537,-273.0704 440.3593,-400.3124 288.0599,-246.036 164.6886,-402.0704 123.0598,-454.7206 150.7538,-941.6817 128.6886,-1005.0704 119.8781,-1030.381 101.9696,-1055.0432 87.278,-1072.4518"/>
<polygon fill="#000000" stroke="#000000" points="84.2991,-1070.5436 80.3781,-1080.3862 89.5812,-1075.137 84.2991,-1070.5436"/>
</g>
<!-- gepetto&#45;viewer&#45;git&#45;&gt;urdfdom -->
<g id="edge40" class="edge">
<title>gepetto&#45;viewer&#45;git&#45;&gt;urdfdom</title>
<path fill="none" stroke="#000000" d="M649.3037,-187.1881C641.6016,-191.1089 634.6462,-196.278 629.2537,-203.0704 573.7912,-272.9324 638.5527,-928.2277 593.2537,-1005.0704 579.9738,-1027.5978 555.5261,-1043.363 533.4599,-1053.7201"/>
<polygon fill="#000000" stroke="#000000" points="531.9109,-1050.5782 524.1883,-1057.8317 534.7487,-1056.9773 531.9109,-1050.5782"/>
</g>
<!-- gepetto&#45;viewer&#45;git&#45;&gt;git -->
<g id="edge38" class="edge">
<title>gepetto&#45;viewer&#45;git&#45;&gt;git</title>
<path fill="none" stroke="#000000" d="M653.0402,-187.9953C644.3078,-191.7492 636.0808,-196.6578 629.2537,-203.0704 593.9076,-236.2706 620.1663,-265.7304 593.2537,-306.0704 511.1767,-429.0979 470.3396,-448.9777 345.3725,-528.0704 327.9452,-539.1003 306.7677,-548.2043 289.2982,-554.7334"/>
<polygon fill="#000000" stroke="#000000" points="287.7125,-551.5848 279.4973,-558.2752 290.0916,-558.1682 287.7125,-551.5848"/>
</g>
<!-- gepetto&#45;viewer&#45;git&#45;&gt;doxygen -->
<g id="edge36" class="edge">
<title>gepetto&#45;viewer&#45;git&#45;&gt;doxygen</title>
<path fill="none" stroke="#000000" d="M629.5911,-177.7151C541.7082,-181.0351 419.6045,-190.7853 381.3725,-219.0704 296.5175,-281.8485 267.4663,-414.7052 258.5646,-472.8369"/>
<polygon fill="#000000" stroke="#000000" points="255.0928,-472.3905 257.128,-482.788 262.021,-473.3907 255.0928,-472.3905"/>
</g>
<!-- hpp&#45;model&#45;&gt;hpp&#45;fcl -->
<g id="edge120" class="edge">
<title>hpp&#45;model&#45;&gt;hpp&#45;fcl</title>
<path fill="none" stroke="#000000" d="M670.0135,-1702.998C655.4933,-1706.9886 640.7132,-1713.2519 629.2537,-1723.0704 599.9531,-1748.1754 622.3058,-1776.6781 593.2537,-1802.0704 578.1709,-1815.2533 557.8012,-1823.006 538.9529,-1827.5649"/>
<polygon fill="#000000" stroke="#000000" points="538.0094,-1824.1881 528.9774,-1829.7265 539.4918,-1831.0293 538.0094,-1824.1881"/>
</g>
<!-- hpp&#45;model&#45;&gt;assimp -->
<g id="edge116" class="edge">
<title>hpp&#45;model&#45;&gt;assimp</title>
<path fill="none" stroke="#000000" d="M715.7364,-1678.1858C696.9585,-1645.595 652.2605,-1577.1316 593.2537,-1547.0704 500.9993,-1500.071 376.2877,-1502.0014 306.9714,-1507.8639"/>
<polygon fill="#000000" stroke="#000000" points="306.3889,-1504.4022 296.7462,-1508.7917 307.0216,-1511.3736 306.3889,-1504.4022"/>
</g>
<!-- hpp&#45;model&#45;&gt;cmake -->
<g id="edge117" class="edge">
<title>hpp&#45;model&#45;&gt;cmake</title>
<path fill="none" stroke="#000000" d="M682.1004,-1708.4767C656.4954,-1715.1575 623.3062,-1722.7031 593.2537,-1726.0704 498.6093,-1736.675 237.1417,-1787.8812 164.6886,-1726.0704 117.9836,-1686.2257 76.801,-1242.2035 66.7041,-1125.1939"/>
<polygon fill="#000000" stroke="#000000" points="70.1901,-1124.8789 65.8502,-1115.2137 63.2156,-1125.4757 70.1901,-1124.8789"/>
</g>
<!-- hpp&#45;model&#45;&gt;hpp&#45;util&#45;git -->
<g id="edge119" class="edge">
<title>hpp&#45;model&#45;&gt;hpp&#45;util&#45;git</title>
<path fill="none" stroke="#000000" d="M717.9211,-1678.164C698.994,-1632.1664 649.4763,-1505.7014 629.2537,-1395.0704 615.4892,-1319.7691 632.3721,-772.8694 593.2537,-707.0704 580.6224,-685.8238 558.0838,-670.5769 537.0332,-660.2145"/>
<polygon fill="#000000" stroke="#000000" points="538.3659,-656.9743 527.8225,-655.9314 535.4143,-663.3217 538.3659,-656.9743"/>
</g>
<!-- hpp&#45;model&#45;&gt;eigen32 -->
<g id="edge118" class="edge">
<title>hpp&#45;model&#45;&gt;eigen32</title>
<path fill="none" stroke="#000000" d="M673.2245,-1704.9131C658.2746,-1708.946 642.4639,-1714.7525 629.2537,-1723.0704 608.7331,-1735.9915 614.2348,-1751.9112 593.2537,-1764.0704 510.1168,-1812.2509 475.4422,-1787.4739 381.3725,-1807.0704 356.7935,-1812.1907 329.5539,-1817.9953 306.6796,-1822.9069"/>
<polygon fill="#000000" stroke="#000000" points="305.8751,-1819.4998 296.8342,-1825.0236 307.3465,-1826.3435 305.8751,-1819.4998"/>
</g>
<!-- hpp&#45;pinocchio&#45;git -->
<g id="node44" class="node">
<title>hpp&#45;pinocchio&#45;git</title>
<ellipse fill="none" stroke="#000000" cx="1236.1563" cy="-982.0704" rx="91.784" ry="18"/>
<text text-anchor="middle" x="1236.1563" y="-978.3704" font-family="Times,serif" font-size="14.00" fill="#000000">hpp&#45;pinocchio&#45;git</text>
</g>
<!-- hpp&#45;pinocchio&#45;git&#45;&gt;pinocchio -->
<g id="edge31" class="edge">
<title>hpp&#45;pinocchio&#45;git&#45;&gt;pinocchio</title>
<path fill="none" stroke="#000000" d="M1235.7806,-1000.205C1233.2664,-1102.5148 1215.5205,-1606.5504 1108.5144,-1707.0704 1064.0548,-1748.8351 888.6636,-1752.9232 791.3597,-1751.8154"/>
<polygon fill="#000000" stroke="#000000" points="791.3783,-1748.3154 781.3318,-1751.6797 791.2835,-1755.3148 791.3783,-1748.3154"/>
</g>
<!-- hpp&#45;pinocchio&#45;git&#45;&gt;boost -->
<g id="edge30" class="edge">
<title>hpp&#45;pinocchio&#45;git&#45;&gt;boost</title>
<path fill="none" stroke="#000000" d="M1234.8332,-964.0662C1225.792,-843.1981 1171.5857,-152.6662 1108.5144,-86.0704 989.1611,39.9526 899.0166,-10.0704 725.4452,-10.0704 725.4452,-10.0704 725.4452,-10.0704 487.3131,-10.0704 429.9445,-10.0704 200.0892,-70.2702 164.6886,-111.0704 89.3903,-197.854 69.488,-572.3242 65.308,-678.7574"/>
<polygon fill="#000000" stroke="#000000" points="61.8002,-678.9009 64.9215,-689.0255 68.7952,-679.1642 61.8002,-678.9009"/>
</g>
<!-- hpp&#45;pinocchio&#45;git&#45;&gt;hpp&#45;fcl -->
<g id="edge34" class="edge">
<title>hpp&#45;pinocchio&#45;git&#45;&gt;hpp&#45;fcl</title>
<path fill="none" stroke="#000000" d="M1235.8925,-1000.3706C1233.9776,-1105.9311 1218.9071,-1636.0896 1108.5144,-1744.0704 1088.0927,-1764.046 684.2427,-1811.6922 538.8831,-1828.2676"/>
<polygon fill="#000000" stroke="#000000" points="538.413,-1824.7984 528.8728,-1829.4065 539.2044,-1831.7535 538.413,-1824.7984"/>
</g>
<!-- hpp&#45;pinocchio&#45;git&#45;&gt;hpp&#45;model&#45;urdf -->
<g id="edge24" class="edge">
<title>hpp&#45;pinocchio&#45;git&#45;&gt;hpp&#45;model&#45;urdf</title>
<path fill="none" stroke="#000000" d="M1144.4305,-982.0704C1121.9815,-982.0704 1097.9473,-982.0704 1075.4673,-982.0704"/>
<polygon fill="#000000" stroke="#000000" points="1075.2594,-978.5705 1065.2593,-982.0704 1075.2593,-985.5705 1075.2594,-978.5705"/>
</g>
<!-- hpp&#45;pinocchio&#45;git&#45;&gt;romeo_description -->
<g id="edge25" class="edge">
<title>hpp&#45;pinocchio&#45;git&#45;&gt;romeo_description</title>
<path fill="none" stroke="#000000" d="M1234.7111,-1000.1578C1225.0893,-1118.6059 1168.8322,-1780.6878 1108.5144,-1845.0704 1101.6608,-1852.3859 1093.3407,-1857.9637 1084.2815,-1862.1889"/>
<polygon fill="#000000" stroke="#000000" points="1082.9379,-1858.9569 1075.0029,-1865.9774 1085.5839,-1865.4376 1082.9379,-1858.9569"/>
</g>
<!-- hpp&#45;pinocchio&#45;git&#45;&gt;assimp -->
<g id="edge32" class="edge">
<title>hpp&#45;pinocchio&#45;git&#45;&gt;assimp</title>
<path fill="none" stroke="#000000" d="M1235.0369,-1000.2499C1227.2484,-1123.8236 1179.3638,-1837.3998 1108.5144,-1899.0704 1062.7697,-1938.8887 441.8884,-1907.1339 381.3725,-1861.0704 354.6423,-1840.7238 286.9954,-1621.1037 263.3465,-1542.1427"/>
<polygon fill="#000000" stroke="#000000" points="266.649,-1540.9696 260.4349,-1532.3885 259.9415,-1542.9719 266.649,-1540.9696"/>
</g>
<!-- hpp&#45;pinocchio&#45;git&#45;&gt;cmake -->
<g id="edge28" class="edge">
<title>hpp&#45;pinocchio&#45;git&#45;&gt;cmake</title>
<path fill="none" stroke="#000000" d="M1235.078,-963.7781C1230.6038,-903.4365 1208.6847,-708.0066 1108.5144,-593.0704 984.0378,-450.245 914.9011,-406.0704 725.4452,-406.0704 725.4452,-406.0704 725.4452,-406.0704 487.3131,-406.0704 340.7741,-406.0704 260.8041,-363.4562 164.6886,-474.0704 87.1143,-563.3465 168.0196,-893.5308 128.6886,-1005.0704 119.7762,-1030.3453 101.8752,-1055.0101 87.2124,-1072.4288"/>
<polygon fill="#000000" stroke="#000000" points="84.2347,-1070.5204 80.328,-1080.3687 89.5235,-1075.1061 84.2347,-1070.5204"/>
</g>
<!-- hpp&#45;pinocchio&#45;git&#45;&gt;hpp&#45;util&#45;git -->
<g id="edge33" class="edge">
<title>hpp&#45;pinocchio&#45;git&#45;&gt;hpp&#45;util&#45;git</title>
<path fill="none" stroke="#000000" d="M1224.5569,-963.7965C1204.0421,-932.5142 1158.7536,-867.9365 1108.5144,-825.0704 996.4538,-729.4559 962.891,-700.8669 821.6367,-659.0704 733.2464,-632.9161 626.0501,-632.6447 557.2801,-636.2235"/>
<polygon fill="#000000" stroke="#000000" points="556.7882,-632.7456 547.0008,-636.8021 557.1817,-639.7345 556.7882,-632.7456"/>
</g>
<!-- hpp&#45;pinocchio&#45;git&#45;&gt;resource&#45;retriever -->
<g id="edge35" class="edge">
<title>hpp&#45;pinocchio&#45;git&#45;&gt;resource&#45;retriever</title>
<path fill="none" stroke="#000000" d="M1198.7839,-965.6185C1126.5467,-934.0502 962.4522,-863.4646 821.6367,-811.0704 809.6624,-806.615 796.7443,-802.1133 784.3805,-797.9498"/>
<polygon fill="#000000" stroke="#000000" points="785.2061,-794.5356 774.6124,-794.6906 782.9905,-801.1758 785.2061,-794.5356"/>
</g>
<!-- hpp&#45;pinocchio&#45;git&#45;&gt;git -->
<g id="edge29" class="edge">
<title>hpp&#45;pinocchio&#45;git&#45;&gt;git</title>
<path fill="none" stroke="#000000" d="M1234.8636,-963.7911C1229.9129,-908.8027 1207.1039,-744.0319 1108.5144,-668.0704 978.3417,-567.7746 440.4589,-564.5561 292.7219,-565.6141"/>
<polygon fill="#000000" stroke="#000000" points="292.3465,-562.117 282.376,-565.7001 292.4048,-569.1167 292.3465,-562.117"/>
</g>
<!-- hpp&#45;pinocchio&#45;git&#45;&gt;hpp_environments -->
<g id="edge26" class="edge">
<title>hpp&#45;pinocchio&#45;git&#45;&gt;hpp_environments</title>
<path fill="none" stroke="#000000" d="M1235.8886,-1000.1242C1233.9233,-1107.8735 1218.4911,-1665.4399 1108.5144,-1786.0704 1100.4703,-1794.8938 1090.3628,-1801.4332 1079.3949,-1806.2566"/>
<polygon fill="#000000" stroke="#000000" points="1078.0514,-1803.0237 1070.0057,-1809.9171 1080.5941,-1809.5456 1078.0514,-1803.0237"/>
</g>
<!-- hpp&#45;pinocchio&#45;git&#45;&gt;hpp&#45;model -->
<g id="edge23" class="edge">
<title>hpp&#45;pinocchio&#45;git&#45;&gt;hpp&#45;model</title>
<path fill="none" stroke="#000000" d="M1235.7314,-1000.2149C1232.9807,-1100.3627 1214.2921,-1584.4157 1108.5144,-1677.0704 1063.1011,-1716.8497 889.8247,-1709.8081 792.6093,-1702.3164"/>
<polygon fill="#000000" stroke="#000000" points="792.8284,-1698.8229 782.583,-1701.5214 792.275,-1705.801 792.8284,-1698.8229"/>
</g>
<!-- hpp&#45;pinocchio&#45;git&#45;&gt;doxygen -->
<g id="edge27" class="edge">
<title>hpp&#45;pinocchio&#45;git&#45;&gt;doxygen</title>
<path fill="none" stroke="#000000" d="M1235.6284,-964.0263C1232.201,-858.7284 1209.9451,-324.1439 1108.5144,-203.0704 1003.7096,-77.9695 512.9743,-3.5547 381.3725,-100.0704 319.2052,-145.6634 273.6091,-389.0493 259.5654,-472.7632"/>
<polygon fill="#000000" stroke="#000000" points="256.0806,-472.3839 257.9018,-482.821 262.9868,-473.5263 256.0806,-472.3839"/>
</g>
<!-- eigen32&#45;&gt;boost -->
<g id="edge73" class="edge">
<title>eigen32&#45;&gt;boost</title>
<path fill="none" stroke="#000000" d="M247.769,-1815.9385C229.9552,-1770.5308 184.1311,-1647.9073 164.6886,-1541.0704 117.6523,-1282.6055 170.3845,-1210.4503 128.6886,-951.0704 115.8194,-871.0147 87.9258,-779.1774 73.4591,-734.4394"/>
<polygon fill="#000000" stroke="#000000" points="76.7661,-733.2909 70.3364,-724.8701 70.1114,-735.4625 76.7661,-733.2909"/>
</g>
<!-- eigen32&#45;&gt;cmake -->
<g id="edge67" class="edge">
<title>eigen32&#45;&gt;cmake</title>
<path fill="none" stroke="#000000" d="M209.3651,-1827.9161C192.9404,-1823.4034 175.754,-1815.5907 164.6886,-1802.0704 120.937,-1748.6125 77.0948,-1251.1192 66.6694,-1125.6809"/>
<polygon fill="#000000" stroke="#000000" points="70.1286,-1125.0406 65.8177,-1115.3625 63.1523,-1125.6165 70.1286,-1125.0406"/>
</g>
<!-- eigen32&#45;&gt;qt4 -->
<g id="edge66" class="edge">
<title>eigen32&#45;&gt;qt4</title>
<path fill="none" stroke="#000000" d="M223.9638,-1820.1343C205.4343,-1814.1414 182.1879,-1806.0666 164.6886,-1793.0704 142.9936,-1776.9583 149.9166,-1760.793 128.6886,-1744.0704 120.5662,-1737.6719 110.7075,-1732.5387 101.1731,-1728.8719"/>
<polygon fill="#000000" stroke="#000000" points="102.0352,-1725.469 91.441,-1725.5899 99.7983,-1732.102 102.0352,-1725.469"/>
</g>
<!-- eigen32&#45;&gt;qt4 -->
<g id="edge71" class="edge">
<title>eigen32&#45;&gt;qt4</title>
<path fill="none" stroke="#000000" d="M207.3702,-1831.603C192.7612,-1827.1874 177.2453,-1820.3959 164.6886,-1811.0704 142.9936,-1794.9583 149.9166,-1778.793 128.6886,-1762.0704 118.28,-1753.871 105.0201,-1747.7493 93.2453,-1742.7248"/>
<polygon fill="#000000" stroke="#000000" points="94.3732,-1739.402 83.799,-1738.7408 91.6529,-1745.8518 94.3732,-1739.402"/>
</g>
<!-- eigen32&#45;&gt;gcc&#45;fortran -->
<g id="edge69" class="edge">
<title>eigen32&#45;&gt;gcc&#45;fortran</title>
<path fill="none" stroke="#000000" d="M232.4638,-1850.2354C207.7285,-1867.5448 166.5169,-1895.1981 128.6886,-1915.0704 123.1285,-1917.9913 117.1815,-1920.8364 111.2323,-1923.5168"/>
<polygon fill="#000000" stroke="#000000" points="109.698,-1920.3676 101.9372,-1927.5802 112.5019,-1926.7815 109.698,-1920.3676"/>
</g>
<!-- eigen32&#45;&gt;freeglut -->
<g id="edge68" class="edge">
<title>eigen32&#45;&gt;freeglut</title>
<path fill="none" stroke="#000000" d="M216.4424,-1844.9981C186.4607,-1853.4885 144.7065,-1865.3128 112.5299,-1874.4248"/>
<polygon fill="#000000" stroke="#000000" points="111.5431,-1871.0666 102.8751,-1877.1589 113.4504,-1877.8017 111.5431,-1871.0666"/>
</g>
<!-- eigen32&#45;&gt;suitesparse -->
<g id="edge72" class="edge">
<title>eigen32&#45;&gt;suitesparse</title>
<path fill="none" stroke="#000000" d="M206.9124,-1834.0704C186.3452,-1834.0704 161.8556,-1834.0704 139.0262,-1834.0704"/>
<polygon fill="#000000" stroke="#000000" points="139.0184,-1830.5705 129.0183,-1834.0704 139.0183,-1837.5705 139.0184,-1830.5705"/>
</g>
<!-- eigen32&#45;&gt;fftw -->
<g id="edge70" class="edge">
<title>eigen32&#45;&gt;fftw</title>
<path fill="none" stroke="#000000" d="M216.4424,-1823.1427C182.6144,-1813.563 133.7995,-1799.7393 100.664,-1790.3557"/>
<polygon fill="#000000" stroke="#000000" points="101.4933,-1786.953 90.9179,-1787.5957 99.5859,-1793.6881 101.4933,-1786.953"/>
</g>
<!-- hpp&#45;model&#45;git&#45;&gt;assimp -->
<g id="edge91" class="edge">
<title>hpp&#45;model&#45;git&#45;&gt;assimp</title>
<path fill="none" stroke="#000000" d="M651.0345,-1310.7043C562.6604,-1308.2524 422.0745,-1309.7134 381.3725,-1341.0704 342.9574,-1370.6656 373.7032,-1404.7134 345.3725,-1444.0704 330.7623,-1464.367 308.6397,-1481.6458 289.9435,-1493.9586"/>
<polygon fill="#000000" stroke="#000000" points="287.9143,-1491.1014 281.362,-1499.4271 291.6762,-1497.0047 287.9143,-1491.1014"/>
</g>
<!-- hpp&#45;model&#45;git&#45;&gt;cmake -->
<g id="edge92" class="edge">
<title>hpp&#45;model&#45;git&#45;&gt;cmake</title>
<path fill="none" stroke="#000000" d="M714.1991,-1296.1188C694.1106,-1265.8168 648.9057,-1205.1776 593.2537,-1178.0704 421.0301,-1094.183 351.5857,-1174.1126 164.6886,-1132.0704 144.2427,-1127.4711 122.1859,-1120.0629 103.9729,-1113.2438"/>
<polygon fill="#000000" stroke="#000000" points="105.1477,-1109.9459 94.5571,-1109.644 102.6478,-1116.4844 105.1477,-1109.9459"/>
</g>
<!-- hpp&#45;model&#45;git&#45;&gt;hpp&#45;util&#45;git -->
<g id="edge94" class="edge">
<title>hpp&#45;model&#45;git&#45;&gt;hpp&#45;util&#45;git</title>
<path fill="none" stroke="#000000" d="M717.0844,-1296.0514C698.0215,-1254.1105 651.2897,-1146.2754 629.2537,-1051.0704 611.9216,-976.1881 634.2361,-772.095 593.2537,-707.0704 580.0242,-686.0798 557.3063,-670.8321 536.2924,-660.4031"/>
<polygon fill="#000000" stroke="#000000" points="537.6505,-657.1741 527.1116,-656.0867 534.6722,-663.5089 537.6505,-657.1741"/>
</g>
<!-- hpp&#45;model&#45;git&#45;&gt;hpp&#45;fcl&#45;git -->
<g id="edge95" class="edge">
<title>hpp&#45;model&#45;git&#45;&gt;hpp&#45;fcl&#45;git</title>
<path fill="none" stroke="#000000" d="M670.5139,-1326.5269C632.8135,-1335.076 582.8855,-1346.3979 544.6742,-1355.0629"/>
<polygon fill="#000000" stroke="#000000" points="543.7064,-1351.6934 534.7281,-1357.3184 545.2545,-1358.5201 543.7064,-1351.6934"/>
</g>
<!-- hpp&#45;model&#45;git&#45;&gt;eigen32 -->
<g id="edge93" class="edge">
<title>hpp&#45;model&#45;git&#45;&gt;eigen32</title>
<path fill="none" stroke="#000000" d="M663.7115,-1324.4086C651.5546,-1328.3098 639.4281,-1333.6798 629.2537,-1341.0704 605.9165,-1358.0224 614.7678,-1375.8572 593.2537,-1395.0704 514.2668,-1465.6098 452.0452,-1425.2027 381.3725,-1504.0704 299.8815,-1595.0109 268.7334,-1744.0374 258.9077,-1805.8432"/>
<polygon fill="#000000" stroke="#000000" points="255.4062,-1805.5885 257.3621,-1816.0012 262.3266,-1806.6414 255.4062,-1805.5885"/>
</g>
</g>
</svg>
