<?xml version="1.0" encoding="UTF-8" standalone="no"?>
<!DOCTYPE svg PUBLIC "-//W3C//DTD SVG 1.1//EN"
 "http://www.w3.org/Graphics/SVG/1.1/DTD/svg11.dtd">
<!-- Generated by graphviz version 2.40.1 (20161225.0304)
 -->
<!-- Title: %3 Pages: 1 -->
<svg width="2416pt" height="404pt"
 viewBox="0.00 0.00 2415.78 404.00" xmlns="http://www.w3.org/2000/svg" xmlns:xlink="http://www.w3.org/1999/xlink">
<g id="graph0" class="graph" transform="scale(1 1) rotate(0) translate(4 400)">
<title>%3</title>
<polygon fill="#ffffff" stroke="transparent" points="-4,4 -4,-400 2411.7832,-400 2411.7832,4 -4,4"/>
<!-- boost -->
<g id="node1" class="node">
<title>boost</title>
<ellipse fill="none" stroke="#000000" cx="967.7832" cy="-18" rx="31.3957" ry="18"/>
<text text-anchor="middle" x="967.7832" y="-14.3" font-family="Times,serif" font-size="14.00" fill="#000000">boost</text>
</g>
<!-- romeo_description -->
<g id="node2" class="node">
<title>romeo_description</title>
<ellipse fill="none" stroke="#000000" cx="109.7832" cy="-306" rx="80.6858" ry="18"/>
<text text-anchor="middle" x="109.7832" y="-302.3" font-family="Times,serif" font-size="14.00" fill="#000000">romeo_description</text>
</g>
<!-- hpp&#45;model&#45;urdf -->
<g id="node3" class="node">
<title>hpp&#45;model&#45;urdf</title>
<ellipse fill="none" stroke="#000000" cx="1075.7832" cy="-306" rx="70.3881" ry="18"/>
<text text-anchor="middle" x="1075.7832" y="-302.3" font-family="Times,serif" font-size="14.00" fill="#000000">hpp&#45;model&#45;urdf</text>
</g>
<!-- hpp&#45;model -->
<g id="node4" class="node">
<title>hpp&#45;model</title>
<ellipse fill="none" stroke="#000000" cx="1817.7832" cy="-234" rx="51.9908" ry="18"/>
<text text-anchor="middle" x="1817.7832" y="-230.3" font-family="Times,serif" font-size="14.00" fill="#000000">hpp&#45;model</text>
</g>
<!-- hpp&#45;model&#45;urdf&#45;&gt;hpp&#45;model -->
<g id="edge58" class="edge">
<title>hpp&#45;model&#45;urdf&#45;&gt;hpp&#45;model</title>
<path fill="none" stroke="#000000" d="M1145.0054,-302.3736C1263.0801,-295.6994 1510.8364,-279.5712 1718.7832,-252 1732.9972,-250.1154 1748.2735,-247.5889 1762.4697,-245.0259"/>
<polygon fill="#000000" stroke="#000000" points="1763.3852,-248.4163 1772.5853,-243.1619 1762.1165,-241.5322 1763.3852,-248.4163"/>
</g>
<!-- hpp&#45;util&#45;git -->
<g id="node14" class="node">
<title>hpp&#45;util&#45;git</title>
<ellipse fill="none" stroke="#000000" cx="394.7832" cy="-162" rx="53.0913" ry="18"/>
<text text-anchor="middle" x="394.7832" y="-158.3" font-family="Times,serif" font-size="14.00" fill="#000000">hpp&#45;util&#45;git</text>
</g>
<!-- hpp&#45;model&#45;urdf&#45;&gt;hpp&#45;util&#45;git -->
<g id="edge57" class="edge">
<title>hpp&#45;model&#45;urdf&#45;&gt;hpp&#45;util&#45;git</title>
<path fill="none" stroke="#000000" d="M1006.0485,-303.6025C822.4534,-296.954 338.1716,-277.1069 314.7832,-252 303.8772,-240.2927 307.274,-230.1284 314.7832,-216 322.7938,-200.9281 337.0949,-189.3011 351.4125,-180.7637"/>
<polygon fill="#000000" stroke="#000000" points="353.2295,-183.7582 360.2733,-175.844 349.8315,-177.6382 353.2295,-183.7582"/>
</g>
<!-- assimp -->
<g id="node18" class="node">
<title>assimp</title>
<ellipse fill="none" stroke="#000000" cx="1583.7832" cy="-90" rx="36.2938" ry="18"/>
<text text-anchor="middle" x="1583.7832" y="-86.3" font-family="Times,serif" font-size="14.00" fill="#000000">assimp</text>
</g>
<!-- hpp&#45;model&#45;urdf&#45;&gt;assimp -->
<g id="edge56" class="edge">
<title>hpp&#45;model&#45;urdf&#45;&gt;assimp</title>
<path fill="none" stroke="#000000" d="M1039.7262,-290.2905C1024.1518,-281.4661 1007.5226,-268.8034 998.7832,-252 991.4004,-237.8051 988.7309,-228.4479 998.7832,-216 1066.7143,-131.8797 1410.9214,-101.254 1537.2264,-92.744"/>
<polygon fill="#000000" stroke="#000000" points="1537.6023,-96.2269 1547.351,-92.078 1537.1428,-89.242 1537.6023,-96.2269"/>
</g>
<!-- ros&#45;build&#45;tools -->
<g id="node20" class="node">
<title>ros&#45;build&#45;tools</title>
<ellipse fill="none" stroke="#000000" cx="1226.7832" cy="-234" rx="65.7887" ry="18"/>
<text text-anchor="middle" x="1226.7832" y="-230.3" font-family="Times,serif" font-size="14.00" fill="#000000">ros&#45;build&#45;tools</text>
</g>
<!-- hpp&#45;model&#45;urdf&#45;&gt;ros&#45;build&#45;tools -->
<g id="edge54" class="edge">
<title>hpp&#45;model&#45;urdf&#45;&gt;ros&#45;build&#45;tools</title>
<path fill="none" stroke="#000000" d="M1109.295,-290.0209C1131.5392,-279.4143 1160.9135,-265.408 1184.7256,-254.0539"/>
<polygon fill="#000000" stroke="#000000" points="1186.3646,-257.15 1193.8846,-249.6867 1183.3518,-250.8315 1186.3646,-257.15"/>
</g>
<!-- cmake -->
<g id="node24" class="node">
<title>cmake</title>
<ellipse fill="none" stroke="#000000" cx="1672.7832" cy="-18" rx="34.394" ry="18"/>
<text text-anchor="middle" x="1672.7832" y="-14.3" font-family="Times,serif" font-size="14.00" fill="#000000">cmake</text>
</g>
<!-- hpp&#45;model&#45;urdf&#45;&gt;cmake -->
<g id="edge53" class="edge">
<title>hpp&#45;model&#45;urdf&#45;&gt;cmake</title>
<path fill="none" stroke="#000000" d="M1034.7236,-291.1599C1017.2871,-282.5771 998.7214,-269.8655 988.7832,-252 962.3987,-204.5697 999.5049,-172.3567 1045.7832,-144 1145.1174,-83.1337 1502.9134,-37.3887 1628.6858,-22.8738"/>
<polygon fill="#000000" stroke="#000000" points="1629.195,-26.3384 1638.7321,-21.724 1628.399,-19.3838 1629.195,-26.3384"/>
</g>
<!-- ros&#45;indigo&#45;catkin -->
<g id="node28" class="node">
<title>ros&#45;indigo&#45;catkin</title>
<ellipse fill="none" stroke="#000000" cx="1384.7832" cy="-234" rx="74.9875" ry="18"/>
<text text-anchor="middle" x="1384.7832" y="-230.3" font-family="Times,serif" font-size="14.00" fill="#000000">ros&#45;indigo&#45;catkin</text>
</g>
<!-- hpp&#45;model&#45;urdf&#45;&gt;ros&#45;indigo&#45;catkin -->
<g id="edge55" class="edge">
<title>hpp&#45;model&#45;urdf&#45;&gt;ros&#45;indigo&#45;catkin</title>
<path fill="none" stroke="#000000" d="M1127.8514,-293.8676C1181.0711,-281.4669 1263.8035,-262.1894 1320.94,-248.8761"/>
<polygon fill="#000000" stroke="#000000" points="1321.9981,-252.2234 1330.9429,-246.5453 1320.4095,-245.406 1321.9981,-252.2234"/>
</g>
<!-- ros&#45;indigo&#45;urdfdom -->
<g id="node34" class="node">
<title>ros&#45;indigo&#45;urdfdom</title>
<ellipse fill="none" stroke="#000000" cx="828.7832" cy="-234" rx="85.2851" ry="18"/>
<text text-anchor="middle" x="828.7832" y="-230.3" font-family="Times,serif" font-size="14.00" fill="#000000">ros&#45;indigo&#45;urdfdom</text>
</g>
<!-- hpp&#45;model&#45;urdf&#45;&gt;ros&#45;indigo&#45;urdfdom -->
<g id="edge61" class="edge">
<title>hpp&#45;model&#45;urdf&#45;&gt;ros&#45;indigo&#45;urdfdom</title>
<path fill="none" stroke="#000000" d="M1029.3244,-292.4574C989.5227,-280.8553 931.9461,-264.0718 888.6866,-251.4617"/>
<polygon fill="#000000" stroke="#000000" points="889.4332,-248.0338 878.8533,-248.5953 887.4742,-254.7541 889.4332,-248.0338"/>
</g>
<!-- ros&#45;indigo&#45;urdf -->
<g id="node35" class="node">
<title>ros&#45;indigo&#45;urdf</title>
<ellipse fill="none" stroke="#000000" cx="1075.7832" cy="-234" rx="67.6881" ry="18"/>
<text text-anchor="middle" x="1075.7832" y="-230.3" font-family="Times,serif" font-size="14.00" fill="#000000">ros&#45;indigo&#45;urdf</text>
</g>
<!-- hpp&#45;model&#45;urdf&#45;&gt;ros&#45;indigo&#45;urdf -->
<g id="edge60" class="edge">
<title>hpp&#45;model&#45;urdf&#45;&gt;ros&#45;indigo&#45;urdf</title>
<path fill="none" stroke="#000000" d="M1075.7832,-287.8314C1075.7832,-280.131 1075.7832,-270.9743 1075.7832,-262.4166"/>
<polygon fill="#000000" stroke="#000000" points="1079.2833,-262.4132 1075.7832,-252.4133 1072.2833,-262.4133 1079.2833,-262.4132"/>
</g>
<!-- ros&#45;indigo&#45;resource&#45;retriever -->
<g id="node36" class="node">
<title>ros&#45;indigo&#45;resource&#45;retriever</title>
<ellipse fill="none" stroke="#000000" cx="1593.7832" cy="-234" rx="116.1796" ry="18"/>
<text text-anchor="middle" x="1593.7832" y="-230.3" font-family="Times,serif" font-size="14.00" fill="#000000">ros&#45;indigo&#45;resource&#45;retriever</text>
</g>
<!-- hpp&#45;model&#45;urdf&#45;&gt;ros&#45;indigo&#45;resource&#45;retriever -->
<g id="edge59" class="edge">
<title>hpp&#45;model&#45;urdf&#45;&gt;ros&#45;indigo&#45;resource&#45;retriever</title>
<path fill="none" stroke="#000000" d="M1138.0805,-297.5666C1215.5927,-287.0444 1351.9932,-268.4324 1468.7832,-252 1478.4719,-250.6368 1488.581,-249.2019 1498.6697,-247.7617"/>
<polygon fill="#000000" stroke="#000000" points="1499.3314,-251.2028 1508.7352,-246.3222 1498.3404,-244.2733 1499.3314,-251.2028"/>
</g>
<!-- ros&#45;indigo&#45;srdfdom -->
<g id="node37" class="node">
<title>ros&#45;indigo&#45;srdfdom</title>
<ellipse fill="none" stroke="#000000" cx="642.7832" cy="-234" rx="83.3857" ry="18"/>
<text text-anchor="middle" x="642.7832" y="-230.3" font-family="Times,serif" font-size="14.00" fill="#000000">ros&#45;indigo&#45;srdfdom</text>
</g>
<!-- hpp&#45;model&#45;urdf&#45;&gt;ros&#45;indigo&#45;srdfdom -->
<g id="edge62" class="edge">
<title>hpp&#45;model&#45;urdf&#45;&gt;ros&#45;indigo&#45;srdfdom</title>
<path fill="none" stroke="#000000" d="M1014.6891,-297.006C946.3655,-286.7894 832.465,-269.2843 734.7832,-252 728.1073,-250.8187 721.1681,-249.5453 714.2279,-248.241"/>
<polygon fill="#000000" stroke="#000000" points="714.5673,-244.7429 704.0898,-246.315 713.2608,-251.6199 714.5673,-244.7429"/>
</g>
<!-- eigen32 -->
<g id="node5" class="node">
<title>eigen32</title>
<ellipse fill="none" stroke="#000000" cx="2266.7832" cy="-90" rx="40.0939" ry="18"/>
<text text-anchor="middle" x="2266.7832" y="-86.3" font-family="Times,serif" font-size="14.00" fill="#000000">eigen32</text>
</g>
<!-- hpp&#45;model&#45;&gt;eigen32 -->
<g id="edge19" class="edge">
<title>hpp&#45;model&#45;&gt;eigen32</title>
<path fill="none" stroke="#000000" d="M1842.9272,-217.9927C1881.6491,-193.4513 1952.7845,-148.841 1965.7832,-144 2056.166,-110.3391 2084.9875,-125.7735 2179.7832,-108 2193.0718,-105.5085 2207.4602,-102.6128 2220.6374,-99.8819"/>
<polygon fill="#000000" stroke="#000000" points="2221.3662,-103.3053 2230.4397,-97.8351 2219.9354,-96.4531 2221.3662,-103.3053"/>
</g>
<!-- hpp&#45;model&#45;&gt;hpp&#45;util&#45;git -->
<g id="edge20" class="edge">
<title>hpp&#45;model&#45;&gt;hpp&#45;util&#45;git</title>
<path fill="none" stroke="#000000" d="M1773.1297,-224.5194C1756.1863,-221.2815 1736.6672,-217.9808 1718.7832,-216 1592.9727,-202.0655 704.8896,-172.178 458.2076,-164.0671"/>
<polygon fill="#000000" stroke="#000000" points="458.0886,-160.5614 447.9791,-163.7312 457.8588,-167.5576 458.0886,-160.5614"/>
</g>
<!-- hpp&#45;model&#45;&gt;assimp -->
<g id="edge17" class="edge">
<title>hpp&#45;model&#45;&gt;assimp</title>
<path fill="none" stroke="#000000" d="M1777.283,-222.4941C1726.5095,-207.9551 1645.3881,-184.2997 1639.7832,-180 1618.7025,-163.8285 1603.5882,-137.2722 1594.4154,-117.1879"/>
<polygon fill="#000000" stroke="#000000" points="1597.5847,-115.6991 1590.3896,-107.9221 1591.1645,-118.4886 1597.5847,-115.6991"/>
</g>
<!-- hpp&#45;model&#45;&gt;cmake -->
<g id="edge18" class="edge">
<title>hpp&#45;model&#45;&gt;cmake</title>
<path fill="none" stroke="#000000" d="M1778.6094,-221.948C1737.8681,-209.0227 1679.1242,-189.128 1672.7832,-180 1645.0811,-140.1227 1654.7423,-80.3549 1663.9714,-45.6597"/>
<polygon fill="#000000" stroke="#000000" points="1667.4214,-46.3223 1666.7799,-35.7469 1660.6865,-44.4141 1667.4214,-46.3223"/>
</g>
<!-- hpp&#45;fcl -->
<g id="node31" class="node">
<title>hpp&#45;fcl</title>
<ellipse fill="none" stroke="#000000" cx="1719.7832" cy="-162" rx="37.8943" ry="18"/>
<text text-anchor="middle" x="1719.7832" y="-158.3" font-family="Times,serif" font-size="14.00" fill="#000000">hpp&#45;fcl</text>
</g>
<!-- hpp&#45;model&#45;&gt;hpp&#45;fcl -->
<g id="edge21" class="edge">
<title>hpp&#45;model&#45;&gt;hpp&#45;fcl</title>
<path fill="none" stroke="#000000" d="M1795.5454,-217.6621C1781.7608,-207.5346 1763.8999,-194.4123 1748.9826,-183.4526"/>
<polygon fill="#000000" stroke="#000000" points="1750.7238,-180.3888 1740.5927,-177.2886 1746.5792,-186.03 1750.7238,-180.3888"/>
</g>
<!-- eigen32&#45;&gt;boost -->
<g id="edge16" class="edge">
<title>eigen32&#45;&gt;boost</title>
<path fill="none" stroke="#000000" d="M2231.0188,-81.26C2215.3844,-77.7881 2196.7718,-74.1221 2179.7832,-72 1945.8028,-42.7723 1193.9739,-23.3629 1009.1276,-18.9554"/>
<polygon fill="#000000" stroke="#000000" points="1009.0916,-15.4536 999.0114,-18.7157 1008.9257,-22.4517 1009.0916,-15.4536"/>
</g>
<!-- freeglut -->
<g id="node7" class="node">
<title>freeglut</title>
<ellipse fill="none" stroke="#000000" cx="2224.7832" cy="-18" rx="38.9931" ry="18"/>
<text text-anchor="middle" x="2224.7832" y="-14.3" font-family="Times,serif" font-size="14.00" fill="#000000">freeglut</text>
</g>
<!-- eigen32&#45;&gt;freeglut -->
<g id="edge11" class="edge">
<title>eigen32&#45;&gt;freeglut</title>
<path fill="none" stroke="#000000" d="M2256.6161,-72.5708C2251.6488,-64.0553 2245.5678,-53.6308 2240.0566,-44.183"/>
<polygon fill="#000000" stroke="#000000" points="2243.0641,-42.3925 2235.0021,-35.5182 2237.0177,-45.9196 2243.0641,-42.3925"/>
</g>
<!-- qt4 -->
<g id="node15" class="node">
<title>qt4</title>
<ellipse fill="none" stroke="#000000" cx="2308.7832" cy="-18" rx="27" ry="18"/>
<text text-anchor="middle" x="2308.7832" y="-14.3" font-family="Times,serif" font-size="14.00" fill="#000000">qt4</text>
</g>
<!-- eigen32&#45;&gt;qt4 -->
<g id="edge9" class="edge">
<title>eigen32&#45;&gt;qt4</title>
<path fill="none" stroke="#000000" d="M2271.4291,-71.8314C2275.8304,-62.7731 2282.1397,-51.6999 2288.4059,-41.9568"/>
<polygon fill="#000000" stroke="#000000" points="2291.4286,-43.7335 2294.0925,-33.479 2285.6153,-39.8341 2291.4286,-43.7335"/>
</g>
<!-- eigen32&#45;&gt;qt4 -->
<g id="edge14" class="edge">
<title>eigen32&#45;&gt;qt4</title>
<path fill="none" stroke="#000000" d="M2282.3252,-73.3008C2288.15,-64.8885 2294.4739,-54.48 2299.6082,-44.9702"/>
<polygon fill="#000000" stroke="#000000" points="2302.8282,-46.3616 2304.2833,-35.8671 2296.6014,-43.1636 2302.8282,-46.3616"/>
</g>
<!-- fftw -->
<g id="node16" class="node">
<title>fftw</title>
<ellipse fill="none" stroke="#000000" cx="2380.7832" cy="-18" rx="27" ry="18"/>
<text text-anchor="middle" x="2380.7832" y="-14.3" font-family="Times,serif" font-size="14.00" fill="#000000">fftw</text>
</g>
<!-- eigen32&#45;&gt;fftw -->
<g id="edge13" class="edge">
<title>eigen32&#45;&gt;fftw</title>
<path fill="none" stroke="#000000" d="M2290.1279,-75.256C2308.1231,-63.8906 2333.0907,-48.1215 2352.2682,-36.0094"/>
<polygon fill="#000000" stroke="#000000" points="2354.3074,-38.8612 2360.8933,-30.562 2350.5694,-32.9428 2354.3074,-38.8612"/>
</g>
<!-- suitesparse -->
<g id="node21" class="node">
<title>suitesparse</title>
<ellipse fill="none" stroke="#000000" cx="1997.7832" cy="-18" rx="50.0912" ry="18"/>
<text text-anchor="middle" x="1997.7832" y="-14.3" font-family="Times,serif" font-size="14.00" fill="#000000">suitesparse</text>
</g>
<!-- eigen32&#45;&gt;suitesparse -->
<g id="edge15" class="edge">
<title>eigen32&#45;&gt;suitesparse</title>
<path fill="none" stroke="#000000" d="M2234.9579,-78.8343C2227.7092,-76.447 2220.0128,-74.0342 2212.7832,-72 2144.2873,-52.7276 2125.5204,-54.3929 2056.7832,-36 2052.9926,-34.9857 2049.0785,-33.893 2045.1538,-32.7652"/>
<polygon fill="#000000" stroke="#000000" points="2046.0217,-29.3723 2035.4407,-29.9138 2044.05,-36.0889 2046.0217,-29.3723"/>
</g>
<!-- gcc&#45;fortran -->
<g id="node22" class="node">
<title>gcc&#45;fortran</title>
<ellipse fill="none" stroke="#000000" cx="2116.7832" cy="-18" rx="51.1914" ry="18"/>
<text text-anchor="middle" x="2116.7832" y="-14.3" font-family="Times,serif" font-size="14.00" fill="#000000">gcc&#45;fortran</text>
</g>
<!-- eigen32&#45;&gt;gcc&#45;fortran -->
<g id="edge12" class="edge">
<title>eigen32&#45;&gt;gcc&#45;fortran</title>
<path fill="none" stroke="#000000" d="M2239.2708,-76.7941C2216.0702,-65.6578 2182.5702,-49.5778 2156.4666,-37.0481"/>
<polygon fill="#000000" stroke="#000000" points="2157.7468,-33.7803 2147.217,-32.6082 2154.7176,-40.0909 2157.7468,-33.7803"/>
</g>
<!-- eigen32&#45;&gt;cmake -->
<g id="edge10" class="edge">
<title>eigen32&#45;&gt;cmake</title>
<path fill="none" stroke="#000000" d="M2235.6998,-78.333C2228.2782,-75.9129 2220.3207,-73.6122 2212.7832,-72 2118.3965,-51.8122 1829.1894,-29.3486 1717.4734,-21.1837"/>
<polygon fill="#000000" stroke="#000000" points="1717.4563,-17.6733 1707.2288,-20.4387 1716.9486,-24.6549 1717.4563,-17.6733"/>
</g>
<!-- pinocchio&#45;git -->
<g id="node6" class="node">
<title>pinocchio&#45;git</title>
<ellipse fill="none" stroke="#000000" cx="1985.7832" cy="-234" rx="60.3893" ry="18"/>
<text text-anchor="middle" x="1985.7832" y="-230.3" font-family="Times,serif" font-size="14.00" fill="#000000">pinocchio&#45;git</text>
</g>
<!-- pinocchio&#45;git&#45;&gt;eigen32 -->
<g id="edge5" class="edge">
<title>pinocchio&#45;git&#45;&gt;eigen32</title>
<path fill="none" stroke="#000000" d="M1977.6054,-215.8482C1969.9872,-195.871 1962.0873,-163.9518 1978.7832,-144 2007.9044,-109.1996 2135.2277,-116.5976 2179.7832,-108 2192.8088,-105.4865 2206.9021,-102.6302 2219.8754,-99.9451"/>
<polygon fill="#000000" stroke="#000000" points="2220.9209,-103.3026 2229.9979,-97.8382 2219.4944,-96.4495 2220.9209,-103.3026"/>
</g>
<!-- git -->
<g id="node9" class="node">
<title>git</title>
<ellipse fill="none" stroke="#000000" cx="272.7832" cy="-90" rx="27" ry="18"/>
<text text-anchor="middle" x="272.7832" y="-86.3" font-family="Times,serif" font-size="14.00" fill="#000000">git</text>
</g>
<!-- pinocchio&#45;git&#45;&gt;git -->
<g id="edge4" class="edge">
<title>pinocchio&#45;git&#45;&gt;git</title>
<path fill="none" stroke="#000000" d="M1934.4964,-224.3416C1916.8872,-221.3002 1897.0208,-218.1717 1878.7832,-216 1200.9931,-135.2889 1021.232,-213.0356 346.7832,-108 333.8209,-105.9813 319.7905,-102.8236 307.4671,-99.7129"/>
<polygon fill="#000000" stroke="#000000" points="308.1371,-96.2708 297.5778,-97.1371 306.3727,-103.0447 308.1371,-96.2708"/>
</g>
<!-- metapod&#45;git -->
<g id="node10" class="node">
<title>metapod&#45;git</title>
<ellipse fill="none" stroke="#000000" cx="2229.7832" cy="-162" rx="55.7903" ry="18"/>
<text text-anchor="middle" x="2229.7832" y="-158.3" font-family="Times,serif" font-size="14.00" fill="#000000">metapod&#45;git</text>
</g>
<!-- pinocchio&#45;git&#45;&gt;metapod&#45;git -->
<g id="edge1" class="edge">
<title>pinocchio&#45;git&#45;&gt;metapod&#45;git</title>
<path fill="none" stroke="#000000" d="M2028.8438,-221.2936C2070.69,-208.9455 2134.2505,-190.19 2178.6469,-177.0894"/>
<polygon fill="#000000" stroke="#000000" points="2179.773,-180.4064 2188.3735,-174.2192 2177.7918,-173.6926 2179.773,-180.4064"/>
</g>
<!-- lua51 -->
<g id="node17" class="node">
<title>lua51</title>
<ellipse fill="none" stroke="#000000" cx="2019.7832" cy="-162" rx="31.6951" ry="18"/>
<text text-anchor="middle" x="2019.7832" y="-158.3" font-family="Times,serif" font-size="14.00" fill="#000000">lua51</text>
</g>
<!-- pinocchio&#45;git&#45;&gt;lua51 -->
<g id="edge2" class="edge">
<title>pinocchio&#45;git&#45;&gt;lua51</title>
<path fill="none" stroke="#000000" d="M1994.3628,-215.8314C1998.2757,-207.5451 2002.9849,-197.5727 2007.2812,-188.4748"/>
<polygon fill="#000000" stroke="#000000" points="2010.4529,-189.9547 2011.5581,-179.4177 2004.1231,-186.9657 2010.4529,-189.9547"/>
</g>
<!-- pinocchio&#45;git&#45;&gt;cmake -->
<g id="edge3" class="edge">
<title>pinocchio&#45;git&#45;&gt;cmake</title>
<path fill="none" stroke="#000000" d="M1940.3851,-221.9546C1890.6092,-208.5122 1816.2389,-187.6456 1804.7832,-180 1776.67,-161.2372 1719.5529,-83.9665 1690.5457,-43.2969"/>
<polygon fill="#000000" stroke="#000000" points="1693.2796,-41.1017 1684.637,-34.9733 1687.5715,-45.1536 1693.2796,-41.1017"/>
</g>
<!-- eigenpy -->
<g id="node25" class="node">
<title>eigenpy</title>
<ellipse fill="none" stroke="#000000" cx="1853.7832" cy="-162" rx="40.0939" ry="18"/>
<text text-anchor="middle" x="1853.7832" y="-158.3" font-family="Times,serif" font-size="14.00" fill="#000000">eigenpy</text>
</g>
<!-- pinocchio&#45;git&#45;&gt;eigenpy -->
<g id="edge6" class="edge">
<title>pinocchio&#45;git&#45;&gt;eigenpy</title>
<path fill="none" stroke="#000000" d="M1956.8152,-218.1993C1936.7182,-207.2373 1909.8481,-192.5809 1888.5873,-180.9841"/>
<polygon fill="#000000" stroke="#000000" points="1890.0122,-177.7745 1879.5573,-176.0586 1886.6602,-183.9198 1890.0122,-177.7745"/>
</g>
<!-- urdfdom -->
<g id="node27" class="node">
<title>urdfdom</title>
<ellipse fill="none" stroke="#000000" cx="2112.7832" cy="-162" rx="43.5923" ry="18"/>
<text text-anchor="middle" x="2112.7832" y="-158.3" font-family="Times,serif" font-size="14.00" fill="#000000">urdfdom</text>
</g>
<!-- pinocchio&#45;git&#45;&gt;urdfdom -->
<g id="edge8" class="edge">
<title>pinocchio&#45;git&#45;&gt;urdfdom</title>
<path fill="none" stroke="#000000" d="M2013.9686,-218.0209C2032.8532,-207.3146 2057.8478,-193.1445 2077.9737,-181.7345"/>
<polygon fill="#000000" stroke="#000000" points="2079.8656,-184.6853 2086.8387,-176.7087 2076.4133,-178.5958 2079.8656,-184.6853"/>
</g>
<!-- pinocchio&#45;git&#45;&gt;hpp&#45;fcl -->
<g id="edge7" class="edge">
<title>pinocchio&#45;git&#45;&gt;hpp&#45;fcl</title>
<path fill="none" stroke="#000000" d="M1938.8956,-222.3962C1880.8773,-208.0022 1787.7542,-184.7696 1771.7832,-180 1767.7669,-178.8006 1763.5999,-177.4836 1759.4518,-176.1245"/>
<polygon fill="#000000" stroke="#000000" points="1760.4809,-172.7781 1749.887,-172.9126 1758.2525,-179.4139 1760.4809,-172.7781"/>
</g>
<!-- pinocchio -->
<g id="node8" class="node">
<title>pinocchio</title>
<ellipse fill="none" stroke="#000000" cx="2112.7832" cy="-234" rx="48.1917" ry="18"/>
<text text-anchor="middle" x="2112.7832" y="-230.3" font-family="Times,serif" font-size="14.00" fill="#000000">pinocchio</text>
</g>
<!-- pinocchio&#45;&gt;eigen32 -->
<g id="edge25" class="edge">
<title>pinocchio&#45;&gt;eigen32</title>
<path fill="none" stroke="#000000" d="M2158.981,-228.9926C2215.795,-221.7718 2307.2512,-206.3265 2327.7832,-180 2345.4358,-157.3653 2320.5915,-129.8639 2297.5096,-111.2646"/>
<polygon fill="#000000" stroke="#000000" points="2299.5472,-108.4161 2289.4914,-105.0797 2295.2718,-113.9587 2299.5472,-108.4161"/>
</g>
<!-- pinocchio&#45;&gt;metapod&#45;git -->
<g id="edge22" class="edge">
<title>pinocchio&#45;&gt;metapod&#45;git</title>
<path fill="none" stroke="#000000" d="M2137.8826,-218.5542C2154.5011,-208.3274 2176.5276,-194.7726 2194.8505,-183.497"/>
<polygon fill="#000000" stroke="#000000" points="2196.8256,-186.3912 2203.5079,-178.1694 2193.1569,-180.4296 2196.8256,-186.3912"/>
</g>
<!-- pinocchio&#45;&gt;lua51 -->
<g id="edge23" class="edge">
<title>pinocchio&#45;&gt;lua51</title>
<path fill="none" stroke="#000000" d="M2091.68,-217.6621C2078.3299,-207.3265 2060.9509,-193.8718 2046.6238,-182.7798"/>
<polygon fill="#000000" stroke="#000000" points="2048.6442,-179.9177 2038.5944,-176.5635 2044.359,-185.4528 2048.6442,-179.9177"/>
</g>
<!-- pinocchio&#45;&gt;cmake -->
<g id="edge24" class="edge">
<title>pinocchio&#45;&gt;cmake</title>
<path fill="none" stroke="#000000" d="M2159.3137,-229.2119C2223.873,-220.5296 2329.0366,-197.8269 2294.7832,-144 2274.5012,-112.1283 2249.0081,-129.2641 2217.7832,-108 2198.5541,-94.9051 2200.9079,-81.7457 2179.7832,-72 2138.2779,-52.852 1833.6945,-29.4491 1717.578,-21.1226"/>
<polygon fill="#000000" stroke="#000000" points="1717.4915,-17.6077 1707.2679,-20.3875 1716.9936,-24.5899 1717.4915,-17.6077"/>
</g>
<!-- pinocchio&#45;&gt;eigenpy -->
<g id="edge27" class="edge">
<title>pinocchio&#45;&gt;eigenpy</title>
<path fill="none" stroke="#000000" d="M2076.0283,-222.3598C2068.9905,-220.1972 2061.67,-217.9929 2054.7832,-216 2001.3474,-200.5365 1939.4889,-184.1424 1898.6636,-173.5294"/>
<polygon fill="#000000" stroke="#000000" points="1899.3138,-170.0823 1888.7554,-170.9599 1897.5565,-176.8582 1899.3138,-170.0823"/>
</g>
<!-- pinocchio&#45;&gt;urdfdom -->
<g id="edge28" class="edge">
<title>pinocchio&#45;&gt;urdfdom</title>
<path fill="none" stroke="#000000" d="M2112.7832,-215.8314C2112.7832,-208.131 2112.7832,-198.9743 2112.7832,-190.4166"/>
<polygon fill="#000000" stroke="#000000" points="2116.2833,-190.4132 2112.7832,-180.4133 2109.2833,-190.4133 2116.2833,-190.4132"/>
</g>
<!-- pinocchio&#45;&gt;hpp&#45;fcl -->
<g id="edge26" class="edge">
<title>pinocchio&#45;&gt;hpp&#45;fcl</title>
<path fill="none" stroke="#000000" d="M2076.8224,-221.8746C2069.581,-219.7068 2061.9823,-217.6248 2054.7832,-216 1945.2801,-191.2865 1915.3092,-199.6388 1804.7832,-180 1791.5409,-177.6471 1777.2117,-174.7496 1764.1591,-171.9723"/>
<polygon fill="#000000" stroke="#000000" points="1764.5232,-168.4704 1754.0101,-169.7834 1763.0474,-175.3131 1764.5232,-168.4704"/>
</g>
<!-- tinyxml -->
<g id="node11" class="node">
<title>tinyxml</title>
<ellipse fill="none" stroke="#000000" cx="395.7832" cy="-90" rx="40.0939" ry="18"/>
<text text-anchor="middle" x="395.7832" y="-86.3" font-family="Times,serif" font-size="14.00" fill="#000000">tinyxml</text>
</g>
<!-- python2&#45;numpy -->
<g id="node12" class="node">
<title>python2&#45;numpy</title>
<ellipse fill="none" stroke="#000000" cx="1905.7832" cy="-90" rx="72.2875" ry="18"/>
<text text-anchor="middle" x="1905.7832" y="-86.3" font-family="Times,serif" font-size="14.00" fill="#000000">python2&#45;numpy</text>
</g>
<!-- tabula -->
<g id="node13" class="node">
<title>tabula</title>
<ellipse fill="none" stroke="#000000" cx="2109.7832" cy="-378" rx="33.2948" ry="18"/>
<text text-anchor="middle" x="2109.7832" y="-374.3" font-family="Times,serif" font-size="14.00" fill="#000000">tabula</text>
</g>
<!-- java&#45;runtime -->
<g id="node33" class="node">
<title>java&#45;runtime</title>
<ellipse fill="none" stroke="#000000" cx="2109.7832" cy="-306" rx="57.6901" ry="18"/>
<text text-anchor="middle" x="2109.7832" y="-302.3" font-family="Times,serif" font-size="14.00" fill="#000000">java&#45;runtime</text>
</g>
<!-- tabula&#45;&gt;java&#45;runtime -->
<g id="edge29" class="edge">
<title>tabula&#45;&gt;java&#45;runtime</title>
<path fill="none" stroke="#000000" d="M2109.7832,-359.8314C2109.7832,-352.131 2109.7832,-342.9743 2109.7832,-334.4166"/>
<polygon fill="#000000" stroke="#000000" points="2113.2833,-334.4132 2109.7832,-324.4133 2106.2833,-334.4133 2113.2833,-334.4132"/>
</g>
<!-- hpp&#45;util&#45;git&#45;&gt;boost -->
<g id="edge33" class="edge">
<title>hpp&#45;util&#45;git&#45;&gt;boost</title>
<path fill="none" stroke="#000000" d="M374.54,-145.1807C353.6331,-125.8357 326.6786,-93.9287 346.7832,-72 385.9012,-29.3327 793.4026,-20.2659 926.1995,-18.4386"/>
<polygon fill="#000000" stroke="#000000" points="926.418,-21.9361 936.3713,-18.3056 926.3263,-14.9367 926.418,-21.9361"/>
</g>
<!-- hpp&#45;util&#45;git&#45;&gt;git -->
<g id="edge31" class="edge">
<title>hpp&#45;util&#45;git&#45;&gt;git</title>
<path fill="none" stroke="#000000" d="M368.311,-146.3771C348.7421,-134.8282 322.1045,-119.1077 301.9289,-107.2008"/>
<polygon fill="#000000" stroke="#000000" points="303.5534,-104.0955 293.1624,-102.0271 299.9956,-110.1239 303.5534,-104.0955"/>
</g>
<!-- hpp&#45;util&#45;git&#45;&gt;tinyxml -->
<g id="edge34" class="edge">
<title>hpp&#45;util&#45;git&#45;&gt;tinyxml</title>
<path fill="none" stroke="#000000" d="M395.0355,-143.8314C395.1425,-136.131 395.2696,-126.9743 395.3885,-118.4166"/>
<polygon fill="#000000" stroke="#000000" points="398.8881,-118.4609 395.5274,-108.4133 391.8888,-118.3637 398.8881,-118.4609"/>
</g>
<!-- doxygen -->
<g id="node19" class="node">
<title>doxygen</title>
<ellipse fill="none" stroke="#000000" cx="573.7832" cy="-90" rx="44.393" ry="18"/>
<text text-anchor="middle" x="573.7832" y="-86.3" font-family="Times,serif" font-size="14.00" fill="#000000">doxygen</text>
</g>
<!-- hpp&#45;util&#45;git&#45;&gt;doxygen -->
<g id="edge32" class="edge">
<title>hpp&#45;util&#45;git&#45;&gt;doxygen</title>
<path fill="none" stroke="#000000" d="M429.2962,-148.1177C458.85,-136.2301 501.4642,-119.0892 532.7569,-106.5022"/>
<polygon fill="#000000" stroke="#000000" points="534.1064,-109.732 542.0779,-102.753 531.4942,-103.2376 534.1064,-109.732"/>
</g>
<!-- hpp&#45;util&#45;git&#45;&gt;cmake -->
<g id="edge30" class="edge">
<title>hpp&#45;util&#45;git&#45;&gt;cmake</title>
<path fill="none" stroke="#000000" d="M411.2501,-144.8022C435.3512,-119.83 478.3962,-76.0494 487.7832,-72 541.0428,-49.0242 1418.5477,-24.6603 1628.1018,-19.1508"/>
<polygon fill="#000000" stroke="#000000" points="1628.2316,-22.6487 1638.1365,-18.888 1628.0483,-15.6511 1628.2316,-22.6487"/>
</g>
<!-- boost&#45;libs -->
<g id="node23" class="node">
<title>boost&#45;libs</title>
<ellipse fill="none" stroke="#000000" cx="2043.7832" cy="-90" rx="47.3916" ry="18"/>
<text text-anchor="middle" x="2043.7832" y="-86.3" font-family="Times,serif" font-size="14.00" fill="#000000">boost&#45;libs</text>
</g>
<!-- eigenpy&#45;&gt;boost -->
<g id="edge70" class="edge">
<title>eigenpy&#45;&gt;boost</title>
<path fill="none" stroke="#000000" d="M1827.2749,-148.3509C1786.0488,-127.8338 1703.5242,-89.5798 1628.7832,-72 1510.0751,-44.0788 1135.2513,-25.3922 1009.4311,-19.7746"/>
<polygon fill="#000000" stroke="#000000" points="1009.2216,-16.262 999.0768,-19.3168 1008.9124,-23.2552 1009.2216,-16.262"/>
</g>
<!-- eigenpy&#45;&gt;python2&#45;numpy -->
<g id="edge71" class="edge">
<title>eigenpy&#45;&gt;python2&#45;numpy</title>
<path fill="none" stroke="#000000" d="M1866.3709,-144.5708C1872.5384,-136.0312 1880.0924,-125.5719 1886.9311,-116.1029"/>
<polygon fill="#000000" stroke="#000000" points="1889.9325,-117.9249 1892.9501,-107.7689 1884.2578,-113.8265 1889.9325,-117.9249"/>
</g>
<!-- eigenpy&#45;&gt;doxygen -->
<g id="edge67" class="edge">
<title>eigenpy&#45;&gt;doxygen</title>
<path fill="none" stroke="#000000" d="M1818.0181,-153.2658C1802.3836,-149.7949 1783.7711,-146.1282 1766.7832,-144 1541.8286,-115.8189 830.5664,-96.3777 628.0626,-91.3104"/>
<polygon fill="#000000" stroke="#000000" points="628.0505,-87.8092 617.9665,-91.0592 627.8763,-94.807 628.0505,-87.8092"/>
</g>
<!-- eigenpy&#45;&gt;boost&#45;libs -->
<g id="edge72" class="edge">
<title>eigenpy&#45;&gt;boost&#45;libs</title>
<path fill="none" stroke="#000000" d="M1884.7328,-150.2717C1916.1631,-138.3613 1965.1016,-119.8162 2000.3946,-106.442"/>
<polygon fill="#000000" stroke="#000000" points="2001.8504,-109.6332 2009.9613,-102.8167 1999.3699,-103.0875 2001.8504,-109.6332"/>
</g>
<!-- eigenpy&#45;&gt;cmake -->
<g id="edge68" class="edge">
<title>eigenpy&#45;&gt;cmake</title>
<path fill="none" stroke="#000000" d="M1843.1638,-144.5301C1830.5186,-124.8737 1807.8085,-92.9603 1781.7832,-72 1760.5786,-54.9223 1733.0874,-41.3501 1711.0193,-32.0839"/>
<polygon fill="#000000" stroke="#000000" points="1712.198,-28.7849 1701.6164,-28.2556 1709.5584,-35.2681 1712.198,-28.7849"/>
</g>
<!-- eigen -->
<g id="node26" class="node">
<title>eigen</title>
<ellipse fill="none" stroke="#000000" cx="2139.7832" cy="-90" rx="30.5947" ry="18"/>
<text text-anchor="middle" x="2139.7832" y="-86.3" font-family="Times,serif" font-size="14.00" fill="#000000">eigen</text>
</g>
<!-- eigenpy&#45;&gt;eigen -->
<g id="edge69" class="edge">
<title>eigenpy&#45;&gt;eigen</title>
<path fill="none" stroke="#000000" d="M1885.2622,-150.7053C1892.597,-148.2977 1900.4172,-145.9087 1907.7832,-144 1991.8277,-122.2219 2016.9464,-133.9971 2099.7832,-108 2102.0514,-107.2881 2104.3614,-106.4822 2106.669,-105.6157"/>
<polygon fill="#000000" stroke="#000000" points="2108.0919,-108.8154 2116.0304,-101.7989 2105.449,-102.3335 2108.0919,-108.8154"/>
</g>
<!-- hpp&#45;statistics&#45;git -->
<g id="node29" class="node">
<title>hpp&#45;statistics&#45;git</title>
<ellipse fill="none" stroke="#000000" cx="394.7832" cy="-234" rx="71.4873" ry="18"/>
<text text-anchor="middle" x="394.7832" y="-230.3" font-family="Times,serif" font-size="14.00" fill="#000000">hpp&#45;statistics&#45;git</text>
</g>
<!-- hpp&#45;statistics&#45;git&#45;&gt;git -->
<g id="edge64" class="edge">
<title>hpp&#45;statistics&#45;git&#45;&gt;git</title>
<path fill="none" stroke="#000000" d="M372.2431,-216.8174C359.8627,-206.8007 344.6577,-193.5082 332.7832,-180 315.2825,-160.0917 298.8397,-134.7759 287.6088,-116.0682"/>
<polygon fill="#000000" stroke="#000000" points="290.4786,-114.0444 282.3828,-107.21 284.4496,-117.6013 290.4786,-114.0444"/>
</g>
<!-- hpp&#45;statistics&#45;git&#45;&gt;hpp&#45;util&#45;git -->
<g id="edge66" class="edge">
<title>hpp&#45;statistics&#45;git&#45;&gt;hpp&#45;util&#45;git</title>
<path fill="none" stroke="#000000" d="M394.7832,-215.8314C394.7832,-208.131 394.7832,-198.9743 394.7832,-190.4166"/>
<polygon fill="#000000" stroke="#000000" points="398.2833,-190.4132 394.7832,-180.4133 391.2833,-190.4133 398.2833,-190.4132"/>
</g>
<!-- hpp&#45;statistics&#45;git&#45;&gt;doxygen -->
<g id="edge65" class="edge">
<title>hpp&#45;statistics&#45;git&#45;&gt;doxygen</title>
<path fill="none" stroke="#000000" d="M433.8796,-218.8071C454.9702,-209.4932 480.7129,-196.2381 500.7832,-180 523.2984,-161.7838 543.5749,-135.5961 557.011,-116.1619"/>
<polygon fill="#000000" stroke="#000000" points="559.9887,-118.0065 562.6865,-107.7608 554.1883,-114.0879 559.9887,-118.0065"/>
</g>
<!-- hpp&#45;statistics&#45;git&#45;&gt;cmake -->
<g id="edge63" class="edge">
<title>hpp&#45;statistics&#45;git&#45;&gt;cmake</title>
<path fill="none" stroke="#000000" d="M417.901,-216.8201C430.3127,-206.9046 445.3624,-193.7087 456.7832,-180 492.4966,-137.1323 472.9658,-100.7504 520.7832,-72 569.0092,-43.0039 1421.1559,-23.2868 1627.8812,-18.9165"/>
<polygon fill="#000000" stroke="#000000" points="1628.1469,-22.4118 1638.0712,-18.7025 1627.9999,-15.4134 1628.1469,-22.4118"/>
</g>
<!-- hpp_environments -->
<g id="node30" class="node">
<title>hpp_environments</title>
<ellipse fill="none" stroke="#000000" cx="1788.7832" cy="-306" rx="81.4863" ry="18"/>
<text text-anchor="middle" x="1788.7832" y="-302.3" font-family="Times,serif" font-size="14.00" fill="#000000">hpp_environments</text>
</g>
<!-- hpp&#45;fcl&#45;&gt;eigen32 -->
<g id="edge36" class="edge">
<title>hpp&#45;fcl&#45;&gt;eigen32</title>
<path fill="none" stroke="#000000" d="M1753.539,-153.9357C1769.0711,-150.4616 1787.7859,-146.607 1804.7832,-144 1970.2807,-118.6159 2014.2269,-132.9981 2179.7832,-108 2193.2733,-105.9631 2207.8276,-103.1848 2221.1002,-100.4207"/>
<polygon fill="#000000" stroke="#000000" points="2221.9087,-103.8271 2230.9612,-98.3223 2220.4517,-96.9804 2221.9087,-103.8271"/>
</g>
<!-- hpp&#45;fcl&#45;&gt;assimp -->
<g id="edge37" class="edge">
<title>hpp&#45;fcl&#45;&gt;assimp</title>
<path fill="none" stroke="#000000" d="M1694.5213,-148.6261C1672.9562,-137.2093 1641.7471,-120.6868 1617.9533,-108.0901"/>
<polygon fill="#000000" stroke="#000000" points="1619.3852,-104.888 1608.9097,-103.3023 1616.11,-111.0745 1619.3852,-104.888"/>
</g>
<!-- hpp&#45;fcl&#45;&gt;cmake -->
<g id="edge35" class="edge">
<title>hpp&#45;fcl&#45;&gt;cmake</title>
<path fill="none" stroke="#000000" d="M1713.9256,-144.0535C1705.8691,-119.3696 1691.293,-74.7111 1681.8296,-45.7167"/>
<polygon fill="#000000" stroke="#000000" points="1685.1447,-44.5932 1678.7145,-36.1727 1678.4901,-46.7652 1685.1447,-44.5932"/>
</g>
<!-- hpp&#45;pinocchio&#45;git -->
<g id="node32" class="node">
<title>hpp&#45;pinocchio&#45;git</title>
<ellipse fill="none" stroke="#000000" cx="1226.7832" cy="-378" rx="77.9862" ry="18"/>
<text text-anchor="middle" x="1226.7832" y="-374.3" font-family="Times,serif" font-size="14.00" fill="#000000">hpp&#45;pinocchio&#45;git</text>
</g>
<!-- hpp&#45;pinocchio&#45;git&#45;&gt;boost -->
<g id="edge47" class="edge">
<title>hpp&#45;pinocchio&#45;git&#45;&gt;boost</title>
<path fill="none" stroke="#000000" d="M1148.4625,-377.4772C943.7503,-375.5209 403.8242,-366.3593 335.7832,-324 297.8466,-300.3824 241.0084,-129.7992 236.7832,-108 233.7386,-92.2923 225.8942,-83.723 236.7832,-72 260.4114,-46.5619 775.1141,-25.2474 926.3505,-19.5161"/>
<polygon fill="#000000" stroke="#000000" points="926.7383,-23.0041 936.5997,-19.1305 926.4751,-16.009 926.7383,-23.0041"/>
</g>
<!-- hpp&#45;pinocchio&#45;git&#45;&gt;romeo_description -->
<g id="edge40" class="edge">
<title>hpp&#45;pinocchio&#45;git&#45;&gt;romeo_description</title>
<path fill="none" stroke="#000000" d="M1149.6008,-375.2694C944.2251,-367.7879 387.5775,-346.0452 204.7832,-324 196.186,-322.9632 187.1961,-321.6133 178.3209,-320.1187"/>
<polygon fill="#000000" stroke="#000000" points="178.8298,-316.6546 168.3762,-318.3786 177.6233,-323.5499 178.8298,-316.6546"/>
</g>
<!-- hpp&#45;pinocchio&#45;git&#45;&gt;hpp&#45;model&#45;urdf -->
<g id="edge39" class="edge">
<title>hpp&#45;pinocchio&#45;git&#45;&gt;hpp&#45;model&#45;urdf</title>
<path fill="none" stroke="#000000" d="M1192.5189,-361.6621C1170.4724,-351.1498 1141.6589,-337.4109 1118.1746,-326.2132"/>
<polygon fill="#000000" stroke="#000000" points="1119.6654,-323.0465 1109.1325,-321.9017 1116.6525,-329.365 1119.6654,-323.0465"/>
</g>
<!-- hpp&#45;pinocchio&#45;git&#45;&gt;hpp&#45;model -->
<g id="edge38" class="edge">
<title>hpp&#45;pinocchio&#45;git&#45;&gt;hpp&#45;model</title>
<path fill="none" stroke="#000000" d="M1302.7117,-373.5993C1408.4763,-366.5964 1594.1105,-350.8869 1655.7832,-324 1678.6309,-314.0393 1677.6857,-301.2714 1698.7832,-288 1721.9717,-273.4132 1749.7604,-260.573 1772.6507,-251.077"/>
<polygon fill="#000000" stroke="#000000" points="1774.191,-254.2289 1782.1332,-247.2167 1771.5516,-247.7456 1774.191,-254.2289"/>
</g>
<!-- hpp&#45;pinocchio&#45;git&#45;&gt;pinocchio -->
<g id="edge48" class="edge">
<title>hpp&#45;pinocchio&#45;git&#45;&gt;pinocchio</title>
<path fill="none" stroke="#000000" d="M1303.9513,-375.2315C1458.0204,-369.1609 1798.6504,-352.8671 1911.7832,-324 1972.833,-308.4225 2038.5726,-275.6074 2077.6677,-254.2013"/>
<polygon fill="#000000" stroke="#000000" points="2079.4879,-257.1942 2086.5404,-249.2877 2076.0966,-251.0705 2079.4879,-257.1942"/>
</g>
<!-- hpp&#45;pinocchio&#45;git&#45;&gt;git -->
<g id="edge43" class="edge">
<title>hpp&#45;pinocchio&#45;git&#45;&gt;git</title>
<path fill="none" stroke="#000000" d="M1148.6464,-377.4393C887.4459,-375.1867 58.8342,-364.8372 19.7832,-324 -66.0198,-234.2725 153.4961,-136.2646 239.7463,-102.3512"/>
<polygon fill="#000000" stroke="#000000" points="241.0441,-105.6019 249.0995,-98.7199 238.5106,-99.0765 241.0441,-105.6019"/>
</g>
<!-- hpp&#45;pinocchio&#45;git&#45;&gt;hpp&#45;util&#45;git -->
<g id="edge50" class="edge">
<title>hpp&#45;pinocchio&#45;git&#45;&gt;hpp&#45;util&#45;git</title>
<path fill="none" stroke="#000000" d="M1149.3562,-375.5164C984.853,-369.7325 605.3198,-353.558 479.7832,-324 397.9184,-304.7247 351.5917,-321.8738 304.7832,-252 295.8782,-238.7071 296.9,-229.9232 304.7832,-216 314.1762,-199.4101 330.9241,-187.3609 347.4462,-178.912"/>
<polygon fill="#000000" stroke="#000000" points="349.025,-182.0369 356.5538,-174.5826 346.0197,-175.7149 349.025,-182.0369"/>
</g>
<!-- hpp&#45;pinocchio&#45;git&#45;&gt;assimp -->
<g id="edge49" class="edge">
<title>hpp&#45;pinocchio&#45;git&#45;&gt;assimp</title>
<path fill="none" stroke="#000000" d="M1287.9351,-366.6559C1413.7507,-342.7117 1692.0893,-286.3916 1718.7832,-252 1777.5284,-176.3144 1633.3979,-209.5794 1605.7832,-180 1590.409,-163.532 1585.2723,-138.1434 1583.773,-118.5249"/>
<polygon fill="#000000" stroke="#000000" points="1587.2579,-118.1293 1583.2724,-108.3127 1580.2663,-118.4721 1587.2579,-118.1293"/>
</g>
<!-- hpp&#45;pinocchio&#45;git&#45;&gt;doxygen -->
<g id="edge44" class="edge">
<title>hpp&#45;pinocchio&#45;git&#45;&gt;doxygen</title>
<path fill="none" stroke="#000000" d="M1149.613,-374.9134C970.2861,-367.3675 539.0229,-346.9189 517.7832,-324 485.1563,-288.7936 507.8188,-262.9543 517.7832,-216 519.9485,-205.7965 545.1237,-151.0805 560.973,-117.1936"/>
<polygon fill="#000000" stroke="#000000" points="564.2869,-118.3702 565.3629,-107.8301 557.9489,-115.3987 564.2869,-118.3702"/>
</g>
<!-- hpp&#45;pinocchio&#45;git&#45;&gt;ros&#45;build&#45;tools -->
<g id="edge45" class="edge">
<title>hpp&#45;pinocchio&#45;git&#45;&gt;ros&#45;build&#45;tools</title>
<path fill="none" stroke="#000000" d="M1226.7832,-359.7623C1226.7832,-335.201 1226.7832,-291.2474 1226.7832,-262.3541"/>
<polygon fill="#000000" stroke="#000000" points="1230.2833,-262.0896 1226.7832,-252.0896 1223.2833,-262.0897 1230.2833,-262.0896"/>
</g>
<!-- hpp&#45;pinocchio&#45;git&#45;&gt;cmake -->
<g id="edge42" class="edge">
<title>hpp&#45;pinocchio&#45;git&#45;&gt;cmake</title>
<path fill="none" stroke="#000000" d="M1151.4112,-373.1168C959.7106,-359.209 473.9562,-313.9121 550.7832,-216 716.8728,-4.3273 873.6274,-117.6457 1138.7832,-72 1318.7232,-41.0239 1536.0585,-25.8303 1628.1209,-20.4067"/>
<polygon fill="#000000" stroke="#000000" points="1628.4167,-23.8955 1638.1975,-19.8228 1628.0117,-16.9073 1628.4167,-23.8955"/>
</g>
<!-- hpp&#45;pinocchio&#45;git&#45;&gt;ros&#45;indigo&#45;catkin -->
<g id="edge46" class="edge">
<title>hpp&#45;pinocchio&#45;git&#45;&gt;ros&#45;indigo&#45;catkin</title>
<path fill="none" stroke="#000000" d="M1246.1571,-360.3428C1274.1124,-334.8645 1325.8833,-287.6809 1357.636,-258.7417"/>
<polygon fill="#000000" stroke="#000000" points="1360.2175,-261.1246 1365.2508,-251.8017 1355.5022,-255.9509 1360.2175,-261.1246"/>
</g>
<!-- hpp&#45;pinocchio&#45;git&#45;&gt;hpp_environments -->
<g id="edge41" class="edge">
<title>hpp&#45;pinocchio&#45;git&#45;&gt;hpp_environments</title>
<path fill="none" stroke="#000000" d="M1299.4004,-371.2416C1391.4238,-362.3013 1554.8022,-345.1737 1693.7832,-324 1701.7468,-322.7867 1710.0631,-321.3958 1718.3198,-319.9365"/>
<polygon fill="#000000" stroke="#000000" points="1719.1144,-323.3498 1728.3341,-318.1299 1717.8716,-316.461 1719.1144,-323.3498"/>
</g>
<!-- hpp&#45;pinocchio&#45;git&#45;&gt;hpp&#45;fcl -->
<g id="edge51" class="edge">
<title>hpp&#45;pinocchio&#45;git&#45;&gt;hpp&#45;fcl</title>
<path fill="none" stroke="#000000" d="M1304.9081,-377.3272C1469.6315,-375.0948 1840.6073,-365.4684 1878.7832,-324 1911.2934,-288.6859 1907.1082,-254.7517 1878.7832,-216 1847.6791,-173.4464 1815.4627,-197.6128 1765.7832,-180 1763.3785,-179.1475 1760.9115,-178.25 1758.4292,-177.3296"/>
<polygon fill="#000000" stroke="#000000" points="1759.4694,-173.981 1748.878,-173.712 1756.9899,-180.5272 1759.4694,-173.981"/>
</g>
<!-- hpp&#45;pinocchio&#45;git&#45;&gt;ros&#45;indigo&#45;resource&#45;retriever -->
<g id="edge52" class="edge">
<title>hpp&#45;pinocchio&#45;git&#45;&gt;ros&#45;indigo&#45;resource&#45;retriever</title>
<path fill="none" stroke="#000000" d="M1266.4073,-362.4527C1332.9262,-336.3526 1467.0423,-283.7294 1541.3082,-254.5896"/>
<polygon fill="#000000" stroke="#000000" points="1542.9073,-257.7221 1550.9379,-250.8112 1540.3504,-251.2057 1542.9073,-257.7221"/>
</g>
</g>
</svg>
